<svg xmlns="http://www.w3.org/2000/svg" viewBox="0 0 520 520"><rect width="520" height="520" fill="white"/><path d="M313.9 280.5 L319.5 282.6 L324.4 288.0 L328.2 298.7 L331.2 313.1 L334.6 325.8 L339.1 333.4 L343.7 340.3 L348.5 346.5 L353.4 351.9 L358.5 356.5 L363.8 360.4 L369.2 363.3 L374.8 365.4 L380.7 366.6 L386.6 367.4 L392.6 367.6 L398.7 367.5 L404.9 366.8 L411.2 365.8 L417.6 364.3 L424.1 362.4 L430.7 360.1 L437.3 357.4 L444.0 354.4 L450.8 351.1 L457.7 347.5 L464.6 343.5 L471.5 339.4 L478.6 335.0 L485.6 330.4 L492.7 325.5 L500.0 320.1 L500.0 320.1 L495.6 312.2 L491.0 304.9 L486.5 297.8 L481.9 290.9 L477.2 284.3 L472.5 277.9 L467.7 271.8 L462.8 266.0 L457.9 260.5 L452.9 255.4 L447.9 250.6 L442.7 246.2 L437.5 242.3 L432.2 238.7 L426.7 235.6 L421.2 233.0 L415.6 230.8 L409.9 229.0 L404.1 227.8 L398.1 227.4 L391.9 227.9 L385.5 229.2 L379.0 231.4 L372.3 234.4 L365.4 238.1 L358.4 242.5 L351.3 247.6 L343.0 257.8 L334.4 269.8 L326.5 278.0 L319.8 280.9 L313.9 280.5 L313.9 280.5 Z" fill="none" stroke="#7a1030" stroke-width="1.5"/><path d="M283.9 313.8 L285.0 319.9 L282.7 327.1 L275.1 335.9 L263.8 346.1 L254.2 355.6 L249.8 363.5 L246.0 371.1 L243.0 378.6 L240.6 385.8 L239.1 392.7 L238.4 399.3 L238.6 405.7 L239.7 411.8 L241.5 417.6 L243.9 423.3 L246.8 428.8 L250.1 434.1 L253.8 439.4 L258.0 444.4 L262.7 449.4 L267.7 454.2 L273.1 458.8 L278.9 463.4 L285.0 467.8 L291.5 472.2 L298.3 476.4 L305.3 480.5 L312.6 484.6 L320.1 488.6 L327.9 492.5 L335.9 496.3 L344.4 500.0 L349.1 492.0 L353.4 484.2 L357.3 476.5 L361.1 468.8 L364.6 461.3 L367.9 453.8 L370.8 446.4 L373.5 439.1 L375.9 431.9 L377.9 424.8 L379.5 417.8 L380.8 411.0 L381.6 404.3 L382.0 397.7 L382.0 391.3 L381.5 385.0 L380.6 378.9 L379.2 372.9 L377.3 367.1 L376.6 365.8 Z" fill="none" stroke="#7a1030" stroke-width="1.5"/><path d="M338.9 333.1 L332.5 330.2 L319.1 328.1 L304.0 326.6 L292.6 323.8 L286.6 319.4 L283.9 313.8 Z" fill="none" stroke="#7a1030" stroke-width="1.5"/><path d="M240.1 304.5 L235.2 308.6 L227.6 310.3 L215.7 308.1 L200.7 303.2 L187.2 299.5 L177.8 299.6 L169.0 300.2 L160.7 301.3 L153.1 303.0 L146.1 305.2 L139.8 308.0 L134.1 311.5 L129.2 315.6 L125.0 320.3 L121.1 325.4 L117.6 330.8 L114.6 336.5 L111.8 342.6 L109.4 349.0 L107.4 355.7 L105.7 362.7 L104.3 370.0 L103.2 377.5 L102.4 385.3 L101.9 393.4 L101.6 401.6 L101.5 410.1 L101.6 418.8 L102.0 427.6 L102.5 436.6 L103.2 445.8 L104.3 455.3 L113.9 455.4 L123.1 455.2 L132.1 454.7 L140.9 454.1 L149.5 453.4 L158.0 452.4 L166.2 451.2 L174.1 449.9 L181.8 448.2 L189.2 446.4 L196.3 444.2 L203.1 441.8 L209.5 439.1 L215.6 436.1 L221.4 432.7 L226.8 429.0 L231.8 425.0 L236.4 420.7 L240.7 415.9 L240.9 415.6 Z" fill="none" stroke="#7a1030" stroke-width="1.5"/><path d="M251.0 361.2 L250.6 356.6 L245.6 343.5 L239.1 329.1 L235.6 317.5 L236.5 309.8 L240.1 304.5 Z" fill="none" stroke="#7a1030" stroke-width="1.5"/><path d="M226.3 261.9 L220.0 259.6 L214.6 253.7 L210.3 241.8 L207.0 225.8 L203.3 211.7 L198.3 203.3 L193.2 195.7 L187.9 188.8 L182.5 182.8 L176.8 177.7 L171.0 173.4 L164.9 170.2 L158.7 167.9 L152.2 166.5 L145.7 165.7 L139.0 165.4 L132.2 165.6 L125.3 166.3 L118.3 167.4 L111.3 169.1 L104.1 171.2 L96.8 173.7 L89.4 176.7 L82.0 180.0 L74.5 183.7 L66.9 187.7 L59.2 192.1 L51.5 196.7 L43.7 201.6 L35.9 206.7 L28.0 212.1 L20.0 218.1 L24.9 226.8 L29.9 234.9 L35.0 242.8 L40.1 250.4 L45.2 257.8 L50.5 264.8 L55.8 271.6 L61.2 278.0 L66.6 284.1 L72.1 289.8 L77.7 295.1 L83.4 299.9 L89.3 304.3 L95.2 308.2 L101.2 311.7 L107.3 314.6 L113.5 317.1 L119.8 319.0 L125.1 320.1 Z" fill="none" stroke="#7a1030" stroke-width="1.5"/><path d="M183.3 299.5 L184.8 298.4 L194.0 287.1 L203.5 273.8 L212.2 264.7 L219.6 261.4 L226.3 261.9 Z" fill="none" stroke="#7a1030" stroke-width="1.5"/><path d="M256.2 228.6 L255.0 221.8 L257.6 213.8 L266.0 203.8 L278.8 192.5 L289.5 181.8 L294.5 173.0 L298.7 164.4 L302.1 156.1 L304.7 148.0 L306.4 140.3 L307.2 132.8 L307.0 125.7 L305.8 118.8 L303.7 112.3 L301.0 106.0 L297.8 99.8 L294.1 93.8 L289.9 87.9 L285.2 82.3 L280.0 76.7 L274.4 71.4 L268.3 66.1 L261.8 61.0 L255.0 56.1 L247.7 51.2 L240.1 46.5 L232.3 41.8 L224.1 37.3 L215.7 32.8 L207.0 28.4 L198.0 24.1 L188.4 20.0 L183.1 28.9 L178.4 37.7 L173.9 46.3 L169.7 54.9 L165.8 63.4 L162.2 71.8 L158.8 80.1 L155.8 88.3 L153.2 96.3 L150.9 104.3 L149.1 112.1 L147.7 119.7 L146.8 127.3 L146.3 134.6 L146.3 141.8 L146.8 148.8 L147.9 155.7 L149.5 162.4 L150.7 166.3 Z" fill="none" stroke="#7a1030" stroke-width="1.5"/><path d="M202.5 210.4 L216.7 212.6 L233.7 214.3 L246.4 217.4 L253.2 222.4 L256.2 228.6 Z" fill="none" stroke="#7a1030" stroke-width="1.5"/><path d="M300.0 238.0 L305.5 233.3 L314.1 231.4 L327.5 233.9 L344.3 239.5 L357.6 243.0 Z" fill="none" stroke="#7a1030" stroke-width="1.5"/><path d="M417.2 231.4 L419.3 230.1 L424.8 225.5 L429.6 220.2 L433.9 214.5 L437.8 208.4 L441.3 201.9 L444.4 195.1 L447.0 187.9 L449.3 180.4 L451.2 172.5 L452.8 164.3 L454.0 155.8 L454.9 147.0 L455.5 137.9 L455.9 128.6 L455.9 119.1 L455.8 109.4 L455.4 99.5 L454.9 89.3 L454.1 79.0 L452.8 68.3 L442.0 68.1 L431.6 68.4 L421.5 68.9 L411.6 69.6 L401.9 70.5 L392.4 71.5 L383.2 72.8 L374.3 74.4 L365.6 76.2 L357.3 78.3 L349.3 80.7 L341.7 83.5 L334.4 86.5 L327.6 89.9 L321.1 93.7 L315.0 97.8 L309.4 102.4 L304.1 107.3 L302.4 109.2 Z" fill="none" stroke="#7a1030" stroke-width="1.5"/><path d="M289.3 182.0 L293.9 194.0 L301.2 210.2 L305.0 223.3 L304.0 232.0 L300.0 238.0 Z" fill="none" stroke="#7a1030" stroke-width="1.5"/><circle cx="270.1" cy="271.2" r="44.8" fill="none" stroke="#7a1030" stroke-width="1.5"/></svg>