<svg xmlns="http://www.w3.org/2000/svg" viewBox="0 0 320 220">
<path d="M21.392 201.000 L22.014 194.650 L24.029 175.976 L26.043 159.941 L28.058 146.807 L30.072 136.353 L32.086 128.065 L34.101 121.517 L36.115 116.725 L38.129 113.296 L40.144 110.780 L42.158 109.786 L44.173 112.018 L46.187 119.592 L48.201 134.128 L50.216 156.036 L52.230 184.446 L53.227 201.000" />
<path d="M92.376 201.000 L92.518 197.814 L94.532 153.044 L96.547 114.115 L98.561 85.445 L100.576 68.598 L102.590 62.011 L104.604 62.995 L106.619 68.786 L108.633 77.033 L110.647 86.103 L112.662 95.342 L114.676 105.283 L116.691 117.694 L118.705 150.011 L120.719 174.642 L122.432 201.000" />
<path d="M143.170 201.000 L144.892 179.680 L146.906 161.176 L148.921 149.196 L150.935 142.580 L152.950 140.497 L154.964 141.140 L156.978 140.523 L158.993 134.971 L161.007 122.602 L163.022 103.781 L165.036 81.004 L167.050 58.444 L169.065 41.176 L171.079 33.890 L173.094 38.916 L175.108 55.993 L177.122 83.593 L179.137 118.985 L181.151 157.966 L183.165 195.755 L183.493 201.000" />
<path d="M200.955 201.000 L201.295 198.877 L203.309 175.411 L205.324 169.815 L207.338 165.949 L209.353 163.669 L211.367 163.119 L213.381 164.294 L215.396 167.029 L217.410 171.068 L219.424 176.513 L221.439 183.849 L223.453 193.483 L224.708 201.000" />
<path d="M253.756 201.000 L255.683 167.681 L257.698 137.561 L259.712 115.401 L261.727 103.108 L263.741 100.920 L265.755 107.511 L267.770 120.512 L269.784 137.408 L271.799 156.180 L273.813 175.255 L275.827 193.423 L276.757 201.000" />
<path d="M20.000 199.113 L22.014 180.874 L24.029 164.314 L26.043 150.094 L28.058 138.447 L30.072 129.176 L32.086 121.826 L34.101 116.019 L36.115 111.770 L38.129 108.729 L40.144 106.497 L42.158 105.616 L44.173 107.595 L46.187 114.312 L48.201 127.202 L50.216 146.631 L52.230 171.826 L54.170 200.391" />
<path d="M91.747 199.034 L92.518 183.681 L94.532 143.978 L96.547 109.455 L98.561 84.030 L100.056 72.941" />
<path d="M107.634 72.941 L108.633 76.570 L110.647 84.614 L112.662 92.807 L114.676 101.623 L116.691 112.629 L118.705 141.288 L120.719 163.132 L122.734 190.623 L123.435 201.000" />
<path d="M142.009 201.000 L142.878 189.721 L144.892 167.599 L146.906 151.190 L148.921 140.566 L150.935 134.699 L152.950 132.850 L154.964 133.421 L156.978 132.874 L158.993 127.951 L161.007 116.981 L163.022 100.290 L165.036 80.092 L165.756 72.941" />
<path d="M176.345 72.941 L177.122 82.388 L179.137 113.774 L181.151 148.343 L183.165 181.854 L184.364 198.875" />
<path d="M198.536 201.000 L199.281 195.792 L201.295 184.623 L203.309 163.813 L205.324 158.850 L207.338 155.422 L209.353 153.400 L211.367 152.913 L213.381 153.954 L215.396 156.380 L217.410 159.962 L219.424 164.791 L221.439 171.296 L223.453 179.840 L225.468 190.544 L227.123 201.000" />
<path d="M252.829 201.000 L253.669 187.831 L255.683 156.958 L257.698 130.247 L259.712 110.595 L261.727 99.693 L263.741 97.753 L265.755 103.599 L267.770 115.128 L269.784 130.112 L271.799 146.759 L273.813 163.675 L275.827 179.787 L277.842 194.344 L278.905 201.000" />
<path d="M20.000 184.370 L22.014 168.263 L24.029 153.637 L26.043 141.079 L28.058 130.793 L30.072 122.605 L32.086 116.114 L34.101 110.986 L36.115 107.233 L38.129 104.547 L40.144 102.576 L42.158 101.798 L44.173 103.546 L46.187 109.478 L48.201 120.862 L50.216 138.020 L52.230 160.271 L54.245 186.463 L55.271 201.000" />
<path d="M91.078 196.064 L92.518 170.741 L94.532 135.677 L96.547 105.188 L98.561 82.734 L99.728 75.093" />
<path d="M107.989 74.079 L108.633 76.146 L110.647 83.250 L112.662 90.485 L114.676 98.271 L116.691 107.991 L118.705 133.302 L120.719 152.593 L122.734 176.872 L124.470 199.568" />
<path d="M140.710 201.000 L140.863 199.173 L142.878 176.076 L144.892 156.539 L146.906 142.047 L148.921 132.664 L150.935 127.482 L152.950 125.850 L154.964 126.354 L156.978 125.871 L158.993 121.523 L161.007 111.835 L163.022 97.095 L165.036 79.256 L165.459 75.546" />
<path d="M176.657 76.290 L177.122 81.284 L179.137 109.002 L181.151 139.532 L183.165 169.128 L185.180 194.393 L185.907 201.000" />
<path d="M196.168 201.000 L197.266 193.874 L199.281 181.437 L201.295 171.573 L203.309 153.195 L205.324 148.812 L207.338 145.785 L209.353 143.999 L211.367 143.568 L213.381 144.488 L215.396 146.631 L217.410 149.793 L219.424 154.058 L221.439 159.804 L223.453 167.349 L225.468 176.802 L227.482 188.039 L229.496 200.736 L229.535 201.000" />
<path d="M251.832 199.844 L253.669 174.407 L255.683 147.141 L257.698 123.551 L259.712 106.196 L261.727 96.568 L263.741 94.854 L265.755 100.016 L267.770 110.198 L269.784 123.431 L271.799 138.134 L273.813 153.073 L275.827 167.302 L277.842 180.158 L279.856 191.299 L281.871 200.730 L281.938 201.000" />
<path d="M20.000 170.947 L22.014 156.780 L24.029 143.916 L26.043 132.871 L28.058 123.823 L30.072 116.622 L32.086 110.913 L34.101 106.403 L36.115 103.102 L38.129 100.740 L40.144 99.006 L42.158 98.322 L44.173 99.859 L46.187 105.077 L48.201 115.089 L50.216 130.180 L52.230 149.751 L54.245 172.787 L56.259 197.872 L56.508 201.000" />
<path d="M89.712 201.000 L90.504 190.110 L92.518 158.960 L94.532 128.120 L96.547 101.304 L98.561 81.555 L99.500 76.145" />
<path d="M108.170 74.454 L108.633 75.760 L110.647 82.008 L112.662 88.372 L114.676 95.220 L116.691 103.769 L118.705 126.031 L120.719 142.998 L122.734 164.352 L124.748 187.510 L125.982 201.000" />
<path d="M139.271 200.617 L140.863 183.966 L142.878 163.651 L144.892 146.468 L146.906 133.722 L148.921 125.469 L150.935 120.912 L152.950 119.476 L154.964 119.920 L156.978 119.495 L158.993 115.671 L161.007 107.150 L163.022 94.185 L165.036 78.496 L165.327 76.253" />
<path d="M176.800 77.236 L177.122 80.279 L179.137 104.658 L181.151 131.510 L183.165 157.541 L185.180 179.763 L187.194 195.852 L188.392 201.000" />
<path d="M193.016 201.000 L193.237 200.425 L195.252 190.800 L197.266 179.306 L199.281 168.367 L201.295 159.691 L203.309 143.527 L205.324 139.672 L207.338 137.010 L209.353 135.439 L211.367 135.060 L213.381 135.869 L215.396 137.754 L217.410 140.535 L219.424 144.286 L221.439 149.340 L223.453 155.976 L225.468 164.291 L227.482 174.174 L229.496 185.341 L231.511 197.362 L232.106 201.000" />
<path d="M250.380 201.000 L251.655 186.710 L253.669 162.183 L255.683 138.202 L257.698 117.454 L259.712 102.190 L261.727 93.721 L263.741 92.214 L265.755 96.755 L267.770 105.710 L269.784 117.349 L271.799 130.280 L273.813 143.420 L275.827 155.935 L277.842 167.242 L279.856 177.041 L281.871 185.336 L283.885 192.422 L285.899 198.792 L286.622 201.000" />
<path d="M20.000 158.801 L22.014 146.390 L24.029 135.120 L26.043 125.444 L28.058 117.518 L30.072 111.209 L32.086 106.207 L34.101 102.256 L36.115 99.364 L38.129 97.295 L40.144 95.776 L42.158 95.176 L44.173 96.523 L46.187 101.094 L48.201 109.866 L50.216 123.087 L52.230 140.232 L54.245 160.413 L56.259 182.389 L57.897 200.416" />
<path d="M88.365 201.000 L88.489 199.861 L90.504 175.589 L92.518 148.299 L94.532 121.282 L96.547 97.789 L98.561 80.487 L99.332 76.597" />
<path d="M108.281 74.540 L108.633 75.410 L110.647 80.884 L112.662 86.460 L114.676 92.459 L116.691 99.948 L118.705 119.451 L120.719 134.316 L122.734 153.024 L124.748 173.312 L126.763 192.613 L127.828 201.000" />
<path d="M137.338 201.000 L138.849 188.658 L140.863 170.207 L142.878 152.410 L144.892 137.356 L146.906 126.189 L148.921 118.960 L150.935 114.967 L152.950 113.709 L154.964 114.098 L156.978 113.726 L158.993 110.375 L161.007 102.910 L163.022 91.552 L165.036 77.807 L165.251 76.351" />
<path d="M176.882 77.384 L177.122 79.370 L179.137 100.728 L181.151 124.252 L183.165 147.057 L185.180 166.524 L187.194 180.620 L189.209 188.208 L191.223 189.222 L193.237 184.626 L195.252 176.194 L197.266 166.124 L199.281 156.541 L201.295 148.941 L203.309 134.780 L205.324 131.402 L207.338 129.070 L209.353 127.693 L211.367 127.362 L213.381 128.070 L215.396 129.722 L217.410 132.159 L219.424 135.445 L221.439 139.872 L223.453 145.686 L225.468 152.970 L227.482 161.628 L229.496 171.412 L231.511 181.943 L233.525 192.727 L235.123 201.000" />
<path d="M248.562 201.000 L249.640 192.393 L251.655 172.610 L253.669 151.124 L255.683 130.115 L257.698 111.938 L259.712 98.565 L261.727 91.146 L263.741 89.826 L265.755 93.804 L267.770 101.649 L269.784 111.846 L271.799 123.174 L273.813 134.686 L275.827 145.650 L277.842 155.556 L279.856 164.140 L281.871 171.407 L283.885 177.615 L285.899 183.196 L287.914 188.588 L289.928 193.959 L291.942 198.860 L293.166 201.000" />
<path d="M299.438 201.000 L300.000 200.186" />
<path d="M20.000 147.890 L22.014 137.056 L24.029 127.218 L26.043 118.772 L28.058 111.853 L30.072 106.346 L32.086 101.980 L34.101 98.530 L36.115 96.006 L38.129 94.200 L40.144 92.874 L42.158 92.351 L44.173 93.526 L46.187 97.516 L48.201 105.173 L50.216 116.714 L52.230 131.680 L54.245 149.297 L56.259 168.480 L58.273 187.827 L59.747 201.000" />
<path d="M86.238 201.000 L86.475 199.831 L88.489 183.731 L90.504 162.544 L92.518 138.723 L94.532 115.138 L96.547 94.631 L98.561 79.528 L99.202 76.705" />
<path d="M108.356 74.499 L108.633 75.097 L110.647 79.875 L112.662 84.742 L114.676 89.978 L116.691 96.516 L118.705 113.541 L120.719 126.516 L122.734 142.847 L124.748 160.556 L126.763 177.404 L128.777 191.249 L130.791 200.181 L131.420 201.000" />
<path d="M133.665 201.000 L134.820 198.573 L136.835 188.317 L138.849 173.952 L140.863 157.846 L142.878 142.311 L144.892 129.170 L146.906 119.422 L148.921 113.111 L150.935 109.626 L152.950 108.528 L154.964 108.867 L156.978 108.543 L158.993 105.618 L161.007 99.102 L163.022 89.187 L165.036 77.189 L165.203 76.206" />
<path d="M176.936 77.209 L177.122 78.553 L179.137 97.196 L181.151 117.731 L183.165 137.638 L185.180 154.632 L187.194 166.936 L189.209 173.559 L191.223 174.444 L193.237 170.432 L195.252 163.072 L197.266 154.282 L199.281 145.917 L201.295 139.282 L203.309 126.921 L205.324 123.973 L207.338 121.937 L209.353 120.735 L211.367 120.446 L213.381 121.064 L215.396 122.506 L217.410 124.633 L219.424 127.502 L221.439 131.366 L223.453 136.441 L225.468 142.799 L227.482 150.358 L229.496 158.898 L231.511 168.090 L233.525 177.504 L235.540 186.606 L237.554 194.747 L239.518 201.000" />
<path d="M245.482 201.000 L245.612 200.715 L247.626 191.243 L249.640 177.212 L251.655 159.944 L253.669 141.188 L255.683 122.849 L257.698 106.982 L259.712 95.309 L261.727 88.833 L263.741 87.680 L265.755 91.152 L267.770 98.001 L269.784 106.901 L271.799 116.791 L273.813 126.839 L275.827 136.410 L277.842 145.057 L279.856 152.550 L281.871 158.894 L283.885 164.313 L285.899 169.184 L287.914 173.891 L289.928 178.580 L291.942 182.858 L293.957 185.932 L295.971 187.223 L297.986 186.563 L300.000 184.015" />
<path d="M20.000 138.168 L22.014 128.739 L24.029 120.178 L26.043 112.827 L28.058 106.805 L30.072 102.013 L32.086 98.213 L34.101 95.211 L36.115 93.014 L38.129 91.442 L40.144 90.288 L42.158 89.833 L44.173 90.856 L46.187 94.329 L48.201 100.992 L50.216 111.036 L52.230 124.061 L54.245 139.393 L56.259 156.087 L58.273 172.924 L60.288 188.597 L62.184 201.000" />
<path d="M76.496 201.000 L78.417 199.395 L80.432 198.236 L82.446 196.368 L84.460 192.035 L86.475 183.371 L88.489 169.360 L90.504 150.921 L92.518 130.190 L94.532 109.665 L96.547 91.817 L98.561 78.674 L99.098 76.616" />
<path d="M108.410 74.399 L108.633 74.817 L110.647 78.975 L112.662 83.211 L114.676 87.768 L116.691 93.458 L118.705 108.274 L120.719 119.567 L122.734 133.779 L124.748 149.191 L126.763 163.854 L128.777 175.902 L130.791 183.676 L132.806 185.958 L134.820 182.277 L136.835 173.351 L138.849 160.849 L140.863 146.833 L142.878 133.312 L144.892 121.876 L146.906 113.393 L148.921 107.901 L150.935 104.868 L152.950 103.912 L154.964 104.207 L156.978 103.924 L158.993 101.379 L161.007 95.708 L163.022 87.080 L165.036 76.638 L165.168 75.960" />
<path d="M176.974 76.895 L177.122 77.825 L179.137 94.050 L181.151 111.921 L183.165 129.245 L185.180 144.035 L187.194 154.743 L189.209 160.508 L191.223 161.278 L193.237 157.786 L195.252 151.381 L197.266 143.731 L199.281 136.451 L201.295 130.677 L203.309 119.919 L205.324 117.353 L207.338 115.581 L209.353 114.536 L211.367 114.284 L213.381 114.822 L215.396 116.076 L217.410 117.928 L219.424 120.424 L221.439 123.787 L223.453 128.204 L225.468 133.738 L227.482 140.315 L229.496 147.748 L231.511 155.748 L233.525 163.941 L235.540 171.862 L237.554 178.947 L239.568 184.527 L241.583 187.849 L243.597 188.006 L245.612 184.141 L247.626 175.898 L249.640 163.687 L251.655 148.658 L253.669 132.335 L255.683 116.375 L257.698 102.566 L259.712 92.407 L261.727 86.771 L263.741 85.768 L265.755 88.790 L267.770 94.750 L269.784 102.496 L271.799 111.103 L273.813 119.847 L275.827 128.177 L277.842 135.702 L279.856 142.223 L281.871 147.744 L283.885 152.460 L285.899 156.700 L287.914 160.796 L289.928 164.877 L291.942 168.600 L293.957 171.276 L295.971 172.398 L297.986 171.824 L300.000 169.607" />
<path d="M20.000 129.588 L22.014 121.400 L24.029 113.965 L26.043 107.581 L28.058 102.351 L30.072 98.189 L32.086 94.889 L34.101 92.282 L36.115 90.374 L38.129 89.009 L40.144 88.007 L42.158 87.611 L44.173 88.500 L46.187 91.515 L48.201 97.303 L50.216 106.025 L52.230 117.337 L54.245 130.652 L56.259 145.151 L58.273 159.773 L60.288 173.384 L62.302 184.826 L64.317 192.864 L66.331 196.557 L68.345 196.317 L70.360 193.610 L72.374 189.995 L74.388 186.655 L76.403 184.224 L78.417 182.762 L80.432 181.756 L82.446 180.133 L84.460 176.370 L86.475 168.846 L88.489 156.678 L90.504 140.664 L92.518 122.660 L94.532 104.834 L96.547 89.335 L98.561 77.920 L99.012 76.418" />
<path d="M108.452 74.275 L108.633 74.570 L110.647 78.182 L112.662 81.860 L114.676 85.818 L116.691 90.760 L118.705 103.627 L120.719 113.434 L122.734 125.777 L124.748 139.162 L126.763 151.896 L128.777 162.360 L130.791 169.111 L132.806 171.093 L134.820 167.896 L136.835 160.144 L138.849 149.286 L140.863 137.114 L142.878 125.372 L144.892 115.440 L146.906 108.072 L148.921 103.302 L150.935 100.668 L152.950 99.839 L154.964 100.095 L156.978 99.849 L158.993 97.639 L161.007 92.714 L163.022 85.220 L165.036 76.152 L165.142 75.677" />
<path d="M177.003 76.531 L177.122 77.182 L179.137 91.274 L181.151 106.794 L183.165 121.840 L185.180 134.684 L187.194 143.983 L189.209 148.990 L191.223 149.659 L193.237 146.626 L195.252 141.063 L197.266 134.420 L199.281 128.097 L201.295 123.083 L203.309 113.740 L205.324 111.512 L207.338 109.973 L209.353 109.065 L211.367 108.846 L213.381 109.313 L215.396 110.403 L217.410 112.011 L219.424 114.179 L221.439 117.099 L223.453 120.935 L225.468 125.741 L227.482 131.454 L229.496 137.908 L231.511 144.856 L233.525 151.972 L235.540 158.850 L237.554 165.004 L239.568 169.850 L241.583 172.735 L243.597 172.872 L245.612 169.514 L247.626 162.356 L249.640 151.751 L251.655 138.699 L253.669 124.523 L255.683 110.662 L257.698 98.670 L259.712 89.847 L261.727 84.952 L263.741 84.081 L265.755 86.705 L267.770 91.882 L269.784 98.609 L271.799 106.083 L273.813 113.678 L275.827 120.911 L277.842 127.447 L279.856 133.111 L281.871 137.905 L283.885 142.001 L285.899 145.683 L287.914 149.240 L289.928 152.784 L291.942 156.018 L293.957 158.341 L295.971 159.317 L297.986 158.818 L300.000 156.892" />
<path d="M20.000 122.103 L22.014 114.996 L24.029 108.544 L26.043 103.003 L28.058 98.465 L30.072 94.853 L32.086 91.989 L34.101 89.726 L36.115 88.070 L38.129 86.886 L40.144 86.016 L42.158 85.673 L44.173 86.444 L46.187 89.061 L48.201 94.084 L50.216 101.654 L52.230 111.471 L54.245 123.026 L56.259 135.609 L58.273 148.299 L60.288 160.112 L62.302 170.041 L64.317 177.018 L66.331 180.223 L68.345 180.014 L70.360 177.665 L72.374 174.528 L74.388 171.628 L76.403 169.519 L78.417 168.251 L80.432 167.377 L82.446 165.969 L84.460 162.703 L86.475 156.173 L88.489 145.613 L90.504 131.715 L92.518 116.090 L94.532 100.620 L96.547 87.168 L98.561 77.262 L98.940 76.168" />
<path d="M108.485 74.146 L108.633 74.355 L110.647 77.489 L112.662 80.682 L114.676 84.117 L116.691 88.405 L118.705 99.572 L120.719 108.083 L122.734 118.795 L124.748 130.411 L126.763 141.463 L128.777 150.544 L130.791 156.403 L132.806 158.123 L134.820 155.348 L136.835 148.621 L138.849 139.198 L140.863 128.634 L142.878 118.443 L144.892 109.824 L146.906 103.430 L148.921 99.291 L150.935 97.004 L152.950 96.284 L154.964 96.507 L156.978 96.294 L158.993 94.375 L161.007 90.101 L163.022 83.598 L165.036 75.727 L165.122 75.394" />
<path d="M177.025 76.163 L177.122 76.622 L179.137 88.851 L181.151 102.321 L183.165 115.378 L185.180 126.525 L187.194 134.596 L189.209 138.941 L191.223 139.521 L193.237 136.890 L195.252 132.062 L197.266 126.296 L199.281 120.809 L201.295 116.457 L203.309 108.349 L205.324 106.415 L207.338 105.079 L209.353 104.291 L211.367 104.101 L213.381 104.507 L215.396 105.453 L217.410 106.848 L219.424 108.730 L221.439 111.264 L223.453 114.593 L225.468 118.764 L227.482 123.722 L229.496 129.324 L231.511 135.353 L233.525 141.528 L235.540 147.498 L237.554 152.838 L239.568 157.045 L241.583 159.548 L243.597 159.667 L245.612 156.753 L247.626 150.540 L249.640 141.337 L251.655 130.010 L253.669 117.707 L255.683 105.678 L257.698 95.270 L259.712 87.613 L261.727 83.365 L263.741 82.609 L265.755 84.887 L267.770 89.379 L269.784 95.217 L271.799 101.704 L273.813 108.295 L275.827 114.573 L277.842 120.245 L279.856 125.160 L281.871 129.321 L283.885 132.875 L285.899 136.071 L287.914 139.158 L289.928 142.234 L291.942 145.040 L293.957 147.057 L295.971 147.903 L297.986 147.470 L300.000 145.799" />
<path d="M20.000 115.661 L22.014 109.485 L24.029 103.878 L26.043 99.064 L28.058 95.120 L30.072 91.981 L32.086 89.493 L34.101 87.527 L36.115 86.088 L38.129 85.058 L40.144 84.303 L42.158 84.004 L44.173 84.674 L46.187 86.949 L48.201 91.313 L50.216 97.891 L52.230 106.422 L54.245 116.463 L56.259 127.397 L58.273 138.424 L60.288 148.689 L62.302 157.317 L64.317 163.379 L66.331 166.164 L68.345 165.983 L70.360 163.941 L72.374 161.216 L74.388 158.696 L76.403 156.863 L78.417 155.761 L80.432 155.002 L82.446 153.778 L84.460 150.940 L86.475 145.266 L88.489 136.090 L90.504 124.013 L92.518 110.436 L94.532 96.993 L96.547 85.304 L98.561 76.696 L98.878 75.901" />
<path d="M108.512 74.021 L108.633 74.170 L110.647 76.893 L112.662 79.667 L114.676 82.652 L116.691 86.379 L118.705 96.082 L120.719 103.478 L122.734 112.786 L124.748 122.880 L126.763 132.484 L128.777 140.375 L130.791 145.466 L132.806 146.961 L134.820 144.550 L136.835 138.703 L138.849 130.516 L140.863 121.336 L142.878 112.481 L144.892 104.991 L146.906 99.435 L148.921 95.838 L150.935 93.851 L152.950 93.225 L154.964 93.419 L156.978 93.233 L158.993 91.566 L161.007 87.852 L163.022 82.201 L165.036 75.362 L165.106 75.127" />
<path d="M177.044 75.816 L177.122 76.140 L179.137 86.766 L181.151 98.471 L183.165 109.817 L185.180 119.503 L187.194 126.516 L189.209 130.292 L191.223 130.796 L193.237 128.510 L195.252 124.314 L197.266 119.304 L199.281 114.536 L201.295 110.755 L203.309 103.709 L205.324 102.028 L207.338 100.868 L209.353 100.183 L211.367 100.018 L213.381 100.371 L215.396 101.192 L217.410 102.405 L219.424 104.040 L221.439 106.242 L223.453 109.135 L225.468 112.759 L227.482 117.067 L229.496 121.935 L231.511 127.175 L233.525 132.541 L235.540 137.728 L237.554 142.368 L239.568 146.023 L241.583 148.199 L243.597 148.302 L245.612 145.770 L247.626 140.371 L249.640 132.374 L251.655 122.531 L253.669 111.841 L255.683 101.388 L257.698 92.344 L259.712 85.690 L261.727 81.999 L263.741 81.342 L265.755 83.321 L267.770 87.225 L269.784 92.298 L271.799 97.935 L273.813 103.662 L275.827 109.117 L277.842 114.046 L279.856 118.317 L281.871 121.933 L283.885 125.021 L285.899 127.798 L287.914 130.481 L289.928 133.154 L291.942 135.592 L293.957 137.344 L295.971 138.080 L297.986 137.704 L300.000 136.251" />
<path d="M20.000 110.208 L22.014 104.821 L24.029 99.929 L26.043 95.729 L28.058 92.289 L30.072 89.551 L32.086 87.380 L34.101 85.665 L36.115 84.410 L38.129 83.512 L40.144 82.852 L42.158 82.592 L44.173 83.177 L46.187 85.161 L48.201 88.968 L50.216 94.706 L52.230 102.148 L54.245 110.908 L56.259 120.446 L58.273 130.066 L60.288 139.020 L62.302 146.547 L64.317 151.836 L66.331 154.265 L68.345 154.107 L70.360 152.326 L72.374 149.948 L74.388 147.750 L76.403 146.151 L78.417 145.190 L80.432 144.528 L82.446 143.460 L84.460 140.984 L86.475 136.034 L88.489 128.029 L90.504 117.494 L92.518 105.650 L94.532 93.923 L96.547 83.726 L98.561 76.216 L98.823 75.642" />
<path d="M108.535 73.908 L108.633 74.013 L110.647 76.389 L112.662 78.809 L114.676 81.413 L116.691 84.663 L118.705 93.128 L120.719 99.580 L122.734 107.700 L124.748 116.506 L126.763 124.883 L128.777 131.767 L130.791 136.209 L132.806 137.513 L134.820 135.409 L136.835 130.309 L138.849 123.167 L140.863 115.158 L142.878 107.434 L144.892 100.900 L146.906 96.053 L148.921 92.915 L150.935 91.182 L152.950 90.636 L154.964 90.805 L156.978 90.643 L158.993 89.189 L161.007 85.949 L163.022 81.019 L165.036 75.053 L165.093 74.887" />
<path d="M177.059 75.503 L177.122 75.731 L179.137 85.002 L181.151 95.212 L183.165 105.110 L185.180 113.560 L187.194 119.678 L189.209 122.972 L191.223 123.411 L193.237 121.417 L195.252 117.757 L197.266 113.386 L199.281 109.227 L201.295 105.928 L203.309 99.781 L205.324 98.316 L207.338 97.303 L209.353 96.706 L211.367 96.562 L213.381 96.869 L215.396 97.586 L217.410 98.644 L219.424 100.070 L221.439 101.992 L223.453 104.515 L225.468 107.677 L227.482 111.435 L229.496 115.681 L231.511 120.252 L233.525 124.933 L235.540 129.459 L237.554 133.507 L239.568 136.695 L241.583 138.593 L243.597 138.683 L245.612 136.474 L247.626 131.764 L249.640 124.788 L251.655 116.202 L253.669 106.876 L255.683 97.757 L257.698 89.867 L259.712 84.063 L261.727 80.843 L263.741 80.270 L265.755 81.996 L267.770 85.402 L269.784 89.827 L271.799 94.744 L273.813 99.741 L275.827 104.500 L277.842 108.799 L279.856 112.525 L281.871 115.679 L283.885 118.374 L285.899 120.796 L287.914 123.136 L289.928 125.468 L291.942 127.595 L293.957 129.124 L295.971 129.765 L297.986 129.437 L300.000 128.170" />
<path d="M20.000 105.688 L22.014 100.954 L24.029 96.656 L26.043 92.966 L28.058 89.942 L30.072 87.536 L32.086 85.629 L34.101 84.122 L36.115 83.019 L38.129 82.229 L40.144 81.650 L42.158 81.422 L44.173 81.935 L46.187 83.679 L48.201 87.024 L50.216 92.067 L52.230 98.606 L54.245 106.303 L56.259 114.684 L58.273 123.137 L60.288 131.005 L62.302 137.619 L64.317 142.267 L66.331 144.401 L68.345 144.263 L70.360 142.697 L72.374 140.608 L74.388 138.677 L76.403 137.271 L78.417 136.427 L80.432 135.845 L82.446 134.907 L84.460 132.731 L86.475 128.382 L88.489 121.348 L90.504 112.091 L92.518 101.682 L94.532 91.378 L96.547 82.418 L98.561 75.819 L98.775 75.407" />
<path d="M108.554 73.809 L108.633 73.883 L110.647 75.971 L112.662 78.097 L114.676 80.385 L116.691 83.242 L118.705 90.680 L120.719 96.349 L122.734 103.484 L124.748 111.222 L126.763 118.583 L128.777 124.632 L130.791 128.535 L132.806 129.681 L134.820 127.833 L136.835 123.351 L138.849 117.075 L140.863 110.038 L142.878 103.250 L144.892 97.509 L146.906 93.250 L148.921 90.492 L150.935 88.970 L152.950 88.490 L154.964 88.638 L156.978 88.496 L158.993 87.218 L161.007 84.371 L163.022 80.039 L165.036 74.797 L165.081 74.681" />
<path d="M177.071 75.232 L177.122 75.393 L179.137 83.539 L181.151 92.511 L183.165 101.208 L185.180 108.633 L187.194 114.009 L189.209 116.903 L191.223 117.290 L193.237 115.537 L195.252 112.321 L197.266 108.481 L199.281 104.826 L201.295 101.927 L203.309 96.526 L205.324 95.238 L207.338 94.348 L209.353 93.823 L211.367 93.697 L213.381 93.967 L215.396 94.597 L217.410 95.526 L219.424 96.780 L221.439 98.468 L223.453 100.686 L225.468 103.464 L227.482 106.766 L229.496 110.497 L231.511 114.514 L233.525 118.627 L235.540 122.604 L237.554 126.161 L239.568 128.962 L241.583 130.630 L243.597 130.709 L245.612 128.768 L247.626 124.630 L249.640 118.500 L251.655 110.955 L253.669 102.760 L255.683 94.747 L257.698 87.814 L259.712 82.714 L261.727 79.884 L263.741 79.381 L265.755 80.898 L267.770 83.890 L269.784 87.779 L271.799 92.100 L273.813 96.490 L275.827 100.672 L277.842 104.450 L279.856 107.724 L281.871 110.496 L283.885 112.863 L285.899 114.992 L287.914 117.048 L289.928 119.097 L291.942 120.966 L293.957 122.309 L295.971 122.873 L297.986 122.585 L300.000 121.472" />
<path d="M20.000 102.040 L22.014 97.834 L24.029 94.015 L26.043 90.735 L28.058 88.049 L30.072 85.911 L32.086 84.216 L34.101 82.876 L36.115 81.896 L38.129 81.195 L40.144 80.680 L42.158 80.477 L44.173 80.933 L46.187 82.483 L48.201 85.456 L50.216 89.936 L52.230 95.747 L54.245 102.587 L56.259 110.035 L58.273 117.546 L60.288 124.538 L62.302 130.415 L64.317 134.545 L66.331 136.442 L68.345 136.318 L70.360 134.928 L72.374 133.071 L74.388 131.355 L76.403 130.106 L78.417 129.355 L80.432 128.838 L82.446 128.005 L84.460 126.072 L86.475 122.207 L88.489 115.956 L90.504 107.730 L92.518 98.481 L94.532 89.324 L96.547 81.362 L98.561 75.499 L98.732 75.206" />
<path d="M108.571 73.726 L108.633 73.778 L110.647 75.633 L112.662 77.523 L114.676 79.556 L116.691 82.094 L118.705 88.704 L120.719 93.742 L122.734 100.082 L124.748 106.958 L126.763 113.500 L128.777 118.875 L130.791 122.343 L132.806 123.361 L134.820 121.718 L136.835 117.736 L138.849 112.159 L140.863 105.906 L142.878 99.874 L144.892 94.772 L146.906 90.988 L148.921 88.537 L150.935 87.184 L152.950 86.758 L154.964 86.890 L156.978 86.764 L158.993 85.628 L161.007 83.098 L163.022 79.249 L165.036 74.590 L165.071 74.509" />
<path d="M177.082 75.008 L177.122 75.120 L179.137 82.358 L181.151 90.331 L183.165 98.060 L185.180 104.658 L187.194 109.435 L189.209 112.007 L191.223 112.350 L193.237 110.793 L195.252 107.935 L197.266 104.522 L199.281 101.274 L201.295 98.698 L203.309 93.899 L205.324 92.754 L207.338 91.964 L209.353 91.497 L211.367 91.385 L213.381 91.625 L215.396 92.185 L217.410 93.011 L219.424 94.124 L221.439 95.625 L223.453 97.595 L225.468 100.064 L227.482 102.998 L229.496 106.314 L231.511 109.883 L233.525 113.538 L235.540 117.072 L237.554 120.233 L239.568 122.722 L241.583 124.204 L243.597 124.274 L245.612 122.550 L247.626 118.873 L249.640 113.425 L251.655 106.720 L253.669 99.438 L255.683 92.318 L257.698 86.158 L259.712 81.625 L261.727 79.111 L263.741 78.664 L265.755 80.012 L267.770 82.671 L269.784 86.126 L271.799 89.966 L273.813 93.867 L275.827 97.583 L277.842 100.940 L279.856 103.850 L281.871 106.313 L283.885 108.417 L285.899 110.308 L287.914 112.135 L289.928 113.956 L291.942 115.617 L293.957 116.811 L295.971 117.311 L297.986 117.055 L300.000 116.066" />
<path d="M20.000 99.200 L22.014 95.405 L24.029 91.958 L26.043 88.999 L28.058 86.574 L30.072 84.645 L32.086 83.115 L34.101 81.907 L36.115 81.022 L38.129 80.389 L40.144 79.925 L42.158 79.742 L44.173 80.153 L46.187 81.551 L48.201 84.234 L50.216 88.278 L52.230 93.521 L54.245 99.694 L56.259 106.415 L58.273 113.193 L60.288 119.502 L62.302 124.806 L64.317 128.533 L66.331 130.244 L68.345 130.133 L70.360 128.878 L72.374 127.203 L74.388 125.654 L76.403 124.527 L78.417 123.850 L80.432 123.383 L82.446 122.631 L84.460 120.886 L86.475 117.399 L88.489 111.758 L90.504 104.335 L92.518 95.989 L94.532 87.725 L96.547 80.541 L98.561 75.249 L98.694 75.044" />
<path d="M108.586 73.661 L108.633 73.696 L110.647 75.371 L112.662 77.076 L114.676 78.910 L116.691 81.201 L118.705 87.166 L120.719 91.712 L122.734 97.434 L124.748 103.638 L126.763 109.541 L128.777 114.392 L130.791 117.521 L132.806 118.440 L134.820 116.958 L136.835 113.365 L138.849 108.332 L140.863 102.689 L142.878 97.246 L144.892 92.642 L146.906 89.226 L148.921 87.015 L150.935 85.794 L152.950 85.410 L154.964 85.528 L156.978 85.415 L158.993 84.390 L161.007 82.107 L163.022 78.633 L165.036 74.429 L165.063 74.373" />
<path d="M177.092 74.830 L177.122 74.907 L179.137 81.439 L181.151 88.634 L183.165 95.608 L185.180 101.563 L187.194 105.873 L189.209 108.194 L191.223 108.504 L193.237 107.099 L195.252 104.520 L197.266 101.440 L199.281 98.509 L201.295 96.185 L203.309 91.854 L205.324 90.821 L207.338 90.107 L209.353 89.687 L211.367 89.585 L213.381 89.802 L215.396 90.307 L217.410 91.052 L219.424 92.057 L221.439 93.411 L223.453 95.189 L225.468 97.417 L227.482 100.065 L229.496 103.057 L231.511 106.278 L233.525 109.576 L235.540 112.765 L237.554 115.617 L239.568 117.864 L241.583 119.201 L243.597 119.265 L245.612 117.709 L247.626 114.390 L249.640 109.474 L251.655 103.424 L253.669 96.852 L255.683 90.427 L257.698 84.868 L259.712 80.778 L261.727 78.509 L263.741 78.105 L265.755 79.322 L267.770 81.721 L269.784 84.840 L271.799 88.304 L273.813 91.825 L275.827 95.178 L277.842 98.208 L279.856 100.833 L281.871 103.056 L283.885 104.954 L285.899 106.661 L287.914 108.310 L289.928 109.953 L291.942 111.452 L293.957 112.529 L295.971 112.981 L297.986 112.750 L300.000 111.857" />
<path d="M20.000 97.098 L22.014 93.606 L24.029 90.435 L26.043 87.713 L28.058 85.483 L30.072 83.708 L32.086 82.300 L34.101 81.189 L36.115 80.375 L38.129 79.793 L40.144 79.366 L42.158 79.197 L44.173 79.576 L46.187 80.862 L48.201 83.330 L50.216 87.050 L52.230 91.873 L54.245 97.551 L56.259 103.734 L58.273 109.970 L60.288 115.774 L62.302 120.653 L64.317 124.081 L66.331 125.656 L68.345 125.553 L70.360 124.399 L72.374 122.857 L74.388 121.433 L76.403 120.396 L78.417 119.773 L80.432 119.344 L82.446 118.652 L84.460 117.047 L86.475 113.839 L88.489 108.650 L90.504 101.821 L92.518 94.143 L94.532 86.542 L96.547 79.932 L98.561 75.064 L98.659 74.925" />
<path d="M108.598 73.612 L108.633 73.636 L110.647 75.176 L112.662 76.745 L114.676 78.432 L116.691 80.540 L118.705 86.027 L120.719 90.209 L122.734 95.472 L124.748 101.180 L126.763 106.610 L128.777 111.073 L130.791 113.952 L132.806 114.797 L134.820 113.433 L136.835 110.128 L138.849 105.498 L140.863 100.307 L142.878 95.299 L144.892 91.064 L146.906 87.922 L148.921 85.888 L150.935 84.765 L152.950 84.411 L154.964 84.520 L156.978 84.416 L158.993 83.473 L161.007 81.373 L163.022 78.177 L165.036 74.310 L165.056 74.273" />
<path d="M177.100 74.698 L177.122 74.750 L179.137 80.759 L181.151 87.377 L183.165 93.793 L185.180 99.271 L187.194 103.236 L189.209 105.371 L191.223 105.656 L193.237 104.363 L195.252 101.991 L197.266 99.158 L199.281 96.462 L201.295 94.323 L203.309 90.339 L205.324 89.389 L207.338 88.733 L209.353 88.346 L211.367 88.252 L213.381 88.452 L215.396 88.916 L217.410 89.602 L219.424 90.526 L221.439 91.772 L223.453 93.408 L225.468 95.457 L227.482 97.893 L229.496 100.646 L231.511 103.608 L233.525 106.643 L235.540 109.576 L237.554 112.200 L239.568 114.267 L241.583 115.497 L243.597 115.555 L245.612 114.124 L247.626 111.071 L249.640 106.549 L251.655 100.983 L253.669 94.938 L255.683 89.027 L257.698 83.913 L259.712 80.150 L261.727 78.063 L263.741 77.692 L265.755 78.811 L267.770 81.018 L269.784 83.887 L271.799 87.074 L273.813 90.313 L275.827 93.397 L277.842 96.185 L279.856 98.600 L281.871 100.644 L283.885 102.391 L285.899 103.961 L287.914 105.478 L289.928 106.989 L291.942 108.368 L293.957 109.359 L295.971 109.775 L297.986 109.562 L300.000 108.741" />
<path d="M20.000 95.654 L22.014 92.371 L24.029 89.389 L26.043 86.830 L28.058 84.733 L30.072 83.064 L32.086 81.741 L34.101 80.696 L36.115 79.931 L38.129 79.383 L40.144 78.982 L42.158 78.823 L44.173 79.179 L46.187 80.389 L48.201 82.709 L50.216 86.206 L52.230 90.742 L54.245 96.080 L56.259 101.894 L58.273 107.756 L60.288 113.214 L62.302 117.801 L64.317 121.024 L66.331 122.505 L68.345 122.409 L70.360 121.323 L72.374 119.874 L74.388 118.534 L76.403 117.560 L78.417 116.974 L80.432 116.570 L82.446 115.920 L84.460 114.411 L86.475 111.394 L88.489 106.515 L90.504 100.095 L92.518 92.876 L94.532 85.729 L96.547 79.514 L98.561 74.937 L98.629 74.847" />
<path d="M108.609 73.579 L108.633 73.594 L110.647 75.042 L112.662 76.517 L114.676 78.104 L116.691 80.085 L118.705 85.245 L120.719 89.177 L122.734 94.126 L124.748 99.492 L126.763 104.598 L128.777 108.794 L130.791 111.500 L132.806 112.295 L134.820 111.013 L136.835 107.905 L138.849 103.552 L140.863 98.671 L142.878 93.963 L144.892 89.981 L146.906 87.027 L148.921 85.115 L150.935 84.058 L152.950 83.726 L154.964 83.828 L156.978 83.730 L158.993 82.844 L161.007 80.869 L163.022 77.864 L165.036 74.228 L165.049 74.204" />
<path d="M177.107 74.609 L177.122 74.642 L179.137 80.292 L181.151 86.514 L183.165 92.547 L185.180 97.697 L187.194 101.426 L189.209 103.433 L191.223 103.701 L193.237 102.485 L195.252 100.255 L197.266 97.591 L199.281 95.056 L201.295 93.045 L203.309 89.299 L205.324 88.406 L207.338 87.789 L209.353 87.425 L211.367 87.337 L213.381 87.525 L215.396 87.961 L217.410 88.606 L219.424 89.475 L221.439 90.646 L223.453 92.184 L225.468 94.111 L227.482 96.402 L229.496 98.990 L231.511 101.775 L233.525 104.628 L235.540 107.386 L237.554 109.854 L239.568 111.797 L241.583 112.953 L243.597 113.008 L245.612 111.662 L247.626 108.792 L249.640 104.540 L251.655 99.307 L253.669 93.623 L255.683 88.065 L257.698 83.257 L259.712 79.719 L261.727 77.757 L263.741 77.408 L265.755 78.460 L267.770 80.535 L269.784 83.233 L271.799 86.229 L273.813 89.274 L275.827 92.175 L277.842 94.795 L279.856 97.066 L281.871 98.988 L283.885 100.631 L285.899 102.107 L287.914 103.533 L289.928 104.954 L291.942 106.251 L293.957 107.182 L295.971 107.573 L297.986 107.373 L300.000 106.601" />
<path d="M20.000 94.780 L22.014 91.623 L24.029 88.757 L26.043 86.296 L28.058 84.279 L30.072 82.675 L32.086 81.403 L34.101 80.397 L36.115 79.662 L38.129 79.136 L40.144 78.749 L42.158 78.597 L44.173 78.939 L46.187 80.102 L48.201 82.333 L50.216 85.696 L52.230 90.057 L54.245 95.190 L56.259 100.780 L58.273 106.417 L60.288 111.664 L62.302 116.075 L64.317 119.175 L66.331 120.598 L68.345 120.506 L70.360 119.462 L72.374 118.068 L74.388 116.781 L76.403 115.843 L78.417 115.280 L80.432 114.892 L82.446 114.266 L84.460 112.816 L86.475 109.915 L88.489 105.224 L90.504 99.050 L92.518 92.109 L94.532 85.237 L96.547 79.261 L98.561 74.861 L98.602 74.808" />
<path d="M108.619 73.560 L108.633 73.569 L110.647 74.962 L112.662 76.380 L114.676 77.906 L116.691 79.811 L118.705 84.771 L120.719 88.552 L122.734 93.311 L124.748 98.471 L126.763 103.380 L128.777 107.414 L130.791 110.017 L132.806 110.781 L134.820 109.549 L136.835 106.560 L138.849 102.374 L140.863 97.681 L142.878 93.154 L144.892 89.325 L146.906 86.485 L148.921 84.646 L150.935 83.631 L152.950 83.311 L154.964 83.410 L156.978 83.315 L158.993 82.463 L161.007 80.564 L163.022 77.675 L165.036 74.179 L165.044 74.165" />
<path d="M177.113 74.557 L177.122 74.576 L179.137 80.009 L181.151 85.992 L183.165 91.793 L185.180 96.745 L187.194 100.330 L189.209 102.260 L191.223 102.518 L193.237 101.349 L195.252 99.204 L197.266 96.643 L199.281 94.205 L201.295 92.272 L203.309 88.670 L205.324 87.811 L207.338 87.218 L209.353 86.868 L211.367 86.783 L213.381 86.964 L215.396 87.384 L217.410 88.003 L219.424 88.839 L221.439 89.965 L223.453 91.444 L225.468 93.297 L227.482 95.499 L229.496 97.988 L231.511 100.666 L233.525 103.409 L235.540 106.061 L237.554 108.434 L239.568 110.302 L241.583 111.414 L243.597 111.467 L245.612 110.173 L247.626 107.413 L249.640 103.324 L251.655 98.293 L253.669 92.827 L255.683 87.483 L257.698 82.860 L259.712 79.459 L261.727 77.572 L263.741 77.236 L265.755 78.248 L267.770 80.243 L269.784 82.837 L271.799 85.718 L273.813 88.646 L275.827 91.435 L277.842 93.955 L279.856 96.138 L281.871 97.986 L283.885 99.565 L285.899 100.985 L287.914 102.356 L289.928 103.723 L291.942 104.969 L293.957 105.865 L295.971 106.241 L297.986 106.049 L300.000 105.306" />
<path d="M20.000 94.370 L22.014 91.273 L24.029 88.460 L26.043 86.045 L28.058 84.067 L30.072 82.492 L32.086 81.244 L34.101 80.258 L36.115 79.536 L38.129 79.019 L40.144 78.640 L42.158 78.491 L44.173 78.827 L46.187 79.968 L48.201 82.157 L50.216 85.457 L52.230 89.736 L54.245 94.773 L56.259 100.258 L58.273 105.789 L60.288 110.938 L62.302 115.266 L64.317 118.307 L66.331 119.704 L68.345 119.613 L70.360 118.589 L72.374 117.222 L74.388 115.958 L76.403 115.039 L78.417 114.486 L80.432 114.105 L82.446 113.491 L84.460 112.068 L86.475 109.221 L88.489 104.618 L90.504 98.560 L92.518 91.749 L94.532 85.006 L96.547 79.143 L98.561 74.825 L98.581 74.800" />
<path d="M108.626 73.553 L108.633 73.557 L110.647 74.924 L112.662 76.315 L114.676 77.812 L116.691 79.682 L118.705 84.549 L120.719 88.259 L122.734 92.928 L124.748 97.992 L126.763 102.809 L128.777 106.768 L130.791 109.321 L132.806 110.071 L134.820 108.862 L136.835 105.929 L138.849 101.822 L140.863 97.217 L142.878 92.775 L144.892 89.018 L146.906 86.231 L148.921 84.427 L150.935 83.430 L152.950 83.116 L154.964 83.213 L156.978 83.120 L158.993 82.284 L161.007 80.421 L163.022 77.586 L165.036 74.156 L165.040 74.149" />
<path d="M177.118 74.537 L177.122 74.546 L179.137 79.876 L181.151 85.747 L183.165 91.439 L185.180 96.298 L187.194 99.816 L189.209 101.710 L191.223 101.963 L193.237 100.816 L195.252 98.711 L197.266 96.198 L199.281 93.806 L201.295 91.909 L203.309 88.375 L205.324 87.532 L207.338 86.950 L209.353 86.606 L211.367 86.524 L213.381 86.701 L215.396 87.113 L217.410 87.721 L219.424 88.541 L221.439 89.646 L223.453 91.097 L225.468 92.915 L227.482 95.076 L229.496 97.518 L231.511 100.146 L233.525 102.838 L235.540 105.440 L237.554 107.768 L239.568 109.601 L241.583 110.692 L243.597 110.744 L245.612 109.474 L247.626 106.766 L249.640 102.754 L251.655 97.817 L253.669 92.454 L255.683 87.211 L257.698 82.674 L259.712 79.336 L261.727 77.485 L263.741 77.155 L265.755 78.148 L267.770 80.106 L269.784 82.651 L271.799 85.479 L273.813 88.352 L275.827 91.088 L277.842 93.560 L279.856 95.703 L281.871 97.517 L283.885 99.066 L285.899 100.459 L287.914 101.805 L289.928 103.145 L291.942 104.368 L293.957 105.247 L295.971 105.616 L297.986 105.428 L300.000 104.699" />
<path d="M117.875 82.543 L95.176 83.131" />
<path d="M49.519 84.315 L27.215 84.894 L-1003.077 111.612" />
<path d="M-1003.077 111.612 L-2166.154 86.887" />
<path d="M-2166.154 86.887 L-3329.231 118.909" />
<path d="M-3329.231 118.909 L-4492.308 135.534" />
<path d="M-4492.308 135.534 L-5655.385 149.843" />
<path d="M-5655.385 149.843 L-6818.462 106.973" />
<path d="M-6818.462 106.973 L-7981.538 169.794" />
<path d="M-7981.538 169.794 L-9144.615 171.428" />
<path d="M-9144.615 171.428 L-10307.692 165.749" />
<path d="M-10307.692 165.749 L-11470.769 151.868" />
<path d="M-11470.769 151.868 L-12633.846 146.170" />
<path d="M-12633.846 146.170 L-13796.923 137.982" />
<path d="M-13796.923 137.982 L-14960.000 75.718" />
<path d="M-14960.000 75.718 L-16123.077 140.833" />
<path d="M-16123.077 140.833 L-17286.154 170.818" />
<path d="M-17286.154 170.818 L-18449.231 105.822" />
<path d="M-18449.231 105.822 L-19612.308 230.176" />
<path d="M-19612.308 230.176 L-20775.385 64.565" />
<path d="M-21938.462 116.175 L-23101.538 185.003" />
<path d="M-23101.538 185.003 L-24264.615 150.800" />
<path d="M-24264.615 150.800 L-25427.692 184.040" />
<path d="M-25427.692 184.040 L-26590.769 243.872" />
<path d="M-26590.769 243.872 L-27753.846 201.591" />
<path d="M-27753.846 201.591 L-28916.923 141.641" />
<path d="M-28916.923 141.641 L-30080.000 66.069" />
<path d="M-30080.000 66.069 L-80480.000 380.000" />
<path d="M160.000 81.450 L138.160 109.786" />
<path d="M138.160 109.786 L136.038 107.089" />
<path d="M119.593 86.184 L116.320 82.024" />
<path d="M116.320 82.024 L94.480 93.086" />
<path d="M94.480 93.086 L72.641 155.149" />
<path d="M72.641 155.149 L50.801 101.383" />
<path d="M50.801 101.383 L28.961 96.782" />
<path d="M28.961 96.782 L7.121 163.438" />
<path d="M7.121 163.438 L-14.719 179.248" />
<path d="M-14.719 179.248 L-36.559 76.985" />
<path d="M-36.559 76.985 L-58.399 197.774" />
<path d="M-58.399 197.774 L-80.238 142.592" />
<path d="M-80.238 142.592 L-102.078 209.439" />
<path d="M-102.078 209.439 L-123.918 68.622" />
<path d="M-123.918 68.622 L-145.758 240.282" />
<path d="M-145.758 240.282 L-167.598 106.392" />
<path d="M-167.598 106.392 L-189.438 205.473" />
<path d="M-189.438 205.473 L-211.278 149.913" />
<path d="M-211.278 149.913 L-233.117 226.664" />
<path d="M-233.117 226.664 L-254.957 239.200" />
<path d="M-254.957 239.200 L-276.797 112.979" />
<path d="M-276.797 112.979 L-298.637 224.967" />
<path d="M-298.637 224.967 L-320.477 246.334" />
<path d="M-320.477 246.334 L-342.317 100.916" />
<path d="M-342.317 100.916 L-364.156 283.796" />
<path d="M-364.156 283.796 L-385.996 276.851" />
<path d="M-385.996 276.851 L-407.836 173.977" />
<path d="M-407.836 173.977 L-1354.230 380.000" />
<path d="M160.000 81.450 L159.781 81.555" />
<path d="M156.454 83.144 L149.364 86.531" />
<path d="M149.364 86.531 L138.728 114.623" />
<path d="M138.728 114.623 L128.092 126.656" />
<path d="M128.092 126.656 L117.456 87.162" />
<path d="M117.456 87.162 L106.820 71.873" />
<path d="M106.820 71.873 L96.184 89.395" />
<path d="M96.184 89.395 L85.548 168.017" />
<path d="M85.548 168.017 L74.912 189.721" />
<path d="M74.912 189.721 L64.276 206.609" />
<path d="M64.276 206.609 L53.640 137.082" />
<path d="M53.640 137.082 L43.004 91.933" />
<path d="M43.004 91.933 L32.368 102.284" />
<path d="M32.368 102.284 L21.732 144.528" />
<path d="M21.732 144.528 L11.096 209.706" />
<path d="M11.096 209.706 L0.460 214.664" />
<path d="M0.460 214.664 L-10.176 229.341" />
<path d="M-10.176 229.341 L-20.812 226.654" />
<path d="M-20.812 226.654 L-31.448 84.491" />
<path d="M-31.448 84.491 L-42.084 153.654" />
<path d="M-42.084 153.654 L-52.720 285.706" />
<path d="M-52.720 285.706 L-63.356 248.536" />
<path d="M-63.356 248.536 L-73.992 153.358" />
<path d="M-73.992 153.358 L-84.628 230.632" />
<path d="M-84.628 230.632 L-95.264 274.003" />
<path d="M-95.264 274.003 L-105.900 295.501" />
<path d="M-105.900 295.501 L-116.536 105.391" />
<path d="M-116.536 105.391 L-577.428 380.000" />
<path d="M160.000 81.450 L159.720 81.611" />
<path d="M157.397 82.947 L153.326 85.286" />
<path d="M153.326 85.286 L146.652 92.369" />
<path d="M146.652 92.369 L139.977 116.289" />
<path d="M139.977 116.289 L133.303 141.935" />
<path d="M133.303 141.935 L126.629 134.479" />
<path d="M126.629 134.479 L119.955 104.603" />
<path d="M119.955 104.603 L113.281 82.534" />
<path d="M113.281 82.534 L106.607 71.213" />
<path d="M106.607 71.213 L99.932 72.856" />
<path d="M99.932 72.856 L93.258 124.484" />
<path d="M93.258 124.484 L86.584 195.004" />
<path d="M86.584 195.004 L79.910 221.518" />
<path d="M79.910 221.518 L73.236 239.803" />
<path d="M73.236 239.803 L66.561 261.841" />
<path d="M66.561 261.841 L59.887 230.358" />
<path d="M59.887 230.358 L53.213 158.624" />
<path d="M53.213 158.624 L46.539 107.283" />
<path d="M46.539 107.283 L39.865 101.094" />
<path d="M39.865 101.094 L33.191 112.522" />
<path d="M33.191 112.522 L26.516 140.187" />
<path d="M26.516 140.187 L19.842 193.349" />
<path d="M19.842 193.349 L13.168 255.786" />
<path d="M13.168 255.786 L6.494 288.789" />
<path d="M6.494 288.789 L-0.180 276.575" />
<path d="M-0.180 276.575 L-6.855 276.780" />
<path d="M-6.855 276.780 L-13.529 327.290" />
<path d="M-13.529 327.290 L-302.743 380.000" />
<path d="M160.000 81.450 L155.461 85.424" />
<path d="M155.461 85.424 L150.921 87.947" />
<path d="M150.921 87.947 L146.382 95.863" />
<path d="M146.382 95.863 L141.843 114.061" />
<path d="M141.843 114.061 L137.304 139.773" />
<path d="M137.304 139.773 L132.764 158.284" />
<path d="M132.764 158.284 L128.225 155.594" />
<path d="M128.225 155.594 L123.686 134.065" />
<path d="M123.686 134.065 L119.146 109.287" />
<path d="M119.146 109.287 L114.607 88.190" />
<path d="M114.607 88.190 L110.068 78.306" />
<path d="M110.068 78.306 L105.529 68.749" />
<path d="M105.529 68.749 L100.989 69.231" />
<path d="M100.989 69.231 L96.450 98.973" />
<path d="M96.450 98.973 L91.911 161.771" />
<path d="M91.911 161.771 L87.371 226.872" />
<path d="M87.371 226.872 L82.832 262.058" />
<path d="M82.832 262.058 L78.293 276.756" />
<path d="M78.293 276.756 L73.754 295.070" />
<path d="M73.754 295.070 L69.214 320.088" />
<path d="M69.214 320.088 L64.675 326.977" />
<path d="M64.675 326.977 L60.136 290.115" />
<path d="M60.136 290.115 L55.596 225.559" />
<path d="M55.596 225.559 L51.057 161.028" />
<path d="M51.057 161.028 L46.518 119.887" />
<path d="M46.518 119.887 L41.979 109.774" />
<path d="M41.979 109.774 L-154.724 380.000" />
<path d="M160.000 81.450 L156.873 85.311" />
<path d="M156.873 85.311 L153.745 87.520" />
<path d="M153.745 87.520 L150.618 90.399" />
<path d="M150.618 90.399 L147.491 96.561" />
<path d="M147.491 96.561 L144.364 108.270" />
<path d="M144.364 108.270 L141.236 126.772" />
<path d="M141.236 126.772 L138.109 149.616" />
<path d="M138.109 149.616 L134.982 170.602" />
<path d="M134.982 170.602 L131.855 182.122" />
<path d="M131.855 182.122 L128.727 179.789" />
<path d="M128.727 179.789 L125.600 164.818" />
<path d="M125.600 164.818 L122.473 142.599" />
<path d="M122.473 142.599 L119.346 121.287" />
<path d="M119.346 121.287 L116.218 98.155" />
<path d="M116.218 98.155 L113.091 88.578" />
<path d="M113.091 88.578 L109.964 79.709" />
<path d="M109.964 79.709 L106.837 70.580" />
<path d="M106.837 70.580 L103.709 64.718" />
<path d="M103.709 64.718 L100.582 69.564" />
<path d="M100.582 69.564 L97.455 94.477" />
<path d="M97.455 94.477 L94.328 143.606" />
<path d="M94.328 143.606 L91.200 207.454" />
<path d="M91.200 207.454 L88.073 269.151" />
<path d="M88.073 269.151 L84.946 312.407" />
<path d="M84.946 312.407 L81.819 334.959" />
<path d="M81.819 334.959 L78.691 348.403" />
<path d="M78.691 348.403 L-56.823 380.000" />
<path d="M160.000 81.450 L157.937 84.948" />
<path d="M157.937 84.948 L155.874 87.658" />
<path d="M155.874 87.658 L153.811 89.738" />
<path d="M153.811 89.738 L151.748 92.112" />
<path d="M151.748 92.112 L149.685 95.881" />
<path d="M149.685 95.881 L147.622 101.767" />
<path d="M147.622 101.767 L145.560 110.771" />
<path d="M145.560 110.771 L143.497 123.731" />
<path d="M143.497 123.731 L141.434 140.705" />
<path d="M141.434 140.705 L139.371 160.676" />
<path d="M139.371 160.676 L137.308 181.567" />
<path d="M137.308 181.567 L135.245 200.510" />
<path d="M135.245 200.510 L133.182 214.390" />
<path d="M133.182 214.390 L131.119 220.742" />
<path d="M131.119 220.742 L129.056 218.668" />
<path d="M129.056 218.668 L126.993 208.683" />
<path d="M126.993 208.683 L124.930 192.456" />
<path d="M124.930 192.456 L122.867 172.556" />
<path d="M122.867 172.556 L120.804 152.294" />
<path d="M120.804 152.294 L118.741 135.198" />
<path d="M118.741 135.198 L116.679 110.306" />
<path d="M116.679 110.306 L114.616 100.772" />
<path d="M114.616 100.772 L112.553 92.686" />
<path d="M112.553 92.686 L110.490 84.572" />
<path d="M110.490 84.572 L108.427 76.025" />
<path d="M108.427 76.025 L106.530 68.530" />
<path d="M106.364 67.874 L16.970 380.000" />
<path d="M160.000 81.450 L158.821 84.407" />
<path d="M158.821 84.407 L157.642 87.250" />
<path d="M157.642 87.250 L156.463 89.832" />
<path d="M156.463 89.832 L155.284 92.116" />
<path d="M155.284 92.116 L154.105 94.203" />
<path d="M154.105 94.203 L152.926 96.326" />
<path d="M152.926 96.326 L151.747 98.810" />
<path d="M151.747 98.810 L150.568 101.954" />
<path d="M150.568 101.954 L149.389 105.943" />
<path d="M149.389 105.943 L148.210 111.000" />
<path d="M148.210 111.000 L147.031 117.439" />
<path d="M147.031 117.439 L145.851 125.587" />
<path d="M145.851 125.587 L144.672 135.711" />
<path d="M144.672 135.711 L143.493 147.963" />
<path d="M143.493 147.963 L142.314 162.337" />
<path d="M142.314 162.337 L141.135 178.641" />
<path d="M141.135 178.641 L139.956 196.491" />
<path d="M139.956 196.491 L138.777 215.319" />
<path d="M138.777 215.319 L137.598 234.392" />
<path d="M137.598 234.392 L136.419 252.850" />
<path d="M136.419 252.850 L135.240 269.756" />
<path d="M135.240 269.756 L134.061 284.165" />
<path d="M134.061 284.165 L132.882 295.220" />
<path d="M132.882 295.220 L131.703 302.283" />
<path d="M131.703 302.283 L130.524 305.031" />
<path d="M130.524 305.031 L129.345 303.387" />
<path d="M129.345 303.387 L78.253 380.000" />
<path d="M160.000 81.450 L159.616 83.713" />
<path d="M159.616 83.713 L159.232 86.065" />
<path d="M159.232 86.065 L158.848 88.483" />
<path d="M158.848 88.483 L158.464 90.941" />
<path d="M158.464 90.941 L158.080 93.419" />
<path d="M158.080 93.419 L157.696 95.896" />
<path d="M157.696 95.896 L157.312 98.355" />
<path d="M157.312 98.355 L156.928 100.780" />
<path d="M156.928 100.780 L156.544 103.161" />
<path d="M156.544 103.161 L156.160 105.491" />
<path d="M156.160 105.491 L155.776 107.767" />
<path d="M155.776 107.767 L155.392 109.989" />
<path d="M155.392 109.989 L155.008 112.164" />
<path d="M155.008 112.164 L154.624 114.301" />
<path d="M154.624 114.301 L154.240 116.416" />
<path d="M154.240 116.416 L153.856 118.526" />
<path d="M153.856 118.526 L153.471 120.654" />
<path d="M153.471 120.654 L153.087 122.825" />
<path d="M153.087 122.825 L152.703 125.069" />
<path d="M152.703 125.069 L152.319 127.413" />
<path d="M152.319 127.413 L151.935 129.887" />
<path d="M151.935 129.887 L151.551 132.519" />
<path d="M151.551 132.519 L151.167 135.331" />
<path d="M151.167 135.331 L150.783 138.342" />
<path d="M150.783 138.342 L150.399 141.566" />
<path d="M150.399 141.566 L150.015 145.017" />
<path d="M150.015 145.017 L133.374 380.000" />
<path d="M160.000 81.450 L160.384 82.850" />
<path d="M160.384 82.850 L160.768 84.032" />
<path d="M160.768 84.032 L161.152 84.974" />
<path d="M161.152 84.974 L161.536 85.653" />
<path d="M161.536 85.653 L161.920 86.052" />
<path d="M161.920 86.052 L162.304 86.153" />
<path d="M162.304 86.153 L162.688 85.943" />
<path d="M162.688 85.943 L163.072 85.411" />
<path d="M163.072 85.411 L163.456 84.552" />
<path d="M163.456 84.552 L163.840 83.364" />
<path d="M163.840 83.364 L164.224 81.849" />
<path d="M164.224 81.849 L164.608 80.013" />
<path d="M164.608 80.013 L164.992 77.870" />
<path d="M164.992 77.870 L165.376 75.434" />
<path d="M165.376 75.434 L165.760 72.729" />
<path d="M165.760 72.729 L166.144 69.782" />
<path d="M166.144 69.782 L166.529 66.624" />
<path d="M166.529 66.624 L166.913 63.295" />
<path d="M166.913 63.295 L167.297 59.834" />
<path d="M167.297 59.834 L167.681 56.291" />
<path d="M167.681 56.291 L168.065 52.716" />
<path d="M168.065 52.716 L168.449 49.165" />
<path d="M168.449 49.165 L168.833 45.695" />
<path d="M168.833 45.695 L169.217 42.368" />
<path d="M169.217 42.368 L169.601 39.246" />
<path d="M169.601 39.246 L169.603 39.229" />
<path d="M170.045 37.631 L186.626 380.000" />
<path d="M160.000 81.450 L161.179 81.762" />
<path d="M161.179 81.762 L162.358 81.048" />
<path d="M162.358 81.048 L163.537 79.204" />
<path d="M163.537 79.204 L164.716 76.251" />
<path d="M164.716 76.251 L165.895 72.354" />
<path d="M165.895 72.354 L167.074 67.838" />
<path d="M167.074 67.838 L168.253 63.176" />
<path d="M168.253 63.176 L169.432 58.969" />
<path d="M169.432 58.969 L170.611 55.871" />
<path d="M170.611 55.871 L171.790 54.483" />
<path d="M171.790 54.483 L172.969 55.261" />
<path d="M172.969 55.261 L174.149 58.563" />
<path d="M174.149 58.563 L175.328 64.654" />
<path d="M175.328 64.654 L176.507 73.692" />
<path d="M176.507 73.692 L177.686 85.696" />
<path d="M177.686 85.696 L178.865 100.503" />
<path d="M178.865 100.503 L180.044 117.716" />
<path d="M180.044 117.716 L181.223 136.757" />
<path d="M181.223 136.757 L182.402 156.934" />
<path d="M182.402 156.934 L183.581 177.479" />
<path d="M183.581 177.479 L184.760 197.576" />
<path d="M184.760 197.576 L185.939 216.414" />
<path d="M185.939 216.414 L187.118 233.244" />
<path d="M187.118 233.244 L188.297 247.432" />
<path d="M188.297 247.432 L189.476 258.505" />
<path d="M189.476 258.505 L190.655 266.190" />
<path d="M190.655 266.190 L241.747 380.000" />
<path d="M160.000 81.450 L162.063 80.338" />
<path d="M162.063 80.338 L164.126 76.949" />
<path d="M164.126 76.949 L166.189 71.653" />
<path d="M166.189 71.653 L168.252 65.708" />
<path d="M168.252 65.708 L170.315 61.128" />
<path d="M170.315 61.128 L172.378 60.051" />
<path d="M172.378 60.051 L174.440 63.898" />
<path d="M174.440 63.898 L176.503 73.431" />
<path d="M176.503 73.431 L178.566 88.690" />
<path d="M178.566 88.690 L180.629 108.640" />
<path d="M180.629 108.640 L182.692 131.182" />
<path d="M182.692 131.182 L184.755 153.700" />
<path d="M184.755 153.700 L186.818 173.482" />
<path d="M186.818 173.482 L188.881 188.232" />
<path d="M188.881 188.232 L190.944 196.572" />
<path d="M190.944 196.572 L193.007 198.353" />
<path d="M193.007 198.353 L195.070 194.705" />
<path d="M195.070 194.705 L197.133 187.791" />
<path d="M197.133 187.791 L199.196 180.244" />
<path d="M199.196 180.244 L201.259 174.328" />
<path d="M201.259 174.328 L203.321 158.627" />
<path d="M203.321 158.627 L205.384 157.027" />
<path d="M205.384 157.027 L207.447 156.677" />
<path d="M207.447 156.677 L209.510 157.637" />
<path d="M209.510 157.637 L211.573 160.212" />
<path d="M211.573 160.212 L213.636 164.558" />
<path d="M213.636 164.558 L303.030 380.000" />
<path d="M160.000 81.450 L163.127 78.369" />
<path d="M163.127 78.369 L166.255 71.665" />
<path d="M166.255 71.665 L169.382 64.588" />
<path d="M169.382 64.588 L172.509 62.619" />
<path d="M172.509 62.619 L175.636 69.606" />
<path d="M175.636 69.606 L178.764 86.467" />
<path d="M178.764 86.467 L181.891 110.555" />
<path d="M181.891 110.555 L185.018 135.814" />
<path d="M185.018 135.814 L188.145 155.461" />
<path d="M188.145 155.461 L191.273 164.795" />
<path d="M191.273 164.795 L194.400 163.425" />
<path d="M194.400 163.425 L197.527 155.503" />
<path d="M197.527 155.503 L200.654 147.405" />
<path d="M200.654 147.405 L203.782 134.284" />
<path d="M203.782 134.284 L206.909 132.949" />
<path d="M206.909 132.949 L210.036 133.750" />
<path d="M210.036 133.750 L213.163 137.269" />
<path d="M213.163 137.269 L216.291 143.635" />
<path d="M216.291 143.635 L219.418 152.795" />
<path d="M219.418 152.795 L222.545 166.106" />
<path d="M222.545 166.106 L225.672 185.014" />
<path d="M225.672 185.014 L228.800 209.748" />
<path d="M228.800 209.748 L231.927 239.174" />
<path d="M231.927 239.174 L235.054 270.821" />
<path d="M235.054 270.821 L238.181 300.686" />
<path d="M238.181 300.686 L241.309 322.955" />
<path d="M241.309 322.955 L376.823 380.000" />
<path d="M160.000 81.450 L160.249 81.122" />
<path d="M163.324 77.071 L164.539 75.470" />
<path d="M164.539 75.470 L169.079 66.080" />
<path d="M169.079 66.080 L173.618 65.326" />
<path d="M173.618 65.326 L178.157 80.829" />
<path d="M178.157 80.829 L182.696 108.789" />
<path d="M182.696 108.789 L187.236 134.834" />
<path d="M187.236 134.834 L191.775 145.459" />
<path d="M191.775 145.459 L196.314 139.773" />
<path d="M196.314 139.773 L200.854 129.958" />
<path d="M200.854 129.958 L205.393 119.068" />
<path d="M205.393 119.068 L209.932 119.005" />
<path d="M209.932 119.005 L214.471 123.189" />
<path d="M214.471 123.189 L219.011 131.773" />
<path d="M219.011 131.773 L223.550 146.512" />
<path d="M223.550 146.512 L228.089 170.072" />
<path d="M228.089 170.072 L232.629 201.193" />
<path d="M232.629 201.193 L237.168 234.186" />
<path d="M237.168 234.186 L241.707 258.210" />
<path d="M241.707 258.210 L246.246 256.406" />
<path d="M246.246 256.406 L250.786 217.508" />
<path d="M250.786 217.508 L255.325 157.182" />
<path d="M255.325 157.182 L259.864 108.732" />
<path d="M259.864 108.732 L264.404 99.349" />
<path d="M264.404 99.349 L268.943 126.286" />
<path d="M268.943 126.286 L273.482 168.913" />
<path d="M273.482 168.913 L278.021 211.199" />
<path d="M278.021 211.199 L474.724 380.000" />
<path d="M160.000 81.450 L160.153 81.211" />
<path d="M165.129 73.434 L166.674 71.018" />
<path d="M166.674 71.018 L173.348 65.939" />
<path d="M173.348 65.939 L180.023 88.577" />
<path d="M180.023 88.577 L186.697 121.688" />
<path d="M186.697 121.688 L193.371 130.712" />
<path d="M193.371 130.712 L200.045 119.077" />
<path d="M200.045 119.077 L206.719 108.567" />
<path d="M206.719 108.567 L213.393 110.541" />
<path d="M213.393 110.541 L220.068 119.890" />
<path d="M220.068 119.890 L226.742 140.399" />
<path d="M226.742 140.399 L233.416 173.605" />
<path d="M233.416 173.605 L240.090 206.250" />
<path d="M240.090 206.250 L246.764 207.155" />
<path d="M246.764 207.155 L253.439 154.166" />
<path d="M253.439 154.166 L260.113 98.043" />
<path d="M260.113 98.043 L266.787 100.264" />
<path d="M266.787 100.264 L273.461 142.825" />
<path d="M273.461 142.825 L280.135 185.863" />
<path d="M280.135 185.863 L286.809 216.947" />
<path d="M286.809 216.947 L293.484 244.480" />
<path d="M293.484 244.480 L300.158 248.892" />
<path d="M300.158 248.892 L306.832 211.893" />
<path d="M306.832 211.893 L313.506 119.161" />
<path d="M320.180 81.773 L326.855 175.758" />
<path d="M326.855 175.758 L333.529 300.328" />
<path d="M333.529 300.328 L622.743 380.000" />
<path d="M160.000 81.450 L160.183 81.184" />
<path d="M165.046 74.079 L170.636 65.912" />
<path d="M170.636 65.912 L181.272 91.760" />
<path d="M181.272 91.760 L191.908 120.327" />
<path d="M191.908 120.327 L202.544 102.509" />
<path d="M202.544 102.509 L213.180 101.517" />
<path d="M213.180 101.517 L223.816 115.358" />
<path d="M223.816 115.358 L234.452 151.205" />
<path d="M234.452 151.205 L245.088 174.039" />
<path d="M245.088 174.039 L255.724 114.733" />
<path d="M255.724 114.733 L266.360 91.026" />
<path d="M266.360 91.026 L276.996 139.321" />
<path d="M276.996 139.321 L287.632 176.187" />
<path d="M287.632 176.187 L298.268 196.692" />
<path d="M298.268 196.692 L308.904 151.325" />
<path d="M308.904 151.325 L319.540 77.425" />
<path d="M319.540 77.425 L330.176 190.564" />
<path d="M330.176 190.564 L340.812 211.261" />
<path d="M340.812 211.261 L351.448 45.483" />
<path d="M362.084 95.901 L372.720 180.630" />
<path d="M372.720 180.630 L383.356 304.525" />
<path d="M383.356 304.525 L393.992 282.941" />
<path d="M393.992 282.941 L404.628 98.246" />
<path d="M404.628 98.246 L415.264 259.796" />
<path d="M415.264 259.796 L425.900 328.047" />
<path d="M425.900 328.047 L436.536 132.913" />
<path d="M436.536 132.913 L897.428 380.000" />
<path d="M160.000 81.450 L181.840 90.902" />
<path d="M181.840 90.902 L183.051 91.116" />
<path d="M199.156 93.954 L203.680 94.751" />
<path d="M203.680 94.751 L225.520 105.924" />
<path d="M225.520 105.924 L247.359 136.812" />
<path d="M247.359 136.812 L269.199 91.525" />
<path d="M269.199 91.525 L291.039 143.974" />
<path d="M291.039 143.974 L312.879 96.106" />
<path d="M312.879 96.106 L334.719 170.829" />
<path d="M334.719 170.829 L356.559 58.265" />
<path d="M356.559 58.265 L378.399 170.115" />
<path d="M378.399 170.115 L400.238 113.056" />
<path d="M400.238 113.056 L422.078 229.080" />
<path d="M422.078 229.080 L443.918 78.248" />
<path d="M487.598 61.378 L509.438 219.539" />
<path d="M509.438 219.539 L531.278 166.352" />
<path d="M531.278 166.352 L553.117 55.878" />
<path d="M553.117 55.878 L574.957 237.039" />
<path d="M574.957 237.039 L596.797 169.902" />
<path d="M596.797 169.902 L618.637 190.178" />
<path d="M618.637 190.178 L640.477 301.460" />
<path d="M640.477 301.460 L662.317 88.529" />
<path d="M662.317 88.529 L684.156 152.886" />
<path d="M684.156 152.886 L705.996 235.593" />
<path d="M705.996 235.593 L727.836 144.459" />
<path d="M727.836 144.459 L1674.230 380.000" />
<path d="M160.000 81.450 L179.626 81.301" />
<path d="M258.889 80.700 L268.184 80.629" />
<path d="M2486.154 95.537 L3649.231 118.603" />
<path d="M3649.231 118.603 L4812.308 131.999" />
<path d="M5975.385 72.736 L7138.462 142.103" />
<path d="M7138.462 142.103 L8301.538 69.266" />
<path d="M8301.538 69.266 L9464.615 151.794" />
<path d="M9464.615 151.794 L10627.692 138.733" />
<path d="M10627.692 138.733 L11790.769 180.937" />
<path d="M11790.769 180.937 L12953.846 146.902" />
<path d="M12953.846 146.902 L14116.923 123.777" />
<path d="M14116.923 123.777 L15280.000 214.102" />
<path d="M15280.000 214.102 L16443.077 218.898" />
<path d="M16443.077 218.898 L17606.154 167.464" />
<path d="M17606.154 167.464 L18769.231 221.934" />
<path d="M18769.231 221.934 L19932.308 218.138" />
<path d="M19932.308 218.138 L21095.385 81.491" />
<path d="M22258.462 73.323 L23421.538 138.113" />
<path d="M23421.538 138.113 L24584.615 289.239" />
<path d="M24584.615 289.239 L25747.692 275.294" />
<path d="M25747.692 275.294 L26910.769 168.035" />
<path d="M26910.769 168.035 L28073.846 292.526" />
<path d="M28073.846 292.526 L29236.923 199.367" />
<path d="M29236.923 199.367 L30400.000 315.997" />
<path d="M30400.000 315.997 L80800.000 380.000" />
</svg>
