<svg xmlns="http://www.w3.org/2000/svg" viewBox="0 0 320 220">
<path d="M178.000 138.000 L177.961 139.177 L177.846 140.349 L177.654 141.512 L177.387 142.659 L177.045 143.786 L176.630 144.888 L176.144 145.961" />
<path d="M156.488 120.346 L157.651 120.154 L158.823 120.039 L160.000 120.000 L161.177 120.039 L162.349 120.154 L163.512 120.346" />
<path d="M177.435 133.547 L177.654 134.488 L177.846 135.651 L177.961 136.823 L178.000 138.000" />
<path d="M192.000 138.000 L191.931 140.093 L191.726 142.177 L191.385 144.243 L190.910 146.282" />
<path d="M133.393 120.222 L134.613 118.520 L135.941 116.901 L137.373 115.373 L138.901 113.941 L140.520 112.613 L142.222 111.393 L144.000 110.287 L145.847 109.300 L147.754 108.436 L149.714 107.698 L151.718 107.090 L153.757 106.615 L155.823 106.274 L157.907 106.069 L160.000 106.000 L162.093 106.069 L164.177 106.274 L166.243 106.615 L168.282 107.090 L170.286 107.698 L172.246 108.436 L174.153 109.300 L176.000 110.287 L177.778 111.393 L179.480 112.613 L181.099 113.941 L182.627 115.373 L184.059 116.901 L185.387 118.520 L186.607 120.222" />
<path d="M189.579 125.794 L190.302 127.714 L190.910 129.718 L191.385 131.757 L191.726 133.823 L191.931 135.907 L192.000 138.000" />
<path d="M208.000 138.000 L207.897 141.139 L207.589 144.265 L207.078 147.364" />
<path d="M115.654 119.631 L116.950 116.770 L118.431 114.000 L120.089 111.333 L121.919 108.779 L123.912 106.351 L126.059 104.059 L128.351 101.912 L130.779 99.919 L133.333 98.089 L136.000 96.431 L138.770 94.950 L141.631 93.654 L144.571 92.547 L147.577 91.636 L150.636 90.922 L153.735 90.411 L156.861 90.103 L160.000 90.000 L163.139 90.103 L166.265 90.411 L169.364 90.922 L172.423 91.636 L175.429 92.547 L178.369 93.654 L181.230 94.950 L184.000 96.431 L186.667 98.089 L189.221 99.919 L191.649 101.912 L193.941 104.059 L196.088 106.351 L198.081 108.779 L199.911 111.333 L201.569 114.000 L203.050 116.770 L204.346 119.631" />
<path d="M205.789 123.680 L206.364 125.577 L207.078 128.636 L207.589 131.735 L207.897 134.861 L208.000 138.000" />
<path d="M226.000 138.000 L225.859 142.317 L225.435 146.615" />
<path d="M191.424 196.000 L189.191 197.194 L185.257 198.976 L181.215 200.497 L177.082 201.751 L172.876 202.732 L168.615 203.435 L164.317 203.859 L160.000 204.000 L155.683 203.859 L151.385 203.435 L147.124 202.732 L142.918 201.751 L138.785 200.497 L134.743 198.976 L130.809 197.194 L128.576 196.000" />
<path d="M96.249 120.918 L97.503 116.785 L99.024 112.743 L100.806 108.809 L102.842 105.000 L105.123 101.332 L107.639 97.822 L110.379 94.483 L113.331 91.331 L116.483 88.379 L119.822 85.639 L123.332 83.123 L127.000 80.842 L130.809 78.806 L134.743 77.024 L138.785 75.503 L142.918 74.249 L147.124 73.268 L151.385 72.565 L155.683 72.141 L160.000 72.000 L164.317 72.141 L168.615 72.565 L172.876 73.268 L177.082 74.249 L181.215 75.503 L185.257 77.024 L189.191 78.806 L193.000 80.842 L196.668 83.123 L200.178 85.639 L203.517 88.379 L206.669 91.331 L209.621 94.483 L212.361 97.822 L214.877 101.332 L217.158 105.000 L219.194 108.809 L220.976 112.743 L222.497 116.785 L223.751 120.918" />
<path d="M223.846 121.324 L224.732 125.124 L225.435 129.385 L225.859 133.683 L226.000 138.000" />
<path d="M223.444 196.000 L220.811 198.811 L216.704 202.658 L212.353 206.228 L207.779 209.506 L203.000 212.478 L198.037 215.131 L192.911 217.454 L187.644 219.436 L182.258 221.070 L176.778 222.348 L171.225 223.264 L165.625 223.816 L160.000 224.000 L154.375 223.816 L148.775 223.264 L143.222 222.348 L137.742 221.070 L132.356 219.436 L127.089 217.454 L121.963 215.131 L117.000 212.478 L112.221 209.506 L107.647 206.228 L103.296 202.658 L99.189 198.811 L96.556 196.000" />
<path d="M75.468 122.340 L75.652 121.222 L76.930 115.742 L78.564 110.356 L80.546 105.089 L82.869 99.963 L85.522 95.000 L88.494 90.221 L91.772 85.647 L95.342 81.296 L99.189 77.189 L103.296 73.342 L107.647 69.772 L112.221 66.494 L117.000 63.522 L121.963 60.869 L127.089 58.546 L132.356 56.564 L137.742 54.930 L143.222 53.652 L148.775 52.736 L154.375 52.184 L160.000 52.000 L165.625 52.184 L171.225 52.736 L176.778 53.652 L182.258 54.930 L187.644 56.564 L192.911 58.546 L198.037 60.869 L203.000 63.522 L207.779 66.494 L212.353 69.772 L216.704 73.342 L220.811 77.189 L224.658 81.296 L228.228 85.647 L231.506 90.221 L234.478 95.000 L237.131 99.963 L239.454 105.089 L241.436 110.356 L243.070 115.742 L244.348 121.222 L244.532 122.340 L245.264 126.775 L245.816 132.375 L246.000 138.000" />
<path d="M32.000 132.000 L86.000 120.000 L132.000 126.000 L160.000 146.000 L188.000 126.000 L234.000 120.000 L288.000 132.000" />
<path d="M32.000 156.000 L72.000 146.000 L120.000 154.000 L160.000 176.000 L200.000 154.000 L248.000 146.000 L288.000 156.000" />
</svg>
