<svg xmlns="http://www.w3.org/2000/svg" viewBox="0 0 320 220">
<path d="M184.200 110.000 L185.285 110.006 L186.427 110.053 L187.608 110.188 L188.813 110.453 L190.021 110.880 L191.217 111.487 L192.383 112.270 L193.500 113.205 L194.552 114.252 L195.520 115.360 L196.388 116.480 L197.137 117.571 L197.751 118.609 L198.211 119.586 L198.500 120.508 L198.600 121.384 L198.736 122.000 L199.127 122.152 L199.744 121.837 L200.563 121.047 L201.554 119.802 L202.692 118.182 L203.950 116.341 L205.300 114.488 L206.716 112.840 L208.170 111.563 L209.637 110.719 L211.087 110.259 L212.496 110.066 L213.836 110.009 L215.079 110.000 L216.200 110.000 L216.200 110.000 L215.079 110.000 L213.836 109.991 L212.496 109.934 L211.087 109.741 L209.637 109.281 L208.170 108.437 L206.716 107.160 L205.300 105.512 L203.950 103.659 L202.692 101.818 L201.554 100.198 L200.563 98.953 L199.744 98.163 L199.127 97.848 L198.736 98.000 L198.600 98.616 L198.500 99.492 L198.211 100.414 L197.751 101.391 L197.137 102.429 L196.388 103.520 L195.520 104.640 L194.552 105.748 L193.500 106.795 L192.383 107.730 L191.217 108.513 L190.021 109.120 L188.813 109.547 L187.608 109.812 L186.427 109.947 L185.285 109.994 L184.200 110.000 L184.200 110.000" />
<path d="M172.100 130.958 L172.653 131.927 L173.198 132.969 L173.686 134.092 L174.069 135.301 L174.310 136.598 L174.385 137.976 L174.287 139.417 L174.029 140.894 L173.637 142.370 L173.147 143.804 L172.596 145.153 L172.010 146.382 L171.401 147.463 L170.766 148.375 L170.093 149.107 L169.364 149.647 L168.885 150.085 L168.951 150.511 L169.549 150.900 L170.674 151.223 L172.294 151.466 L174.323 151.647 L176.610 151.820 L178.957 152.070 L181.154 152.484 L183.040 153.123 L184.546 153.995 L185.702 155.052 L186.600 156.207 L187.339 157.372 L187.987 158.476 L188.564 159.474 L187.988 158.475 L187.356 157.363 L186.717 156.140 L186.165 154.785 L185.827 153.255 L185.825 151.514 L186.215 149.561 L186.955 147.452 L187.912 145.295 L188.906 143.227 L189.763 141.380 L190.363 139.855 L190.646 138.720 L190.609 138.007 L190.272 137.737 L189.654 137.933 L188.822 138.294 L187.851 138.511 L186.743 138.604 L185.503 138.592 L184.145 138.485 L182.701 138.288 L181.215 137.995 L179.741 137.596 L178.332 137.082 L177.035 136.446 L175.880 135.692 L174.877 134.835 L174.021 133.898 L173.293 132.914 L172.663 131.921 L172.100 130.958" />
<path d="M147.900 130.958 L147.316 131.956 L146.663 132.986 L145.908 134.006 L145.022 134.977 L143.982 135.865 L142.784 136.647 L141.440 137.306 L139.980 137.839 L138.452 138.252 L136.911 138.556 L135.414 138.760 L134.007 138.871 L132.721 138.884 L131.573 138.788 L130.567 138.562 L129.705 138.188 L129.063 137.985 L128.715 138.265 L128.676 139.004 L128.970 140.181 L129.591 141.761 L130.480 143.675 L131.510 145.819 L132.502 148.055 L133.269 150.241 L133.673 152.266 L133.671 154.070 L133.321 155.656 L132.749 157.060 L132.087 158.328 L131.432 159.481 L130.834 160.516 L131.432 159.482 L132.103 158.338 L132.870 157.130 L133.800 155.932 L134.999 154.837 L136.560 153.933 L138.516 153.270 L140.793 152.841 L143.225 152.583 L145.596 152.403 L147.699 152.215 L149.378 151.963 L150.544 151.629 L151.164 151.226 L151.232 150.785 L150.736 150.331 L149.981 149.771 L149.283 149.012 L148.625 148.066 L147.994 146.946 L147.386 145.672 L146.814 144.273 L146.307 142.787 L145.901 141.257 L145.633 139.727 L145.531 138.233 L145.609 136.805 L145.859 135.460 L146.256 134.207 L146.762 133.043 L147.327 131.963 L147.900 130.958" />
<path d="M135.800 110.000 L134.598 109.993 L133.332 109.941 L132.022 109.791 L130.688 109.498 L129.348 109.024 L128.023 108.352 L126.731 107.484 L125.492 106.448 L124.327 105.287 L123.253 104.059 L122.291 102.818 L121.461 101.609 L120.781 100.459 L120.271 99.375 L119.951 98.353 L119.840 97.382 L119.689 96.700 L119.256 96.532 L118.572 96.881 L117.665 97.756 L116.566 99.136 L115.304 100.931 L113.910 102.972 L112.414 105.026 L110.845 106.852 L109.233 108.268 L107.608 109.203 L105.999 109.712 L104.438 109.927 L102.953 109.990 L101.575 110.000 L100.333 110.000 L101.575 110.000 L102.953 110.010 L104.438 110.073 L105.999 110.288 L107.608 110.797 L109.233 111.732 L110.845 113.148 L112.414 114.974 L113.910 117.028 L115.304 119.069 L116.566 120.864 L117.665 122.244 L118.572 123.119 L119.256 123.468 L119.689 123.300 L119.840 122.618 L119.951 121.647 L120.271 120.625 L120.781 119.541 L121.461 118.391 L122.291 117.182 L123.253 115.941 L124.327 114.713 L125.492 113.552 L126.731 112.516 L128.023 111.648 L129.348 110.976 L130.688 110.502 L132.022 110.209 L133.332 110.059 L134.598 110.007 L135.800 110.000" />
<path d="M147.900 89.042 L147.281 87.956 L146.670 86.788 L146.123 85.530 L145.693 84.175 L145.423 82.722 L145.339 81.178 L145.449 79.563 L145.739 77.908 L146.178 76.254 L146.726 74.648 L147.344 73.136 L148.001 71.759 L148.684 70.548 L149.395 69.525 L150.149 68.705 L150.966 68.100 L151.502 67.609 L151.429 67.132 L150.758 66.696 L149.498 66.335 L147.683 66.063 L145.410 65.860 L142.846 65.665 L140.217 65.386 L137.755 64.922 L135.642 64.206 L133.953 63.228 L132.658 62.044 L131.652 60.749 L130.824 59.444 L130.098 58.208 L129.452 57.089 L130.097 58.208 L130.806 59.455 L131.521 60.825 L132.140 62.343 L132.518 64.057 L132.520 66.008 L132.084 68.196 L131.255 70.560 L130.182 72.977 L129.069 75.294 L128.108 77.364 L127.436 79.072 L127.119 80.345 L127.161 81.143 L127.537 81.445 L128.230 81.226 L129.163 80.821 L130.251 80.578 L131.492 80.474 L132.882 80.488 L134.403 80.608 L136.021 80.829 L137.686 81.157 L139.338 81.603 L140.916 82.180 L142.370 82.892 L143.665 83.737 L144.788 84.698 L145.747 85.747 L146.563 86.850 L147.269 87.963 L147.900 89.042" />
<path d="M172.100 89.042 L172.757 87.919 L173.492 86.760 L174.341 85.613 L175.338 84.521 L176.508 83.521 L177.856 82.642 L179.368 81.900 L181.011 81.300 L182.730 80.836 L184.463 80.494 L186.147 80.264 L187.730 80.140 L189.177 80.125 L190.469 80.233 L191.601 80.486 L192.571 80.908 L193.292 81.136 L193.684 80.821 L193.728 79.990 L193.398 78.666 L192.699 76.888 L191.699 74.734 L190.540 72.322 L189.424 69.807 L188.561 67.347 L188.106 65.069 L188.109 63.039 L188.502 61.256 L189.146 59.675 L189.891 58.249 L190.628 56.951 L191.300 55.787 L190.627 56.951 L189.872 58.238 L189.010 59.596 L187.963 60.944 L186.615 62.177 L184.858 63.194 L182.658 63.939 L180.096 64.422 L177.360 64.713 L174.692 64.915 L172.326 65.126 L170.437 65.410 L169.125 65.786 L168.427 66.239 L168.351 66.736 L168.909 67.247 L169.759 67.876 L170.545 68.730 L171.284 69.794 L171.995 71.055 L172.679 72.488 L173.322 74.062 L173.892 75.733 L174.349 77.454 L174.651 79.177 L174.765 80.858 L174.678 82.464 L174.397 83.977 L173.949 85.387 L173.380 86.696 L172.744 87.911 L172.100 89.042" />
<path d="M218.149 125.581 L219.195 125.867 L220.286 126.209 L221.392 126.645 L222.487 127.212 L223.544 127.938 L224.542 128.833 L225.465 129.891 L226.302 131.084 L227.047 132.367 L227.696 133.689 L228.244 134.995 L228.686 136.242 L229.010 137.403 L229.201 138.467 L229.242 139.432 L229.112 140.304 L229.084 140.934 L229.422 141.182 L230.100 141.038 L231.095 140.486 L232.375 139.540 L233.893 138.271 L235.584 136.818 L237.368 135.377 L239.162 134.152 L240.898 133.294 L242.533 132.859 L244.053 132.790 L245.464 132.968 L246.773 133.260 L247.976 133.573 L249.058 133.863 L247.976 133.573 L246.777 133.243 L245.498 132.841 L244.187 132.289 L242.905 131.470 L241.707 130.275 L240.632 128.665 L239.691 126.707 L238.867 124.567 L238.129 122.463 L237.448 120.605 L236.813 119.145 L236.227 118.170 L235.712 117.706 L235.295 117.752 L235.005 118.311 L234.681 119.132 L234.163 119.948 L233.466 120.773 L232.605 121.616 L231.599 122.476 L230.471 123.333 L229.248 124.153 L227.961 124.892 L226.640 125.506 L225.312 125.961 L224.000 126.237 L222.721 126.337 L221.490 126.281 L220.313 126.106 L219.198 125.856 L218.149 125.581" />
<path d="M202.568 152.568 L203.339 153.348 L204.122 154.198 L204.870 155.140 L205.542 156.190 L206.101 157.360 L206.522 158.649 L206.796 160.042 L206.926 161.510 L206.930 163.010 L206.830 164.496 L206.649 165.917 L206.405 167.233 L206.102 168.413 L205.732 169.441 L205.279 170.307 L204.724 171.005 L204.381 171.543 L204.552 171.931 L205.219 172.147 L206.369 172.167 L207.968 171.986 L209.940 171.642 L212.156 171.225 L214.447 170.865 L216.637 170.699 L218.591 170.826 L220.243 171.271 L221.609 171.980 L222.755 172.848 L223.753 173.766 L224.648 174.649 L225.450 175.450 L224.649 174.648 L223.766 173.753 L222.848 172.755 L221.980 171.609 L221.271 170.243 L220.826 168.591 L220.699 166.637 L220.865 164.447 L221.225 162.156 L221.642 159.940 L221.986 157.968 L222.167 156.369 L222.147 155.219 L221.931 154.552 L221.543 154.381 L221.005 154.724 L220.307 155.279 L219.441 155.732 L218.413 156.102 L217.233 156.405 L215.917 156.649 L214.496 156.830 L213.010 156.930 L211.510 156.926 L210.042 156.796 L208.649 156.522 L207.360 156.101 L206.190 155.542 L205.140 154.870 L204.198 154.122 L203.348 153.339 L202.568 152.568" />
<path d="M175.581 168.149 L175.863 169.225 L176.119 170.369 L176.299 171.576 L176.357 172.840 L176.254 174.151 L175.971 175.497 L175.505 176.860 L174.874 178.215 L174.116 179.535 L173.275 180.789 L172.396 181.946 L171.514 182.979 L170.649 183.862 L169.802 184.577 L168.965 185.109 L168.123 185.440 L167.550 185.739 L167.503 186.166 L167.979 186.695 L168.979 187.295 L170.476 187.947 L172.383 188.645 L174.541 189.403 L176.736 190.248 L178.745 191.214 L180.397 192.316 L181.622 193.545 L182.463 194.861 L183.029 196.205 L183.441 197.517 L183.779 198.747 L184.077 199.858 L183.780 198.747 L183.459 197.513 L183.159 196.170 L182.977 194.723 L183.047 193.163 L183.494 191.486 L184.373 189.706 L185.630 187.865 L187.108 186.035 L188.599 184.300 L189.901 182.742 L190.872 181.429 L191.437 180.409 L191.585 179.713 L191.331 179.366 L190.685 179.395 L189.790 179.528 L188.800 179.487 L187.709 179.291 L186.518 178.958 L185.238 178.505 L183.898 177.943 L182.543 177.277 L181.226 176.513 L180.002 175.654 L178.917 174.707 L177.999 173.683 L177.255 172.599 L176.673 171.476 L176.225 170.341 L175.875 169.222 L175.581 168.149" />
<path d="M144.419 168.149 L144.121 169.239 L143.765 170.375 L143.310 171.529 L142.719 172.669 L141.963 173.771 L141.030 174.811 L139.928 175.773 L138.685 176.645 L137.347 177.422 L135.970 178.098 L134.609 178.669 L133.309 179.129 L132.099 179.467 L130.991 179.666 L129.985 179.708 L129.076 179.573 L128.420 179.544 L128.162 179.896 L128.312 180.602 L128.887 181.639 L129.872 182.973 L131.196 184.555 L132.710 186.318 L134.211 188.177 L135.488 190.046 L136.381 191.855 L136.835 193.558 L136.906 195.143 L136.721 196.613 L136.417 197.977 L136.090 199.231 L135.789 200.359 L136.091 199.231 L136.435 197.981 L136.853 196.648 L137.428 195.282 L138.282 193.946 L139.527 192.698 L141.205 191.578 L143.245 190.597 L145.475 189.738 L147.668 188.969 L149.605 188.260 L151.125 187.598 L152.141 186.987 L152.625 186.451 L152.577 186.017 L151.994 185.714 L151.140 185.376 L150.289 184.837 L149.429 184.110 L148.550 183.213 L147.654 182.164 L146.761 180.989 L145.907 179.715 L145.137 178.374 L144.497 176.997 L144.023 175.613 L143.735 174.246 L143.631 172.914 L143.689 171.630 L143.872 170.404 L144.133 169.242 L144.419 168.149" />
<path d="M117.432 152.568 L116.615 153.376 L115.724 154.196 L114.738 154.980 L113.637 155.684 L112.412 156.269 L111.062 156.711 L109.602 156.997 L108.065 157.134 L106.492 157.137 L104.936 157.032 L103.448 156.844 L102.069 156.588 L100.832 156.270 L99.755 155.883 L98.848 155.408 L98.117 154.827 L97.554 154.468 L97.147 154.646 L96.920 155.345 L96.899 156.550 L97.089 158.225 L97.450 160.291 L97.887 162.612 L98.264 165.012 L98.438 167.307 L98.305 169.354 L97.839 171.084 L97.096 172.515 L96.186 173.716 L95.225 174.762 L94.300 175.700 L93.461 176.539 L94.300 175.700 L95.238 174.775 L96.284 173.814 L97.485 172.904 L98.916 172.161 L100.646 171.695 L102.693 171.562 L104.988 171.736 L107.388 172.113 L109.709 172.550 L111.775 172.911 L113.450 173.101 L114.655 173.080 L115.354 172.853 L115.532 172.446 L115.173 171.883 L114.592 171.152 L114.117 170.245 L113.730 169.168 L113.412 167.931 L113.156 166.552 L112.968 165.064 L112.863 163.508 L112.866 161.935 L113.003 160.398 L113.289 158.938 L113.731 157.588 L114.316 156.363 L115.020 155.262 L115.804 154.276 L116.624 153.385 L117.432 152.568" />
<path d="M101.851 125.581 L100.721 125.877 L99.519 126.146 L98.251 126.335 L96.924 126.396 L95.546 126.288 L94.132 125.990 L92.701 125.501 L91.277 124.839 L89.890 124.042 L88.573 123.159 L87.357 122.235 L86.273 121.309 L85.345 120.400 L84.593 119.511 L84.035 118.631 L83.687 117.747 L83.373 117.144 L82.924 117.095 L82.369 117.595 L81.738 118.646 L81.053 120.218 L80.320 122.221 L79.524 124.489 L78.636 126.795 L77.622 128.905 L76.464 130.640 L75.173 131.927 L73.791 132.810 L72.379 133.405 L71.000 133.837 L69.708 134.193 L68.542 134.506 L69.708 134.194 L71.005 133.856 L72.415 133.541 L73.936 133.350 L75.574 133.424 L77.336 133.893 L79.206 134.817 L81.139 136.137 L83.062 137.690 L84.884 139.256 L86.521 140.624 L87.900 141.644 L88.972 142.238 L89.703 142.393 L90.067 142.126 L90.037 141.448 L89.897 140.508 L89.941 139.467 L90.147 138.321 L90.496 137.070 L90.972 135.726 L91.563 134.318 L92.262 132.894 L93.065 131.511 L93.967 130.226 L94.962 129.086 L96.037 128.121 L97.176 127.339 L98.356 126.728 L99.548 126.258 L100.724 125.890 L101.851 125.581" />
<path d="M101.851 94.419 L100.704 94.105 L99.508 93.730 L98.294 93.252 L97.094 92.630 L95.935 91.834 L94.840 90.852 L93.828 89.692 L92.910 88.385 L92.093 86.977 L91.381 85.528 L90.780 84.096 L90.296 82.727 L89.941 81.454 L89.731 80.288 L89.687 79.229 L89.829 78.273 L89.860 77.582 L89.489 77.310 L88.745 77.469 L87.654 78.073 L86.251 79.111 L84.585 80.503 L82.731 82.096 L80.774 83.677 L78.807 85.020 L76.904 85.960 L75.111 86.438 L73.444 86.513 L71.896 86.318 L70.461 85.998 L69.142 85.654 L67.955 85.337 L69.141 85.655 L70.456 86.017 L71.859 86.457 L73.297 87.062 L74.703 87.961 L76.017 89.271 L77.195 91.037 L78.227 93.184 L79.131 95.531 L79.941 97.838 L80.687 99.876 L81.384 101.476 L82.026 102.546 L82.591 103.055 L83.048 103.005 L83.367 102.391 L83.721 101.492 L84.289 100.596 L85.054 99.692 L85.998 98.767 L87.102 97.824 L88.339 96.884 L89.679 95.985 L91.090 95.174 L92.539 94.501 L93.996 94.002 L95.435 93.699 L96.837 93.590 L98.187 93.651 L99.478 93.844 L100.701 94.118 L101.851 94.419" />
<path d="M117.432 67.432 L116.581 66.571 L115.717 65.632 L114.891 64.593 L114.149 63.434 L113.532 62.142 L113.067 60.720 L112.765 59.182 L112.621 57.562 L112.617 55.905 L112.728 54.266 L112.927 52.697 L113.196 51.244 L113.531 49.941 L113.939 48.807 L114.440 47.850 L115.052 47.080 L115.430 46.487 L115.242 46.059 L114.506 45.819 L113.236 45.797 L111.471 45.997 L109.294 46.377 L106.849 46.838 L104.320 47.235 L101.902 47.418 L99.745 47.278 L97.922 46.787 L96.414 46.004 L95.149 45.045 L94.047 44.033 L93.059 43.058 L92.174 42.174 L93.058 43.059 L94.033 44.047 L95.045 45.149 L96.004 46.414 L96.787 47.922 L97.278 49.745 L97.418 51.902 L97.235 54.320 L96.838 56.849 L96.377 59.294 L95.997 61.471 L95.797 63.236 L95.819 64.506 L96.059 65.242 L96.487 65.430 L97.080 65.052 L97.850 64.440 L98.807 63.939 L99.941 63.531 L101.244 63.196 L102.697 62.927 L104.266 62.728 L105.905 62.617 L107.562 62.621 L109.182 62.765 L110.720 63.067 L112.142 63.532 L113.434 64.149 L114.593 64.891 L115.632 65.717 L116.571 66.581 L117.432 67.432" />
<path d="M144.419 51.851 L144.107 50.659 L143.823 49.391 L143.623 48.054 L143.560 46.655 L143.673 45.202 L143.987 43.711 L144.504 42.201 L145.202 40.699 L146.042 39.237 L146.974 37.848 L147.948 36.566 L148.925 35.422 L149.883 34.443 L150.821 33.651 L151.749 33.063 L152.681 32.695 L153.316 32.364 L153.368 31.891 L152.841 31.306 L151.733 30.640 L150.075 29.918 L147.962 29.145 L145.571 28.306 L143.139 27.369 L140.914 26.299 L139.084 25.078 L137.726 23.717 L136.795 22.259 L136.168 20.770 L135.712 19.316 L135.336 17.953 L135.007 16.723 L135.336 17.953 L135.692 19.321 L136.024 20.808 L136.226 22.412 L136.148 24.140 L135.653 25.997 L134.679 27.970 L133.286 30.009 L131.649 32.036 L129.997 33.958 L128.554 35.684 L127.479 37.139 L126.853 38.269 L126.689 39.040 L126.970 39.424 L127.686 39.392 L128.677 39.245 L129.775 39.290 L130.983 39.508 L132.303 39.876 L133.720 40.378 L135.205 41.001 L136.707 41.738 L138.165 42.585 L139.521 43.536 L140.723 44.585 L141.740 45.720 L142.565 46.921 L143.210 48.165 L143.705 49.423 L144.093 50.662 L144.419 51.851" />
<path d="M175.581 51.851 L175.912 50.641 L176.308 49.378 L176.812 48.098 L177.469 46.831 L178.309 45.608 L179.345 44.453 L180.569 43.385 L181.949 42.416 L183.434 41.554 L184.963 40.803 L186.475 40.169 L187.918 39.658 L189.262 39.283 L190.492 39.061 L191.610 39.015 L192.619 39.165 L193.348 39.197 L193.634 38.806 L193.468 38.022 L192.829 36.870 L191.735 35.389 L190.265 33.632 L188.584 31.675 L186.917 29.610 L185.499 27.534 L184.507 25.526 L184.003 23.634 L183.924 21.875 L184.129 20.242 L184.467 18.728 L184.830 17.335 L185.165 16.083 L184.829 17.335 L184.447 18.722 L183.982 20.203 L183.344 21.720 L182.396 23.204 L181.013 24.590 L179.150 25.833 L176.884 26.922 L174.408 27.876 L171.973 28.731 L169.822 29.518 L168.134 30.253 L167.005 30.931 L166.469 31.527 L166.521 32.009 L167.169 32.346 L168.118 32.720 L169.062 33.319 L170.017 34.126 L170.993 35.123 L171.988 36.287 L172.980 37.592 L173.929 39.007 L174.784 40.496 L175.495 42.025 L176.021 43.562 L176.340 45.081 L176.456 46.560 L176.391 47.985 L176.188 49.346 L175.899 50.637 L175.581 51.851" />
<path d="M202.568 67.432 L203.477 66.533 L204.468 65.621 L205.565 64.749 L206.789 63.966 L208.152 63.315 L209.654 62.824 L211.277 62.505 L212.987 62.353 L214.736 62.350 L216.467 62.466 L218.123 62.676 L219.656 62.961 L221.032 63.314 L222.230 63.745 L223.239 64.273 L224.053 64.919 L224.679 65.319 L225.131 65.120 L225.383 64.343 L225.406 63.003 L225.195 61.139 L224.794 58.842 L224.308 56.260 L223.889 53.590 L223.695 51.037 L223.843 48.761 L224.362 46.836 L225.188 45.244 L226.200 43.909 L227.269 42.746 L228.298 41.702 L229.232 40.768 L228.298 41.702 L227.254 42.731 L226.091 43.800 L224.756 44.812 L223.164 45.638 L221.239 46.157 L218.963 46.305 L216.410 46.111 L213.740 45.692 L211.158 45.206 L208.861 44.805 L206.997 44.594 L205.657 44.617 L204.880 44.869 L204.681 45.321 L205.081 45.947 L205.727 46.761 L206.255 47.770 L206.686 48.968 L207.039 50.344 L207.324 51.877 L207.534 53.533 L207.650 55.264 L207.647 57.013 L207.495 58.723 L207.176 60.346 L206.685 61.848 L206.034 63.211 L205.251 64.435 L204.379 65.532 L203.467 66.523 L202.568 67.432" />
<path d="M218.149 94.419 L219.408 94.089 L220.746 93.790 L222.158 93.579 L223.636 93.512 L225.170 93.632 L226.744 93.963 L228.338 94.508 L229.924 95.246 L231.468 96.133 L232.935 97.116 L234.289 98.145 L235.496 99.176 L236.530 100.189 L237.366 101.179 L237.988 102.158 L238.376 103.143 L238.725 103.814 L239.224 103.868 L239.843 103.312 L240.546 102.142 L241.308 100.391 L242.125 98.160 L243.010 95.635 L244.000 93.067 L245.129 90.718 L246.418 88.786 L247.856 87.352 L249.395 86.369 L250.968 85.707 L252.503 85.225 L253.942 84.829 L255.240 84.480 L253.941 84.828 L252.497 85.204 L250.927 85.555 L249.234 85.768 L247.409 85.686 L245.448 85.163 L243.365 84.134 L241.212 82.664 L239.071 80.935 L237.042 79.191 L235.220 77.668 L233.684 76.533 L232.490 75.871 L231.676 75.698 L231.271 75.995 L231.304 76.751 L231.460 77.797 L231.412 78.956 L231.182 80.232 L230.793 81.625 L230.263 83.123 L229.605 84.690 L228.827 86.275 L227.933 87.816 L226.928 89.247 L225.821 90.516 L224.623 91.591 L223.354 92.461 L222.041 93.142 L220.713 93.666 L219.404 94.075 L218.149 94.419" />
<circle cx="160.000" cy="110.000" r="8.000" />
</svg>
