<svg xmlns="http://www.w3.org/2000/svg" viewBox="0 0 320 220">
<path d="M146.026 26.097 L149.176 28.134 L152.326 29.979 L155.476 31.647 L158.626 33.283 L161.777 35.068 L164.927 37.119 L168.077 39.446 L171.227 41.966 L174.377 44.556 L177.527 47.096 L180.678 49.504 L183.828 51.743 L186.978 53.808 L190.128 55.722 L193.278 57.521 L196.429 59.248 L199.579 60.950 L202.729 62.675 L205.879 64.466 L209.029 66.360 L212.179 68.376 L215.330 70.517 L218.480 72.762 L221.630 75.068 L224.780 77.381 L227.930 79.643 L231.080 81.820 L234.231 83.913 L237.381 85.964 L240.531 88.038 L243.681 90.177 L246.831 92.363 L249.981 94.495 L253.132 96.440 L256.282 98.118 L259.432 99.599" />
<path d="M140.329 32.201 L143.479 33.827 L146.629 35.499 L149.779 37.463 L152.929 39.802 L156.079 42.404 L159.230 45.055 L162.380 47.556 L165.530 49.808 L168.680 51.818 L171.830 53.650 L174.980 55.382 L178.131 57.073 L181.281 58.758 L184.431 60.456 L187.581 62.182 L190.731 63.957 L193.882 65.800 L197.032 67.733 L200.182 69.770 L203.332 71.914 L206.482 74.164 L209.632 76.508 L212.783 78.933 L215.933 81.422 L219.083 83.947 L222.233 86.460 L225.383 88.884 L228.533 91.123 L231.684 93.091 L234.834 94.771 L237.984 96.251 L241.134 97.727 L244.284 99.417 L247.434 101.445 L250.585 103.745 L253.735 106.089" />
<path d="M134.631 37.964 L137.782 39.987 L140.932 42.445 L144.082 45.148 L147.232 47.767 L150.382 50.067 L153.532 52.027 L156.683 53.791 L159.833 55.536 L162.983 57.362 L166.133 59.266 L169.283 61.190 L172.433 63.078 L175.584 64.916 L178.734 66.735 L181.884 68.588 L185.034 70.527 L188.184 72.588 L191.335 74.784 L194.485 77.097 L197.635 79.492 L200.785 81.910 L203.935 84.284 L207.085 86.545 L210.236 88.644 L213.386 90.574 L216.536 92.389 L219.686 94.193 L222.836 96.098 L225.986 98.157 L229.137 100.312 L232.287 102.411 L235.437 104.317 L238.587 106.038 L241.737 107.780 L244.887 109.826 L248.038 112.310" />
<path d="M128.934 44.782 L132.084 47.483 L135.235 50.165 L138.385 52.467 L141.535 54.351 L144.685 56.059 L147.835 57.869 L150.985 59.873 L154.136 61.950 L157.286 63.902 L160.436 65.615 L163.586 67.122 L166.736 68.557 L169.886 70.069 L173.037 71.758 L176.187 73.657 L179.337 75.749 L182.487 77.989 L185.637 80.327 L188.787 82.717 L191.938 85.123 L195.088 87.525 L198.238 89.915 L201.388 92.289 L204.538 94.619 L207.689 96.840 L210.839 98.865 L213.989 100.637 L217.139 102.205 L220.289 103.763 L223.439 105.572 L226.590 107.791 L229.740 110.342 L232.890 112.925 L236.040 115.250 L239.190 117.290 L242.340 119.314" />
<path d="M123.237 52.147 L126.387 54.726 L129.537 56.817 L132.688 58.553 L135.838 60.331 L138.988 62.387 L142.138 64.591 L145.288 66.601 L148.438 68.193 L151.589 69.445 L154.739 70.644 L157.889 72.063 L161.039 73.813 L164.189 75.843 L167.339 78.041 L170.490 80.319 L173.640 82.638 L176.790 84.987 L179.940 87.355 L183.090 89.710 L186.240 92.002 L189.391 94.173 L192.541 96.184 L195.691 98.049 L198.841 99.862 L201.991 101.773 L205.142 103.891 L208.292 106.183 L211.442 108.457 L214.592 110.503 L217.742 112.308 L220.892 114.135 L224.043 116.335 L227.193 119.021 L230.343 121.909 L233.493 124.533 L236.643 126.675" />
<path d="M117.540 58.968 L120.690 61.062 L123.840 62.817 L126.990 64.704 L130.141 66.950 L133.291 69.279 L136.441 71.219 L139.591 72.593 L142.741 73.687 L145.891 74.961 L149.042 76.639 L152.192 78.594 L155.342 80.553 L158.492 82.370 L161.642 84.109 L164.792 85.927 L167.943 87.927 L171.093 90.113 L174.243 92.429 L177.393 94.823 L180.543 97.269 L183.693 99.751 L186.844 102.218 L189.994 104.543 L193.144 106.575 L196.294 108.286 L199.444 109.880 L202.595 111.704 L205.745 113.967 L208.895 116.521 L212.045 118.968 L215.195 121.060 L218.345 122.985 L221.496 125.196 L224.646 127.922 L227.796 130.872 L230.946 133.486" />
<path d="M111.843 65.157 L114.993 66.983 L118.143 68.854 L121.293 71.157 L124.443 73.694 L127.594 75.887 L130.744 77.420 L133.894 78.586 L137.044 79.942 L140.194 81.716 L143.344 83.612 L146.495 85.211 L149.645 86.455 L152.795 87.700 L155.945 89.333 L159.095 91.439 L162.245 93.821 L165.396 96.264 L168.546 98.670 L171.696 101.002 L174.846 103.215 L177.996 105.332 L181.146 107.519 L184.297 109.947 L187.447 112.540 L190.597 114.945 L193.747 116.869 L196.897 118.447 L200.048 120.184 L203.198 122.454 L206.348 125.096 L209.498 127.590 L212.648 129.659 L215.798 131.594 L218.949 133.928 L222.099 136.788 L225.249 139.698" />
<path d="M106.145 71.133 L109.296 72.831 L112.446 74.838 L115.596 77.378 L118.746 80.012 L121.896 82.128 L125.047 83.633 L128.197 85.035 L131.347 86.814 L134.497 88.847 L137.647 90.582 L140.797 91.738 L143.948 92.682 L147.098 94.044 L150.248 96.020 L153.398 98.221 L156.548 100.198 L159.698 101.998 L162.849 104.066 L165.999 106.642 L169.149 109.416 L172.299 111.880 L175.449 113.944 L178.599 116.037 L181.750 118.554 L184.900 121.328 L188.050 123.784 L191.200 125.619 L194.350 127.187 L197.500 129.108 L200.651 131.558 L203.801 134.094 L206.951 136.217 L210.101 138.001 L213.251 140.019 L216.402 142.651 L219.552 145.595" />
<path d="M100.448 77.480 L103.598 78.950 L106.749 80.782 L109.899 83.228 L113.049 85.862 L116.199 88.069 L119.349 89.746 L122.500 91.378 L125.650 93.414 L128.800 95.697 L131.950 97.642 L135.100 98.939 L138.250 99.939 L141.401 101.261 L144.551 103.109 L147.701 105.110 L150.851 106.841 L154.001 108.383 L157.151 110.214 L160.302 112.607 L163.452 115.274 L166.602 117.724 L169.752 119.867 L172.902 122.121 L176.052 124.862 L179.203 127.891 L182.353 130.600 L185.503 132.652 L188.653 134.373 L191.803 136.362 L194.953 138.787 L198.104 141.207 L201.254 143.138 L204.404 144.681 L207.554 146.440 L210.704 148.830 L213.855 151.583" />
<path d="M94.751 84.663 L97.901 85.920 L101.051 87.310 L104.202 89.289 L107.352 91.702 L110.502 93.988 L113.652 95.820 L116.802 97.449 L119.952 99.372 L123.103 101.741 L126.253 104.182 L129.403 106.202 L132.553 107.688 L135.703 108.963 L138.854 110.412 L142.004 112.142 L145.154 114.009 L148.304 115.863 L151.454 117.686 L154.604 119.519 L157.755 121.381 L160.905 123.344 L164.055 125.594 L167.205 128.293 L170.355 131.329 L173.505 134.291 L176.656 136.810 L179.806 138.944 L182.956 141.124 L186.106 143.664 L189.256 146.368 L192.406 148.708 L195.557 150.426 L198.707 151.861 L201.857 153.612 L205.007 155.884 L208.157 158.284" />
<path d="M89.054 92.204 L92.204 93.699 L95.354 94.861 L98.504 96.248 L101.655 98.151 L104.805 100.343 L107.955 102.367 L111.105 104.036 L114.255 105.598 L117.405 107.449 L120.556 109.738 L123.706 112.255 L126.856 114.653 L130.006 116.729 L133.156 118.512 L136.307 120.152 L139.457 121.776 L142.607 123.439 L145.757 125.154 L148.907 126.949 L152.057 128.876 L155.208 130.990 L158.358 133.288 L161.508 135.665 L164.658 137.964 L167.808 140.121 L170.958 142.281 L174.109 144.716 L177.259 147.554 L180.409 150.569 L183.559 153.303 L186.709 155.470 L189.859 157.248 L193.010 159.109 L196.160 161.330 L199.310 163.684 L202.460 165.701" />
<path d="M83.357 98.927 L86.507 101.136 L89.657 102.776 L92.807 104.045 L95.957 105.399 L99.108 107.135 L102.258 109.162 L105.408 111.162 L108.558 112.914 L111.708 114.474 L114.858 116.086 L118.009 117.971 L121.159 120.177 L124.309 122.593 L127.459 125.054 L130.609 127.439 L133.760 129.693 L136.910 131.816 L140.060 133.824 L143.210 135.736 L146.360 137.559 L149.510 139.298 L152.661 140.969 L155.811 142.635 L158.961 144.414 L162.111 146.461 L165.261 148.867 L168.411 151.561 L171.562 154.297 L174.712 156.805 L177.862 159.009 L181.012 161.119 L184.162 163.450 L187.312 166.096 L190.463 168.779 L193.613 171.061 L196.763 172.773" />
<path d="M77.660 104.732 L80.810 107.316 L83.960 109.761 L87.110 111.737 L90.260 113.249 L93.410 114.589 L96.561 116.084 L99.711 117.868 L102.861 119.848 L106.011 121.840 L109.161 123.725 L112.311 125.512 L115.462 127.299 L118.612 129.187 L121.762 131.227 L124.912 133.405 L128.062 135.667 L131.213 137.946 L134.363 140.186 L137.513 142.354 L140.663 144.444 L143.813 146.477 L146.963 148.496 L150.114 150.544 L153.264 152.638 L156.414 154.744 L159.564 156.790 L162.714 158.715 L165.864 160.550 L169.015 162.452 L172.165 164.636 L175.315 167.214 L178.465 170.056 L181.615 172.826 L184.765 175.210 L187.916 177.170 L191.066 178.992" />
<path d="M71.962 110.998 L75.113 113.143 L78.263 115.576 L81.413 118.106 L84.563 120.427 L87.713 122.346 L90.863 123.890 L94.014 125.259 L97.164 126.683 L100.314 128.304 L103.464 130.148 L106.614 132.162 L109.764 134.279 L112.915 136.457 L116.065 138.679 L119.215 140.945 L122.365 143.253 L125.515 145.590 L128.665 147.931 L131.816 150.241 L134.966 152.482 L138.116 154.619 L141.266 156.620 L144.416 158.467 L147.567 160.165 L150.717 161.761 L153.867 163.353 L157.017 165.074 L160.167 167.048 L163.317 169.318 L166.468 171.799 L169.618 174.295 L172.768 176.616 L175.918 178.717 L179.068 180.750 L182.218 182.961 L185.369 185.464" />
<path d="M66.265 118.077 L69.415 120.122 L72.566 122.063 L75.716 124.104 L78.866 126.318 L82.016 128.609 L85.166 130.804 L88.316 132.765 L91.467 134.467 L94.617 135.985 L97.767 137.453 L100.917 138.995 L104.067 140.696 L107.217 142.590 L110.368 144.667 L113.518 146.894 L116.668 149.222 L119.818 151.599 L122.968 153.976 L126.118 156.307 L129.269 158.557 L132.419 160.710 L135.569 162.767 L138.719 164.754 L141.869 166.711 L145.020 168.682 L148.170 170.691 L151.320 172.729 L154.470 174.751 L157.620 176.701 L160.770 178.562 L163.921 180.400 L167.071 182.361 L170.221 184.603 L173.371 187.172 L176.521 189.932 L179.671 192.592" />
<path d="M60.568 124.434 L63.718 127.079 L66.868 129.444 L70.019 131.465 L73.169 133.241 L76.319 134.934 L79.469 136.673 L82.619 138.510 L85.769 140.428 L88.920 142.381 L92.070 144.336 L95.220 146.289 L98.370 148.262 L101.520 150.287 L104.670 152.390 L107.821 154.584 L110.971 156.858 L114.121 159.187 L117.271 161.536 L120.421 163.866 L123.571 166.140 L126.722 168.328 L129.872 170.410 L133.022 172.373 L136.172 174.211 L139.322 175.932 L142.473 177.558 L145.623 179.138 L148.773 180.753 L151.923 182.508 L155.073 184.508 L158.223 186.805 L161.374 189.358 L164.524 192.020 L167.674 194.586 L170.824 196.894 L173.974 198.924" />
</svg>
