<svg xmlns="http://www.w3.org/2000/svg" viewBox="0 0 320 220">
<path d="M160.000 154.099 L160.756 154.372 L161.150 154.844 L161.039 155.421 L160.354 155.984 L159.118 156.404 L157.442 156.566 L155.515 156.376 L153.589 155.782 L151.946 154.781 L150.863 153.425 L150.583 151.817 L151.275 150.103 L153.012 148.459 L155.753 147.073 L159.338 146.125 L163.494 145.764 L167.859 146.091 L172.009 147.141 L175.504 148.880 L177.928 151.194 L178.939 153.905 L178.304 156.775 L175.936 159.531 L171.909 161.890 L166.465 163.583 L160.000 164.385 L153.035 164.141 L146.176 162.780 L140.059 160.334 L135.292 156.936 L132.396 152.817 L131.750 148.286 L133.549 143.709 L137.774 139.476 L144.187 135.966 L152.336 133.514 L161.587 132.373 L171.180 132.694 L180.281 134.500 L188.064 137.684 L193.782 142.008 L196.838 147.123 L196.846 152.594 L193.673 157.934 L187.464 162.648 L178.636 166.276 L167.854 168.435 L155.980 168.855 L144.006 167.409 L132.966 164.130 L123.850 159.210 L117.515 152.992 L114.602 145.942 L115.476 138.616 L120.185 131.608 L128.442 125.506 L139.645 120.834 L152.919 118.007 L167.182 117.295 L181.237 118.789 L193.873 122.391 L203.966 127.820 L210.584 134.628 L213.071 142.237 L211.110 149.983 L204.758 157.175 L194.455 163.153" stroke-dasharray="3.000 2.000" />
<path d="M180.986 167.346 L165.431 169.321 L149.071 168.827 L133.282 165.818" />
<path d="M119.425 160.464 L108.719 153.138 L102.141 144.390 L100.331 134.900 L103.536 125.427 L111.578 116.742 L123.860 109.561 L139.415 104.485 L156.978 101.945 L175.092 102.163 L192.228 105.129 L206.917 110.597 L217.873 118.106 L224.111 127.011 L225.032 136.541 L220.481 145.857" stroke-dasharray="3.000 2.000" />
<path d="M210.767 154.128 L196.642 160.602 L179.243 164.665 L160.000 165.905 L140.519 164.139 L122.444 159.442 L107.321 152.135" />
<path d="M96.462 142.766 L90.832 132.062 L90.962 120.873 L96.901 110.098 L108.206 100.609 L123.975 93.179 L142.917 88.411 L163.464 86.690 L183.894 88.146 L202.485 92.640 L217.654 99.774 L228.094 108.925 L232.892 119.293 L231.603 129.970" stroke-dasharray="3.000 2.000" />
<path d="M224.295 140.016 L211.544 148.536 L194.392 154.760 L174.258 158.108 L152.819 158.238 L131.875 155.078 L113.189 148.835 L98.346 139.976 L88.610 129.191" />
<path d="M84.819 117.335 L87.316 105.357 L95.911 94.220 L109.900 84.819 L128.123 77.903 L149.058 74.017 L170.952 73.448 L191.968 76.206 L210.338 82.020 L224.517 90.362 L233.309 100.488" stroke-dasharray="3.000 2.000" />
<path d="M235.972 111.506 L232.280 122.445 L222.542 132.344 L207.576 140.326 L188.640 145.678 L167.326 147.908 L145.425 146.789 L124.774 142.373 L107.103 134.991 L93.889 125.225 L86.229 113.853 L84.752 101.789" />
<path d="M89.566 90.001 L100.246 79.432 L115.878 70.920 L135.135 65.127 L156.388 62.483 L177.849 63.152 L197.719 67.020 L214.341 73.703 L226.341 82.584" stroke-dasharray="3.000 2.000" />
<path d="M232.738 92.863 L233.030 103.629 L227.229 113.934 L215.859 122.876 L199.910 129.671 L180.748 133.725 L160.000 134.676 L139.414 132.424 L120.712 127.142 L105.442 119.254 L94.852 109.401 L89.785 98.383 L90.615 87.091" />
<path d="M97.216 76.430 L108.978 67.244 L124.865 60.245 L143.506 55.955 L163.311 54.662 L182.612 56.400 L199.803 60.949 L213.471 67.855" stroke-dasharray="3.000 2.000" />
<path d="M222.518 76.472 L226.247 86.019 L224.416 95.648 L217.253 104.515 L205.431 111.850 L190.002 117.025 L172.310 119.601 L153.864 119.364 L136.219 116.341 L120.834 110.791 L108.958 103.182 L101.524 94.148 L99.077 84.431 L101.733 74.818 L109.180 66.076" />
<path d="M120.707 58.883 L135.274 53.775 L151.607 51.104 L168.307 51.012 L183.972 53.419" stroke-dasharray="3.000 2.000" />
<path d="M197.316 58.040 L207.275 64.407 L213.090 71.920 L214.370 79.893 L211.110 87.618 L203.690 94.424 L192.828 99.734 L179.517 103.110 L164.930 104.290 L150.317 103.201 L136.900 99.964 L125.767 94.879 L117.785 88.393 L113.531 81.059 L113.252 73.487 L116.854 66.289 L123.917 60.028 L133.743 55.172 L145.421 52.056 L157.914 50.856 L170.150 51.585 L181.114 54.089 L189.934 58.071 L195.947 63.122 L198.756 68.754 L198.248 74.449 L194.595 79.707 L188.230 84.080 L179.799 87.218 L170.099 88.887 L160.000 88.992 L150.369 87.573 L141.994 84.800 L135.522 80.952 L131.404 76.388 L129.870 71.510 L130.914 66.728 L134.309 62.426 L139.638 58.924 L146.337 56.457 L153.756 55.158 L161.219 55.050 L168.084 56.052 L173.804 57.991 L177.966 60.623 L180.320 63.659 L180.796 66.793 L179.495 69.733 L176.674 72.227 L172.705 74.080 L168.037 75.174 L163.151 75.469 L158.504 75.005 L154.494 73.889 L151.422 72.284 L149.470 70.383 L148.693 68.391 L149.022 66.505 L150.282 64.888 L152.218 63.662 L154.530 62.890 L156.909 62.582 L159.072 62.692 L160.795 63.131 L161.934 63.777 L162.435 64.497 L162.340 65.160 L161.772 65.659 L160.918 65.916 L160.000 65.901" />
<path d="M84.007 110.527 L84.104 107.892 L84.393 104.057 L84.814 101.441 L85.673 97.681 L86.408 95.115 L87.819 91.497 L88.848 89.011 L90.183 86.565 L92.079 83.223 L93.668 80.894 L96.024 77.838 L97.830 75.649 L99.903 73.528 L102.574 70.909 L104.800 68.955 L107.263 67.082 L110.117 64.967 L112.661 63.281 L115.406 61.686 L118.297 60.126 L121.044 58.727 L123.957 57.426 L127.024 56.228 L129.561 55.348 L132.523 54.344 L135.602 53.444 L138.786 52.652 L142.061 51.973 L145.413 51.409 L148.827 50.962 L152.289 50.634 L155.784 50.428 L156.167 50.411 L159.361 50.333 L162.557 50.367 L165.742 50.510 L166.316 50.537 L169.793 50.817 L173.228 51.216 L176.607 51.734 L179.914 52.367 L183.136 53.114 L186.259 53.971 L189.269 54.934 L191.709 55.780 L194.834 56.934 L197.810 58.194 L200.625 59.555 L203.441 61.075 L206.265 62.631 L208.890 64.282 L211.306 66.020 L214.242 68.196 L216.564 70.118 L218.644 72.116 L221.372 74.792 L223.286 76.955 L225.617 79.978 L227.320 82.284 L228.735 84.645 L230.654 88.027 L231.806 90.498 L233.210 94.096 L234.071 96.651 L234.927 100.400 L235.477 103.009 L235.704 105.631 L235.993 109.473 L235.896 112.108 L235.607 115.943 L235.186 118.559 L234.327 122.319 L233.592 124.885 L232.181 128.503 L231.152 130.989 L229.817 133.435 L227.921 136.777 L226.332 139.106 L223.976 142.162 L222.170 144.351 L220.097 146.472 L217.426 149.091 L215.200 151.045 L212.737 152.918 L209.883 155.033 L207.339 156.719 L204.594 158.314 L201.703 159.874 L198.956 161.273 L196.043 162.574 L192.976 163.772 L190.439 164.652 L187.477 165.656 L184.398 166.556 L181.214 167.348 L177.939 168.027 L174.587 168.591 L171.173 169.038 L167.711 169.366 L164.216 169.572 L163.833 169.589 L160.639 169.667 L157.443 169.633 L154.258 169.490 L153.684 169.463 L150.207 169.183 L146.772 168.784 L143.393 168.266 L140.086 167.633 L136.864 166.886 L133.741 166.029 L130.731 165.066 L128.291 164.220 L125.166 163.066 L122.190 161.806 L119.375 160.445 L116.559 158.925 L113.735 157.369 L111.110 155.718 L108.694 153.980 L105.758 151.804 L103.436 149.882 L101.356 147.884 L98.628 145.208 L96.714 143.045 L94.383 140.022 L92.680 137.716 L91.265 135.355 L89.346 131.973 L88.194 129.502 L86.790 125.904 L85.929 123.349 L85.073 119.600 L84.523 116.991 L84.296 114.369 L84.007 110.527" />
</svg>
