<svg xmlns="http://www.w3.org/2000/svg" viewBox="0 0 320 220">
<path d="M160.000 154.099 L160.756 154.372 L161.150 154.844 L161.039 155.421 L160.354 155.984 L159.118 156.404 L157.442 156.566 L155.515 156.376 L153.589 155.782 L151.946 154.781 L150.863 153.425 L150.583 151.817 L151.275 150.103 L153.012 148.459 L155.753 147.073 L159.338 146.125 L163.494 145.764 L167.859 146.091 L172.009 147.141 L175.504 148.880 L177.928 151.194 L178.939 153.905 L178.304 156.775 L175.936 159.531 L171.909 161.890 L166.465 163.583 L160.000 164.385 L153.035 164.141 L146.176 162.780 L140.059 160.334 L135.292 156.936 L132.396 152.817 L131.750 148.286 L133.549 143.709 L137.774 139.476 L144.187 135.966 L152.336 133.514 L161.587 132.373 L171.180 132.694 L180.281 134.500 L188.064 137.684 L193.782 142.008 L196.838 147.123 L196.846 152.594 L193.673 157.934 L187.464 162.648 L178.636 166.276 L167.854 168.435 L155.980 168.855 L144.006 167.409 L132.966 164.130 L123.850 159.210 L117.515 152.992 L114.602 145.942 L115.476 138.616 L120.185 131.608 L128.442 125.506 L139.645 120.834 L152.919 118.007 L167.182 117.295 L181.237 118.789 L193.873 122.391 L203.966 127.820 L210.584 134.628 L213.071 142.237 L211.110 149.983 L204.758 157.175 L194.455 163.153" stroke-dasharray="3.000 2.000" />
<path d="M180.986 167.346 L165.431 169.321 L149.071 168.827 L133.282 165.818" />
<path d="M119.425 160.464 L108.719 153.138 L102.141 144.390 L100.331 134.900 L103.536 125.427 L111.578 116.742 L123.860 109.561 L139.415 104.485 L156.978 101.945 L175.092 102.163 L192.228 105.129 L206.917 110.597 L217.873 118.106 L224.111 127.011 L225.032 136.541 L220.481 145.857" stroke-dasharray="3.000 2.000" />
<path d="M210.767 154.128 L196.642 160.602 L179.243 164.665 L160.000 165.905 L140.519 164.139 L122.444 159.442 L107.321 152.135" />
<path d="M96.462 142.766 L90.832 132.062 L90.962 120.873 L96.901 110.098 L108.206 100.609 L123.975 93.179 L142.917 88.411 L163.464 86.690 L183.894 88.146 L202.485 92.640 L217.654 99.774 L228.094 108.925 L232.892 119.293 L231.603 129.970" stroke-dasharray="3.000 2.000" />
<path d="M224.295 140.016 L211.544 148.536 L194.392 154.760 L174.258 158.108 L152.819 158.238 L131.875 155.078 L113.189 148.835 L98.346 139.976 L88.610 129.191" />
<path d="M84.819 117.335 L87.316 105.357 L95.911 94.220 L109.900 84.819 L128.123 77.903 L149.058 74.017 L170.952 73.448 L191.968 76.206 L210.338 82.020 L224.517 90.362 L233.309 100.488" stroke-dasharray="3.000 2.000" />
<path d="M235.972 111.506 L232.280 122.445 L222.542 132.344 L207.576 140.326 L188.640 145.678 L167.326 147.908 L145.425 146.789 L124.774 142.373 L107.103 134.991 L93.889 125.225 L86.229 113.853 L84.752 101.789" />
<path d="M89.566 90.001 L100.246 79.432 L115.878 70.920 L135.135 65.127 L156.388 62.483 L177.849 63.152 L197.719 67.020 L214.341 73.703 L226.341 82.584" stroke-dasharray="3.000 2.000" />
<path d="M232.738 92.863 L233.030 103.629 L227.229 113.934 L215.859 122.876 L199.910 129.671 L180.748 133.725 L160.000 134.676 L139.414 132.424 L120.712 127.142 L105.442 119.254 L94.852 109.401 L89.785 98.383 L90.615 87.091" />
<path d="M97.216 76.430 L108.978 67.244 L124.865 60.245 L143.506 55.955 L163.311 54.662 L182.612 56.400 L199.803 60.949 L213.471 67.855" stroke-dasharray="3.000 2.000" />
<path d="M222.518 76.472 L226.247 86.019 L224.416 95.648 L217.253 104.515 L205.431 111.850 L190.002 117.025 L172.310 119.601 L153.864 119.364 L136.219 116.341 L120.834 110.791 L108.958 103.182 L101.524 94.148 L99.077 84.431 L101.733 74.818 L109.180 66.076" />
<path d="M120.707 58.883 L135.274 53.775 L151.607 51.104 L168.307 51.012 L183.972 53.419" stroke-dasharray="3.000 2.000" />
<path d="M197.316 58.040 L207.275 64.407 L213.090 71.920 L214.370 79.893 L211.110 87.618 L203.690 94.424 L192.828 99.734 L179.517 103.110 L164.930 104.290 L150.317 103.201 L136.900 99.964 L125.767 94.879 L117.785 88.393 L113.531 81.059 L113.252 73.487 L116.854 66.289 L123.917 60.028 L133.743 55.172 L145.421 52.056 L157.914 50.856 L170.150 51.585 L181.114 54.089 L189.934 58.071 L195.947 63.122 L198.756 68.754 L198.248 74.449 L194.595 79.707 L188.230 84.080 L179.799 87.218 L170.099 88.887 L160.000 88.992 L150.369 87.573 L141.994 84.800 L135.522 80.952 L131.404 76.388 L129.870 71.510 L130.914 66.728 L134.309 62.426 L139.638 58.924 L146.337 56.457 L153.756 55.158 L161.219 55.050 L168.084 56.052 L173.804 57.991 L177.966 60.623 L180.320 63.659 L180.796 66.793 L179.495 69.733 L176.674 72.227 L172.705 74.080 L168.037 75.174 L163.151 75.469 L158.504 75.005 L154.494 73.889 L151.422 72.284 L149.470 70.383 L148.693 68.391 L149.022 66.505 L150.282 64.888 L152.218 63.662 L154.530 62.890 L156.909 62.582 L159.072 62.692 L160.795 63.131 L161.934 63.777 L162.435 64.497 L162.340 65.160 L161.772 65.659 L160.918 65.916 L160.000 65.901" />
<path d="M177.975 155.808 L177.667 156.272 L177.316 156.727 L176.924 157.172 L176.491 157.607 L176.018 158.030 L175.506 158.440 L174.957 158.836 L174.372 159.218 L173.752 159.584 L173.100 159.933 L172.415 160.265 L171.701 160.579 L170.959 160.873 L170.190 161.148 L169.397 161.403 L168.581 161.637 L167.744 161.849 L166.889 162.040 L166.017 162.208 L165.130 162.353 L164.232 162.475 L163.323 162.573 L162.406 162.647 L161.483 162.698 L160.557 162.724 L159.629 162.727 L158.702 162.705 L157.778 162.659 L156.860 162.590 L155.949 162.496 L155.048 162.379 L154.159 162.239 L153.284 162.075 L152.426 161.889 L151.585 161.681 L150.765 161.452 L149.967 161.201 L149.193 160.930 L148.445 160.639 L147.725 160.329 L147.035 160.001 L146.376 159.655 L145.749 159.292 L145.157 158.914 L144.601 158.520 L144.082 158.113 L143.601 157.693 L143.160 157.260 L142.759 156.817 L142.400 156.363 L142.083 155.901 L141.809 155.432 L141.579 154.955 L141.394 154.474 L141.253 153.988 L141.158 153.499 L141.108 153.008 L141.103 152.516 L141.144 152.025 L141.231 151.536 L141.362 151.049 L141.539 150.567 L141.760 150.089 L142.025 149.618 L142.333 149.154 L142.684 148.699 L143.076 148.254 L143.509 147.819 L143.982 147.396 L144.494 146.986 L145.043 146.590 L145.628 146.208 L146.248 145.843 L146.900 145.493 L147.585 145.161 L148.299 144.848 L149.041 144.553 L149.810 144.278 L150.603 144.023 L151.419 143.789 L152.256 143.577 L153.111 143.386 L153.983 143.218 L154.870 143.073 L155.768 142.952 L156.677 142.853 L157.594 142.779 L158.517 142.728 L159.443 142.702 L160.371 142.699 L161.298 142.721 L162.222 142.767 L163.140 142.837 L164.051 142.930 L164.952 143.047 L165.841 143.188 L166.716 143.351 L167.574 143.537 L168.415 143.745 L169.235 143.974 L170.033 144.225 L170.807 144.496 L171.555 144.787 L172.275 145.097 L172.965 145.425 L173.624 145.771 L174.251 146.134 L174.843 146.512 L175.399 146.906 L175.918 147.313 L176.399 147.734 L176.840 148.166 L177.241 148.609 L177.600 149.063 L177.917 149.525 L178.191 149.994 L178.421 150.471 L178.606 150.952 L178.747 151.438 L178.842 151.927 L178.892 152.418 L178.897 152.910 L178.856 153.401 L178.769 153.890 L178.638 154.377 L178.461 154.860 L178.240 155.337 L177.975 155.808" />
<path d="M177.975 70.382 L177.667 70.846 L177.316 71.301 L176.924 71.746 L176.491 72.181 L176.018 72.604 L175.506 73.014 L174.957 73.410 L174.372 73.792 L173.752 74.157 L173.100 74.507 L172.415 74.839 L171.701 75.152 L170.959 75.447 L170.190 75.722 L169.397 75.977 L168.581 76.211 L167.744 76.423 L166.889 76.614 L166.017 76.782 L165.130 76.927 L164.232 77.048 L163.323 77.147 L162.406 77.221 L161.483 77.272 L160.557 77.298 L159.629 77.301 L158.702 77.279 L157.778 77.233 L156.860 77.163 L155.949 77.070 L155.048 76.953 L154.159 76.812 L153.284 76.649 L152.426 76.463 L151.585 76.255 L150.765 76.026 L149.967 75.775 L149.193 75.504 L148.445 75.213 L147.725 74.903 L147.035 74.575 L146.376 74.229 L145.749 73.866 L145.157 73.488 L144.601 73.094 L144.082 72.687 L143.601 72.266 L143.160 71.834 L142.759 71.391 L142.400 70.937 L142.083 70.475 L141.809 70.006 L141.579 69.529 L141.394 69.048 L141.253 68.562 L141.158 68.073 L141.108 67.582 L141.103 67.090 L141.144 66.599 L141.231 66.110 L141.362 65.623 L141.539 65.140 L141.760 64.663 L142.025 64.192 L142.333 63.728 L142.684 63.273 L143.076 62.828 L143.509 62.393 L143.982 61.970 L144.494 61.560 L145.043 61.164 L145.628 60.782 L146.248 60.416 L146.900 60.067 L147.585 59.735 L148.299 59.421 L149.041 59.127 L149.810 58.852 L150.603 58.597 L151.419 58.363 L152.256 58.151 L153.111 57.960 L153.983 57.792 L154.870 57.647 L155.768 57.525 L156.677 57.427 L157.594 57.353 L158.517 57.302 L159.443 57.276 L160.371 57.273 L161.298 57.295 L162.222 57.341 L163.140 57.410 L164.051 57.504 L164.952 57.621 L165.841 57.761 L166.716 57.925 L167.574 58.111 L168.415 58.319 L169.235 58.548 L170.033 58.799 L170.807 59.070 L171.555 59.361 L172.275 59.671 L172.965 59.999 L173.624 60.345 L174.251 60.708 L174.843 61.086 L175.399 61.480 L175.918 61.887 L176.399 62.307 L176.840 62.740 L177.241 63.183 L177.600 63.637 L177.917 64.099 L178.191 64.568 L178.421 65.045 L178.606 65.526 L178.747 66.012 L178.842 66.501 L178.892 66.992 L178.897 67.484 L178.856 67.975 L178.769 68.464 L178.638 68.951 L178.461 69.433 L178.240 69.911 L177.975 70.382" />
</svg>
