<svg xmlns="http://www.w3.org/2000/svg" viewBox="0 0 320 220">
<path d="M31.200 140.061 L33.650 140.376 L34.875 140.040 L36.099 139.700 L37.324 139.607 L38.549 139.519 L39.774 139.942 L40.999 140.379 L42.224 140.233 L43.448 140.064 L44.673 140.137 L45.898 140.222 L47.123 139.941 L48.348 139.638 L49.573 139.754 L50.797 139.901 L52.022 139.720 L53.247 139.512 L54.472 139.502 L55.697 139.512 L56.922 139.539 L58.146 139.567 L59.371 139.530 L60.596 139.484 L61.821 139.725 L63.046 140.002 L64.271 140.324 L65.496 140.652 L66.720 140.725 L67.945 140.759 L69.170 140.782 L70.395 140.802 L71.620 140.514 L72.845 140.169 L74.069 139.776 L75.294 139.374 L76.519 139.619 L77.744 139.999 L78.969 139.917 L80.194 139.730 L81.418 139.415 L82.643 139.068 L83.868 138.371 L85.093 137.585 L86.318 137.058 L87.543 136.600 L88.767 137.367 L89.992 138.482 L91.217 139.416 L92.442 140.297 L93.667 141.529 L94.892 142.871 L96.117 144.001 L97.341 145.060 L98.566 145.947 L99.791 146.773 L101.016 147.264 L102.241 147.633 L103.466 148.221 L104.690 148.894 L105.915 149.422 L107.140 149.890 L108.365 150.074 L109.590 150.137 L110.815 151.875 L112.039 154.358 L113.264 156.071 L114.489 157.427 L115.714 157.770 L116.939 157.620 L118.164 156.961 L119.388 156.043 L120.613 155.311 L121.838 154.676 L123.063 154.130 L124.288 153.632 L125.513 152.747 L126.738 151.637 L127.962 150.123 L129.187 148.365 L130.412 146.511 L131.637 144.598 L132.862 143.172 L134.087 142.061 L135.311 141.053 L136.536 140.116 L137.761 139.283 L138.986 138.526 L140.211 137.948 L141.436 137.501 L142.660 137.060 L143.885 136.625 L145.110 136.329 L146.335 136.144 L147.560 136.126 L148.785 136.246 L150.009 135.732 L151.234 134.673 L152.459 134.289 L153.684 134.505 L154.909 134.674 L156.134 134.800 L157.359 134.923 L158.583 135.043 L159.808 135.139 L161.033 135.211 L162.258 135.326 L163.483 135.484 L164.708 135.536 L165.932 135.472 L167.157 135.647 L168.382 136.091 L169.607 136.629 L170.832 137.277 L172.057 137.705 L173.281 137.869 L174.506 137.834 L175.731 137.551 L176.956 137.387 L178.181 137.378 L179.406 137.386 L180.630 137.418 L181.855 137.494 L183.080 137.632 L184.305 137.604 L185.530 137.328 L186.755 137.217 L187.980 137.362 L189.204 137.619 L190.429 138.059 L191.654 138.298 L192.879 138.205 L194.104 138.414 L195.329 139.150 L196.553 139.997 L197.778 141.044 L199.003 141.978 L200.228 142.697 L201.453 143.478 L202.678 144.383 L203.902 145.187 L205.127 145.784 L206.352 146.567 L207.577 147.753 L208.802 148.891 L210.027 149.921 L211.251 150.888 L212.476 151.706 L213.701 152.494 L214.926 153.210 L216.151 153.782 L217.376 153.983 L218.600 154.173 L219.825 154.332 L221.050 154.662 L222.275 155.478 L223.500 156.282 L224.725 157.046 L225.950 157.848 L227.174 158.764 L228.399 159.353 L229.624 158.846 L230.849 158.262 L232.074 157.407 L233.299 156.490 L234.523 155.346 L235.748 154.240 L236.973 153.286 L238.198 152.251 L239.423 150.871 L240.648 149.498 L241.872 148.152 L243.097 146.844 L244.322 145.713 L245.547 144.617 L246.772 143.698 L247.997 142.850 L249.221 142.388 L250.446 141.948 L251.671 141.632 L252.896 141.402 L254.121 141.722 L255.346 142.027 L256.571 142.218 L257.795 142.420 L259.020 142.702 L260.245 142.998 L261.470 143.417 L262.695 143.792 L263.920 143.739 L265.144 143.690 L266.369 143.673 L267.594 143.688 L268.819 144.077 L270.044 144.426 L271.269 144.224 L272.493 144.025 L273.718 143.888 L274.943 143.746 L276.168 143.516 L277.393 143.291 L278.618 143.208 L279.842 143.129 L281.067 143.195 L282.292 143.260 L283.517 143.262 L284.742 143.261 L287.192 142.796" />
<path d="M31.250 135.152 L33.700 135.677 L34.925 135.829 L36.150 135.980 L37.374 136.371 L38.599 136.766 L39.824 137.187 L41.049 137.609 L42.274 137.592 L43.499 137.558 L44.724 137.645 L45.948 137.737 L47.173 137.497 L48.398 137.236 L49.623 137.414 L50.848 137.624 L52.073 137.552 L53.297 137.457 L54.522 137.566 L55.747 137.694 L56.972 137.532 L58.197 137.338 L59.422 137.310 L60.646 137.300 L61.871 137.680 L63.096 138.111 L64.321 138.208 L65.546 138.257 L66.771 138.250 L67.995 138.234 L69.220 137.934 L70.445 137.585 L71.670 137.239 L72.895 136.895 L74.120 136.623 L75.344 136.366 L76.569 136.363 L77.794 136.413 L79.019 136.262 L80.244 136.065 L81.469 135.649 L82.694 135.180 L83.918 134.682 L85.143 134.178 L86.368 133.692 L87.593 133.212 L88.818 133.936 L90.043 135.001 L91.267 135.896 L92.492 136.738 L93.717 137.704 L94.942 138.709 L96.167 139.668 L97.392 140.612 L98.616 141.359 L99.841 142.036 L101.066 142.210 L102.291 142.199 L103.516 142.941 L104.741 143.975 L105.965 144.748 L107.190 145.416 L108.415 146.371 L109.640 147.446 L110.865 148.873 L112.090 150.456 L113.315 151.921 L114.539 153.331 L115.764 154.220 L116.989 154.856 L118.214 155.391 L119.439 155.876 L120.664 156.029 L121.888 156.007 L123.113 155.516 L124.338 154.766 L125.563 153.785 L126.788 152.671 L128.013 151.283 L129.237 149.731 L130.462 148.042 L131.687 146.266 L132.912 145.400 L134.137 145.126 L135.362 144.829 L136.586 144.516 L137.811 144.024 L139.036 143.408 L140.261 142.781 L141.486 142.147 L142.711 141.342 L143.936 140.407 L145.160 139.834 L146.385 139.549 L147.610 139.234 L148.835 138.896 L150.060 138.333 L151.285 137.578 L152.509 136.935 L153.734 136.391 L154.959 135.826 L156.184 135.242 L157.409 134.720 L158.634 134.257 L159.858 134.060 L161.083 134.128 L162.308 134.193 L163.533 134.254 L164.758 134.073 L165.983 133.632 L167.207 133.626 L168.432 134.110 L169.657 134.653 L170.882 135.265 L172.107 135.682 L173.332 135.861 L174.557 136.085 L175.781 136.363 L177.006 136.604 L178.231 136.795 L179.456 136.940 L180.681 137.020 L181.906 137.162 L183.130 137.393 L184.355 137.585 L185.580 137.720 L186.805 137.928 L188.030 138.248 L189.255 138.534 L190.479 138.766 L191.704 139.044 L192.929 139.397 L194.154 139.813 L195.379 140.337 L196.604 140.811 L197.828 141.193 L199.053 141.727 L200.278 142.549 L201.503 143.334 L202.728 144.044 L203.953 144.861 L204.941 145.696" />
<path d="M205.219 145.933 L206.402 147.003 L207.627 148.264 L208.852 149.401 L210.077 150.261 L211.302 151.132 L212.527 152.029 L213.751 152.761 L214.976 153.086 L216.201 153.560 L216.600 153.838" />
<path d="M216.646 153.871 L217.426 154.416 L218.651 155.294 L219.876 156.228 L221.100 157.018 L222.325 157.397 L223.550 157.511 L224.775 156.831 L226.000 156.290 L227.225 156.186 L228.449 155.916 L229.674 155.095 L230.899 154.239 L232.124 153.262 L233.349 152.228 L234.574 150.988 L235.799 149.739 L237.023 148.461 L238.248 147.208 L239.473 146.063 L240.698 144.893 L241.923 143.614 L243.148 142.247 L244.372 140.454 L245.597 138.757 L246.822 137.543 L248.047 136.521 L249.272 136.558 L250.497 136.673 L251.721 137.259 L252.946 137.840 L254.171 138.397 L255.396 138.956 L256.621 139.538 L257.846 140.077 L259.070 140.283 L260.295 140.480 L261.520 140.594 L262.745 140.688 L263.970 140.609 L265.195 140.526 L266.420 140.415 L267.644 140.328 L268.869 140.538 L270.094 140.737 L271.319 140.797 L272.544 140.838 L273.769 140.578 L274.993 140.324 L276.218 140.212 L277.443 140.098 L278.668 139.917 L279.893 139.742 L281.118 139.789 L282.342 139.833 L283.567 139.772 L284.792 139.706 L287.242 138.831" />
<path d="M31.301 130.955 L33.750 131.731 L34.975 132.129 L36.200 132.527 L37.425 133.201 L38.650 133.881 L39.874 134.199 L41.099 134.506 L42.324 134.487 L43.549 134.455 L44.774 134.537 L45.999 134.625 L47.223 134.456 L48.448 134.271 L49.673 134.454 L50.898 134.664 L52.123 134.662 L53.348 134.642 L54.572 134.782 L55.797 134.937 L57.022 134.802 L58.247 134.636 L59.472 134.601 L60.697 134.581 L61.922 134.776 L63.146 135.000 L64.371 134.938 L65.596 134.835 L66.821 134.844 L68.046 134.870 L69.271 134.527 L70.495 134.121 L71.720 133.977 L72.945 133.881 L74.170 133.737 L75.395 133.584 L76.620 133.401 L77.844 133.212 L79.069 132.926 L80.294 132.619 L81.519 132.218 L82.744 131.795 L83.969 131.660 L85.193 131.599 L86.418 131.430 L87.643 131.232 L88.868 131.732 L90.093 132.430 L91.318 132.892 L92.543 133.285 L93.767 133.992 L94.992 134.799 L96.217 135.839 L97.442 136.955 L98.667 137.719 L99.892 138.360 L101.116 138.639 L102.341 138.784 L103.566 139.557 L104.791 140.571 L106.016 141.469 L107.241 142.319 L108.465 143.449 L109.690 144.698 L110.915 145.924 L112.140 147.141 L113.365 148.447 L114.590 149.795 L115.814 150.895 L117.039 151.876 L118.264 152.918 L119.489 153.992 L120.714 154.646 L121.370 154.878" />
<path d="M124.291 154.902 L124.388 154.885 L125.613 154.301 L126.838 153.502 L128.063 152.411 L129.288 151.144 L130.513 149.818 L131.737 148.455 L132.962 147.920 L134.187 147.923 L135.412 147.827 L136.637 147.664 L137.862 147.210 L139.086 146.551 L140.311 145.812 L141.536 145.015 L142.761 144.049 L143.986 142.954 L145.211 142.247 L146.435 141.849 L147.660 141.309 L148.885 140.652 L150.110 139.888 L151.335 139.030 L152.560 138.063 L153.785 136.999 L155.009 136.027 L155.782 135.467" />
<path d="M156.768 134.773 L157.459 134.297 L158.684 133.495 L159.909 133.031 L161.134 132.905 L162.358 132.714 L163.583 132.455 L164.808 131.917 L166.033 131.078 L167.258 130.850 L168.483 131.309 L169.707 131.814 L170.932 132.371 L172.157 132.809 L173.382 133.103 L174.607 133.495 L175.832 134.008 L177.056 134.471 L178.281 134.866 L179.506 135.259 L180.731 135.650 L181.956 136.004 L183.181 136.306 L184.406 136.650 L185.630 137.057 L186.194 137.262" />
<path d="M191.122 138.916 L191.755 139.146 L192.979 139.878 L194.204 140.536 L195.429 141.066 L196.654 141.554 L197.879 141.964 L199.104 142.589 L200.328 143.620 L201.553 144.582 L202.778 145.404 L204.003 146.343 L205.228 147.524 L206.453 148.657 L207.677 149.689 L208.902 150.648 L210.127 151.442 L211.352 152.273 L212.577 153.191 L213.802 153.799 L215.027 153.641 L215.681 153.660" />
<path d="M222.238 155.437 L222.376 155.412 L223.600 154.917 L224.825 153.618 L226.050 152.456 L227.275 151.732 L228.500 150.954 L229.725 150.002 L230.949 149.051 L232.174 148.102 L233.399 147.114 L234.624 145.973 L235.849 144.815 L237.074 143.583 L238.298 142.383 L239.523 141.313 L240.748 140.196 L241.973 138.870 L243.198 137.427 L244.423 135.429 L245.648 133.582 L246.872 132.506 L248.097 131.588 L249.322 131.544 L250.547 131.652 L251.772 132.665 L252.997 133.634 L254.221 134.331 L255.446 135.024 L256.671 135.702 L257.896 136.340 L259.121 136.671 L260.346 136.957 L261.570 136.866 L262.795 136.769 L264.020 136.624 L265.245 136.483 L266.470 136.371 L267.695 136.265 L268.919 136.235 L270.144 136.212 L271.369 136.287 L272.594 136.338 L273.819 135.997 L275.044 135.675 L276.269 135.717 L277.493 135.752 L278.718 135.620 L279.943 135.493 L281.168 135.499 L282.393 135.504 L283.618 135.490 L284.842 135.470 L287.292 134.108" />
<path d="M31.351 127.539 L33.800 128.614 L35.025 128.991 L36.250 129.366 L37.475 130.104 L38.700 130.849 L39.925 130.953 L41.150 131.038 L42.374 130.871 L43.599 130.693 L44.824 130.752 L46.049 130.823 L47.274 130.759 L48.499 130.686 L49.723 130.812 L50.948 130.952 L52.173 130.977 L53.398 130.992 L54.623 131.067 L55.848 131.146 L57.072 131.276 L58.297 131.411 L59.522 131.353 L60.747 131.273 L61.972 130.927 L63.197 130.547 L64.421 130.398 L65.646 130.281 L66.871 130.412 L68.096 130.582 L69.321 130.505 L70.546 130.386 L71.771 130.727 L72.995 131.153 L74.220 131.145 L75.445 131.052 L76.670 130.763 L77.895 130.433 L79.120 129.942 L80.344 129.414 L81.569 129.156 L82.794 128.962 L84.019 129.371 L85.244 129.932 L86.469 130.381 L87.693 130.800 L88.918 130.877 L90.143 130.857 L91.368 130.458 L92.593 129.947 L93.818 130.404 L95.042 131.167 L96.267 132.563 L97.492 134.170 L98.717 135.124 L99.942 135.849 L101.167 136.698 L102.392 137.592 L103.616 138.257 L104.841 138.835 L106.066 139.723 L107.291 140.737 L108.516 141.389 L109.741 141.886 L110.965 143.034 L112.190 144.472 L113.415 145.718 L114.640 146.876 L115.865 147.820 L117.090 148.660 L118.314 149.452 L119.539 150.219 L120.764 150.952 L121.989 151.666 L123.214 152.691 L124.183 153.637" />
<path d="M125.661 154.241 L125.663 154.241 L126.888 154.111 L128.113 153.503 L129.338 152.608 L130.563 151.865 L131.788 151.217 L133.013 150.759 L134.237 150.425 L135.462 149.971 L136.687 149.435 L137.912 148.684 L139.137 147.781 L140.362 146.860 L141.586 145.927 L142.811 145.023 L144.036 144.140 L145.261 143.458 L146.486 142.934 L147.711 142.248 L148.935 141.428 L150.160 140.291 L151.157 139.145" />
<path d="M155.767 134.754 L156.284 134.442 L157.509 133.633 L158.734 132.758 L159.959 132.056 L161.184 131.526 L162.409 130.853 L163.633 130.031 L164.858 128.999 L166.083 127.739 L167.308 127.244 L168.533 127.606 L169.758 128.024 L170.983 128.506 L172.207 129.003 L173.432 129.520 L174.657 129.980 L175.882 130.369 L177.107 130.851 L178.332 131.454 L179.556 132.221 L180.781 133.211 L182.006 133.937 L183.231 134.288 L184.456 134.709 L185.681 135.232 L186.905 135.827 L188.130 136.535 L189.355 137.196 L190.580 137.783 L191.278 138.214" />
<path d="M194.612 140.743 L195.479 141.290 L196.704 142.216 L197.929 143.419 L199.154 144.675 L200.379 146.032 L201.604 147.360 L202.828 148.632 L204.053 149.815 L205.278 150.818 L206.503 151.651 L207.728 152.120 L208.953 152.704 L210.177 153.549 L211.402 154.402 L212.627 155.278 L213.852 155.686 L215.077 154.941 L216.302 154.166 L216.624 153.940" />
<path d="M216.739 153.859 L217.526 153.309 L218.751 152.379 L219.976 151.248 L221.201 150.147 L222.426 149.131 L223.651 148.117 L224.875 147.105 L226.100 146.120 L227.325 145.215 L228.550 144.316 L229.775 143.433 L231.000 142.580 L232.225 141.828 L233.449 141.061 L234.674 140.238 L235.899 139.425 L237.124 138.647 L238.349 137.795 L239.574 136.627 L240.798 135.399 L242.023 133.898 L243.248 132.363 L244.473 130.660 L245.698 129.161 L246.923 128.698 L248.147 128.190 L249.372 127.429 L250.597 126.910 L251.822 127.827 L253.047 128.719 L254.272 129.450 L255.496 130.145 L256.721 130.594 L257.946 131.070 L259.171 131.745 L260.396 132.328 L261.621 132.143 L262.846 131.952 L264.070 131.702 L265.295 131.472 L266.520 131.463 L267.745 131.428 L268.970 131.092 L270.195 130.767 L271.419 130.585 L272.644 130.392 L273.869 130.019 L275.094 129.676 L276.319 129.911 L277.544 130.140 L278.768 130.219 L279.993 130.293 L281.218 130.236 L282.443 130.183 L283.668 130.339 L284.893 130.485 L287.342 128.550" />
<path d="M31.401 124.172 L33.851 123.394 L35.076 123.211 L36.300 123.029 L37.525 124.064 L38.750 125.123 L39.975 125.415 L41.200 125.684 L42.425 125.553 L43.649 125.407 L44.874 125.953 L46.099 126.533 L47.324 126.665 L48.549 126.768 L49.774 126.871 L50.998 126.974 L52.223 126.804 L53.448 126.613 L54.673 126.146 L55.898 125.654 L57.123 125.330 L58.348 125.023 L59.572 125.208 L60.797 125.453 L62.022 125.308 L63.247 125.113 L64.472 125.230 L65.697 125.391 L66.921 125.295 L68.146 125.160 L69.371 125.022 L70.596 124.883 L71.821 124.867 L73.046 124.873 L74.270 125.204 L75.495 125.599 L76.720 125.797 L77.945 125.953 L79.170 125.629 L80.395 125.196 L81.619 125.489 L82.844 125.955 L84.069 126.606 L85.294 127.303 L86.519 128.119 L87.744 128.967 L88.969 129.592 L90.193 130.154 L91.418 130.339 L91.615 130.351" />
<path d="M96.084 132.348 L96.318 132.490 L97.542 133.231 L98.767 133.896 L99.992 134.535 L101.217 135.374 L102.442 136.288 L103.667 136.991 L104.891 137.613 L106.116 138.572 L107.341 139.668 L108.566 140.390 L109.791 140.953 L111.016 141.790 L112.240 142.748 L113.465 143.674 L114.690 144.585 L115.915 145.714 L117.140 146.948 L118.365 148.168 L119.590 149.380 L120.814 150.441 L122.039 151.422 L123.202 152.509" />
<path d="M153.890 134.530 L155.110 133.649 L156.335 132.766 L157.560 131.768 L158.784 130.659 L160.009 129.985 L161.234 129.746 L162.459 129.072 L163.684 127.948 L164.909 127.028 L166.133 126.330 L167.358 126.199 L168.583 126.706 L169.808 127.448 L171.033 128.465 L171.084 128.506" />
<path d="M187.625 138.141 L188.181 138.505 L189.405 139.342 L190.630 140.235 L191.855 141.059 L193.080 141.770 L194.305 142.601 L195.530 143.641 L196.754 144.614 L197.979 145.466 L199.204 146.493 L200.429 147.849 L201.654 149.287 L202.879 150.888 L204.103 151.986 L205.328 152.048 L206.553 151.963 L206.956 151.830" />
<path d="M211.037 150.597 L211.453 150.480 L212.677 150.153 L213.902 149.651 L215.127 148.716 L216.352 147.790 L217.577 146.888 L218.802 145.887 L220.026 144.613 L221.251 143.332 L222.476 142.029 L223.701 140.961 L224.926 140.599 L226.151 140.251 L227.375 139.953 L228.600 139.594 L229.825 139.035 L231.050 138.474 L232.275 137.904 L233.500 137.325 L234.724 136.716 L235.949 136.089 L237.174 135.390 L238.399 134.678 L239.624 133.914 L240.849 133.091 L242.074 132.000 L243.298 130.887 L244.523 129.667 L245.748 128.471 L246.973 127.393 L248.198 126.340 L249.423 125.414 L250.647 124.604 L251.872 124.483 L253.097 124.405 L254.322 124.615 L255.547 124.823 L256.772 125.014 L257.996 125.277 L259.221 126.094 L260.446 126.862 L261.671 127.221 L262.896 127.550 L264.121 127.599 L265.345 127.642 L266.570 127.615 L267.795 127.593 L269.020 127.631 L270.245 127.663 L271.470 127.593 L272.695 127.513 L273.919 127.263 L275.144 127.028 L276.369 127.099 L277.594 127.147 L278.819 126.618 L280.044 126.085 L281.268 125.413 L282.493 124.757 L283.718 124.888 L284.943 125.015 L287.393 124.374" />
<path d="M31.451 121.101 L33.901 119.872 L35.126 119.511 L36.351 119.153 L37.576 119.983 L38.800 120.837 L40.025 121.140 L41.250 121.426 L42.475 121.383 L43.700 121.327 L44.925 121.910 L46.149 122.525 L47.374 122.756 L48.599 122.963 L49.824 123.096 L51.049 123.224 L52.274 123.184 L53.498 123.130 L54.723 122.790 L55.948 122.424 L57.173 122.105 L58.398 121.791 L59.623 121.963 L60.847 122.193 L62.072 122.160 L63.297 122.094 L64.522 122.169 L65.747 122.265 L66.972 122.141 L68.197 121.982 L69.421 121.911 L70.646 121.854 L71.871 121.660 L73.096 121.441 L74.321 121.764 L75.546 122.192 L76.770 122.673 L77.995 123.165 L79.220 123.192 L80.445 123.114 L81.670 123.794 L82.895 124.653 L84.119 125.445 L85.344 126.220 L86.569 127.116 L87.794 128.044 L89.019 128.948 L90.244 129.845 L91.330 130.296" />
<path d="M96.965 132.882 L97.593 133.066 L98.818 133.506 L100.042 133.974 L101.267 134.636 L102.492 135.369 L103.717 136.000 L104.942 136.591 L106.167 137.409 L107.391 138.319 L108.616 139.333 L109.841 140.390 L111.066 141.324 L112.291 142.203 L113.516 143.088 L114.740 143.977 L115.965 145.172 L117.190 146.516 L118.415 147.935 L119.300 148.988" />
<path d="M120.731 150.349 L120.865 150.467 L122.089 151.339 L123.314 152.006 L124.539 152.561 L125.760 152.274" />
<path d="M149.797 135.806 L150.261 135.399 L150.595 135.091" />
<path d="M151.073 134.650 L151.486 134.270 L152.710 133.409 L153.935 132.788 L155.160 132.020 L156.385 131.116 L157.610 130.083 L158.835 128.927 L160.060 128.101 L161.284 127.605 L162.509 126.809 L163.734 125.701 L164.959 125.199 L166.184 125.352 L167.409 125.822 L168.633 126.648 L168.981 126.960" />
<path d="M182.915 137.625 L183.331 137.821 L184.556 138.381 L185.781 138.921 L187.006 139.629 L188.231 140.594 L189.456 141.592 L190.681 142.642 L191.905 143.522 L193.130 144.116 L194.355 144.769 L195.580 145.523 L196.805 146.129 L198.030 146.468 L199.254 146.963 L200.013 147.450" />
<path d="M207.987 148.087 L209.053 147.317 L210.278 146.391 L211.503 145.477 L212.728 144.593 L213.952 143.676 L215.177 142.680 L216.402 141.734 L217.627 140.915 L218.852 139.973 L220.077 138.701 L221.302 137.368 L222.526 135.867 L223.751 134.798 L224.976 135.031 L226.201 135.227 L227.426 135.307 L228.651 135.292 L229.875 134.964 L231.100 134.622 L232.325 134.232 L233.550 133.835 L234.775 133.409 L236.000 132.961 L237.224 132.420 L238.449 131.879 L239.674 131.339 L240.899 130.771 L242.124 130.079 L243.349 129.372 L244.573 128.584 L245.798 127.717 L247.023 126.438 L248.248 125.230 L249.473 124.407 L250.698 123.601 L251.922 122.896 L253.147 122.250 L254.372 121.986 L255.597 121.737 L256.822 121.601 L258.047 121.551 L259.272 122.153 L260.496 122.745 L261.721 123.250 L262.946 123.717 L264.171 123.812 L265.396 123.899 L266.621 123.894 L267.845 123.904 L269.070 124.081 L270.295 124.252 L271.520 124.320 L272.745 124.382 L273.970 124.337 L275.194 124.304 L276.419 124.525 L277.644 124.711 L278.869 124.044 L280.094 123.370 L281.319 122.440 L282.543 121.531 L283.768 121.710 L284.993 121.886 L287.443 121.735" />
<path d="M31.502 118.422 L33.951 118.753 L35.176 118.762 L36.401 118.770 L37.626 118.711 L38.851 118.651 L40.075 118.701 L41.300 118.755 L42.525 118.856 L43.750 118.959 L44.975 118.944 L46.200 118.924 L47.425 119.120 L48.649 119.329 L49.874 119.563 L51.099 119.799 L52.324 120.332 L53.549 120.891 L54.774 121.600 L55.998 122.323 L56.096 122.351" />
<path d="M64.023 122.139 L64.572 121.961 L65.797 121.515 L67.022 121.648 L68.247 121.872 L68.756 121.950" />
<path d="M74.556 121.854 L75.596 121.710 L76.821 122.163 L78.046 122.745 L78.929 123.178" />
<path d="M101.744 134.752 L102.542 134.969 L103.767 135.373 L104.992 135.803 L106.217 136.191 L107.442 136.563 L108.666 138.126 L109.891 140.196 L110.323 140.757" />
<path d="M121.950 151.216 L122.140 151.257 L123.365 150.714 L124.589 149.727 L125.814 148.727 L127.039 147.718 L128.264 146.832 L129.489 146.020 L130.714 145.264 L131.553 144.770" />
<path d="M144.792 136.414 L145.412 135.859 L146.637 134.808 L147.861 133.933 L149.086 133.202 L150.311 132.621 L151.536 132.166 L152.761 131.621 L153.986 130.995 L155.210 130.308 L156.435 129.566 L157.660 128.720 L158.885 127.774 L160.110 126.537 L161.335 125.010 L162.559 123.896 L163.784 123.213 L165.009 123.496 L166.234 124.822 L166.898 125.550" />
<path d="M179.604 137.396 L179.707 137.480 L180.932 138.394 L182.157 139.078 L183.382 139.437 L184.607 139.903 L185.831 140.526 L187.056 141.386 L188.281 142.612 L189.506 143.756 L190.731 144.767 L191.956 145.700 L193.180 146.502 L194.405 146.911 L195.630 146.639 L196.855 146.351 L197.108 146.286" />
<path d="M203.052 144.033 L204.204 143.477 L205.429 142.789 L206.654 142.076 L207.879 141.311 L209.103 140.599 L210.328 140.004 L211.553 139.436 L212.778 138.932 L214.003 138.311 L215.228 137.401 L216.452 136.561 L217.677 135.904 L218.902 135.105 L220.127 133.923 L221.352 132.629 L222.577 131.012 L223.801 129.983 L225.026 130.715 L226.251 131.295 L227.476 131.399 L228.701 131.424 L229.926 131.186 L231.150 130.954 L232.375 130.742 L233.600 130.517 L234.825 130.241 L236.050 129.971 L237.275 129.723 L238.500 129.409 L239.724 128.816 L240.949 128.269 L242.174 127.925 L243.399 127.565 L244.624 127.131 L245.849 126.629 L247.073 125.783 L247.828 125.304" />
<path d="M248.051 125.162 L248.298 125.005 L248.853 124.824" />
<path d="M255.547 121.715 L255.647 121.664 L256.872 121.110 L258.097 120.612 L259.322 120.538 L260.547 120.480 L261.771 120.561 L262.996 120.613 L264.221 120.391 L265.446 120.195 L266.671 120.273 L267.896 120.342 L269.121 120.300 L270.345 120.275 L271.570 120.492 L272.795 120.711 L274.020 120.971 L275.245 121.257 L276.470 122.068 L277.694 122.843 L278.919 122.718 L280.144 122.578 L281.369 121.902 L282.594 121.246 L283.819 121.582 L284.721 121.824" />
<path d="M285.208 121.853 L287.493 121.052" />
<path d="M31.552 117.838 L34.002 117.432 L35.226 117.531 L36.451 117.634 L37.676 118.332 L38.256 118.668" />
<path d="M62.194 122.152 L63.398 121.786 L64.623 121.505 L65.847 121.236 L67.072 121.415 L68.297 121.663 L69.522 121.846 L69.835 121.890" />
<path d="M76.583 121.998 L76.871 122.055 L78.096 122.372 L79.321 123.080 L79.418 123.144" />
<path d="M88.620 128.641 L89.119 128.844 L90.344 129.348 L91.569 129.754 L92.348 129.994" />
<path d="M95.789 131.940 L96.468 132.173 L97.693 132.442 L98.918 132.653 L100.143 132.843 L101.368 134.047 L101.910 134.746" />
<path d="M118.211 147.702 L118.515 147.697 L119.740 147.696 L120.965 147.343 L122.190 146.803 L123.415 145.911 L124.640 144.824 L125.865 143.854 L127.089 142.950 L128.314 142.009 L129.539 141.045 L130.764 140.014 L131.989 138.941 L133.214 138.054 L134.438 137.287 L135.663 136.630 L136.888 136.047 L138.113 135.576 L139.338 135.183 L140.563 134.599 L141.787 133.873 L143.012 133.255 L144.237 132.720 L145.462 132.019 L146.687 131.186 L147.912 130.406 L149.136 129.670 L150.361 128.942 L151.586 128.222 L152.811 127.643 L154.036 127.191 L155.261 126.636 L156.486 125.985 L157.710 125.768 L158.935 125.967 L160.160 125.981 L160.470 125.938" />
<path d="M186.791 141.474 L187.107 141.774 L188.331 143.045 L189.309 143.691" />
<path d="M197.982 141.142 L198.130 141.127 L199.355 140.938 L200.580 140.635 L201.805 140.242 L203.029 139.672 L204.254 139.035 L205.479 138.257 L206.704 137.413 L207.929 136.426 L209.154 135.512 L210.378 134.766 L211.603 134.114 L212.828 133.685 L214.053 133.149 L215.278 132.350 L216.503 131.589 L217.728 130.929 L218.952 130.184 L220.177 129.211 L221.402 128.236 L222.627 127.254 L223.852 126.668 L225.077 127.269 L226.301 127.742 L227.526 127.811 L228.751 127.831 L229.976 127.687 L231.201 127.540 L232.426 127.386 L233.650 127.184 L234.875 126.802 L236.100 126.457 L237.325 126.259 L238.550 126.053 L239.775 125.816 L240.999 125.560 L242.224 125.218 L243.449 124.894 L244.674 124.658 L245.899 124.392 L247.124 123.965 L248.349 123.530 L249.573 123.050 L250.798 122.541 L252.023 121.856 L253.248 121.179 L254.473 120.557 L255.698 119.982 L256.922 119.730 L258.147 119.516 L259.372 119.598 L260.597 119.640 L261.822 119.344 L263.047 119.063 L264.271 118.909 L265.496 118.743 L266.721 118.442 L267.946 118.162 L269.171 118.139 L270.396 118.130 L271.620 118.318 L272.845 118.512 L274.070 118.815 L275.295 119.119 L276.520 119.450 L277.745 119.761 L278.970 119.593 L280.194 119.424 L281.419 119.240 L282.644 119.063 L283.869 119.265 L285.094 119.464 L287.543 119.230" />
<path d="M31.602 117.768 L34.052 117.050 L35.277 117.161 L36.501 117.276 L37.726 118.066 L38.624 118.654" />
<path d="M58.374 121.840 L58.549 121.787 L59.773 121.756 L60.998 121.767 L62.223 121.469 L63.448 121.131 L64.673 121.042 L65.898 120.989 L67.122 121.262 L68.347 121.586 L69.572 121.735 L70.602 121.836" />
<path d="M77.073 122.098 L78.146 122.307 L79.272 122.939" />
<path d="M88.079 128.186 L89.170 128.458 L90.394 128.741 L91.619 129.155 L92.844 129.608 L94.069 130.389 L95.011 131.070" />
<path d="M95.330 131.293 L96.519 131.927 L97.446 132.363" />
<path d="M116.584 145.676 L117.341 145.196 L118.566 144.302 L119.791 143.350 L121.015 142.351 L122.240 141.326 L123.465 140.322 L124.690 139.330 L125.915 138.470 L127.140 137.687 L128.364 136.734 L129.589 135.680 L130.814 134.507 L132.039 133.259 L133.264 132.267 L134.489 131.442 L135.714 130.728 L136.938 130.091 L138.163 129.567 L139.388 129.123 L140.613 128.485 L141.838 127.706 L143.063 127.320 L144.287 127.233 L145.512 126.914 L146.737 126.411 L147.962 125.883 L149.187 125.334 L150.412 124.794 L151.636 124.262 L152.861 123.979 L154.086 123.919 L155.311 123.775 L156.536 123.553 L157.761 123.905 L158.985 124.808 L160.210 125.652 L160.343 125.737" />
<path d="M185.571 140.511 L185.932 140.914 L187.157 142.036 L187.664 142.347" />
<path d="M194.755 138.813 L195.731 137.872 L196.955 137.077 L198.180 136.986 L199.405 136.828 L200.630 136.543 L201.855 136.164 L203.080 135.597 L204.305 134.907 L205.529 133.962 L206.754 133.022 L207.979 132.095 L209.204 131.227 L210.429 130.495 L211.654 129.838 L212.878 129.356 L214.103 128.824 L215.328 128.167 L216.553 127.507 L217.778 126.836 L219.003 126.121 L220.227 125.287 L221.452 124.517 L222.677 123.932 L223.902 123.589 L225.127 123.976 L226.352 124.288 L227.576 124.369 L228.801 124.429 L230.026 124.417 L231.251 124.400 L232.476 124.366 L233.701 124.241 L234.926 123.779 L236.150 123.347 L237.375 123.036 L238.600 122.753 L239.825 122.591 L241.050 122.417 L242.275 122.188 L243.499 122.002 L244.724 122.024 L245.949 122.013 L247.174 121.829 L248.399 121.611 L249.624 121.202 L250.848 120.766 L252.073 120.175 L253.298 119.575 L254.523 118.917 L255.748 118.342 L256.973 118.356 L258.197 118.397 L259.422 118.641 L260.647 118.809 L261.872 118.337 L263.097 117.900 L264.322 117.787 L265.547 117.641 L266.771 117.140 L267.996 116.674 L269.221 116.646 L270.446 116.626 L271.671 116.723 L272.896 116.834 L274.120 117.189 L275.345 117.521 L276.570 117.421 L277.795 117.313 L279.020 116.992 L280.245 116.685 L281.469 116.861 L282.694 117.035 L283.919 117.183 L285.144 117.329 L287.594 117.467" />
<path d="M37.527 117.928 L37.777 117.829 L39.001 117.335 L40.226 116.852 L41.451 116.369 L42.676 116.894 L43.901 117.459 L45.126 117.979 L46.350 118.497 L47.538 119.105" />
<path d="M52.574 120.448 L53.699 120.490 L54.924 120.582 L56.149 120.678 L57.374 120.555 L58.599 120.407 L59.824 120.182 L61.049 119.947 L62.273 120.184 L63.498 120.483 L64.723 120.610 L65.948 120.712 L67.173 121.197 L67.620 121.396" />
<path d="M87.658 127.814 L87.995 127.863 L89.220 128.101 L90.445 128.357 L91.670 128.737 L92.894 129.155 L94.119 130.038 L95.344 131.069 L95.530 131.364" />
<path d="M111.691 141.765 L112.492 141.229 L113.717 140.631 L114.941 140.135 L116.166 139.473 L117.391 138.729 L118.616 137.835 L119.841 136.863 L121.066 135.897 L122.291 134.933 L123.515 134.057 L124.740 133.228 L125.965 132.483 L127.190 131.786 L128.415 130.908 L129.640 129.921 L130.864 128.858 L132.089 127.746 L133.314 126.521 L134.539 125.222 L135.764 124.292 L136.989 123.611 L138.213 122.846 L139.438 122.020 L140.663 121.158 L141.888 120.268 L143.113 119.857 L144.338 119.813 L145.562 119.777 L146.787 119.747 L148.012 119.736 L149.237 119.739 L150.462 120.039 L151.687 120.592 L152.912 121.199 L154.136 121.853 L155.361 122.566 L156.586 123.334 L157.311 123.777" />
<path d="M159.565 125.119 L160.238 125.507" />
<path d="M183.268 139.500 L183.533 139.677 L184.757 140.653 L185.982 141.855 L187.207 142.326 L187.448 142.198" />
<path d="M192.633 138.230 L193.331 137.534 L194.556 136.522 L195.781 135.874 L197.006 135.301 L198.231 134.864 L199.455 134.285 L200.680 133.442 L201.905 132.616 L203.130 131.828 L204.355 130.889 L205.580 129.639 L206.804 128.675 L208.029 128.322 L209.254 127.965 L210.479 127.599 L211.704 127.137 L212.929 126.446 L214.154 125.821 L215.378 125.357 L216.603 124.838 L217.828 124.173 L219.053 123.462 L220.278 122.630 L221.503 121.832 L222.727 121.129 L223.952 120.639 L225.177 120.782 L226.402 120.934 L227.627 121.111 L228.852 121.290 L230.076 121.473 L231.301 121.661 L232.526 121.869 L233.751 121.937 L234.976 121.479 L236.201 120.983 L237.425 120.338 L238.650 119.698 L239.875 119.084 L241.100 118.605 L242.325 118.728 L243.550 118.899 L244.775 119.301 L245.999 119.601 L247.224 119.377 L248.449 119.185 L249.674 119.174 L250.899 119.134 L252.124 118.928 L253.348 118.634 L254.573 117.781 L255.798 117.047 L257.023 117.147 L258.248 117.267 L259.473 117.540 L260.697 117.749 L261.922 117.417 L263.147 117.100 L264.372 116.918 L265.597 116.723 L266.822 116.391 L268.046 116.077 L269.271 115.961 L270.496 115.850 L271.721 115.785 L272.946 115.751 L274.171 116.214 L275.396 116.643 L276.620 116.378 L277.845 116.102 L279.070 115.551 L280.295 115.025 L281.520 115.305 L282.745 115.586 L283.969 115.858 L285.194 116.127 L287.644 115.995" />
<path d="M31.703 114.977 L34.152 115.625 L35.377 115.704 L36.602 115.780 L37.827 115.564 L39.052 115.342 L40.277 114.903 L41.501 114.457 L42.726 115.096 L43.951 115.779 L45.176 116.048 L46.401 116.296 L47.626 116.680 L48.850 117.072 L50.075 117.480 L51.300 117.890 L52.525 118.052 L53.750 118.192 L54.975 118.554 L56.199 118.937 L57.424 118.709 L58.649 118.416 L59.874 118.314 L61.099 118.234 L62.324 118.630 L63.548 119.088 L64.773 119.459 L65.998 119.817 L67.223 120.380 L68.448 120.975 L69.673 121.134 L70.898 121.220 L71.697 121.635" />
<path d="M108.367 137.617 L108.868 137.291 L110.092 136.408 L111.317 135.429 L112.542 134.407 L113.767 133.575 L114.992 132.832 L116.217 132.221 L117.441 131.674 L118.666 130.935 L119.891 130.098 L121.116 129.336 L122.341 128.614 L123.566 127.835 L124.790 127.025 L126.015 126.296 L127.240 125.613 L128.465 124.956 L129.690 124.314 L130.915 123.521 L132.140 122.634 L133.364 121.766 L134.589 120.911 L135.814 120.123 L137.039 119.382 L138.264 118.610 L139.489 117.816 L140.713 117.048 L141.938 116.299 L143.163 115.914 L144.388 115.807 L145.613 115.836 L146.838 115.971 L148.062 116.152 L149.287 116.372 L150.512 117.014 L151.737 118.017 L152.962 118.903 L154.187 119.685 L155.411 120.514 L156.636 121.386 L157.861 122.230 L159.086 123.047 L160.311 123.777 L161.536 124.421 L161.788 124.550" />
<path d="M191.978 138.249 L192.157 138.092 L193.382 137.003 L194.606 136.005 L195.831 135.169 L197.056 134.213 L198.281 133.041 L199.506 131.899 L200.731 130.815 L201.955 129.805 L203.180 128.943 L204.405 128.046 L205.630 127.076 L206.855 126.306 L208.080 125.969 L209.304 125.599 L210.529 125.155 L211.754 124.622 L212.979 123.876 L214.204 123.111 L215.429 122.297 L216.653 121.629 L217.878 121.335 L219.103 120.994 L220.328 120.525 L221.553 120.123 L222.778 119.908 L224.003 119.720 L225.227 119.609 L226.452 119.467 L227.677 119.224 L228.902 119.018 L230.127 118.935 L231.352 118.925 L232.576 119.168 L233.801 119.313 L235.026 119.092 L236.251 118.854 L237.476 118.553 L238.701 118.224 L239.925 117.774 L241.150 117.416 L242.375 117.466 L243.600 117.554 L244.825 117.828 L246.050 118.072 L247.274 118.170 L248.499 118.242 L249.724 118.168 L250.949 118.064 L252.174 117.787 L253.399 117.467 L254.624 116.874 L255.848 116.345 L257.073 116.269 L258.298 116.202 L259.523 116.199 L260.748 116.176 L261.973 115.977 L263.197 115.762 L264.422 115.398 L265.647 115.066 L266.872 115.086 L268.097 115.093 L269.322 114.951 L270.546 114.822 L271.771 114.879 L272.996 114.949 L274.221 115.219 L275.446 115.469 L276.671 115.336 L277.895 115.201 L279.120 115.038 L280.345 114.887 L281.570 115.162 L282.795 115.433 L284.020 115.468 L285.244 115.501 L287.694 115.239" />
<path d="M31.753 111.597 L34.203 112.101 L35.427 112.488 L36.652 112.875 L37.877 113.008 L39.102 113.137 L40.327 112.955 L41.552 112.763 L42.776 113.481 L44.001 114.235 L45.226 114.466 L46.451 114.671 L47.676 115.014 L48.901 115.365 L50.126 115.808 L51.350 116.259 L52.575 116.523 L53.800 116.772 L55.025 117.262 L56.250 117.776 L57.475 117.588 L58.699 117.325 L59.924 117.424 L61.149 117.565 L62.374 118.026 L63.599 118.528 L64.824 119.022 L66.048 119.516 L67.273 120.126 L68.498 120.753 L69.723 121.088 L70.015 121.155" />
<path d="M101.629 134.077 L102.794 133.702 L104.018 133.116 L105.243 132.456 L106.468 131.680 L107.693 130.856 L108.918 130.002 L110.143 129.135 L111.368 128.171 L112.592 127.163 L113.817 126.304 L115.042 125.515 L116.267 125.025 L117.492 124.681 L118.717 124.130 L119.941 123.475 L121.166 122.897 L122.391 122.360 L123.616 121.669 L124.841 120.894 L126.066 120.169 L127.290 119.474 L128.515 118.970 L129.740 118.581 L130.965 118.062 L132.190 117.460 L133.415 117.103 L134.639 116.905 L135.864 116.513 L137.089 115.991 L138.314 115.457 L139.539 114.914 L140.764 114.413 L141.988 113.943 L143.213 113.672 L144.438 113.551 L145.663 113.584 L146.888 113.740 L148.113 113.980 L149.338 114.290 L150.562 115.017 L151.787 116.102 L153.012 116.944 L154.237 117.571 L155.462 118.228 L156.687 118.915 L157.911 119.709 L159.136 120.606 L160.361 121.405 L161.586 122.104 L162.811 122.759 L163.747 123.226" />
<path d="M166.757 125.089 L167.710 125.600 L168.935 126.040 L170.160 126.501 L171.385 126.987 L172.609 127.513 L173.834 128.088 L175.059 128.765 L176.284 129.570 L177.509 130.391 L178.734 131.233 L179.959 132.004 L181.183 132.681 L182.408 133.353 L183.633 134.019 L184.588 134.664" />
<path d="M190.063 137.534 L190.982 137.035 L192.207 136.426 L193.432 135.910 L194.657 135.215 L195.881 134.206 L197.106 132.990 L198.331 131.397 L199.556 129.903 L200.781 128.595 L202.006 127.402 L203.230 126.436 L204.455 125.555 L205.680 124.848 L206.905 124.234 L208.130 123.818 L209.355 123.369 L210.580 122.844 L211.804 122.270 L213.029 121.579 L214.254 120.820 L215.479 119.893 L216.704 119.188 L217.929 119.056 L219.153 118.850 L220.378 118.439 L221.603 118.117 L222.828 118.052 L224.053 117.959 L225.278 117.782 L226.502 117.546 L227.727 117.119 L228.952 116.746 L230.177 116.550 L231.402 116.437 L232.627 116.618 L233.851 116.750 L235.076 116.701 L236.301 116.666 L237.526 116.688 L238.751 116.678 L239.976 116.539 L241.201 116.416 L242.425 116.363 L243.650 116.340 L244.875 116.462 L246.100 116.599 L247.325 116.815 L248.550 116.979 L249.774 116.853 L250.999 116.695 L252.224 116.343 L253.449 115.986 L254.674 115.598 L255.899 115.225 L257.123 114.958 L258.348 114.690 L259.573 114.420 L260.798 114.158 L262.023 113.975 L263.248 113.785 L264.472 113.531 L265.697 113.312 L266.922 113.461 L268.147 113.586 L269.372 113.426 L270.597 113.279 L271.822 113.312 L273.046 113.352 L274.271 113.515 L275.496 113.674 L276.721 113.749 L277.946 113.826 L279.171 113.921 L280.395 114.022 L281.620 114.285 L282.845 114.541 L284.070 114.380 L285.295 114.219 L287.744 113.996" />
<path d="M31.803 109.048 L34.253 108.007 L35.478 109.204 L36.703 110.417 L37.927 110.551 L39.152 110.663 L40.377 110.902 L41.602 111.145 L42.827 111.852 L44.052 112.578 L45.276 113.347 L46.501 114.119 L47.726 114.998 L47.794 115.048" />
<path d="M92.101 128.886 L93.045 128.380 L94.270 128.159 L95.495 128.075 L96.720 128.065 L97.945 128.080 L99.169 127.561 L100.394 126.854 L101.619 126.319 L102.844 125.848 L104.069 125.314 L105.294 124.756 L106.518 124.120 L107.743 123.451 L108.968 122.690 L110.193 121.891 L111.418 121.007 L112.643 120.086 L113.867 119.292 L115.092 118.557 L116.317 118.193 L117.542 118.010 L118.767 117.660 L119.992 117.227 L121.216 116.735 L122.441 116.213 L123.666 115.601 L124.891 114.940 L126.116 114.230 L127.341 113.492 L128.566 112.959 L129.790 112.548 L131.015 112.251 L132.240 112.026 L133.465 112.291 L134.690 112.874 L135.915 113.265 L137.139 113.526 L138.364 113.639 L139.589 113.649 L140.814 113.654 L142.039 113.657 L143.264 113.657 L143.482 113.656" />
<path d="M146.098 113.646 L146.938 113.639 L148.163 113.777 L149.388 114.035 L150.613 114.500 L151.837 115.141 L153.062 115.496 L154.287 115.597 L155.512 115.757 L156.737 115.973 L157.962 116.528 L159.187 117.410 L160.411 118.310 L161.636 119.228 L162.861 119.846 L164.086 120.150 L165.311 120.585 L166.536 121.159 L167.760 121.657 L168.985 122.068 L170.210 122.506 L171.435 122.974 L172.660 123.365 L173.885 123.663 L175.109 124.008 L176.334 124.414 L177.559 125.066 L178.784 126.038 L180.009 127.018 L181.234 128.006 L182.458 128.785 L183.683 129.270 L184.908 129.715 L186.133 130.104 L187.358 130.416 L188.583 130.612 L189.808 130.928 L191.032 131.439 L192.257 132.090 L193.482 132.974 L194.707 133.204 L195.932 132.298 L197.157 131.267 L198.381 130.010 L199.606 128.634 L200.831 127.031 L202.056 125.570 L203.281 124.389 L204.506 123.376 L205.730 122.707 L206.955 122.094 L208.180 121.600 L209.405 121.114 L210.630 120.648 L211.855 120.181 L213.079 119.714 L214.304 119.270 L215.529 118.884 L216.754 118.463 L217.979 117.952 L219.204 117.287 L220.429 116.203 L221.653 115.193 L222.878 114.399 L224.103 113.837 L225.328 113.973 L226.553 114.086 L227.778 114.123 L229.002 114.186 L230.227 114.334 L231.452 114.447 L232.677 114.437 L233.902 114.412 L235.127 114.333 L236.351 114.284 L237.576 114.355 L238.801 114.462 L240.026 114.723 L241.251 114.923 L242.476 114.848 L243.700 114.802 L244.925 114.896 L246.150 114.942 L247.375 114.748 L248.600 114.584 L249.825 114.582 L251.050 114.540 L252.274 114.257 L253.499 113.953 L254.724 113.509 L255.949 113.071 L257.174 112.669 L258.399 112.264 L259.623 111.841 L260.848 111.421 L262.073 111.022 L263.298 110.707 L264.523 111.188 L265.748 111.607 L266.972 111.382 L268.197 111.160 L269.422 110.982 L270.647 110.791 L271.872 110.409 L273.097 110.069 L274.321 110.401 L275.546 110.734 L276.771 111.074 L277.996 111.397 L279.221 111.290 L280.446 111.195 L281.671 111.470 L282.895 111.737 L284.120 111.583 L285.345 111.432 L287.795 111.541" />
<path d="M31.853 107.273 L34.303 106.073 L35.528 106.895 L36.753 107.732 L37.978 108.134 L39.202 108.528 L40.427 108.890 L41.652 109.251 L42.877 109.910 L44.102 110.581 L45.327 111.588 L46.552 112.612 L47.776 113.653 L49.001 114.695 L50.226 115.511 L51.369 116.258" />
<path d="M89.175 128.096 L89.421 127.817 L90.646 126.342 L91.871 125.161 L93.095 124.069 L94.320 123.480 L95.545 123.051 L96.770 122.584 L97.995 122.104 L99.220 121.594 L100.444 121.073 L101.669 120.712 L102.894 120.409 L104.119 120.070 L105.344 119.717 L106.569 119.187 L107.794 118.585 L109.018 117.840 L110.243 117.033 L111.468 116.223 L112.693 115.412 L113.918 114.593 L115.143 113.768 L116.367 113.190 L117.592 112.731 L118.817 112.392 L120.042 112.114 L121.267 111.665 L122.492 111.125 L123.716 110.530 L124.941 109.905 L126.166 109.146 L127.391 108.310 L128.616 108.051 L129.841 108.138 L131.065 108.450 L132.290 108.903 L133.515 109.585 L134.740 110.418 L135.965 110.965 L137.190 111.319 L138.415 111.428 L139.639 111.364 L140.864 111.524 L142.089 111.848 L143.314 112.162 L144.539 112.467 L145.764 112.666 L146.988 112.781 L148.213 112.975 L149.438 113.234 L150.663 113.539 L151.888 113.884 L153.113 114.066 L154.337 114.103 L155.562 114.204 L156.787 114.363 L158.012 114.626 L159.237 114.987 L160.462 115.450 L161.686 116.013 L162.911 116.445 L164.136 116.741 L165.361 117.158 L166.586 117.707 L167.811 118.127 L169.036 118.403 L170.260 118.752 L171.485 119.184 L172.710 119.543 L173.935 119.811 L175.160 120.097 L176.385 120.405 L177.609 120.864 L178.834 121.521 L180.059 122.232 L181.284 123.016 L182.509 123.773 L183.734 124.491 L184.958 125.135 L186.183 125.669 L187.408 126.093 L188.633 126.351 L189.858 126.740 L191.083 127.340 L192.307 127.876 L193.532 128.305 L194.757 128.426 L195.982 128.013 L197.207 127.721 L198.432 127.647 L199.657 127.442 L200.881 126.987 L200.890 126.983" />
<path d="M213.067 119.720 L213.130 119.679 L214.355 119.021 L215.579 118.741 L216.804 118.316 L218.029 117.521 L219.254 116.769 L220.479 116.135 L220.521 116.110" />
<path d="M222.823 114.470 L222.928 114.383 L224.153 113.549 L225.378 113.271 L226.603 112.964 L227.828 112.561 L229.053 112.075 L230.277 111.312 L231.502 110.709 L232.727 110.669 L233.952 110.646 L235.177 110.690 L236.402 110.824 L237.627 111.313 L238.851 111.764 L240.076 112.049 L241.301 112.257 L242.526 112.120 L243.751 111.997 L244.976 111.945 L246.200 111.807 L247.425 111.238 L248.650 110.732 L249.875 110.572 L251.100 110.391 L252.325 110.083 L253.549 109.786 L254.774 109.556 L255.999 109.312 L257.224 108.973 L258.449 108.651 L259.674 108.474 L260.898 108.303 L262.123 108.193 L263.348 108.149 L264.573 108.722 L265.798 109.235 L267.023 109.108 L268.248 108.973 L269.472 108.721 L270.697 108.468 L271.922 108.195 L273.147 107.932 L274.372 107.815 L275.597 107.704 L276.821 107.693 L278.046 107.677 L279.271 107.524 L280.496 107.394 L281.721 108.020 L282.946 108.641 L284.170 108.973 L285.395 109.305 L287.845 109.942" />
<path d="M31.904 106.025 L34.353 105.128 L35.578 105.331 L36.803 105.541 L38.028 105.993 L39.253 106.449 L40.478 106.694 L41.702 106.933 L42.927 107.636 L44.152 108.359 L45.377 109.521 L46.602 110.706 L47.827 111.816 L49.051 112.921 L50.276 114.148 L51.501 115.384 L52.726 115.951 L53.951 116.463 L55.176 117.258 L55.443 117.438" />
<path d="M85.324 126.221 L85.797 125.933 L87.021 125.221 L88.246 124.520 L89.471 123.369 L90.696 122.090 L91.921 120.936 L93.146 119.819 L94.371 119.101 L95.595 118.509 L96.820 117.779 L98.045 117.002 L99.270 116.538 L100.495 116.183 L101.720 115.872 L102.944 115.578 L104.169 115.372 L105.394 115.202 L106.619 114.779 L107.844 114.254 L109.069 113.597 L110.293 112.884 L111.518 112.195 L112.743 111.517 L113.968 110.701 L115.193 109.821 L116.418 109.008 L117.642 108.228 L118.867 107.717 L120.092 107.341 L121.317 106.804 L122.542 106.181 L123.767 105.593 L124.992 105.025 L126.216 104.389 L127.441 103.714 L128.666 103.827 L129.891 104.412 L131.116 105.210 L132.341 106.143 L133.565 107.012 L134.790 107.839 L136.015 108.403 L137.240 108.789 L138.465 108.933 L139.690 108.908 L140.914 109.225 L142.139 109.795 L143.364 110.328 L144.589 110.834 L145.814 111.208 L147.039 111.478 L148.263 111.762 L149.488 112.058 L150.713 112.273 L151.938 112.418 L153.163 112.517 L154.388 112.574 L155.613 112.661 L156.837 112.776 L158.062 112.767 L159.287 112.639 L160.512 112.671 L161.737 112.864 L162.962 113.116 L164.186 113.430 L165.411 113.809 L166.636 114.258 L167.861 114.551 L169.086 114.666 L170.311 114.883 L171.535 115.219 L172.760 115.475 L173.985 115.636 L175.210 115.847 L176.435 116.122 L177.660 116.435 L178.884 116.797 L180.109 117.240 L181.334 117.793 L182.559 118.454 L183.784 119.267 L185.009 120.002 L186.234 120.622 L187.458 121.144 L188.683 121.516 L189.908 121.942 L191.133 122.453 L192.358 122.740 L193.583 122.656 L194.807 122.610 L196.032 122.629 L197.257 122.943 L198.482 123.787 L199.707 124.545 L200.932 125.136 L202.093 125.550" />
<path d="M228.167 112.349 L229.103 111.592 L230.328 110.072 L231.553 108.816 L232.777 108.494 L234.002 108.188 L235.227 107.942 L236.452 107.842 L237.677 108.324 L238.902 108.766 L240.126 109.042 L241.351 109.237 L242.576 109.075 L243.801 108.910 L245.026 108.735 L246.251 108.474 L247.476 107.776 L248.700 107.133 L249.925 106.793 L251.150 106.468 L252.375 106.227 L253.600 106.010 L254.825 105.951 L256.049 105.864 L257.274 105.590 L258.499 105.353 L259.724 105.412 L260.949 105.475 L262.174 105.575 L263.398 105.698 L264.623 106.048 L265.848 106.366 L267.073 106.342 L268.298 106.297 L269.523 105.994 L270.747 105.704 L271.972 105.590 L273.197 105.460 L274.422 105.080 L275.647 104.702 L276.872 104.360 L278.097 104.025 L279.321 103.894 L280.546 103.794 L281.771 104.719 L282.996 105.643 L284.221 106.493 L285.446 107.341 L287.895 108.385" />
<path d="M31.954 105.640 L33.153 105.515" />
<path d="M34.985 105.228 L35.628 105.054 L36.853 104.721 L38.078 104.517 L39.303 104.315 L40.528 104.018 L41.753 103.718 L42.978 104.718 L44.202 105.771 L45.427 107.061 L46.652 108.363 L47.877 109.531 L49.102 110.690 L50.327 112.183 L51.551 113.700 L52.776 114.700 L54.001 115.656 L55.226 116.420 L56.451 117.166 L57.151 117.632" />
<path d="M82.296 124.236 L83.397 123.284 L84.622 122.475 L85.847 121.729 L87.072 120.706 L88.297 119.609 L89.521 118.180 L90.746 116.659 L91.971 115.843 L93.196 115.240 L94.421 114.718 L95.646 114.222 L96.870 113.830 L98.095 113.472 L99.320 112.976 L100.545 112.433 L101.770 111.678 L102.995 110.844 L104.220 110.536 L105.444 110.431 L106.669 110.136 L107.894 109.763 L109.119 109.426 L110.344 109.105 L111.569 108.656 L112.793 108.151 L114.018 107.467 L115.243 106.700 L116.468 105.804 L117.693 104.845 L118.918 103.816 L120.142 102.751 L121.367 101.825 L122.592 100.972 L123.817 100.401 L125.042 99.986 L126.267 99.943 L127.491 100.116 L128.716 100.664 L129.941 101.438 L131.166 102.191 L132.391 102.932 L133.616 103.529 L134.841 104.031 L136.065 104.632 L137.290 105.300 L138.515 105.962 L139.740 106.620 L140.965 107.310 L142.190 108.023 L143.414 108.520 L144.639 108.852 L145.864 109.182 L147.089 109.512 L148.314 109.876 L149.539 110.269 L150.763 110.503 L151.988 110.603 L153.213 110.658 L154.438 110.672 L155.663 110.605 L156.888 110.462 L158.112 110.266 L159.337 110.020 L160.562 109.958 L161.787 110.080 L163.012 110.252 L164.237 110.476 L165.462 110.603 L166.686 110.625 L167.911 110.614 L169.136 110.568 L170.361 110.587 L171.586 110.682 L172.811 110.602 L174.035 110.311 L175.260 110.251 L176.485 110.481 L177.710 110.777 L178.935 111.159 L180.160 111.614 L181.384 112.169 L182.609 112.626 L183.834 112.945 L185.059 113.164 L186.284 113.237 L187.509 113.396 L188.733 113.686 L189.958 114.101 L191.183 114.715 L192.408 115.230 L193.633 115.580 L194.858 115.829 L196.083 115.899 L197.307 116.159 L198.532 116.759 L199.757 117.338 L200.982 117.875 L202.207 118.412 L203.432 118.950 L204.656 119.721 L205.881 120.972 L207.056 121.997" />
<path d="M235.512 107.895 L236.502 106.692 L237.727 105.881 L238.952 105.304 L240.177 105.704 L241.402 106.019 L242.626 105.949 L243.851 105.862 L245.076 105.693 L246.301 105.514 L247.526 105.282 L248.751 105.024 L249.975 104.618 L251.200 104.285 L252.425 104.393 L253.650 104.465 L254.875 104.311 L256.100 104.136 L257.325 103.817 L258.549 103.540 L259.774 103.580 L260.999 103.597 L262.224 103.408 L263.449 103.211 L264.674 102.927 L265.898 102.651 L267.123 102.457 L268.348 102.258 L269.573 101.998 L270.798 101.745 L272.023 101.600 L273.247 101.474 L274.472 101.660 L275.697 101.825 L276.922 101.558 L278.147 101.300 L279.372 101.272 L280.596 101.270 L281.821 102.164 L283.046 103.064 L284.271 104.231 L285.496 105.392 L287.946 106.428" />
<path d="M32.004 103.153 L34.454 103.539 L35.679 103.513 L36.904 103.486 L38.128 103.123 L39.353 102.753 L40.578 102.803 L41.803 102.865 L43.028 103.855 L44.253 104.883 L45.477 105.704 L46.702 106.515 L47.927 107.026 L49.152 107.519 L50.377 108.667 L51.602 109.864 L52.827 111.498 L54.051 113.168 L55.276 114.378 L56.501 115.544 L57.726 116.436 L58.951 117.298 L59.024 117.355" />
<path d="M77.291 122.133 L77.323 122.118 L78.548 121.608 L79.773 121.074 L80.998 120.536 L82.223 119.961 L83.448 119.378 L84.672 118.686 L85.897 117.965 L87.122 117.045 L88.347 116.071 L89.572 114.961 L90.797 113.814 L92.021 113.090 L93.246 112.493 L94.471 111.897 L95.696 111.301 L96.921 110.793 L98.146 110.314 L99.370 109.800 L100.595 109.274 L101.820 108.641 L103.045 107.968 L104.270 107.530 L105.495 107.184 L106.719 106.887 L107.944 106.610 L109.169 106.412 L110.394 106.249 L111.619 105.778 L112.844 105.172 L114.069 104.428 L115.293 103.620 L116.518 102.769 L117.743 101.898 L118.968 101.074 L120.193 100.275 L121.418 99.408 L122.642 98.505 L123.867 97.966 L125.092 97.629 L126.317 97.676 L127.542 97.945 L128.767 98.438 L129.991 99.066 L131.216 99.847 L132.441 100.725 L133.666 101.444 L134.891 102.059 L136.116 102.599 L137.340 103.086 L138.565 103.703 L139.790 104.411 L141.015 105.193 L142.240 106.030 L143.465 106.592 L144.690 106.944 L145.914 107.219 L147.139 107.432 L148.364 107.686 L149.589 107.975 L150.814 108.173 L152.039 108.295 L153.263 108.339 L154.488 108.315 L155.713 108.166 L156.938 107.900 L158.163 107.594 L159.388 107.249 L160.612 107.029 L161.837 106.934 L163.062 106.762 L164.287 106.511 L165.512 106.149 L166.737 105.668 L167.961 105.480 L169.186 105.621 L170.411 105.712 L171.636 105.744 L172.861 105.729 L174.086 105.659 L175.310 105.662 L176.535 105.756 L177.760 105.937 L178.985 106.233 L180.210 106.429 L181.435 106.491 L182.660 106.496 L183.884 106.423 L185.109 106.502 L186.334 106.805 L187.559 107.066 L188.784 107.263 L190.009 107.516 L191.233 107.860 L192.458 108.137 L193.683 108.302 L194.908 108.431 L196.133 108.500 L197.358 108.896 L198.582 109.887 L199.807 110.813 L201.032 111.619 L202.257 112.396 L203.482 113.116 L204.707 113.904 L205.931 114.832 L207.156 115.740 L208.381 116.605 L209.606 117.626 L210.831 118.995 L212.056 120.034 L212.175 120.059" />
<path d="M257.815 103.697 L258.600 103.493 L259.824 103.349 L261.049 103.171 L262.274 102.710 L263.499 102.260 L264.724 101.913 L265.949 101.568 L267.173 101.227 L268.398 100.883 L269.623 100.502 L270.848 100.147 L272.073 100.142 L273.298 100.149 L274.523 100.344 L275.747 100.513 L276.972 100.161 L278.197 99.804 L279.422 99.347 L280.647 98.945 L281.872 100.371 L283.096 101.792 L284.321 102.948 L285.546 104.099 L287.996 105.215" />
<path d="M32.054 100.438 L34.504 101.408 L35.729 101.751 L36.954 102.092 L38.179 101.952 L39.404 101.802 L40.628 102.295 L41.853 102.807 L41.936 102.858" />
<path d="M42.456 103.173 L43.078 103.550 L44.303 104.303 L45.528 104.623 L46.753 104.921 L47.977 104.735 L49.202 104.519 L50.427 105.114 L51.652 105.767 L52.877 107.726 L54.102 109.794 L55.326 111.384 L56.551 112.929 L57.776 113.961 L59.001 114.938 L60.226 115.668 L61.451 116.368 L62.675 117.305 L63.900 118.273 L64.396 118.824" />
<path d="M71.594 121.510 L72.474 120.994 L73.699 120.188 L74.924 119.208 L76.149 118.195 L77.374 117.607 L78.598 117.108 L79.823 116.708 L81.048 116.330 L82.273 116.060 L83.498 115.815 L84.723 115.203 L85.947 114.498 L87.172 113.776 L88.397 113.049 L89.622 112.394 L90.847 111.759 L92.072 111.115 L93.296 110.467 L94.521 109.812 L95.746 109.153 L96.971 108.486 L98.196 107.816 L99.421 107.310 L100.646 106.863 L101.870 106.449 L103.095 106.047 L104.320 105.528 L105.545 104.963 L106.770 104.635 L107.995 104.402 L109.219 104.256 L110.444 104.148 L111.669 103.647 L112.894 102.973 L114.119 102.181 L115.344 101.334 L116.568 100.552 L117.793 99.801 L119.018 99.290 L120.243 98.900 L121.468 98.183 L122.693 97.291 L123.917 96.726 L125.142 96.341 L126.367 96.135 L127.592 96.030 L128.817 96.088 L130.042 96.245 L131.267 97.006 L132.491 98.144 L133.716 99.209 L134.941 100.225 L136.166 100.864 L137.391 101.249 L138.616 101.740 L139.840 102.306 L141.065 103.049 L142.290 103.920 L143.515 104.510 L144.740 104.885 L145.965 105.096 L147.189 105.175 L148.414 105.292 L149.639 105.441 L150.864 105.537 L152.089 105.588 L153.314 105.562 L154.538 105.468 L155.763 105.181 L156.988 104.715 L158.213 104.270 L159.438 103.843 L160.663 103.567 L161.888 103.443 L163.112 103.116 L164.337 102.579 L165.562 101.968 L166.787 101.277 L168.012 101.036 L169.237 101.297 L170.461 101.398 L171.686 101.311 L172.911 101.345 L174.136 101.525 L175.361 101.563 L176.586 101.421 L177.810 101.334 L179.035 101.317 L180.260 101.081 L181.485 100.545 L182.710 100.155 L183.935 99.973 L185.159 100.126 L186.384 100.772 L187.609 101.260 L188.834 101.503 L190.059 101.731 L191.284 101.933 L192.509 102.021 L193.733 101.921 L194.958 101.907 L196.183 102.043 L197.408 102.592 L198.633 103.887 L199.858 105.100 L201.082 106.157 L202.307 107.101 L203.532 107.821 L204.757 108.395 L205.982 108.667 L207.207 109.130 L208.431 110.004 L209.656 111.128 L210.881 112.815 L212.106 114.258 L213.331 115.130 L214.556 116.121 L215.780 117.408 L216.754 118.332" />
<path d="M260.174 103.270 L261.100 103.006 L262.324 102.397 L263.549 101.822 L264.774 101.557 L265.999 101.270 L267.224 100.757 L268.449 100.232 L269.673 99.550 L270.898 98.916 L272.123 98.933 L273.348 98.958 L274.573 99.099 L275.798 99.214 L277.022 98.805 L278.247 98.378 L279.472 97.487 L280.697 96.676 L281.922 98.520 L283.147 100.349 L284.372 101.423 L285.596 102.492 L288.046 103.657" />
<path d="M32.105 99.094 L34.554 100.469 L35.779 100.542 L37.004 100.609 L38.229 101.415 L38.901 101.865" />
<path d="M42.345 102.948 L43.128 102.976 L44.353 103.008 L45.578 103.321 L46.803 103.648 L48.028 103.348 L49.253 103.011 L50.477 102.987 L51.702 102.987 L52.927 104.082 L54.152 105.269 L55.377 106.552 L56.602 107.844 L57.826 108.837 L59.051 109.798 L60.276 110.958 L61.501 112.141 L62.726 113.952 L63.951 115.845 L65.175 117.605 L66.400 119.346 L67.625 119.841 L68.850 120.142 L70.075 119.584 L71.300 118.881 L72.524 117.644 L73.749 116.310 L74.974 116.155 L76.199 116.231 L77.424 115.852 L78.649 115.378 L79.874 114.812 L81.098 114.226 L82.323 113.618 L83.548 113.004 L84.773 112.285 L85.998 111.539 L87.223 110.908 L88.447 110.307 L89.672 109.944 L90.897 109.648 L92.122 109.292 L93.347 108.917 L94.572 108.520 L95.796 108.116 L97.021 107.603 L98.246 107.053 L99.471 106.631 L100.696 106.253 L101.921 105.802 L103.145 105.324 L104.370 104.904 L105.595 104.507 L106.820 104.182 L108.045 103.885 L109.270 103.692 L110.495 103.542 L111.719 103.245 L112.526 103.006" />
<path d="M123.765 96.685 L123.968 96.553 L125.193 95.793 L126.417 94.734 L127.642 93.503 L128.867 92.404 L130.092 91.384 L131.317 91.897 L132.542 93.368 L133.766 95.096 L134.991 96.992 L136.216 98.348 L137.441 99.338 L138.666 100.010 L139.891 100.457 L141.116 101.017 L142.340 101.660 L143.565 102.057 L144.790 102.266 L146.015 102.396 L147.240 102.465 L148.465 102.548 L149.689 102.642 L150.914 102.481 L152.139 102.100 L153.364 101.778 L154.589 101.507 L155.814 100.833 L157.038 99.786 L158.263 99.030 L159.488 98.555 L160.713 98.613 L161.938 99.206 L163.163 99.592 L164.387 99.763 L165.612 99.907 L166.837 100.021 L168.062 99.996 L169.287 99.814 L170.512 99.458 L171.737 98.898 L172.961 98.524 L174.186 98.375 L175.411 98.025 L176.636 97.422 L177.861 96.671 L179.086 95.726 L180.310 94.769 L181.535 93.797 L182.760 93.440 L183.985 93.955 L185.210 94.492 L186.435 95.062 L187.659 95.705 L188.884 96.460 L190.109 97.248 L191.334 98.090 L192.559 98.617 L193.784 98.617 L195.008 98.794 L196.233 99.276 L197.458 99.833 L198.683 100.527 L199.908 101.302 L201.133 102.229 L202.358 102.966 L203.582 103.328 L204.807 103.724 L206.032 104.190 L207.257 104.916 L208.482 106.204 L209.707 107.513 L210.931 108.870 L212.156 110.096 L213.381 111.013 L214.606 111.906 L215.831 112.738 L217.056 113.353 L218.280 113.405 L219.505 113.951 L220.730 115.838 L220.736 115.846" />
<path d="M255.342 104.244 L256.250 103.610 L257.475 103.210 L258.700 102.823 L259.925 102.526 L261.150 102.221 L262.375 101.851 L263.599 101.489 L264.824 101.192 L266.049 100.853 L267.274 100.067 L268.499 99.234 L269.724 97.834 L270.949 96.495 L272.173 95.990 L273.398 95.539 L274.623 95.980 L275.848 96.389 L277.073 96.180 L278.298 95.948 L279.522 95.136 L280.747 94.385 L281.972 95.722 L283.197 97.054 L284.422 98.142 L285.647 99.224 L288.096 100.253" />
<path d="M32.155 95.847 L34.605 97.033 L35.830 97.149 L37.054 97.261 L38.279 98.061 L39.504 98.876 L40.729 99.349 L41.954 99.813 L43.179 99.915 L44.403 100.003 L45.628 100.412 L46.853 100.838 L48.078 101.161 L49.303 101.479 L50.528 101.820 L51.752 102.162 L52.977 102.942 L54.202 103.758 L55.427 104.537 L56.652 105.312 L57.877 106.313 L59.102 107.338 L60.326 108.424 L61.551 109.517 L62.776 110.773 L64.001 112.050 L65.226 113.489 L66.451 114.952 L67.675 116.138 L68.900 117.280 L70.125 117.562 L71.350 117.698 L72.575 117.024 L73.800 116.204 L75.024 116.120 L76.182 116.177" />
<path d="M76.339 116.141 L77.474 115.644 L78.699 114.983 L79.924 114.162 L81.149 113.305 L82.373 112.442 L83.598 111.577 L84.823 110.707 L86.048 109.836 L87.273 109.141 L88.498 108.492 L89.723 107.899 L90.947 107.322 L92.172 107.067 L93.397 106.908 L94.622 106.666 L95.847 106.398 L97.072 106.026 L98.296 105.620 L99.521 105.171 L100.746 104.706 L101.971 104.293 L103.196 103.899 L104.421 103.498 L105.645 103.095 L106.870 102.940 L108.095 102.887 L109.320 102.725 L110.545 102.519 L111.770 102.146 L112.994 101.701 L114.219 101.184 L115.444 100.634 L116.669 99.879 L117.894 99.025 L119.119 98.377 L120.343 97.833 L121.568 97.272 L122.793 96.703 L124.018 95.961 L125.243 95.125 L126.468 94.002 L127.693 92.714 L128.917 91.159 L130.142 89.444 L131.367 89.124 L132.592 89.676 L133.817 90.812 L135.042 92.330 L136.266 93.573 L137.491 94.631 L138.716 95.490 L139.941 96.210 L141.166 96.821 L142.391 97.353 L143.615 97.686 L144.840 97.865 L146.065 97.868 L147.290 97.731 L148.515 97.720 L149.740 97.812 L150.964 97.724 L152.189 97.481 L153.414 97.369 L154.639 97.375 L155.864 97.198 L157.089 96.851 L158.314 96.701 L159.538 96.742 L160.763 97.031 L161.988 97.567 L163.213 97.903 L164.438 98.031 L165.663 98.150 L166.887 98.259 L168.112 98.262 L169.337 98.147 L170.562 97.789 L171.787 97.146 L173.012 96.523 L174.236 95.923 L175.461 95.172 L176.686 94.228 L177.911 93.043 L179.136 91.542 L180.361 90.657 L181.585 90.613 L182.810 91.055 L184.035 92.189 L185.260 93.235 L186.485 94.152 L187.710 94.984 L188.935 95.685 L190.159 96.340 L191.384 96.921 L192.609 97.261 L193.834 97.200 L195.059 97.356 L196.284 97.889 L197.508 98.342 L198.733 98.654 L199.958 99.046 L201.183 99.592 L202.408 100.091 L203.633 100.498 L204.857 101.057 L206.082 101.927 L207.307 102.861 L208.532 103.931 L209.757 104.952 L210.982 105.865 L212.206 106.813 L213.431 107.841 L214.656 108.780 L215.881 109.499 L217.106 110.078 L218.331 110.294 L219.556 110.786 L220.780 112.027 L222.005 113.243 L223.096 114.264" />
<path d="M254.688 104.332 L255.076 104.042 L256.301 103.184 L257.526 102.734 L258.750 102.304 L259.975 102.034 L261.200 101.747 L262.425 101.319 L263.650 100.859 L264.875 100.099 L266.099 99.325 L267.324 98.409 L268.549 97.457 L269.774 96.084 L270.999 94.747 L272.224 93.916 L273.448 93.142 L274.673 93.297 L275.898 93.442 L277.123 93.388 L278.348 93.331 L279.573 93.236 L280.798 93.171 L282.022 94.110 L283.247 95.049 L284.472 95.982 L285.697 96.910 L288.147 97.546" />
<path d="M32.205 92.258 L34.655 93.180 L35.880 93.462 L37.105 93.743 L38.329 94.186 L39.554 94.632 L40.779 95.288 L42.004 95.949 L43.229 96.356 L44.454 96.753 L45.679 97.283 L46.903 97.820 L48.128 98.878 L49.353 99.968 L50.578 100.880 L51.803 101.779 L53.028 102.478 L54.252 103.159 L55.477 103.445 L56.702 103.693 L57.927 104.657 L59.152 105.697 L60.377 106.588 L61.601 107.462 L62.826 107.889 L64.051 108.258 L65.276 109.195 L66.501 110.212 L67.726 111.983 L68.950 113.871 L70.175 115.055 L71.400 116.121 L72.625 116.313 L73.780 116.345" />
<path d="M77.739 115.495 L78.749 114.905 L79.974 113.868 L81.199 112.759 L82.424 111.754 L83.649 110.774 L84.873 109.755 L86.098 108.726 L87.323 107.953 L88.548 107.249 L89.773 106.389 L90.998 105.484 L92.222 105.256 L93.447 105.231 L94.672 105.058 L95.897 104.837 L97.122 104.519 L98.347 104.167 L99.571 103.656 L100.796 103.090 L102.021 102.703 L103.246 102.381 L104.471 101.944 L105.696 101.462 L106.921 101.460 L108.145 101.651 L109.370 101.518 L110.595 101.247 L111.820 100.724 L113.045 100.089 L114.270 99.609 L115.494 99.202 L116.719 98.448 L117.944 97.526 L119.169 96.851 L120.394 96.302 L121.619 95.947 L122.843 95.697 L124.068 95.071 L125.293 94.239 L126.518 93.319 L127.743 92.349 L128.968 90.726 L130.192 88.711 L131.417 87.611 L132.642 87.083 L133.867 87.323 L135.092 88.064 L136.317 88.889 L137.542 89.772 L138.766 90.692 L139.991 91.640 L141.216 92.290 L142.441 92.722 L143.666 93.048 L144.891 93.293 L146.115 93.213 L147.340 92.874 L148.565 92.785 L149.790 92.903 L151.015 92.993 L152.240 93.058 L153.464 93.277 L154.689 93.632 L155.914 94.139 L157.139 94.786 L158.364 95.382 L159.589 95.930 L160.813 96.299 L162.038 96.488 L163.263 96.530 L164.488 96.419 L165.713 96.264 L166.938 96.063 L168.163 95.956 L169.387 95.954 L170.612 95.631 L171.837 94.932 L173.062 94.182 L174.287 93.369 L175.512 92.431 L176.736 91.333 L177.961 89.964 L179.186 88.242 L180.411 87.764 L181.636 88.983 L182.861 90.362 L184.085 91.971 L184.819 92.850" />
<path d="M190.312 96.355 L191.434 96.468 L192.659 96.510 L193.884 96.416 L195.109 96.500 L196.334 96.895 L197.559 97.179 L198.784 97.262 L200.008 97.366 L201.233 97.511 L202.458 97.800 L203.683 98.372 L204.908 99.146 L206.133 100.338 L207.357 101.393 L208.582 102.154 L209.807 102.868 L211.032 103.477 L212.257 104.229 L213.482 105.317 L214.706 106.303 L215.931 107.035 L217.156 107.753 L218.381 108.432 L219.606 109.055 L220.831 109.528 L222.055 110.019 L223.280 110.563 L224.505 111.097 L225.730 111.603 L226.955 112.387 L227.224 112.752" />
<path d="M253.353 104.448 L253.901 104.102 L255.126 103.450 L256.351 102.821 L257.576 102.348 L258.801 101.897 L260.026 101.621 L261.250 101.311 L262.475 100.712 L263.700 100.053 L264.925 98.827 L266.150 97.622 L267.375 96.638 L268.599 95.643 L269.824 94.522 L271.049 93.404 L272.274 92.336 L273.499 91.312 L274.724 91.001 L275.948 90.704 L277.173 90.661 L278.398 90.647 L279.623 91.341 L280.848 92.032 L282.073 92.648 L283.297 93.266 L284.522 93.924 L285.747 94.578 L288.197 94.896" />
<path d="M32.256 90.452 L34.705 91.802 L35.930 92.243 L37.155 92.681 L38.380 92.881 L39.605 93.077 L40.829 93.750 L42.054 94.438 L43.279 94.905 L44.504 95.363 L45.729 95.946 L46.954 96.535 L48.178 97.548 L49.403 98.587 L50.628 99.280 L51.853 99.947 L53.078 100.631 L54.303 101.317 L55.528 101.488 L56.752 101.611 L57.977 102.271 L59.202 102.989 L60.427 104.026 L61.652 105.101 L62.877 105.970 L64.101 106.812 L65.326 107.684 L66.551 108.561 L67.776 109.160 L69.001 109.716 L70.226 109.921 L71.450 110.067 L72.675 110.568 L73.900 111.133 L75.125 112.225 L76.350 113.420 L77.575 113.753 L78.799 113.906 L80.024 112.973 L81.249 111.797 L82.474 110.992 L83.699 110.276 L84.924 109.185 L86.149 107.999 L87.373 107.358 L88.598 106.863 L89.463 106.577" />
<path d="M97.256 104.431 L98.397 103.768 L99.622 103.239 L100.847 102.774 L102.071 102.233 L103.296 101.665 L104.521 101.094 L105.746 100.521 L106.971 100.302 L108.196 100.227 L109.420 99.968 L110.645 99.632 L111.870 99.106 L113.095 98.497 L114.320 97.993 L115.545 97.537 L116.770 96.710 L117.994 95.703 L119.219 95.177 L120.444 94.895 L121.669 94.625 L122.894 94.362 L124.119 93.624 L125.343 92.623 L126.568 91.706 L127.793 90.837 L129.018 89.599 L130.243 88.139 L131.468 87.479 L131.838 87.431" />
<path d="M134.413 87.665 L135.142 87.906 L136.367 88.425 L137.592 89.021 L138.817 89.454 L140.041 89.774 L141.266 90.010 L142.491 90.186 L143.716 90.537 L144.941 91.023 L146.166 91.128 L147.391 90.933 L148.615 90.938 L149.840 91.110 L151.065 91.262 L152.290 91.399 L153.515 91.592 L154.740 91.834 L155.964 92.321 L157.189 93.034 L158.414 93.410 L159.639 93.463 L160.864 93.450 L162.089 93.374 L163.313 93.379 L164.538 93.471 L165.763 93.312 L166.988 92.883 L168.213 92.395 L169.438 91.839 L170.662 90.937 L171.887 89.633 L173.112 89.003 L174.337 89.192 L175.562 89.002 L176.787 88.335 L178.012 87.458 L179.236 86.306 L180.461 86.314 L181.686 87.902 L182.911 89.498 L184.136 91.102 L185.361 92.411 L186.585 93.284 L187.810 93.852 L189.035 93.951 L190.260 94.153 L191.485 94.518 L192.710 94.846 L193.934 95.112 L195.159 95.265 L196.384 95.223 L197.609 95.246 L198.834 95.385 L200.059 95.509 L201.283 95.606 L202.508 95.856 L203.733 96.408 L204.958 97.044 L206.183 97.849 L207.408 98.759 L208.632 99.893 L209.857 101.016 L211.082 102.115 L212.307 103.129 L213.532 103.940 L214.757 104.722 L215.982 105.430 L217.206 106.165 L218.431 106.969 L219.656 107.688 L220.881 108.178 L222.106 108.610 L223.331 108.876 L224.555 109.127 L225.780 109.329 L227.005 109.927 L228.230 111.779 L228.347 111.949" />
<path d="M250.505 104.464 L251.502 104.004 L252.727 103.313 L253.952 102.678 L255.176 102.400 L256.401 102.114 L257.626 101.762 L258.851 101.401 L260.076 100.972 L261.301 100.509 L262.525 99.768 L263.750 99.004 L264.975 98.033 L266.200 97.058 L267.425 96.037 L268.650 95.004 L269.874 93.820 L271.099 92.632 L272.324 91.373 L273.549 90.155 L274.774 89.605 L275.999 89.055 L277.224 88.500 L278.448 87.993 L279.673 88.691 L280.898 89.381 L282.123 89.809 L283.348 90.232 L284.573 90.389 L285.797 90.548 L288.247 91.300" />
<path d="M32.306 88.234 L34.756 89.709 L35.980 90.218 L37.205 90.724 L38.430 91.066 L39.655 91.404 L40.880 92.031 L42.105 92.667 L43.329 93.049 L44.554 93.420 L45.779 93.883 L47.004 94.350 L48.229 95.108 L49.454 95.884 L50.678 96.388 L51.903 96.873 L53.128 97.500 L54.353 98.140 L55.578 98.526 L56.803 98.888 L58.027 99.615 L59.252 100.380 L60.477 101.242 L61.702 102.116 L62.927 102.766 L64.152 103.386 L65.376 104.105 L66.601 104.837 L67.826 105.112 L69.051 105.316 L70.276 105.300 L71.501 105.247 L72.726 105.556 L73.950 105.932 L75.175 106.577 L76.400 107.275 L77.625 107.191 L78.850 106.944 L80.075 106.735 L81.299 106.535 L82.524 107.176 L83.749 108.018 L84.974 108.365 L85.605 108.480" />
<path d="M105.462 100.682 L105.796 100.487 L107.021 99.916 L108.246 99.403 L109.471 98.942 L110.696 98.503 L111.920 97.906 L113.145 97.241 L114.370 96.618 L115.595 96.015 L116.820 95.151 L118.045 94.160 L119.269 93.519 L120.494 93.056 L121.719 92.633 L122.944 92.233 L124.169 91.523 L125.394 90.644 L126.618 89.733 L127.843 88.804 L129.068 88.089 L130.293 87.503 L131.518 87.413 L131.737 87.453" />
<path d="M135.731 88.075 L136.417 88.196 L137.642 88.450 L138.867 88.646 L140.092 88.802 L141.317 88.857 L142.541 88.837 L143.766 89.088 L144.991 89.545 L146.216 89.766 L147.441 89.801 L148.666 89.849 L149.890 89.907 L151.115 89.944 L152.340 89.963 L153.565 89.958 L154.790 89.931 L156.015 90.228 L157.239 90.825 L158.464 91.067 L159.689 90.968 L160.914 90.792 L162.139 90.538 L163.364 90.453 L164.589 90.542 L165.813 90.349 L167.038 89.849 L168.263 89.155 L169.488 88.244 L170.713 87.314 L171.938 86.361 L173.162 85.972 L174.387 86.267 L175.612 86.313 L176.837 86.044 L178.062 85.653 L179.287 85.102 L180.511 85.426 L181.736 86.944 L182.961 88.381 L184.186 89.702 L185.411 90.828 L186.636 91.666 L187.860 92.290 L189.085 92.587 L190.310 92.902 L191.535 93.249 L192.760 93.542 L193.985 93.745 L195.210 93.805 L196.434 93.618 L197.659 93.584 L198.884 93.828 L200.109 94.135 L201.334 94.564 L202.559 95.028 L203.783 95.565 L205.008 96.165 L206.233 96.897 L207.458 97.755 L208.683 98.882 L209.908 99.955 L211.132 100.905 L212.357 101.841 L213.582 102.744 L214.807 103.632 L216.032 104.482 L217.257 105.291 L218.481 105.992 L219.706 106.597 L220.931 106.945 L222.156 107.226 L223.381 107.317 L224.606 107.528 L225.831 108.102 L227.055 108.996 L228.280 110.903 L228.737 111.556" />
<path d="M245.379 105.639 L245.428 105.577 L246.653 104.144 L247.878 103.301 L249.102 102.548 L250.327 102.289 L251.552 101.974 L252.777 101.333 L254.002 100.757 L255.227 100.610 L256.452 100.423 L257.676 99.957 L258.901 99.468 L260.126 98.802 L261.351 98.132 L262.576 97.434 L263.801 96.718 L265.025 95.843 L266.250 94.954 L267.475 93.922 L268.700 92.898 L269.925 91.984 L271.150 91.059 L272.374 89.989 L273.599 88.933 L274.824 88.082 L276.049 87.230 L277.274 86.347 L278.499 85.497 L279.723 85.489 L280.948 85.486 L282.173 85.666 L283.398 85.854 L284.623 86.416 L285.848 86.980 L288.297 88.545" />
<path d="M32.356 85.903 L34.806 87.344 L36.031 87.881 L37.255 88.415 L38.480 88.991 L39.705 89.567 L40.930 90.133 L42.155 90.698 L43.380 90.986 L44.604 91.263 L45.829 91.536 L47.054 91.809 L48.279 92.255 L49.504 92.711 L50.729 93.056 L51.954 93.392 L53.178 93.909 L54.403 94.442 L55.628 95.102 L56.853 95.774 L58.078 96.677 L59.303 97.604 L60.527 98.155 L61.752 98.663 L62.977 98.825 L64.202 98.942 L65.427 99.454 L66.652 100.022 L67.876 100.357 L69.101 100.656 L70.326 100.728 L71.551 100.761 L72.776 100.781 L74.001 100.799 L75.225 100.484 L76.450 100.104 L77.675 99.225 L78.900 98.241 L80.125 98.916 L81.350 99.963 L82.575 102.209 L83.799 104.741 L85.024 106.797 L85.840 108.086" />
<path d="M106.900 99.975 L107.071 99.841 L108.296 98.870 L109.521 98.186 L110.746 97.624 L111.971 96.885 L113.196 96.067 L114.420 95.307 L115.645 94.574 L116.870 93.690 L118.095 92.733 L119.320 91.814 L120.545 90.914 L121.769 90.216 L122.994 89.625 L124.219 89.022 L125.444 88.413 L126.669 87.633 L127.894 86.755 L129.118 86.607 L130.343 86.896 L131.568 87.327 L131.771 87.413" />
<path d="M135.671 87.980 L136.467 87.945 L137.692 87.879 L138.917 87.988 L140.142 88.219 L141.367 88.233 L142.592 88.086 L143.817 88.160 L145.041 88.401 L146.266 88.650 L147.491 88.905 L148.716 88.977 L149.941 88.898 L151.166 88.807 L152.390 88.704 L153.615 88.503 L154.840 88.215 L156.065 88.263 L157.290 88.622 L158.515 88.761 L159.739 88.689 L160.964 88.469 L162.189 88.102 L163.414 87.895 L164.639 87.854 L165.864 87.590 L167.088 87.087 L168.313 86.302 L169.538 85.200 L170.763 84.510 L171.988 84.299 L173.213 84.181 L174.438 84.176 L175.662 84.225 L176.887 84.344 L178.112 84.398 L179.337 84.368 L180.562 84.852 L181.787 86.040 L183.011 87.122 L184.236 88.056 L185.461 88.981 L186.686 89.891 L187.911 90.723 L189.136 91.432 L190.360 91.969 L191.585 92.229 L192.810 92.406 L194.035 92.443 L195.260 92.414 L196.485 92.268 L197.709 92.281 L198.934 92.579 L200.159 93.073 L201.384 93.937 L202.609 94.702 L203.834 95.271 L205.059 95.926 L206.283 96.760 L207.508 97.632 L208.733 98.584 L209.958 99.415 L211.183 99.971 L212.408 100.698 L213.632 101.828 L214.857 102.923 L216.082 103.932 L217.307 104.798 L218.532 105.295 L219.757 105.700 L220.981 105.857 L222.206 106.002 L223.431 106.110 L224.656 106.453 L225.881 107.503 L227.106 108.700 L228.330 110.360 L228.797 110.912" />
<path d="M242.133 105.968 L243.029 105.073 L244.253 103.777 L245.478 102.141 L246.703 100.645 L247.928 99.866 L249.153 99.226 L250.378 99.354 L251.602 99.381 L252.827 98.807 L254.052 98.293 L255.277 98.165 L256.502 97.978 L257.727 97.371 L258.951 96.735 L260.176 95.886 L261.401 95.066 L262.626 94.491 L263.851 93.894 L265.076 93.096 L266.301 92.279 L267.525 91.270 L268.750 90.294 L269.975 89.726 L271.200 89.153 L272.425 88.508 L273.650 87.838 L274.874 86.775 L276.099 85.713 L277.324 84.684 L278.549 83.660 L279.774 82.750 L280.999 81.861 L282.223 81.655 L283.448 81.475 L284.673 82.579 L285.898 83.683 L288.348 86.040" />
<path d="M32.406 84.136 L34.856 85.499 L36.081 86.089 L37.306 86.677 L38.531 86.894 L39.755 87.103 L40.980 87.706 L42.205 88.321 L43.430 88.901 L44.655 89.479 L45.880 89.665 L47.104 89.831 L48.329 90.249 L49.554 90.683 L50.779 90.948 L52.004 91.202 L53.229 91.412 L54.453 91.618 L55.678 91.920 L56.903 92.230 L58.128 92.866 L59.353 93.536 L60.578 93.920 L61.803 94.271 L63.027 94.320 L64.252 94.329 L65.477 94.583 L66.702 94.872 L67.927 95.036 L69.152 95.180 L70.376 94.911 L71.601 94.573 L72.826 95.219 L74.051 96.043 L75.276 96.461 L76.501 96.799 L77.725 96.914 L78.950 96.982 L80.175 97.646 L81.400 98.442 L82.625 99.508 L83.850 100.638 L85.074 101.486 L86.299 102.262 L87.524 102.542 L88.749 102.688 L89.974 103.660 L91.199 104.867 L91.903 105.331" />
<path d="M105.872 100.455 L105.897 100.431 L107.122 99.330 L108.346 98.275 L109.571 97.477 L110.796 96.787 L112.021 95.678 L113.246 94.383 L114.471 93.656 L115.695 93.193 L116.920 92.284 L118.145 91.159 L119.370 89.772 L120.595 88.253 L121.820 87.254 L123.045 86.530 L124.269 86.074 L125.494 85.765 L126.719 85.853 L127.944 86.170 L129.169 86.432 L130.394 86.659 L131.618 86.919 L132.521 87.127" />
<path d="M133.245 87.198 L134.068 87.192 L135.293 86.995 L136.518 86.861 L137.743 86.770 L138.967 86.936 L140.192 87.284 L141.417 87.405 L142.642 87.359 L143.867 87.174 L145.092 86.883 L146.316 86.841 L147.541 86.997 L148.766 87.142 L149.991 87.276 L151.216 87.513 L152.441 87.839 L153.665 87.973 L154.890 87.937 L156.115 87.890 L157.340 87.833 L158.565 87.796 L159.790 87.777 L161.015 87.586 L162.239 87.224 L163.464 86.875 L164.689 86.542 L165.914 86.094 L167.139 85.524 L168.364 84.799 L169.588 83.902 L170.813 83.417 L172.038 83.416 L173.263 83.386 L174.488 83.324 L175.713 83.527 L176.937 84.065 L178.162 84.337 L179.387 84.262 L180.612 84.477 L181.837 85.089 L183.062 85.763 L184.286 86.526 L185.511 87.212 L186.736 87.785 L187.961 88.479 L189.186 89.360 L190.411 90.114 L191.636 90.668 L192.860 91.207 L194.085 91.722 L195.310 92.102 L196.535 92.249 L197.003 92.272" />
<path d="M197.736 92.309 L197.760 92.311 L198.985 92.219 L200.209 92.431 L201.434 93.215 L202.659 94.032 L203.884 94.915 L205.109 95.853 L205.722 96.381" />
<path d="M215.474 103.390 L216.132 103.799 L217.357 104.454 L218.582 104.827 L219.807 105.140 L221.032 105.291 L222.257 105.658 L222.740 106.046" />
<path d="M225.979 107.542 L227.156 107.634 L228.381 107.627 L229.606 107.605 L230.830 107.535 L232.055 107.285 L233.280 106.401 L234.505 105.444 L235.730 104.210 L236.955 103.102 L238.179 102.493 L239.404 101.880 L240.629 101.250 L241.854 100.578 L243.079 99.723 L244.304 98.762 L245.528 97.301 L246.753 95.931 L247.978 95.027 L249.203 94.282 L250.428 94.418 L251.653 94.500 L252.878 94.259 L254.102 94.048 L255.327 94.018 L256.552 93.967 L257.777 93.759 L259.002 93.522 L260.227 93.056 L261.451 92.583 L262.676 92.058 L263.901 91.549 L265.126 91.195 L266.351 90.798 L267.576 89.943 L268.800 89.097 L270.025 88.352 L271.250 87.659 L272.475 87.701 L273.668 87.707" />
<path d="M283.088 81.535 L283.499 81.124 L284.723 80.870 L285.948 80.628 L288.398 82.517" />
<path d="M32.457 79.603 L34.906 81.922 L36.131 82.584 L37.356 83.241 L38.581 83.580 L39.806 83.913 L41.030 84.597 L42.255 85.291 L43.480 86.089 L44.705 86.892 L45.930 87.245 L47.155 87.575 L48.380 88.052 L49.604 88.537 L50.829 88.719 L52.054 88.879 L53.279 88.919 L54.504 88.950 L55.729 89.088 L56.953 89.237 L58.178 89.568 L59.403 89.919 L60.628 90.124 L61.853 90.313 L63.078 90.277 L64.302 90.211 L65.527 90.172 L66.752 90.136 L67.977 90.121 L69.202 90.109 L70.427 90.088 L71.651 90.065 L72.876 90.832 L74.101 91.742 L75.326 92.360 L76.551 92.922 L77.776 93.527 L79.001 94.143 L80.225 94.813 L81.450 95.495 L82.675 96.032 L83.900 96.533 L85.125 96.768 L86.350 96.936 L87.574 97.043 L88.799 97.133 L90.024 97.825 L91.249 98.689 L92.474 99.503 L93.699 100.302 L94.923 100.921 L96.148 101.482 L97.373 101.710 L98.598 101.828 L99.823 101.807 L101.048 101.739 L102.272 101.371 L103.497 100.893 L104.722 100.361 L105.947 99.807 L107.172 99.076 L107.481 98.873" />
<path d="M108.944 97.887 L109.622 97.409 L110.846 96.519 L111.321 96.086" />
<path d="M112.020 95.447 L112.071 95.400 L113.296 94.180 L114.521 93.457 L115.746 92.965 L116.971 92.145 L117.494 91.726" />
<path d="M130.229 86.632 L130.444 86.649 L131.669 86.832 L132.893 87.069 L134.118 87.067 L135.343 86.908 L136.568 86.770 L137.793 86.645 L139.018 86.606 L140.243 86.626 L141.467 86.586 L142.692 86.502 L143.917 86.251 L145.142 85.872 L146.367 85.715 L147.592 85.734 L148.816 85.937 L150.041 86.292 L151.266 86.654 L152.491 87.021 L153.716 87.178 L154.941 87.147 L156.165 87.045 L157.390 86.876 L158.615 86.713 L159.840 86.556 L161.065 86.267 L162.290 85.846 L163.514 85.400 L164.739 84.930 L165.964 84.321 L167.189 83.562 L168.414 82.665 L169.639 81.614 L170.864 81.077 L172.088 81.141 L173.313 81.173 L174.538 81.167 L175.763 81.406 L176.988 81.954 L178.213 82.532 L179.437 83.151 L180.662 83.866 L181.887 84.712 L183.112 85.558 L184.337 86.406 L185.562 87.101 L186.786 87.569 L188.011 88.198 L189.236 89.074 L190.461 89.857 L191.686 90.492 L192.911 91.080 L194.135 91.589 L195.360 92.025 L195.961 92.176" />
<path d="M215.744 103.534 L216.183 103.523 L217.407 103.456 L218.632 103.300 L219.857 103.141 L221.082 102.975 L222.307 102.999 L223.532 103.567 L224.756 103.913 L225.981 103.592 L227.206 103.232 L228.431 102.747 L229.656 102.253 L230.881 101.730 L232.106 101.109 L233.330 100.144 L234.555 99.184 L235.780 98.242 L237.005 97.325 L238.230 96.505 L239.455 95.707 L240.679 94.995 L241.904 94.301 L243.129 93.681 L244.354 93.031 L245.579 92.239 L246.804 91.455 L248.028 90.714 L249.253 90.092 L250.478 90.126 L251.703 90.151 L252.928 90.117 L254.153 90.078 L255.377 90.004 L256.602 89.918 L257.827 89.743 L259.052 89.556 L260.277 89.274 L261.502 89.008 L262.727 88.872 L263.951 88.735 L265.176 88.581 L266.401 88.376 L267.626 87.640 L268.851 86.926 L270.076 86.479 L271.300 86.079 L272.525 86.317 L273.750 86.526 L274.975 86.269 L275.619 86.130" />
<path d="M285.409 80.737 L285.998 80.387 L288.448 80.918" />
<path d="M32.507 73.850 L34.957 77.242 L36.181 77.986 L37.406 78.721 L38.631 79.471 L39.856 80.222 L41.081 81.028 L42.306 81.835 L43.530 82.820 L44.755 83.813 L45.980 84.466 L47.205 85.102 L48.430 85.657 L49.655 86.207 L50.879 86.319 L52.104 86.400 L53.329 86.392 L54.554 86.376 L55.779 86.493 L57.004 86.624 L58.229 86.668 L59.453 86.702 L60.678 86.751 L61.903 86.801 L63.128 86.708 L64.353 86.596 L65.578 86.280 L66.802 85.935 L68.027 85.746 L69.252 85.582 L70.477 86.034 L71.702 86.590 L72.927 87.148 L74.151 87.708 L75.376 88.221 L76.601 88.727 L77.826 89.465 L79.051 90.252 L80.276 90.906 L81.500 91.530 L82.725 91.897 L83.950 92.202 L85.175 92.239 L86.400 92.209 L87.625 92.141 L88.850 92.063 L90.074 91.795 L91.299 91.473 L92.524 91.565 L93.749 91.781 L94.974 92.008 L96.199 92.239 L97.423 92.904 L98.648 93.714 L99.873 94.612 L101.098 95.542 L102.323 96.385 L103.548 97.196 L104.772 97.866 L105.997 98.482 L107.222 98.435 L108.255 98.170" />
<path d="M108.570 98.044 L109.672 97.352 L110.758 96.499" />
<path d="M139.575 86.614 L140.293 86.296 L141.518 85.917 L142.742 85.659 L143.967 85.415 L145.192 85.182 L146.417 85.015 L147.642 84.901 L148.867 85.143 L150.092 85.679 L151.316 86.018 L152.541 86.189 L153.766 86.190 L154.991 86.041 L156.216 85.905 L157.441 85.782 L158.665 85.526 L159.890 85.141 L161.115 84.696 L162.340 84.189 L163.565 83.656 L164.790 83.097 L166.014 82.311 L167.239 81.281 L168.464 80.058 L169.689 78.620 L170.914 77.943 L172.139 78.155 L173.363 78.377 L174.588 78.611 L175.813 78.915 L177.038 79.308 L178.263 80.233 L179.488 81.853 L180.713 83.410 L181.570 84.438" />
<path d="M215.490 103.265 L216.233 102.621 L217.458 101.608 L218.683 100.718 L219.907 99.900 L221.132 99.281 L222.357 98.688 L223.582 98.169 L224.807 97.667 L226.032 97.213 L227.256 96.805 L228.481 96.539 L229.706 96.171 L230.931 95.465 L232.156 94.687 L233.381 93.654 L234.605 92.708 L235.830 92.091 L237.055 91.409 L238.280 90.473 L239.505 89.555 L240.730 88.711 L241.954 87.940 L243.179 87.496 L244.404 87.139 L245.629 87.201 L246.854 87.183 L248.079 86.752 L249.304 86.369 L250.528 86.249 L251.753 86.154 L252.978 86.212 L254.203 86.236 L255.428 86.038 L256.653 85.824 L257.877 85.503 L259.102 85.199 L260.327 85.029 L261.552 84.918 L262.777 85.306 L264.002 85.647 L265.226 85.542 L266.451 85.391 L267.676 84.765 L268.901 84.194 L270.126 84.293 L271.351 84.394 L272.575 84.535 L273.800 84.663 L275.025 84.578 L276.250 84.481 L277.475 84.154 L278.188 83.967" />
<path d="M288.000 80.821 L288.498 80.593" />
<path d="M32.557 72.685 L35.007 72.226 L36.232 73.021 L37.457 73.825 L38.681 74.910 L39.906 76.000 L41.131 77.079 L42.356 78.159 L43.581 79.449 L44.806 80.748 L46.030 81.479 L47.255 82.181 L48.480 82.507 L49.705 82.810 L50.930 83.018 L52.155 83.219 L53.379 83.505 L54.604 83.798 L55.829 84.092 L57.054 84.386 L58.279 84.533 L59.504 84.664 L60.728 84.829 L61.953 84.998 L63.178 84.938 L64.403 84.847 L65.628 84.633 L66.853 84.401 L68.078 84.128 L69.302 83.848 L70.527 83.478 L71.752 83.093 L72.977 83.271 L74.202 83.552 L75.427 84.176 L76.651 84.867 L77.876 85.272 L79.101 85.616 L80.326 85.926 L81.551 86.228 L82.776 86.038 L84.000 85.732 L85.225 86.031 L86.450 86.483 L87.675 86.870 L88.900 87.240 L90.125 87.261 L91.349 87.183 L92.574 87.126 L93.799 87.076 L95.024 86.402 L96.249 85.530 L97.474 85.742 L98.698 86.315 L99.923 87.303 L101.148 88.435 L102.373 89.352 L103.598 90.189 L104.823 91.091 L106.048 92.018 L107.272 92.621 L108.497 93.091 L109.722 93.661 L110.947 94.273 L112.172 94.894 L112.386 95.003" />
<path d="M143.087 85.567 L144.018 85.055 L145.242 84.561 L146.467 84.356 L147.692 84.378 L148.917 84.553 L150.142 84.854 L151.367 84.971 L152.591 84.931 L153.816 84.913 L155.041 84.916 L156.266 84.726 L157.491 84.357 L158.716 84.012 L159.940 83.691 L161.165 83.290 L162.390 82.809 L163.615 82.020 L164.840 80.910 L166.065 79.673 L167.290 78.301 L168.514 76.652 L169.739 74.690 L170.964 74.557 L172.189 76.557 L173.414 78.350 L173.449 78.395" />
<path d="M211.363 100.005 L211.384 99.992 L212.609 99.258 L213.833 98.567 L215.058 97.752 L216.283 96.631 L217.508 95.488 L218.733 94.293 L219.958 93.273 L221.182 92.729 L222.407 92.213 L223.632 91.772 L224.857 91.353 L226.082 91.002 L227.307 90.642 L228.532 90.255 L229.756 89.866 L230.981 89.470 L232.206 89.002 L233.431 88.273 L234.656 87.544 L235.881 86.812 L237.105 86.091 L238.330 85.409 L239.555 84.782 L240.780 84.381 L242.005 84.044 L243.230 83.994 L244.454 83.916 L245.679 83.708 L246.904 83.465 L248.129 83.048 L249.354 82.673 L250.579 82.535 L251.803 82.389 L253.028 82.201 L254.253 82.005 L255.478 81.757 L256.703 81.537 L257.928 81.514 L259.153 81.540 L260.377 81.949 L261.602 82.334 L262.827 82.519 L264.052 82.681 L265.277 82.623 L266.502 82.538 L267.726 82.157 L268.951 81.822 L270.176 82.027 L271.401 82.228 L272.626 82.354 L273.851 82.461 L275.075 82.260 L276.300 82.067 L277.525 82.027 L278.750 81.996 L279.975 82.180 L280.374 82.236" />
<path d="M33.483 72.511 L35.057 71.380 L36.282 71.950 L37.507 72.534 L38.732 72.952 L39.956 73.367 L41.181 74.055 L42.406 74.751 L43.631 75.423 L44.856 76.095 L46.081 76.601 L47.305 77.099 L48.530 77.802 L49.755 78.518 L50.980 79.100 L52.205 79.673 L53.430 80.163 L54.655 80.647 L55.879 81.077 L57.104 81.501 L58.329 81.736 L59.554 81.952 L60.779 82.137 L62.004 82.320 L63.228 82.310 L64.453 82.276 L65.678 82.045 L66.903 81.786 L68.128 81.563 L69.353 81.346 L70.577 80.684 L71.802 79.948 L73.027 80.005 L74.252 80.206 L75.477 80.696 L76.702 81.241 L77.926 81.428 L79.151 81.539 L80.376 81.637 L81.601 81.732 L82.826 81.484 L84.051 81.153 L85.276 81.455 L86.500 81.917 L87.725 82.283 L88.950 82.623 L90.175 82.571 L91.400 82.407 L92.625 82.053 L93.849 81.643 L95.074 80.871 L96.299 79.984 L97.524 80.357 L98.749 81.150 L99.974 82.256 L101.198 83.473 L102.423 84.320 L103.648 85.033 L104.873 85.865 L106.098 86.743 L107.323 87.543 L108.547 88.310 L109.772 89.429 L110.997 90.696 L112.222 91.963 L113.447 93.230 L114.000 93.724" />
<path d="M144.927 84.711 L145.293 84.465 L146.518 83.886 L147.742 83.500 L148.967 83.470 L150.192 83.733 L151.417 83.837 L152.642 83.805 L153.867 83.780 L155.091 83.762 L156.316 83.512 L157.541 83.047 L158.766 82.585 L159.991 82.125 L161.216 81.566 L162.440 80.908 L163.665 80.158 L164.890 79.310 L166.115 78.412 L167.340 77.460 L168.565 76.253 L169.789 74.761 L169.982 74.812" />
<path d="M208.401 98.305 L208.984 97.791 L210.209 96.654 L211.434 95.386 L212.659 94.093 L213.884 92.740 L215.109 91.463 L216.333 90.371 L217.558 89.272 L218.783 88.155 L220.008 87.248 L221.233 86.915 L222.458 86.563 L223.682 86.158 L224.907 85.786 L226.132 85.512 L227.357 85.198 L228.582 84.759 L229.807 84.370 L231.031 84.144 L232.256 83.846 L233.481 83.298 L234.706 82.716 L235.931 82.010 L237.156 81.374 L238.381 81.019 L239.605 80.683 L240.830 80.423 L242.055 80.223 L243.280 80.288 L244.505 80.309 L245.730 80.121 L246.954 79.895 L248.179 79.470 L249.404 79.085 L250.629 78.922 L251.854 78.785 L253.079 78.796 L254.303 78.785 L255.528 78.624 L256.753 78.475 L257.978 78.411 L259.203 78.398 L260.428 78.783 L261.652 79.149 L262.877 79.353 L264.102 79.549 L265.327 79.669 L266.552 79.776 L267.777 79.745 L269.002 79.730 L270.226 79.903 L271.451 80.064 L272.676 80.067 L273.901 80.052 L275.126 79.729 L276.351 79.431 L277.575 79.602 L278.800 79.778 L280.025 80.069 L281.250 80.349 L282.475 80.262 L283.700 80.174 L284.924 79.993 L286.149 79.812 L288.599 79.432" />
<path d="M38.747 72.957 L38.782 72.931 L40.007 71.985 L41.232 71.788 L42.456 71.613 L43.681 71.045 L44.906 70.462 L46.131 70.552 L47.356 70.677 L48.581 72.132 L49.805 73.668 L51.030 74.763 L52.255 75.826 L53.480 76.417 L54.705 76.969 L55.930 77.499 L57.154 78.028 L58.379 78.333 L59.604 78.614 L60.829 78.751 L62.054 78.870 L63.279 78.923 L64.504 78.966 L65.728 78.643 L66.953 78.267 L68.178 78.186 L69.403 78.152 L70.628 77.623 L71.853 77.012 L73.077 77.148 L74.302 77.421 L75.527 77.605 L76.752 77.772 L77.977 77.831 L79.202 77.867 L80.426 77.862 L81.651 77.847 L82.876 77.906 L84.101 77.983 L85.326 78.100 L86.551 78.227 L87.775 78.218 L89.000 78.171 L90.225 77.767 L91.450 77.262 L92.675 76.528 L93.900 75.726 L95.125 75.472 L96.349 75.392 L97.574 76.371 L98.799 77.702 L100.024 78.942 L101.249 80.150 L102.474 80.831 L103.698 81.317 L104.923 81.867 L106.148 82.442 L107.373 83.103 L108.598 83.797 L109.823 84.858 L111.047 86.075 L112.272 87.382 L113.497 88.729 L114.722 90.083 L115.947 91.440 L116.972 92.126" />
<path d="M146.149 84.019 L146.568 83.622 L147.793 82.467 L149.017 82.121 L150.242 82.443 L151.467 82.644 L152.692 82.741 L153.917 82.704 L155.142 82.548 L156.367 82.244 L157.591 81.804 L158.816 81.225 L160.041 80.513 L161.266 79.687 L162.491 78.747 L163.716 78.256 L164.940 78.231 L166.165 78.214 L166.367 78.213" />
<path d="M204.942 95.727 L205.360 95.391 L206.585 94.262 L207.810 93.121 L209.035 91.951 L210.259 90.751 L211.484 89.482 L212.709 88.093 L213.934 86.420 L215.159 84.951 L216.384 83.987 L217.608 83.083 L218.833 82.336 L220.058 81.780 L221.283 81.746 L222.508 81.615 L223.733 81.207 L224.958 80.839 L226.182 80.587 L227.407 80.297 L228.632 79.890 L229.857 79.540 L231.082 79.385 L232.307 79.159 L233.531 78.689 L234.756 78.196 L235.981 77.613 L237.206 77.152 L238.431 77.170 L239.656 77.122 L240.880 76.802 L242.105 76.534 L243.330 76.497 L244.555 76.473 L245.780 76.511 L247.005 76.469 L248.229 76.016 L249.454 75.601 L250.679 75.400 L251.904 75.301 L253.129 75.804 L254.354 76.239 L255.579 76.240 L256.803 76.199 L258.028 75.863 L259.253 75.560 L260.478 75.505 L261.703 75.497 L262.928 75.884 L264.152 76.270 L265.377 76.648 L266.602 77.023 L267.827 77.369 L269.052 77.692 L270.277 77.743 L271.501 77.780 L272.726 77.607 L273.951 77.418 L275.176 76.976 L276.401 76.571 L277.626 76.886 L278.850 77.197 L280.075 77.428 L281.300 77.654 L282.525 77.761 L283.750 77.857 L284.975 77.431 L286.200 77.003 L288.649 76.066" />
<path d="M38.405 72.837 L38.832 72.563 L40.057 71.765 L41.282 70.796 L42.507 69.821 L43.731 69.436 L44.956 69.073 L46.181 69.433 L47.406 69.828 L48.631 70.455 L49.856 71.097 L51.081 71.284 L52.305 71.438 L53.530 71.401 L54.755 71.348 L55.980 71.904 L57.205 72.517 L58.430 72.715 L59.654 72.868 L60.879 72.990 L62.104 73.108 L63.329 73.183 L64.554 73.253 L65.779 73.098 L67.003 72.912 L68.228 72.768 L69.453 72.630 L70.678 72.771 L71.903 72.958 L73.128 73.298 L74.352 73.665 L75.577 73.816 L76.802 73.925 L78.027 73.930 L79.252 73.914 L80.477 73.975 L81.702 74.054 L82.926 74.318 L84.151 74.626 L85.376 74.687 L86.601 74.685 L87.826 74.337 L89.051 73.895 L90.275 73.011 L91.500 72.001 L92.725 71.449 L93.950 71.034 L95.175 71.585 L96.400 72.441 L97.624 73.700 L98.849 75.092 L100.074 76.315 L101.299 77.479 L102.524 78.159 L103.749 78.661 L104.973 79.213 L106.198 79.785 L107.423 80.350 L108.648 80.911 L109.873 81.639 L111.098 82.438 L112.323 83.186 L113.547 83.911 L114.772 84.610 L115.997 85.296 L117.222 86.294 L118.447 87.444 L119.672 88.998 L119.805 89.190" />
<path d="M150.001 82.378 L150.293 82.233 L151.517 81.594 L152.742 80.926 L153.967 80.601 L155.192 80.583 L156.417 80.428 L157.642 80.146 L158.866 79.924 L160.091 79.759 L161.316 79.522 L161.321 79.520" />
<path d="M200.658 92.663 L201.736 91.920 L202.961 91.053 L204.186 90.142 L205.410 89.185 L206.635 88.135 L207.860 87.022 L209.085 85.777 L210.310 84.480 L211.535 83.069 L212.759 81.693 L213.984 80.398 L215.209 79.399 L216.434 79.126 L217.659 78.856 L218.884 78.594 L220.108 78.412 L221.333 78.446 L222.558 78.322 L223.783 77.744 L225.008 77.079 L226.233 76.151 L227.457 75.497 L228.682 75.709 L229.907 75.890 L231.132 75.969 L232.357 75.905 L233.582 75.338 L234.807 74.772 L236.031 74.205 L237.256 73.798 L238.481 74.025 L239.706 74.230 L240.931 74.347 L242.156 74.386 L243.380 74.075 L244.605 73.821 L245.830 73.830 L247.055 73.743 L248.280 73.161 L249.505 72.603 L250.729 72.175 L251.954 71.827 L253.179 71.952 L254.404 72.007 L255.629 71.611 L256.854 71.248 L258.078 71.126 L259.303 71.044 L260.528 71.267 L261.753 71.522 L262.978 72.047 L264.203 72.547 L265.428 72.820 L266.652 73.045 L267.877 72.773 L269.102 72.541 L270.327 72.789 L271.552 73.034 L272.777 73.249 L274.001 73.425 L275.226 72.968 L276.451 72.543 L277.676 72.788 L278.901 73.038 L280.126 73.429 L281.350 73.804 L282.575 73.655 L283.800 73.499 L285.025 73.003 L286.250 72.510 L288.699 72.287" />
<path d="M32.758 72.421 L33.373 72.440" />
<path d="M37.102 72.216 L37.658 72.133 L38.882 71.565 L40.107 70.988 L41.332 69.862 L42.557 68.719 L43.782 68.231 L45.007 67.768 L46.231 67.921 L47.456 68.104 L48.681 68.058 L49.906 67.997 L51.131 67.616 L52.356 67.211 L53.580 66.679 L54.805 66.135 L56.030 66.612 L57.255 67.186 L58.480 67.334 L59.705 67.436 L60.930 67.513 L62.154 67.588 L63.379 67.884 L64.604 68.210 L65.829 68.152 L67.054 68.039 L68.279 68.189 L69.503 68.379 L70.728 68.704 L71.953 69.051 L73.178 69.390 L74.403 69.727 L75.628 69.988 L76.852 70.233 L78.077 70.169 L79.302 70.039 L80.527 70.195 L81.752 70.416 L82.977 70.913 L84.201 71.477 L85.426 71.622 L86.651 71.662 L87.876 71.154 L89.101 70.499 L90.326 69.739 L91.551 68.948 L92.775 69.018 L94.000 69.345 L95.225 70.487 L96.450 71.886 L97.675 73.123 L98.900 74.305 L100.124 75.348 L101.349 76.341 L102.574 76.795 L103.799 77.052 L105.024 77.775 L106.249 78.678 L107.473 79.387 L108.698 80.015 L109.923 80.548 L111.148 81.041 L112.373 81.407 L113.598 81.718 L114.822 81.982 L116.047 82.225 L117.272 83.066 L118.497 84.199 L119.722 85.673 L120.947 87.322 L121.254 87.672" />
<path d="M149.621 82.180 L150.343 81.646 L151.568 80.662 L152.793 79.612 L154.017 79.029 L155.242 78.862 L156.467 78.614 L157.692 78.290 L158.917 78.033 L160.142 77.841 L161.366 77.801 L162.591 77.912 L163.816 77.924 L165.041 77.833 L166.266 77.793 L166.893 77.800" />
<path d="M194.173 91.593 L194.437 91.442 L195.662 90.812 L196.887 90.302 L198.112 89.687 L199.336 88.884 L200.561 87.960 L201.786 86.808 L203.011 85.713 L204.236 84.726 L205.461 83.702 L206.685 82.599 L207.910 81.487 L209.135 80.358 L210.360 79.155 L211.585 77.786 L212.810 76.462 L214.035 75.244 L215.259 74.323 L216.484 74.138 L217.709 73.977 L218.934 73.877 L220.159 73.824 L221.384 73.899 L222.608 73.782 L223.833 73.120 L225.058 72.430 L226.283 71.662 L227.508 71.175 L228.733 71.581 L229.957 71.915 L231.182 72.007 L232.407 71.958 L233.632 71.410 L234.857 70.874 L236.082 70.381 L237.306 69.993 L238.531 70.023 L239.756 70.140 L240.981 70.621 L242.206 70.957 L243.431 70.641 L244.656 70.383 L245.880 70.405 L247.105 70.293 L248.330 69.495 L249.555 68.799 L250.780 68.663 L252.005 68.535 L253.229 68.461 L254.454 68.300 L255.679 67.577 L256.904 66.898 L258.129 66.530 L259.354 66.219 L260.578 66.345 L261.803 66.542 L263.028 67.336 L264.253 68.105 L265.478 68.638 L266.703 69.108 L267.927 68.911 L269.152 68.751 L270.377 69.034 L271.602 69.313 L272.827 69.516 L274.052 69.683 L275.276 69.252 L276.501 68.857 L277.726 69.173 L278.951 69.487 L280.176 69.770 L281.401 70.037 L282.626 69.733 L283.850 69.429 L285.075 69.115 L286.300 68.804 L288.750 68.530" />
<path d="M32.808 68.899 L35.258 70.130 L36.483 70.203 L37.708 70.272 L38.933 69.992 L40.158 69.705 L41.382 68.981 L42.607 68.244 L43.832 67.393 L45.057 66.539 L46.282 66.052 L47.507 65.584 L48.731 65.005 L49.956 64.418 L51.181 63.777 L52.406 63.131 L53.631 62.223 L54.856 61.293 L56.080 61.597 L57.305 62.019 L58.530 62.169 L59.755 62.289 L60.980 62.295 L62.205 62.287 L63.429 62.986 L64.654 63.776 L65.879 63.749 L67.104 63.604 L68.329 64.372 L69.554 65.282 L70.779 65.351 L72.003 65.277 L73.228 65.430 L74.453 65.625 L75.678 66.124 L76.903 66.682 L78.128 66.533 L79.352 66.235 L80.577 66.512 L81.802 66.918 L83.027 67.675 L84.252 68.515 L85.477 68.874 L86.701 69.111 L87.926 68.607 L89.151 67.904 L90.376 67.815 L91.601 67.901 L92.826 68.993 L92.909 69.087" />
<path d="M102.174 76.612 L102.624 76.622 L103.849 76.396 L105.074 77.442 L105.569 78.064" />
<path d="M114.609 81.934 L114.873 81.941 L116.098 81.946 L117.322 82.326 L118.547 82.888 L119.772 83.750 L120.997 84.764 L122.222 85.519 L123.447 86.136 L123.640 86.311" />
<path d="M132.186 86.921 L133.245 86.483 L134.470 86.131 L135.695 85.881 L136.920 85.581 L138.145 85.247 L139.370 84.883 L140.594 84.497 L141.819 84.043 L143.044 83.538 L144.269 82.974 L145.494 82.363 L146.719 81.982 L147.943 81.783 L149.168 81.347 L150.393 80.715 L151.618 79.840 L152.843 78.754 L154.068 77.939 L155.292 77.363 L156.517 76.801 L157.742 76.252 L158.967 75.606 L160.192 74.867 L161.417 74.666 L162.641 75.004 L163.866 75.328 L165.091 75.637 L166.316 75.828 L167.541 75.892 L168.668 75.953" />
<path d="M190.562 89.894 L190.813 89.897 L192.038 89.780 L193.262 89.455 L194.487 88.783 L195.712 88.074 L196.937 87.298 L198.162 86.428 L199.387 85.386 L200.612 84.164 L201.836 82.600 L203.061 81.183 L204.286 80.053 L205.511 78.876 L206.736 77.600 L207.961 76.463 L209.185 75.625 L210.410 74.689 L211.635 73.530 L212.860 72.295 L214.085 70.877 L215.310 69.682 L216.534 69.035 L217.759 68.505 L218.984 68.274 L220.209 68.129 L221.434 68.218 L222.659 68.109 L223.883 67.439 L225.108 66.974 L226.333 67.123 L227.558 67.288 L228.783 67.503 L230.008 67.646 L231.233 67.550 L232.457 67.381 L233.682 66.957 L234.907 66.545 L236.132 66.179 L237.357 65.778 L238.582 65.243 L239.806 64.961 L241.031 65.741 L242.256 66.364 L243.481 66.285 L244.706 66.232 L245.931 66.302 L247.155 66.183 L248.380 65.092 L249.605 64.265 L250.830 64.889 L252.055 65.408 L253.280 65.298 L254.504 65.070 L255.729 64.085 L256.954 63.094 L258.179 62.063 L259.404 61.115 L260.629 60.802 L261.854 60.647 L263.078 61.831 L264.303 63.008 L265.528 64.134 L266.753 65.207 L267.978 65.715 L269.203 66.198 L270.427 66.372 L271.652 66.522 L272.877 66.350 L274.102 66.167 L275.327 65.803 L276.552 65.480 L277.776 65.996 L279.001 66.489 L280.226 66.421 L281.451 66.345 L282.676 65.978 L283.901 65.620 L285.125 65.720 L286.350 65.814 L288.800 64.794" />
</svg>
