<svg xmlns="http://www.w3.org/2000/svg" viewBox="0 0 279 216">
<path d="M141.643 66.643 L152.357 97.071 L163.071 66.643" />
<path d="M142.929 121.500 L142.929 149.357" />
<path d="M150.214 121.286 C151.009 121.286 151.842 121.436 152.598 121.716 C153.354 121.995 154.106 122.432 154.749 122.964 C155.391 123.496 155.988 124.175 156.455 124.907 C156.922 125.639 157.305 126.496 157.551 127.356 C157.797 128.217 157.929 129.166 157.929 130.071 C157.929 130.976 157.797 131.926 157.551 132.786 C157.305 133.647 156.922 134.503 156.455 135.236 C155.988 135.968 155.391 136.647 154.749 137.179 C154.106 137.711 153.354 138.147 152.598 138.427 C151.842 138.707 151.009 138.857 150.214 138.857 C149.420 138.857 148.586 138.707 147.830 138.427 C147.075 138.147 146.323 137.711 145.680 137.179 C145.037 136.647 144.440 135.968 143.973 135.236 C143.506 134.503 143.123 133.647 142.878 132.786 C142.632 131.926 142.500 130.976 142.500 130.071 C142.500 129.166 142.632 128.217 142.878 127.356 C143.123 126.496 143.506 125.639 143.973 124.907 C144.440 124.175 145.037 123.496 145.680 122.964 C146.323 122.432 147.075 121.995 147.830 121.716 C148.586 121.436 149.420 121.286 150.214 121.286 Z" />
<path d="M165.214 108.643 L165.214 134.786 L168.214 138.643" />
<path d="M169.714 88.500 C170.037 88.515 170.851 88.545 171.650 88.589 C172.449 88.634 173.507 88.715 174.509 88.767 C175.512 88.819 176.668 88.886 177.665 88.901 C178.662 88.916 179.708 88.923 180.490 88.857 C181.272 88.790 181.918 88.691 182.357 88.500 C182.796 88.309 182.983 88.030 183.125 87.708 C183.268 87.386 183.262 86.976 183.213 86.570 C183.163 86.163 183.001 85.699 182.830 85.270 C182.660 84.841 182.411 84.385 182.189 83.995 C181.967 83.605 181.750 83.262 181.500 82.929 C181.250 82.595 181.002 82.305 180.687 81.996 C180.373 81.687 179.995 81.361 179.611 81.074 C179.227 80.787 178.799 80.502 178.383 80.275 C177.968 80.048 177.527 79.842 177.118 79.713 C176.709 79.583 176.325 79.499 175.929 79.500 C175.532 79.501 175.148 79.585 174.739 79.716 C174.330 79.847 173.889 80.056 173.474 80.285 C173.058 80.514 172.630 80.802 172.246 81.089 C171.862 81.377 171.485 81.703 171.170 82.010 C170.855 82.316 170.577 82.617 170.357 82.929 C170.137 83.240 169.981 83.544 169.850 83.880 C169.719 84.216 169.637 84.579 169.572 84.943 C169.507 85.307 169.481 85.690 169.462 86.066 C169.443 86.441 169.453 86.827 169.459 87.197 C169.465 87.567 169.485 87.927 169.500 88.286 C169.515 88.645 169.526 88.995 169.551 89.352 C169.577 89.709 169.603 90.074 169.654 90.430 C169.706 90.787 169.766 91.145 169.860 91.490 C169.954 91.835 170.066 92.176 170.220 92.499 C170.374 92.823 170.553 93.119 170.786 93.429 C171.019 93.739 171.302 94.045 171.619 94.359 C171.935 94.673 172.306 95.012 172.685 95.313 C173.064 95.613 173.482 95.918 173.892 96.165 C174.302 96.411 174.736 96.641 175.147 96.792 C175.558 96.943 175.944 97.062 176.357 97.071 C176.770 97.081 177.183 96.993 177.626 96.849 C178.069 96.704 178.557 96.451 179.014 96.206 C179.471 95.960 179.949 95.644 180.369 95.374 C180.789 95.104 181.203 94.803 181.534 94.586 C181.866 94.369 182.220 94.157 182.357 94.071" />
<path d="M182.357 121.286 C183.152 121.286 183.985 121.436 184.741 121.716 C185.497 121.995 186.249 122.432 186.891 122.964 C187.534 123.496 188.131 124.175 188.598 124.907 C189.065 125.639 189.448 126.496 189.694 127.356 C189.939 128.217 190.071 129.166 190.071 130.071 C190.071 130.976 189.939 131.926 189.694 132.786 C189.448 133.647 189.065 134.503 188.598 135.236 C188.131 135.968 187.534 136.647 186.891 137.179 C186.249 137.711 185.497 138.147 184.741 138.427 C183.985 138.707 183.152 138.857 182.357 138.857 C181.563 138.857 180.729 138.707 179.973 138.427 C179.218 138.147 178.466 137.711 177.823 137.179 C177.180 136.647 176.583 135.968 176.116 135.236 C175.649 134.503 175.266 133.647 175.020 132.786 C174.775 131.926 174.643 130.976 174.643 130.071 C174.643 129.166 174.775 128.217 175.020 127.356 C175.266 126.496 175.649 125.639 176.116 124.907 C176.583 124.175 177.180 123.496 177.823 122.964 C178.466 122.432 179.218 121.995 179.973 121.716 C180.729 121.436 181.563 121.286 182.357 121.286 Z" />
<path d="M195.643 122.786 L205.071 122.786" />
<path d="M199.929 112.500 L199.929 134.357 L204.214 138.643" />
<path d="M201.587 93.740 C201.330 94.012 200.613 94.919 200.046 95.374 C199.478 95.829 198.833 96.207 198.180 96.470 C197.527 96.732 196.817 96.897 196.127 96.947 C195.437 96.997 194.715 96.936 194.039 96.770 C193.363 96.604 192.682 96.322 192.069 95.952 C191.456 95.583 190.866 95.100 190.362 94.554 C189.858 94.008 189.403 93.360 189.044 92.678 C188.686 91.996 188.399 91.231 188.213 90.463 C188.027 89.695 187.929 88.869 187.929 88.071 C187.929 87.274 188.027 86.448 188.213 85.680 C188.399 84.912 188.686 84.147 189.044 83.465 C189.403 82.783 189.858 82.135 190.362 81.589 C190.866 81.043 191.456 80.560 192.069 80.191 C192.682 79.821 193.363 79.539 194.039 79.373 C194.715 79.207 195.437 79.146 196.127 79.196 C196.817 79.246 197.527 79.411 198.180 79.673 C198.833 79.935 199.478 80.314 200.046 80.769 C200.613 81.224 201.330 82.131 201.587 82.403" />
<path d="M206.357 80.786 L215.786 80.786" />
<path d="M210.643 70.500 L210.643 92.357 L214.929 96.643" />
<path d="M223.071 79.500 C223.071 81.286 223.071 88.429 223.071 90.214 C223.071 92.000 223.035 89.937 223.071 90.214 C223.108 90.492 223.147 91.342 223.290 91.878 C223.434 92.414 223.655 92.948 223.933 93.429 C224.210 93.909 224.562 94.368 224.954 94.760 C225.346 95.152 225.805 95.504 226.286 95.782 C226.766 96.059 227.300 96.280 227.836 96.424 C228.372 96.567 228.945 96.643 229.500 96.643 C230.055 96.643 230.628 96.567 231.164 96.424 C231.700 96.280 232.234 96.059 232.714 95.782 C233.195 95.504 233.654 95.152 234.046 94.760 C234.438 94.368 234.790 93.909 235.067 93.429 C235.345 92.948 235.566 92.414 235.710 91.878 C235.853 91.342 235.892 90.492 235.929 90.214" />
<path d="M229.500 121.500 L229.500 138.643" />
<path d="M229.500 126.214 C229.573 126.087 229.761 125.765 229.937 125.453 C230.113 125.142 230.332 124.720 230.558 124.346 C230.784 123.972 231.041 123.540 231.293 123.208 C231.545 122.877 231.800 122.592 232.071 122.357 C232.343 122.122 232.623 121.959 232.922 121.797 C233.221 121.635 233.549 121.482 233.866 121.386 C234.183 121.290 234.516 121.218 234.824 121.220 C235.132 121.221 235.423 121.259 235.714 121.393 C236.005 121.526 236.286 121.749 236.570 122.020 C236.853 122.291 237.150 122.657 237.415 123.020 C237.680 123.383 237.944 123.808 238.160 124.198 C238.377 124.587 238.572 124.958 238.714 125.357 C238.856 125.756 238.945 126.159 239.012 126.593 C239.079 127.028 239.097 127.527 239.116 127.962 C239.135 128.398 239.122 128.855 239.126 129.207 C239.131 129.558 239.140 128.499 239.143 130.071 C239.146 131.644 239.143 137.214 239.143 138.643" />
<path d="M235.929 79.500 L235.929 96.643" />
<path d="M239.143 126.214 C239.215 126.087 239.401 125.765 239.575 125.453 C239.749 125.142 239.963 124.720 240.188 124.346 C240.412 123.972 240.666 123.540 240.921 123.208 C241.175 122.877 241.433 122.592 241.714 122.357 C241.996 122.122 242.291 121.959 242.608 121.797 C242.925 121.635 243.278 121.482 243.616 121.386 C243.954 121.290 244.311 121.218 244.637 121.220 C244.963 121.221 245.271 121.259 245.571 121.393 C245.872 121.526 246.156 121.749 246.442 122.020 C246.728 122.291 247.022 122.657 247.286 123.020 C247.549 123.383 247.808 123.808 248.022 124.198 C248.237 124.587 248.430 124.958 248.571 125.357 C248.713 125.756 248.802 126.159 248.869 126.593 C248.936 127.028 248.954 127.527 248.973 127.962 C248.992 128.398 248.979 128.855 248.983 129.207 C248.988 129.558 248.997 128.499 249.000 130.071 C249.003 131.644 249.000 137.214 249.000 138.643" />
<path d="M244.500 79.500 L244.500 96.643" />
<path d="M244.500 84.214 C244.596 84.078 244.844 83.732 245.076 83.397 C245.308 83.063 245.594 82.605 245.893 82.205 C246.192 81.806 246.531 81.344 246.871 81.000 C247.210 80.656 247.538 80.348 247.929 80.143 C248.319 79.938 248.750 79.848 249.214 79.770 C249.679 79.691 250.232 79.685 250.714 79.674 C251.196 79.664 251.714 79.699 252.107 79.706 C252.500 79.713 252.911 79.713 253.071 79.714" />
<path d="M257.571 130.500 C257.894 130.515 258.708 130.545 259.507 130.589 C260.306 130.634 261.364 130.715 262.366 130.767 C263.369 130.819 264.525 130.886 265.522 130.901 C266.519 130.916 267.565 130.923 268.347 130.857 C269.129 130.790 269.775 130.691 270.214 130.500 C270.653 130.309 270.840 130.030 270.982 129.708 C271.125 129.386 271.119 128.976 271.070 128.570 C271.021 128.163 270.858 127.699 270.687 127.270 C270.517 126.841 270.268 126.385 270.046 125.995 C269.825 125.605 269.607 125.262 269.357 124.929 C269.107 124.595 268.859 124.305 268.545 123.996 C268.230 123.687 267.852 123.361 267.468 123.074 C267.084 122.787 266.656 122.502 266.241 122.275 C265.825 122.048 265.385 121.842 264.975 121.713 C264.566 121.583 264.182 121.499 263.786 121.500 C263.389 121.501 263.005 121.585 262.596 121.716 C262.187 121.847 261.746 122.056 261.331 122.285 C260.915 122.514 260.487 122.802 260.103 123.089 C259.719 123.377 259.342 123.703 259.027 124.010 C258.712 124.316 258.434 124.617 258.214 124.929 C257.994 125.240 257.838 125.544 257.707 125.880 C257.576 126.216 257.494 126.579 257.429 126.943 C257.365 127.307 257.338 127.690 257.319 128.066 C257.301 128.441 257.310 128.827 257.316 129.197 C257.322 129.567 257.342 129.927 257.357 130.286 C257.373 130.645 257.383 130.995 257.409 131.352 C257.434 131.709 257.460 132.074 257.511 132.430 C257.563 132.787 257.623 133.145 257.717 133.490 C257.811 133.835 257.923 134.176 258.077 134.499 C258.231 134.823 258.410 135.119 258.643 135.429 C258.876 135.739 259.159 136.045 259.476 136.359 C259.793 136.673 260.163 137.012 260.542 137.313 C260.921 137.613 261.339 137.918 261.749 138.165 C262.159 138.411 262.593 138.641 263.004 138.792 C263.415 138.943 263.801 139.062 264.214 139.071 C264.627 139.081 265.040 138.993 265.483 138.849 C265.926 138.704 266.414 138.451 266.871 138.206 C267.329 137.960 267.806 137.644 268.226 137.374 C268.646 137.104 269.060 136.803 269.391 136.586 C269.723 136.369 270.077 136.157 270.214 136.071" />
<path d="M272.786 79.500 L272.786 94.500 L275.571 97.071" />
<path d="M272.786 85.071 C272.651 84.978 272.305 84.745 271.978 84.509 C271.652 84.274 271.239 83.953 270.826 83.659 C270.413 83.365 269.943 83.023 269.499 82.747 C269.056 82.470 268.584 82.183 268.167 81.999 C267.751 81.815 267.363 81.686 267.000 81.643 C266.637 81.599 266.318 81.657 265.987 81.739 C265.656 81.821 265.329 81.969 265.015 82.137 C264.700 82.304 264.393 82.522 264.099 82.743 C263.806 82.965 263.523 83.222 263.256 83.467 C262.989 83.712 262.740 83.956 262.500 84.214 C262.260 84.473 262.033 84.730 261.814 85.017 C261.596 85.303 261.383 85.617 261.189 85.935 C260.994 86.253 260.810 86.591 260.649 86.925 C260.487 87.258 260.340 87.604 260.220 87.938 C260.100 88.272 260.005 88.597 259.929 88.929 C259.852 89.260 259.799 89.588 259.761 89.928 C259.722 90.268 259.698 90.622 259.699 90.967 C259.699 91.312 259.718 91.664 259.764 91.999 C259.810 92.334 259.878 92.668 259.977 92.978 C260.075 93.287 260.194 93.573 260.357 93.857 C260.520 94.141 260.721 94.411 260.954 94.682 C261.186 94.953 261.465 95.231 261.753 95.482 C262.041 95.734 262.362 95.982 262.682 96.192 C263.001 96.402 263.342 96.597 263.669 96.744 C263.996 96.891 264.313 97.004 264.643 97.071 C264.973 97.139 265.301 97.158 265.651 97.150 C266.001 97.143 266.376 97.095 266.741 97.025 C267.106 96.955 267.485 96.852 267.842 96.732 C268.198 96.612 268.557 96.465 268.881 96.307 C269.205 96.149 269.504 95.995 269.786 95.786 C270.067 95.577 270.321 95.336 270.571 95.052 C270.821 94.768 271.062 94.415 271.284 94.082 C271.506 93.748 271.717 93.375 271.905 93.050 C272.093 92.725 272.265 92.389 272.412 92.131 C272.559 91.873 272.723 91.605 272.786 91.500" />
<path d="M309.857 66.643 L297.429 88.071 L314.143 88.071" />
<path d="M309.857 75.214 L309.857 96.643" />
<path d="M320.571 96.643 L335.571 96.643" />
<path d="M321.000 73.071 C321.059 72.941 321.217 72.612 321.353 72.290 C321.490 71.967 321.643 71.542 321.819 71.138 C321.995 70.733 322.190 70.267 322.409 69.862 C322.628 69.458 322.867 69.033 323.133 68.710 C323.398 68.388 323.671 68.126 324.000 67.929 C324.329 67.731 324.699 67.623 325.107 67.524 C325.515 67.425 325.986 67.362 326.448 67.332 C326.910 67.302 327.410 67.307 327.878 67.342 C328.345 67.378 328.827 67.447 329.253 67.545 C329.678 67.642 330.062 67.760 330.429 67.929 C330.795 68.097 331.121 68.305 331.454 68.556 C331.786 68.807 332.122 69.115 332.424 69.434 C332.726 69.753 333.019 70.113 333.267 70.469 C333.515 70.825 333.742 71.207 333.912 71.570 C334.082 71.932 334.209 72.289 334.286 72.643 C334.363 72.997 334.385 73.338 334.375 73.695 C334.365 74.053 334.313 74.419 334.227 74.789 C334.142 75.159 334.018 75.535 333.864 75.914 C333.710 76.292 333.521 76.675 333.305 77.059 C333.090 77.442 332.860 77.826 332.571 78.214 C332.283 78.602 331.953 78.992 331.574 79.387 C331.195 79.782 330.747 80.182 330.298 80.583 C329.849 80.985 329.354 81.390 328.879 81.794 C328.404 82.198 327.905 82.604 327.449 83.007 C326.993 83.411 326.570 83.814 326.143 84.214 C325.715 84.614 325.311 85.011 324.885 85.407 C324.458 85.804 324.006 86.198 323.585 86.594 C323.164 86.990 322.736 87.385 322.358 87.783 C321.979 88.182 321.613 88.582 321.315 88.987 C321.018 89.392 320.755 89.783 320.571 90.214 C320.388 90.646 320.282 91.101 320.215 91.575 C320.148 92.050 320.155 92.574 320.170 93.063 C320.185 93.553 320.252 94.064 320.304 94.514 C320.356 94.963 320.438 95.407 320.482 95.762 C320.527 96.117 320.557 96.496 320.571 96.643" />
</svg>
