<svg xmlns="http://www.w3.org/2000/svg" viewBox="0 0 320 220">
<path d="M20.000 20.000 L22.000 20.000 L24.000 20.000 L26.000 20.000 L28.000 20.000 L30.000 20.000 L32.000 20.000 L34.000 20.000 L36.000 20.000 L38.000 20.000 L40.000 20.000 L42.000 20.000 L44.000 20.000 L46.000 20.000 L48.000 20.000 L50.000 20.000 L52.000 20.000 L54.000 20.000 L56.000 20.000 L58.000 20.000 L60.000 20.000 L62.000 20.000 L64.000 20.000 L66.000 20.000 L68.000 20.000 L70.000 20.000 L72.000 20.000 L74.000 20.000 L76.000 20.000 L78.000 20.000 L80.000 20.000 L82.000 20.000 L84.000 20.000 L86.000 20.000 L88.000 20.000 L90.000 20.000 L92.000 20.000 L94.000 20.000 L96.000 20.000 L98.000 20.000 L100.000 20.000 L102.000 20.000 L104.000 20.000 L106.000 20.000 L108.000 20.000 L110.000 20.000 L112.000 20.000 L114.000 20.000 L116.000 20.000 L118.000 20.000 L120.000 20.000 L122.000 20.000 L124.000 20.000 L126.000 20.000 L128.000 20.000 L130.000 20.000 L132.000 20.000 L134.000 20.000 L136.000 20.000 L138.000 20.000 L140.000 20.000 L142.000 20.000 L144.000 20.000 L146.000 20.000 L148.000 20.000 L150.000 20.000 L152.000 20.000 L154.000 20.000 L156.000 20.000 L158.000 20.000 L160.000 20.000 L162.000 20.000 L164.000 20.000 L166.000 20.000 L168.000 20.000 L170.000 20.000 L172.000 20.000 L174.000 20.000 L176.000 20.000 L178.000 20.000 L180.000 20.000 L182.000 20.000 L184.000 20.000 L186.000 20.000 L188.000 20.000 L190.000 20.000 L192.000 20.000 L194.000 20.000 L196.000 20.000 L198.000 20.000 L200.000 20.000 L202.000 20.000 L204.000 20.000 L206.000 20.000 L208.000 20.000 L210.000 20.000 L212.000 20.000 L214.000 20.000 L216.000 20.000 L218.000 20.000 L220.000 20.000 L222.000 20.000 L224.000 20.000 L226.000 20.000 L228.000 20.000 L230.000 20.000 L232.000 20.000 L234.000 20.000 L236.000 20.000 L238.000 20.000 L240.000 20.000 L242.000 20.000 L244.000 20.000 L246.000 20.000 L248.000 20.000 L250.000 20.000 L252.000 20.000 L254.000 20.000 L256.000 20.000 L258.000 20.000 L260.000 20.000 L262.000 20.000 L264.000 20.000 L266.000 20.000 L268.000 20.000 L270.000 20.000 L272.000 20.000 L274.000 20.000 L276.000 20.000 L278.000 20.000 L280.000 20.000 L282.000 20.000 L284.000 20.000 L286.000 20.000 L288.000 20.000 L290.000 20.000 L292.000 20.000 L294.000 20.000 L296.000 20.000 L298.000 20.000 L300.000 20.000" />
<path d="M20.000 42.500 L22.000 42.500 L24.000 42.500 L26.000 42.500 L28.000 42.500 L30.000 42.500 L32.000 42.500 L34.000 42.500 L36.000 42.500 L38.000 42.500 L40.000 42.500 L42.000 42.500 L44.000 42.500 L46.000 42.500 L48.000 42.500 L50.000 42.500 L52.000 42.500 L54.000 42.500 L56.000 42.500 L58.000 42.500 L60.000 42.500 L62.000 42.500 L64.000 42.500 L66.000 42.500 L68.000 42.500 L70.000 42.500 L72.000 42.500 L74.000 42.500 L76.000 42.500 L78.000 42.500 L80.000 42.500 L82.000 42.500 L84.000 42.500 L86.000 42.500 L88.000 42.500 L90.000 42.500 L92.000 42.500 L94.000 42.500 L96.000 42.500 L98.000 42.500 L100.000 42.500 L102.000 42.500 L104.000 42.500 L106.000 42.500 L108.000 42.500 L110.000 42.500 L112.000 42.500 L114.000 42.500 L116.000 42.500 L118.000 42.500 L120.000 42.500 L122.000 42.500 L124.000 42.500 L126.000 42.500 L128.000 42.500 L130.000 42.500 L132.000 42.500 L134.000 42.500 L136.000 42.500 L138.000 42.500 L140.000 42.500 L142.000 42.500 L144.000 42.500 L146.000 42.500 L148.000 42.500 L150.000 42.500 L152.000 42.500 L154.000 42.500 L156.000 42.500 L158.000 42.500 L160.000 42.500 L162.000 42.500 L164.000 42.500 L166.000 42.500 L168.000 42.500 L170.000 42.500 L172.000 42.500 L174.000 42.500 L176.000 42.500 L178.000 42.500 L180.000 42.500 L182.000 42.500 L184.000 42.500 L186.000 42.500 L188.000 42.500 L190.000 42.500 L192.000 42.500 L194.000 42.500 L196.000 42.500 L198.000 42.500 L200.000 42.500 L202.000 42.500 L204.000 42.500 L206.000 42.500 L208.000 42.500 L210.000 42.500 L212.000 42.500 L214.000 42.500 L216.000 42.500 L218.000 42.500 L220.000 42.500 L222.000 42.500 L224.000 42.500 L226.000 42.500 L228.000 42.500 L230.000 42.500 L232.000 42.500 L234.000 42.500 L236.000 42.500 L238.000 42.500 L240.000 42.500 L242.000 42.500 L244.000 42.500 L246.000 42.500 L248.000 42.500 L250.000 42.500 L252.000 42.500 L254.000 42.500 L256.000 42.500 L258.000 42.500 L260.000 42.500 L262.000 42.500 L264.000 42.500 L266.000 42.500 L268.000 42.500 L270.000 42.500 L272.000 42.500 L274.000 42.500 L276.000 42.500 L278.000 42.500 L280.000 42.500 L282.000 42.500 L284.000 42.500 L286.000 42.500 L288.000 42.500 L290.000 42.500 L292.000 42.500 L294.000 42.500 L296.000 42.500 L298.000 42.500 L300.000 42.500" />
<path d="M20.000 65.000 L22.000 65.000 L24.000 65.000 L26.000 65.000 L28.000 65.000 L30.000 65.000 L32.000 65.000 L34.000 65.000 L36.000 65.000 L38.000 65.000 L40.000 65.000 L42.000 65.000 L44.000 65.000 L46.000 65.000 L48.000 65.000 L50.000 65.000 L52.000 65.000 L54.000 65.000 L56.000 65.000 L58.000 65.000 L60.000 65.000 L62.000 65.000 L64.000 65.000 L66.000 65.000 L68.000 65.000 L70.000 65.000 L72.000 65.000 L74.000 65.000 L76.000 65.000 L78.000 65.000 L80.000 65.000 L82.000 65.000 L84.000 65.000 L86.000 65.000 L88.000 65.000 L90.000 65.000 L92.000 65.000 L94.000 65.000 L96.000 65.000 L98.000 65.000 L100.000 65.000 L102.000 65.000 L104.000 65.000 L106.000 65.000 L108.000 65.000 L110.000 65.000 L112.000 65.000 L114.000 65.000 L116.000 65.000 L118.000 65.000 L120.000 65.000 L122.000 65.000 L124.000 65.000 L126.000 65.000 L128.000 65.000 L130.000 65.000 L132.000 65.000 L134.000 65.000 L136.000 65.000 L138.000 65.000 L140.000 65.000 L142.000 65.000 L144.000 65.000 L146.000 65.000 L148.000 65.000 L150.000 65.000 L152.000 65.000 L154.000 65.000 L156.000 65.000 L158.000 65.000 L160.000 65.000 L162.000 65.000 L164.000 65.000 L166.000 65.000 L168.000 65.000 L170.000 65.000 L172.000 65.000 L174.000 65.000 L176.000 65.000 L178.000 65.000 L180.000 65.000 L182.000 65.000 L184.000 65.000 L186.000 65.000 L188.000 65.000 L190.000 65.000 L192.000 65.000 L194.000 65.000 L196.000 65.000 L198.000 65.000 L200.000 65.000 L202.000 65.000 L204.000 65.000 L206.000 65.000 L208.000 65.000 L210.000 65.000 L212.000 65.000 L214.000 65.000 L216.000 65.000 L218.000 65.000 L220.000 65.000 L222.000 65.000 L224.000 65.000 L226.000 65.000 L228.000 65.000 L230.000 65.000 L232.000 65.000 L234.000 65.000 L236.000 65.000 L238.000 65.000 L240.000 65.000 L242.000 65.000 L244.000 65.000 L246.000 65.000 L248.000 65.000 L250.000 65.000 L252.000 65.000 L254.000 65.000 L256.000 65.000 L258.000 65.000 L260.000 65.000 L262.000 65.000 L264.000 65.000 L266.000 65.000 L268.000 65.000 L270.000 65.000 L272.000 65.000 L274.000 65.000 L276.000 65.000 L278.000 65.000 L280.000 65.000 L282.000 65.000 L284.000 65.000 L286.000 65.000 L288.000 65.000 L290.000 65.000 L292.000 65.000 L294.000 65.000 L296.000 65.000 L298.000 65.000 L300.000 65.000" />
<path d="M20.000 87.500 L22.000 87.500 L24.000 87.500 L26.000 87.500 L28.000 87.500 L30.000 87.500 L32.000 87.500 L34.000 87.500 L36.000 87.500 L38.000 87.500 L40.000 87.500 L42.000 87.500 L44.000 87.500 L46.000 87.500 L48.000 87.500 L50.000 87.500 L52.000 87.500 L54.000 87.500 L56.000 87.500 L58.000 87.500 L60.000 87.500 L62.000 87.500 L64.000 87.500 L66.000 87.500 L68.000 87.500 L70.000 87.500 L72.000 87.500 L74.000 87.500 L76.000 87.500 L78.000 87.500 L80.000 87.500 L82.000 87.500 L84.000 87.500 L86.000 87.500 L88.000 87.500 L90.000 87.500 L92.000 87.500 L94.000 87.500 L96.000 87.500 L98.000 87.500 L100.000 87.500 L102.000 87.500 L104.000 87.500 L106.000 87.500 L108.000 87.500 L110.000 87.500 L112.000 87.500 L114.000 87.500 L116.000 87.500 L118.000 87.500 L120.000 87.500 L122.000 87.500 L124.000 87.500 L126.000 87.500 L128.000 87.500 L130.000 87.500 L132.000 87.500 L134.000 87.500 L136.000 87.500 L138.000 87.500 L140.000 87.500 L142.000 87.500 L144.000 87.500 L146.000 87.500 L148.000 87.500 L150.000 87.500 L152.000 87.500 L154.000 87.500 L156.000 87.500 L158.000 87.500 L160.000 87.500 L162.000 87.500 L164.000 87.500 L166.000 87.500 L168.000 87.500 L170.000 87.500 L172.000 87.500 L174.000 87.500 L176.000 87.500 L178.000 87.500 L180.000 87.500 L182.000 87.500 L184.000 87.500 L186.000 87.500 L188.000 87.500 L190.000 87.500 L192.000 87.500 L194.000 87.500 L196.000 87.500 L198.000 87.500 L200.000 87.500 L202.000 87.500 L204.000 87.500 L206.000 87.500 L208.000 87.500 L210.000 87.500 L212.000 87.500 L214.000 87.500 L216.000 87.500 L218.000 87.500 L220.000 87.500 L222.000 87.500 L224.000 87.500 L226.000 87.500 L228.000 87.500 L230.000 87.500 L232.000 87.500 L234.000 87.500 L236.000 87.500 L238.000 87.500 L240.000 87.500 L242.000 87.500 L244.000 87.500 L246.000 87.500 L248.000 87.500 L250.000 87.500 L252.000 87.500 L254.000 87.500 L256.000 87.500 L258.000 87.500 L260.000 87.500 L262.000 87.500 L264.000 87.500 L266.000 87.500 L268.000 87.500 L270.000 87.500 L272.000 87.500 L274.000 87.500 L276.000 87.500 L278.000 87.500 L280.000 87.500 L282.000 87.500 L284.000 87.500 L286.000 87.500 L288.000 87.500 L290.000 87.500 L292.000 87.500 L294.000 87.500 L296.000 87.500 L298.000 87.500 L300.000 87.500" />
<path d="M20.000 110.000 L22.000 110.000 L24.000 110.000 L26.000 110.000 L28.000 110.000 L30.000 110.000 L32.000 110.000 L34.000 110.000 L36.000 110.000 L38.000 110.000 L40.000 110.000 L42.000 110.000 L44.000 110.000 L46.000 110.000 L48.000 110.000 L50.000 110.000 L52.000 110.000 L54.000 110.000 L56.000 110.000 L58.000 110.000 L60.000 110.000 L62.000 110.000 L64.000 110.000 L66.000 110.000 L68.000 110.000 L70.000 110.000 L72.000 110.000 L74.000 110.000 L76.000 110.000 L78.000 110.000 L80.000 110.000 L82.000 110.000 L84.000 110.000 L86.000 110.000 L88.000 110.000 L90.000 110.000 L92.000 110.000 L94.000 110.000 L96.000 110.000 L98.000 110.000 L100.000 110.000 L102.000 110.000 L104.000 110.000 L106.000 110.000 L108.000 110.000 L110.000 110.000 L112.000 110.000 L114.000 110.000 L116.000 110.000 L118.000 110.000 L120.000 110.000 L122.000 110.000 L124.000 110.000 L126.000 110.000 L128.000 110.000 L130.000 110.000 L132.000 110.000 L134.000 110.000 L136.000 110.000 L138.000 110.000 L140.000 110.000 L142.000 110.000 L144.000 110.000 L146.000 110.000 L148.000 110.000 L150.000 110.000 L152.000 110.000 L154.000 110.000 L156.000 110.000 L158.000 110.000 L160.000 110.000 L162.000 110.000 L164.000 110.000 L166.000 110.000 L168.000 110.000 L170.000 110.000 L172.000 110.000 L174.000 110.000 L176.000 110.000 L178.000 110.000 L180.000 110.000 L182.000 110.000 L184.000 110.000 L186.000 110.000 L188.000 110.000 L190.000 110.000 L192.000 110.000 L194.000 110.000 L196.000 110.000 L198.000 110.000 L200.000 110.000 L202.000 110.000 L204.000 110.000 L206.000 110.000 L208.000 110.000 L210.000 110.000 L212.000 110.000 L214.000 110.000 L216.000 110.000 L218.000 110.000 L220.000 110.000 L222.000 110.000 L224.000 110.000 L226.000 110.000 L228.000 110.000 L230.000 110.000 L232.000 110.000 L234.000 110.000 L236.000 110.000 L238.000 110.000 L240.000 110.000 L242.000 110.000 L244.000 110.000 L246.000 110.000 L248.000 110.000 L250.000 110.000 L252.000 110.000 L254.000 110.000 L256.000 110.000 L258.000 110.000 L260.000 110.000 L262.000 110.000 L264.000 110.000 L266.000 110.000 L268.000 110.000 L270.000 110.000 L272.000 110.000 L274.000 110.000 L276.000 110.000 L278.000 110.000 L280.000 110.000 L282.000 110.000 L284.000 110.000 L286.000 110.000 L288.000 110.000 L290.000 110.000 L292.000 110.000 L294.000 110.000 L296.000 110.000 L298.000 110.000 L300.000 110.000" />
<path d="M20.000 132.500 L22.000 132.500 L24.000 132.500 L26.000 132.500 L28.000 132.500 L30.000 132.500 L32.000 132.500 L34.000 132.500 L36.000 132.500 L38.000 132.500 L40.000 132.500 L42.000 132.500 L44.000 132.500 L46.000 132.500 L48.000 132.500 L50.000 132.500 L52.000 132.500 L54.000 132.500 L56.000 132.500 L58.000 132.500 L60.000 132.500 L62.000 132.500 L64.000 132.500 L66.000 132.500 L68.000 132.500 L70.000 132.500 L72.000 132.500 L74.000 132.500 L76.000 132.500 L78.000 132.500 L80.000 132.500 L82.000 132.500 L84.000 132.500 L86.000 132.500 L88.000 132.500 L90.000 132.500 L92.000 132.500 L94.000 132.500 L96.000 132.500 L98.000 132.500 L100.000 132.500 L102.000 132.500 L104.000 132.500 L106.000 132.500 L108.000 132.500 L110.000 132.500 L112.000 132.500 L114.000 132.500 L116.000 132.500 L118.000 132.500 L120.000 132.500 L122.000 132.500 L124.000 132.500 L126.000 132.500 L128.000 132.500 L130.000 132.500 L132.000 132.500 L134.000 132.500 L136.000 132.500 L138.000 132.500 L140.000 132.500 L142.000 132.500 L144.000 132.500 L146.000 132.500 L148.000 132.500 L150.000 132.500 L152.000 132.500 L154.000 132.500 L156.000 132.500 L158.000 132.500 L160.000 132.500 L162.000 132.500 L164.000 132.500 L166.000 132.500 L168.000 132.500 L170.000 132.500 L172.000 132.500 L174.000 132.500 L176.000 132.500 L178.000 132.500 L180.000 132.500 L182.000 132.500 L184.000 132.500 L186.000 132.500 L188.000 132.500 L190.000 132.500 L192.000 132.500 L194.000 132.500 L196.000 132.500 L198.000 132.500 L200.000 132.500 L202.000 132.500 L204.000 132.500 L206.000 132.500 L208.000 132.500 L210.000 132.500 L212.000 132.500 L214.000 132.500 L216.000 132.500 L218.000 132.500 L220.000 132.500 L222.000 132.500 L224.000 132.500 L226.000 132.500 L228.000 132.500 L230.000 132.500 L232.000 132.500 L234.000 132.500 L236.000 132.500 L238.000 132.500 L240.000 132.500 L242.000 132.500 L244.000 132.500 L246.000 132.500 L248.000 132.500 L250.000 132.500 L252.000 132.500 L254.000 132.500 L256.000 132.500 L258.000 132.500 L260.000 132.500 L262.000 132.500 L264.000 132.500 L266.000 132.500 L268.000 132.500 L270.000 132.500 L272.000 132.500 L274.000 132.500 L276.000 132.500 L278.000 132.500 L280.000 132.500 L282.000 132.500 L284.000 132.500 L286.000 132.500 L288.000 132.500 L290.000 132.500 L292.000 132.500 L294.000 132.500 L296.000 132.500 L298.000 132.500 L300.000 132.500" />
<path d="M20.000 155.000 L22.000 155.000 L24.000 155.000 L26.000 155.000 L28.000 155.000 L30.000 155.000 L32.000 155.000 L34.000 155.000 L36.000 155.000 L38.000 155.000 L40.000 155.000 L42.000 155.000 L44.000 155.000 L46.000 155.000 L48.000 155.000 L50.000 155.000 L52.000 155.000 L54.000 155.000 L56.000 155.000 L58.000 155.000 L60.000 155.000 L62.000 155.000 L64.000 155.000 L66.000 155.000 L68.000 155.000 L70.000 155.000 L72.000 155.000 L74.000 155.000 L76.000 155.000 L78.000 155.000 L80.000 155.000 L82.000 155.000 L84.000 155.000 L86.000 155.000 L88.000 155.000 L90.000 155.000 L92.000 155.000 L94.000 155.000 L96.000 155.000 L98.000 155.000 L100.000 155.000 L102.000 155.000 L104.000 155.000 L106.000 155.000 L108.000 155.000 L110.000 155.000 L112.000 155.000 L114.000 155.000 L116.000 155.000 L118.000 155.000 L120.000 155.000 L122.000 155.000 L124.000 155.000 L126.000 155.000 L128.000 155.000 L130.000 155.000 L132.000 155.000 L134.000 155.000 L136.000 155.000 L138.000 155.000 L140.000 155.000 L142.000 155.000 L144.000 155.000 L146.000 155.000 L148.000 155.000 L150.000 155.000 L152.000 155.000 L154.000 155.000 L156.000 155.000 L158.000 155.000 L160.000 155.000 L162.000 155.000 L164.000 155.000 L166.000 155.000 L168.000 155.000 L170.000 155.000 L172.000 155.000 L174.000 155.000 L176.000 155.000 L178.000 155.000 L180.000 155.000 L182.000 155.000 L184.000 155.000 L186.000 155.000 L188.000 155.000 L190.000 155.000 L192.000 155.000 L194.000 155.000 L196.000 155.000 L198.000 155.000 L200.000 155.000 L202.000 155.000 L204.000 155.000 L206.000 155.000 L208.000 155.000 L210.000 155.000 L212.000 155.000 L214.000 155.000 L216.000 155.000 L218.000 155.000 L220.000 155.000 L222.000 155.000 L224.000 155.000 L226.000 155.000 L228.000 155.000 L230.000 155.000 L232.000 155.000 L234.000 155.000 L236.000 155.000 L238.000 155.000 L240.000 155.000 L242.000 155.000 L244.000 155.000 L246.000 155.000 L248.000 155.000 L250.000 155.000 L252.000 155.000 L254.000 155.000 L256.000 155.000 L258.000 155.000 L260.000 155.000 L262.000 155.000 L264.000 155.000 L266.000 155.000 L268.000 155.000 L270.000 155.000 L272.000 155.000 L274.000 155.000 L276.000 155.000 L278.000 155.000 L280.000 155.000 L282.000 155.000 L284.000 155.000 L286.000 155.000 L288.000 155.000 L290.000 155.000 L292.000 155.000 L294.000 155.000 L296.000 155.000 L298.000 155.000 L300.000 155.000" />
<path d="M20.000 177.500 L22.000 177.500 L24.000 177.500 L26.000 177.500 L28.000 177.500 L30.000 177.500 L32.000 177.500 L34.000 177.500 L36.000 177.500 L38.000 177.500 L40.000 177.500 L42.000 177.500 L44.000 177.500 L46.000 177.500 L48.000 177.500 L50.000 177.500 L52.000 177.500 L54.000 177.500 L56.000 177.500 L58.000 177.500 L60.000 177.500 L62.000 177.500 L64.000 177.500 L66.000 177.500 L68.000 177.500 L70.000 177.500 L72.000 177.500 L74.000 177.500 L76.000 177.500 L78.000 177.500 L80.000 177.500 L82.000 177.500 L84.000 177.500 L86.000 177.500 L88.000 177.500 L90.000 177.500 L92.000 177.500 L94.000 177.500 L96.000 177.500 L98.000 177.500 L100.000 177.500 L102.000 177.500 L104.000 177.500 L106.000 177.500 L108.000 177.500 L110.000 177.500 L112.000 177.500 L114.000 177.500 L116.000 177.500 L118.000 177.500 L120.000 177.500 L122.000 177.500 L124.000 177.500 L126.000 177.500 L128.000 177.500 L130.000 177.500 L132.000 177.500 L134.000 177.500 L136.000 177.500 L138.000 177.500 L140.000 177.500 L142.000 177.500 L144.000 177.500 L146.000 177.500 L148.000 177.500 L150.000 177.500 L152.000 177.500 L154.000 177.500 L156.000 177.500 L158.000 177.500 L160.000 177.500 L162.000 177.500 L164.000 177.500 L166.000 177.500 L168.000 177.500 L170.000 177.500 L172.000 177.500 L174.000 177.500 L176.000 177.500 L178.000 177.500 L180.000 177.500 L182.000 177.500 L184.000 177.500 L186.000 177.500 L188.000 177.500 L190.000 177.500 L192.000 177.500 L194.000 177.500 L196.000 177.500 L198.000 177.500 L200.000 177.500 L202.000 177.500 L204.000 177.500 L206.000 177.500 L208.000 177.500 L210.000 177.500 L212.000 177.500 L214.000 177.500 L216.000 177.500 L218.000 177.500 L220.000 177.500 L222.000 177.500 L224.000 177.500 L226.000 177.500 L228.000 177.500 L230.000 177.500 L232.000 177.500 L234.000 177.500 L236.000 177.500 L238.000 177.500 L240.000 177.500 L242.000 177.500 L244.000 177.500 L246.000 177.500 L248.000 177.500 L250.000 177.500 L252.000 177.500 L254.000 177.500 L256.000 177.500 L258.000 177.500 L260.000 177.500 L262.000 177.500 L264.000 177.500 L266.000 177.500 L268.000 177.500 L270.000 177.500 L272.000 177.500 L274.000 177.500 L276.000 177.500 L278.000 177.500 L280.000 177.500 L282.000 177.500 L284.000 177.500 L286.000 177.500 L288.000 177.500 L290.000 177.500 L292.000 177.500 L294.000 177.500 L296.000 177.500 L298.000 177.500 L300.000 177.500" />
<path d="M20.000 200.000 L22.000 200.000 L24.000 200.000 L26.000 200.000 L28.000 200.000 L30.000 200.000 L32.000 200.000 L34.000 200.000 L36.000 200.000 L38.000 200.000 L40.000 200.000 L42.000 200.000 L44.000 200.000 L46.000 200.000 L48.000 200.000 L50.000 200.000 L52.000 200.000 L54.000 200.000 L56.000 200.000 L58.000 200.000 L60.000 200.000 L62.000 200.000 L64.000 200.000 L66.000 200.000 L68.000 200.000 L70.000 200.000 L72.000 200.000 L74.000 200.000 L76.000 200.000 L78.000 200.000 L80.000 200.000 L82.000 200.000 L84.000 200.000 L86.000 200.000 L88.000 200.000 L90.000 200.000 L92.000 200.000 L94.000 200.000 L96.000 200.000 L98.000 200.000 L100.000 200.000 L102.000 200.000 L104.000 200.000 L106.000 200.000 L108.000 200.000 L110.000 200.000 L112.000 200.000 L114.000 200.000 L116.000 200.000 L118.000 200.000 L120.000 200.000 L122.000 200.000 L124.000 200.000 L126.000 200.000 L128.000 200.000 L130.000 200.000 L132.000 200.000 L134.000 200.000 L136.000 200.000 L138.000 200.000 L140.000 200.000 L142.000 200.000 L144.000 200.000 L146.000 200.000 L148.000 200.000 L150.000 200.000 L152.000 200.000 L154.000 200.000 L156.000 200.000 L158.000 200.000 L160.000 200.000 L162.000 200.000 L164.000 200.000 L166.000 200.000 L168.000 200.000 L170.000 200.000 L172.000 200.000 L174.000 200.000 L176.000 200.000 L178.000 200.000 L180.000 200.000 L182.000 200.000 L184.000 200.000 L186.000 200.000 L188.000 200.000 L190.000 200.000 L192.000 200.000 L194.000 200.000 L196.000 200.000 L198.000 200.000 L200.000 200.000 L202.000 200.000 L204.000 200.000 L206.000 200.000 L208.000 200.000 L210.000 200.000 L212.000 200.000 L214.000 200.000 L216.000 200.000 L218.000 200.000 L220.000 200.000 L222.000 200.000 L224.000 200.000 L226.000 200.000 L228.000 200.000 L230.000 200.000 L232.000 200.000 L234.000 200.000 L236.000 200.000 L238.000 200.000 L240.000 200.000 L242.000 200.000 L244.000 200.000 L246.000 200.000 L248.000 200.000 L250.000 200.000 L252.000 200.000 L254.000 200.000 L256.000 200.000 L258.000 200.000 L260.000 200.000 L262.000 200.000 L264.000 200.000 L266.000 200.000 L268.000 200.000 L270.000 200.000 L272.000 200.000 L274.000 200.000 L276.000 200.000 L278.000 200.000 L280.000 200.000 L282.000 200.000 L284.000 200.000 L286.000 200.000 L288.000 200.000 L290.000 200.000 L292.000 200.000 L294.000 200.000 L296.000 200.000 L298.000 200.000 L300.000 200.000" />
<path d="M287.769 20.000 L289.128 21.610 L290.487 23.220 L291.846 24.830 L293.205 26.441 L294.564 28.051 L295.923 29.661 L297.282 31.271 L298.641 32.881 L300.000 34.491" />
<path d="M261.788 20.000 L263.106 21.561 L264.424 23.122 L265.741 24.683 L267.059 26.245 L268.377 27.806 L269.694 29.367 L271.012 30.928 L272.330 32.489 L273.647 34.050 L274.965 35.612 L276.282 37.173 L277.600 38.734 L278.918 40.295 L280.235 41.856 L281.553 43.417 L282.871 44.978 L284.188 46.540 L285.506 48.101 L286.824 49.662 L288.141 51.223 L289.459 52.784 L290.777 54.345 L292.094 55.907 L293.412 57.468 L294.729 59.029 L296.047 60.590 L297.365 62.151 L298.682 63.712 L300.000 65.274" />
<path d="M235.808 20.000 L237.118 21.552 L238.428 23.104 L239.738 24.656 L241.048 26.209 L242.358 27.761 L243.668 29.313 L244.978 30.865 L246.288 32.417 L247.598 33.969 L248.908 35.522 L250.218 37.074 L251.528 38.626 L252.838 40.178 L254.148 41.730 L255.458 43.282 L256.768 44.835 L258.078 46.387 L259.388 47.939 L260.699 49.491 L262.009 51.043 L263.319 52.595 L264.629 54.147 L265.939 55.700 L267.249 57.252 L268.559 58.804 L269.869 60.356 L271.179 61.908 L272.489 63.460 L273.799 65.013 L275.109 66.565 L276.419 68.117 L277.729 69.669 L279.039 71.221 L280.349 72.773 L281.659 74.326 L282.969 75.878 L284.279 77.430 L285.589 78.982 L286.900 80.534 L288.210 82.086 L289.520 83.639 L290.830 85.191 L292.140 86.743 L293.450 88.295 L294.760 89.847 L296.070 91.399 L297.380 92.951 L298.690 94.504 L300.000 96.056" />
<path d="M209.827 20.000 L211.134 21.548 L212.441 23.097 L213.747 24.645 L215.054 26.194 L216.361 27.742 L217.668 29.290 L218.975 30.839 L220.282 32.387 L221.589 33.935 L222.895 35.484 L224.202 37.032 L225.509 38.581 L226.816 40.129 L228.123 41.677 L229.430 43.226 L230.737 44.774 L232.043 46.322 L233.350 47.871 L234.657 49.419 L235.964 50.968 L237.271 52.516 L238.578 54.064 L239.885 55.613 L241.191 57.161 L242.498 58.709 L243.805 60.258 L245.112 61.806 L246.419 63.355 L247.726 64.903 L249.033 66.451 L250.339 68.000 L251.646 69.548 L252.953 71.096 L254.260 72.645 L255.567 74.193 L256.874 75.742 L258.181 77.290 L259.487 78.838 L260.794 80.387 L262.101 81.935 L263.408 83.483 L264.715 85.032 L266.022 86.580 L267.329 88.129 L268.635 89.677 L269.942 91.225 L271.249 92.774 L272.556 94.322 L273.863 95.871 L275.170 97.419 L276.477 98.967 L277.783 100.516 L279.090 102.064 L280.397 103.612 L281.704 105.161 L283.011 106.709 L284.318 108.258 L285.625 109.806 L286.931 111.354 L288.238 112.903 L289.545 114.451 L290.852 115.999 L292.159 117.548 L293.466 119.096 L294.773 120.645 L296.079 122.193 L297.386 123.741 L298.693 125.290 L300.000 126.838" />
<path d="M183.846 20.000 L185.137 21.529 L186.427 23.058 L187.718 24.587 L189.008 26.116 L190.299 27.646 L191.590 29.175 L192.880 30.704 L194.171 32.233 L195.461 33.762 L196.752 35.291 L198.043 36.820 L199.333 38.349 L200.624 39.878 L201.914 41.408 L203.205 42.937 L204.496 44.466 L205.786 45.995 L207.077 47.524 L208.367 49.053 L209.658 50.582 L210.949 52.111 L212.239 53.641 L213.530 55.170 L214.820 56.699 L216.111 58.228 L217.402 59.757 L218.692 61.286 L219.983 62.815 L221.273 64.344 L222.564 65.873 L223.855 67.403 L225.145 68.932 L226.436 70.461 L227.726 71.990 L229.017 73.519 L230.308 75.048 L231.598 76.577 L232.889 78.106 L234.179 79.635 L235.470 81.165 L236.761 82.694 L238.051 84.223 L239.342 85.752 L240.632 87.281 L241.923 88.810 L243.214 90.339 L244.504 91.868 L245.795 93.398 L247.085 94.927 L248.376 96.456 L249.667 97.985 L250.957 99.514 L252.248 101.043 L253.538 102.572 L254.829 104.101 L256.120 105.630 L257.410 107.160 L258.701 108.689 L259.991 110.218 L261.282 111.747 L262.573 113.276 L263.863 114.805 L265.154 116.334 L266.444 117.863 L267.735 119.392 L269.026 120.922 L270.316 122.451 L271.607 123.980 L272.897 125.509 L274.188 127.038 L275.479 128.567 L276.769 130.096 L278.060 131.625 L279.350 133.155 L280.641 134.684 L281.932 136.213 L283.222 137.742 L284.513 139.271 L285.803 140.800 L287.094 142.329 L288.385 143.858 L289.675 145.387 L290.966 146.917 L292.256 148.446 L293.547 149.975 L294.838 151.504 L296.128 153.033 L297.419 154.562 L298.709 156.091 L300.000 157.620" />
<path d="M157.865 20.000 L159.157 21.531 L160.450 23.062 L161.742 24.593 L163.034 26.124 L164.326 27.655 L165.618 29.186 L166.910 30.717 L168.202 32.247 L169.495 33.778 L170.787 35.309 L172.079 36.840 L173.371 38.371 L174.663 39.902 L175.955 41.433 L177.247 42.964 L178.539 44.495 L179.832 46.026 L181.124 47.557 L182.416 49.088 L183.708 50.619 L185.000 52.150 L186.292 53.681 L187.584 55.211 L188.877 56.742 L190.169 58.273 L191.461 59.804 L192.753 61.335 L194.045 62.866 L195.337 64.397 L196.629 65.928 L197.921 67.459 L199.214 68.990 L200.506 70.521 L201.798 72.052 L203.090 73.583 L204.382 75.114 L205.674 76.645 L206.966 78.175 L208.259 79.706 L209.551 81.237 L210.843 82.768 L212.135 84.299 L213.427 85.830 L214.719 87.361 L216.011 88.892 L217.303 90.423 L218.596 91.954 L219.888 93.485 L221.180 95.016 L222.472 96.547 L223.764 98.078 L225.056 99.609 L226.348 101.139 L227.641 102.670 L228.933 104.201 L230.225 105.732 L231.517 107.263 L232.809 108.794 L234.101 110.325 L235.393 111.856 L236.685 113.387 L237.978 114.918 L239.270 116.449 L240.562 117.980 L241.854 119.511 L243.146 121.042 L244.438 122.573 L245.730 124.103 L247.023 125.634 L248.315 127.165 L249.607 128.696 L250.899 130.227 L252.191 131.758 L253.483 133.289 L254.775 134.820 L256.067 136.351 L257.360 137.882 L258.652 139.413 L259.944 140.944 L261.236 142.475 L262.528 144.006 L263.820 145.537 L265.112 147.067 L266.405 148.598 L267.697 150.129 L268.989 151.660 L270.281 153.191 L271.573 154.722 L272.865 156.253 L274.157 157.784 L275.449 159.315 L276.742 160.846 L278.034 162.377 L279.326 163.908 L280.618 165.439 L281.910 166.970 L283.202 168.500 L284.494 170.031 L285.787 171.562 L287.079 173.093 L288.371 174.624 L289.663 176.155 L290.955 177.686 L292.247 179.217 L293.539 180.748 L294.831 182.279 L296.124 183.810 L297.416 185.341 L298.708 186.872 L300.000 188.403" />
<path d="M131.885 20.000 L133.183 21.538 L134.482 23.077 L135.780 24.615 L137.079 26.154 L138.377 27.692 L139.675 29.231 L140.974 30.769 L142.272 32.308 L143.571 33.846 L144.869 35.385 L146.168 36.923 L147.466 38.462 L148.765 40.000 L150.063 41.538 L151.362 43.077 L152.660 44.615 L153.959 46.154 L155.257 47.692 L156.556 49.231 L157.854 50.769 L159.153 52.308 L160.451 53.846 L161.750 55.385 L163.048 56.923 L164.347 58.462 L165.645 60.000 L166.944 61.538 L168.242 63.077 L169.541 64.615 L170.839 66.154 L172.138 67.692 L173.436 69.231 L174.735 70.769 L176.033 72.308 L177.332 73.846 L178.630 75.385 L179.929 76.923 L181.227 78.462 L182.526 80.000 L183.824 81.538 L185.123 83.077 L186.421 84.615 L187.720 86.154 L189.018 87.692 L190.317 89.231 L191.615 90.769 L192.913 92.308 L194.212 93.846 L195.510 95.385 L196.809 96.923 L198.107 98.462 L199.406 100.000 L200.704 101.538 L202.003 103.077 L203.301 104.615 L204.600 106.154 L205.898 107.692 L207.197 109.231 L208.495 110.769 L209.794 112.308 L211.092 113.846 L212.391 115.385 L213.689 116.923 L214.988 118.462 L216.286 120.000 L217.585 121.538 L218.883 123.077 L220.182 124.615 L221.480 126.154 L222.779 127.692 L224.077 129.231 L225.376 130.769 L226.674 132.308 L227.973 133.846 L229.271 135.385 L230.570 136.923 L231.868 138.462 L233.167 140.000 L234.465 141.538 L235.764 143.077 L237.062 144.615 L238.361 146.154 L239.659 147.692 L240.958 149.231 L242.256 150.769 L243.555 152.308 L244.853 153.846 L246.151 155.385 L247.450 156.923 L248.748 158.462 L250.047 160.000 L251.345 161.538 L252.644 163.077 L253.942 164.615 L255.241 166.154 L256.539 167.692 L257.838 169.231 L259.136 170.769 L260.435 172.308 L261.733 173.846 L263.032 175.385 L264.330 176.923 L265.629 178.462 L266.927 180.000 L268.226 181.538 L269.524 183.077 L270.823 184.615 L272.121 186.154 L273.420 187.692 L274.718 189.231 L276.017 190.769 L277.315 192.308 L278.614 193.846 L279.912 195.385 L281.211 196.923 L282.509 198.462 L283.808 200.000" />
<path d="M105.904 20.000 L107.202 21.538 L108.501 23.077 L109.799 24.615 L111.098 26.154 L112.396 27.692 L113.695 29.231 L114.993 30.769 L116.292 32.308 L117.590 33.846 L118.889 35.385 L120.187 36.923 L121.486 38.462 L122.784 40.000 L124.083 41.538 L125.381 43.077 L126.680 44.615 L127.978 46.154 L129.277 47.692 L130.575 49.231 L131.874 50.769 L133.172 52.308 L134.471 53.846 L135.769 55.385 L137.068 56.923 L138.366 58.462 L139.664 60.000 L140.963 61.538 L142.261 63.077 L143.560 64.615 L144.858 66.154 L146.157 67.692 L147.455 69.231 L148.754 70.769 L150.052 72.308 L151.351 73.846 L152.649 75.385 L153.948 76.923 L155.246 78.462 L156.545 80.000 L157.843 81.538 L159.142 83.077 L160.440 84.615 L161.739 86.154 L163.037 87.692 L164.336 89.231 L165.634 90.769 L166.933 92.308 L168.231 93.846 L169.530 95.385 L170.828 96.923 L172.127 98.462 L173.425 100.000 L174.724 101.538 L176.022 103.077 L177.321 104.615 L178.619 106.154 L179.918 107.692 L181.216 109.231 L182.515 110.769 L183.813 112.308 L185.112 113.846 L186.410 115.385 L187.709 116.923 L189.007 118.462 L190.306 120.000 L191.604 121.538 L192.902 123.077 L194.201 124.615 L195.499 126.154 L196.798 127.692 L198.096 129.231 L199.395 130.769 L200.693 132.308 L201.992 133.846 L203.290 135.385 L204.589 136.923 L205.887 138.462 L207.186 140.000 L208.484 141.538 L209.783 143.077 L211.081 144.615 L212.380 146.154 L213.678 147.692 L214.977 149.231 L216.275 150.769 L217.574 152.308 L218.872 153.846 L220.171 155.385 L221.469 156.923 L222.768 158.462 L224.066 160.000 L225.365 161.538 L226.663 163.077 L227.962 164.615 L229.260 166.154 L230.559 167.692 L231.857 169.231 L233.156 170.769 L234.454 172.308 L235.753 173.846 L237.051 175.385 L238.350 176.923 L239.648 178.462 L240.947 180.000 L242.245 181.538 L243.543 183.077 L244.842 184.615 L246.140 186.154 L247.439 187.692 L248.737 189.231 L250.036 190.769 L251.334 192.308 L252.633 193.846 L253.931 195.385 L255.230 196.923 L256.528 198.462 L257.827 200.000" />
<path d="M79.923 20.000 L81.222 21.538 L82.520 23.077 L83.819 24.615 L85.117 26.154 L86.415 27.692 L87.714 29.231 L89.012 30.769 L90.311 32.308 L91.609 33.846 L92.908 35.385 L94.206 36.923 L95.505 38.462 L96.803 40.000 L98.102 41.538 L99.400 43.077 L100.699 44.615 L101.997 46.154 L103.296 47.692 L104.594 49.231 L105.893 50.769 L107.191 52.308 L108.490 53.846 L109.788 55.385 L111.087 56.923 L112.385 58.462 L113.684 60.000 L114.982 61.538 L116.281 63.077 L117.579 64.615 L118.878 66.154 L120.176 67.692 L121.475 69.231 L122.773 70.769 L124.072 72.308 L125.370 73.846 L126.669 75.385 L127.967 76.923 L129.266 78.462 L130.564 80.000 L131.863 81.538 L133.161 83.077 L134.460 84.615 L135.758 86.154 L137.057 87.692 L138.355 89.231 L139.653 90.769 L140.952 92.308 L142.250 93.846 L143.549 95.385 L144.847 96.923 L146.146 98.462 L147.444 100.000 L148.743 101.538 L150.041 103.077 L151.340 104.615 L152.638 106.154 L153.937 107.692 L155.235 109.231 L156.534 110.769 L157.832 112.308 L159.131 113.846 L160.429 115.385 L161.728 116.923 L163.026 118.462 L164.325 120.000 L165.623 121.538 L166.922 123.077 L168.220 124.615 L169.519 126.154 L170.817 127.692 L172.116 129.231 L173.414 130.769 L174.713 132.308 L176.011 133.846 L177.310 135.385 L178.608 136.923 L179.907 138.462 L181.205 140.000 L182.504 141.538 L183.802 143.077 L185.101 144.615 L186.399 146.154 L187.698 147.692 L188.996 149.231 L190.294 150.769 L191.593 152.308 L192.891 153.846 L194.190 155.385 L195.488 156.923 L196.787 158.462 L198.085 160.000 L199.384 161.538 L200.682 163.077 L201.981 164.615 L203.279 166.154 L204.578 167.692 L205.876 169.231 L207.175 170.769 L208.473 172.308 L209.772 173.846 L211.070 175.385 L212.369 176.923 L213.667 178.462 L214.966 180.000 L216.264 181.538 L217.563 183.077 L218.861 184.615 L220.160 186.154 L221.458 187.692 L222.757 189.231 L224.055 190.769 L225.354 192.308 L226.652 193.846 L227.951 195.385 L229.249 196.923 L230.548 198.462 L231.846 200.000" />
<path d="M53.942 20.000 L55.241 21.538 L56.539 23.077 L57.838 24.615 L59.136 26.154 L60.435 27.692 L61.733 29.231 L63.032 30.769 L64.330 32.308 L65.629 33.846 L66.927 35.385 L68.226 36.923 L69.524 38.462 L70.823 40.000 L72.121 41.538 L73.420 43.077 L74.718 44.615 L76.017 46.154 L77.315 47.692 L78.614 49.231 L79.912 50.769 L81.211 52.308 L82.509 53.846 L83.808 55.385 L85.106 56.923 L86.404 58.462 L87.703 60.000 L89.001 61.538 L90.300 63.077 L91.598 64.615 L92.897 66.154 L94.195 67.692 L95.494 69.231 L96.792 70.769 L98.091 72.308 L99.389 73.846 L100.688 75.385 L101.986 76.923 L103.285 78.462 L104.583 80.000 L105.882 81.538 L107.180 83.077 L108.479 84.615 L109.777 86.154 L111.076 87.692 L112.374 89.231 L113.673 90.769 L114.971 92.308 L116.270 93.846 L117.568 95.385 L118.867 96.923 L120.165 98.462 L121.464 100.000 L122.762 101.538 L124.061 103.077 L125.359 104.615 L126.658 106.154 L127.956 107.692 L129.255 109.231 L130.553 110.769 L131.852 112.308 L133.150 113.846 L134.449 115.385 L135.747 116.923 L137.045 118.462 L138.344 120.000 L139.642 121.538 L140.941 123.077 L142.239 124.615 L143.538 126.154 L144.836 127.692 L146.135 129.231 L147.433 130.769 L148.732 132.308 L150.030 133.846 L151.329 135.385 L152.627 136.923 L153.926 138.462 L155.224 140.000 L156.523 141.538 L157.821 143.077 L159.120 144.615 L160.418 146.154 L161.717 147.692 L163.015 149.231 L164.314 150.769 L165.612 152.308 L166.911 153.846 L168.209 155.385 L169.508 156.923 L170.806 158.462 L172.105 160.000 L173.403 161.538 L174.702 163.077 L176.000 164.615 L177.299 166.154 L178.597 167.692 L179.896 169.231 L181.194 170.769 L182.493 172.308 L183.791 173.846 L185.090 175.385 L186.388 176.923 L187.687 178.462 L188.985 180.000 L190.283 181.538 L191.582 183.077 L192.880 184.615 L194.179 186.154 L195.477 187.692 L196.776 189.231 L198.074 190.769 L199.373 192.308 L200.671 193.846 L201.970 195.385 L203.268 196.923 L204.567 198.462 L205.865 200.000" />
<path d="M27.962 20.000 L29.260 21.538 L30.558 23.077 L31.857 24.615 L33.155 26.154 L34.454 27.692 L35.752 29.231 L37.051 30.769 L38.349 32.308 L39.648 33.846 L40.946 35.385 L42.245 36.923 L43.543 38.462 L44.842 40.000 L46.140 41.538 L47.439 43.077 L48.737 44.615 L50.036 46.154 L51.334 47.692 L52.633 49.231 L53.931 50.769 L55.230 52.308 L56.528 53.846 L57.827 55.385 L59.125 56.923 L60.424 58.462 L61.722 60.000 L63.021 61.538 L64.319 63.077 L65.618 64.615 L66.916 66.154 L68.215 67.692 L69.513 69.231 L70.812 70.769 L72.110 72.308 L73.409 73.846 L74.707 75.385 L76.006 76.923 L77.304 78.462 L78.603 80.000 L79.901 81.538 L81.200 83.077 L82.498 84.615 L83.796 86.154 L85.095 87.692 L86.393 89.231 L87.692 90.769 L88.990 92.308 L90.289 93.846 L91.587 95.385 L92.886 96.923 L94.184 98.462 L95.483 100.000 L96.781 101.538 L98.080 103.077 L99.378 104.615 L100.677 106.154 L101.975 107.692 L103.274 109.231 L104.572 110.769 L105.871 112.308 L107.169 113.846 L108.468 115.385 L109.766 116.923 L111.065 118.462 L112.363 120.000 L113.662 121.538 L114.960 123.077 L116.259 124.615 L117.557 126.154 L118.856 127.692 L120.154 129.231 L121.453 130.769 L122.751 132.308 L124.050 133.846 L125.348 135.385 L126.647 136.923 L127.945 138.462 L129.244 140.000 L130.542 141.538 L131.841 143.077 L133.139 144.615 L134.438 146.154 L135.736 147.692 L137.034 149.231 L138.333 150.769 L139.631 152.308 L140.930 153.846 L142.228 155.385 L143.527 156.923 L144.825 158.462 L146.124 160.000 L147.422 161.538 L148.721 163.077 L150.019 164.615 L151.318 166.154 L152.616 167.692 L153.915 169.231 L155.213 170.769 L156.512 172.308 L157.810 173.846 L159.109 175.385 L160.407 176.923 L161.706 178.462 L163.004 180.000 L164.303 181.538 L165.601 183.077 L166.900 184.615 L168.198 186.154 L169.497 187.692 L170.795 189.231 L172.094 190.769 L173.392 192.308 L174.691 193.846 L175.989 195.385 L177.288 196.923 L178.586 198.462 L179.885 200.000" />
<path d="M20.000 41.349 L21.300 42.890 L22.600 44.430 L23.900 45.970 L25.200 47.511 L26.500 49.051 L27.800 50.591 L29.100 52.131 L30.400 53.672 L31.700 55.212 L33.000 56.752 L34.300 58.293 L35.600 59.833 L36.900 61.373 L38.201 62.914 L39.501 64.454 L40.801 65.994 L42.101 67.534 L43.401 69.075 L44.701 70.615 L46.001 72.155 L47.301 73.696 L48.601 75.236 L49.901 76.776 L51.201 78.317 L52.501 79.857 L53.801 81.397 L55.101 82.937 L56.401 84.478 L57.701 86.018 L59.001 87.558 L60.301 89.099 L61.601 90.639 L62.901 92.179 L64.201 93.719 L65.501 95.260 L66.801 96.800 L68.101 98.340 L69.401 99.881 L70.701 101.421 L72.001 102.961 L73.302 104.502 L74.602 106.042 L75.902 107.582 L77.202 109.122 L78.502 110.663 L79.802 112.203 L81.102 113.743 L82.402 115.284 L83.702 116.824 L85.002 118.364 L86.302 119.905 L87.602 121.445 L88.902 122.985 L90.202 124.525 L91.502 126.066 L92.802 127.606 L94.102 129.146 L95.402 130.687 L96.702 132.227 L98.002 133.767 L99.302 135.308 L100.602 136.848 L101.902 138.388 L103.202 139.928 L104.502 141.469 L105.802 143.009 L107.102 144.549 L108.403 146.090 L109.703 147.630 L111.003 149.170 L112.303 150.710 L113.603 152.251 L114.903 153.791 L116.203 155.331 L117.503 156.872 L118.803 158.412 L120.103 159.952 L121.403 161.493 L122.703 163.033 L124.003 164.573 L125.303 166.113 L126.603 167.654 L127.903 169.194 L129.203 170.734 L130.503 172.275 L131.803 173.815 L133.103 175.355 L134.403 176.896 L135.703 178.436 L137.003 179.976 L138.303 181.516 L139.603 183.057 L140.903 184.597 L142.203 186.137 L143.504 187.678 L144.804 189.218 L146.104 190.758 L147.404 192.299 L148.704 193.839 L150.004 195.379 L151.304 196.919 L152.604 198.460 L153.904 200.000" />
<path d="M20.000 72.132 L21.300 73.672 L22.601 75.213 L23.901 76.753 L25.201 78.294 L26.501 79.835 L27.802 81.375 L29.102 82.916 L30.402 84.456 L31.702 85.997 L33.003 87.537 L34.303 89.078 L35.603 90.619 L36.904 92.159 L38.204 93.700 L39.504 95.240 L40.804 96.781 L42.105 98.322 L43.405 99.862 L44.705 101.403 L46.006 102.943 L47.306 104.484 L48.606 106.024 L49.906 107.565 L51.207 109.106 L52.507 110.646 L53.807 112.187 L55.107 113.727 L56.408 115.268 L57.708 116.809 L59.008 118.349 L60.309 119.890 L61.609 121.430 L62.909 122.971 L64.209 124.511 L65.510 126.052 L66.810 127.593 L68.110 129.133 L69.411 130.674 L70.711 132.214 L72.011 133.755 L73.311 135.296 L74.612 136.836 L75.912 138.377 L77.212 139.917 L78.512 141.458 L79.813 142.998 L81.113 144.539 L82.413 146.080 L83.714 147.620 L85.014 149.161 L86.314 150.701 L87.614 152.242 L88.915 153.783 L90.215 155.323 L91.515 156.864 L92.816 158.404 L94.116 159.945 L95.416 161.485 L96.716 163.026 L98.017 164.567 L99.317 166.107 L100.617 167.648 L101.917 169.188 L103.218 170.729 L104.518 172.270 L105.818 173.810 L107.119 175.351 L108.419 176.891 L109.719 178.432 L111.019 179.972 L112.320 181.513 L113.620 183.054 L114.920 184.594 L116.221 186.135 L117.521 187.675 L118.821 189.216 L120.121 190.757 L121.422 192.297 L122.722 193.838 L124.022 195.378 L125.322 196.919 L126.623 198.459 L127.923 200.000" />
<path d="M20.000 102.914 L21.301 104.455 L22.601 105.996 L23.902 107.537 L25.203 109.078 L26.503 110.619 L27.804 112.160 L29.105 113.701 L30.405 115.242 L31.706 116.783 L33.007 118.324 L34.307 119.865 L35.608 121.407 L36.909 122.948 L38.209 124.489 L39.510 126.030 L40.811 127.571 L42.111 129.112 L43.412 130.653 L44.713 132.194 L46.013 133.735 L47.314 135.276 L48.615 136.817 L49.915 138.358 L51.216 139.899 L52.517 141.440 L53.817 142.981 L55.118 144.522 L56.419 146.063 L57.719 147.604 L59.020 149.145 L60.321 150.686 L61.621 152.227 L62.922 153.769 L64.223 155.310 L65.523 156.851 L66.824 158.392 L68.125 159.933 L69.426 161.474 L70.726 163.015 L72.027 164.556 L73.328 166.097 L74.628 167.638 L75.929 169.179 L77.230 170.720 L78.530 172.261 L79.831 173.802 L81.132 175.343 L82.432 176.884 L83.733 178.425 L85.034 179.966 L86.334 181.507 L87.635 183.048 L88.936 184.590 L90.236 186.131 L91.537 187.672 L92.838 189.213 L94.138 190.754 L95.439 192.295 L96.740 193.836 L98.040 195.377 L99.341 196.918 L100.642 198.459 L101.942 200.000" />
<path d="M20.000 133.696 L21.301 135.238 L22.603 136.780 L23.904 138.322 L25.206 139.864 L26.507 141.406 L27.809 142.948 L29.110 144.490 L30.411 146.032 L31.713 147.574 L33.014 149.116 L34.316 150.658 L35.617 152.200 L36.919 153.742 L38.220 155.283 L39.521 156.825 L40.823 158.367 L42.124 159.909 L43.426 161.451 L44.727 162.993 L46.029 164.535 L47.330 166.077 L48.631 167.619 L49.933 169.161 L51.234 170.703 L52.536 172.245 L53.837 173.787 L55.139 175.329 L56.440 176.871 L57.741 178.413 L59.043 179.955 L60.344 181.497 L61.646 183.039 L62.947 184.581 L64.249 186.122 L65.550 187.664 L66.852 189.206 L68.153 190.748 L69.454 192.290 L70.756 193.832 L72.057 195.374 L73.359 196.916 L74.660 198.458 L75.962 200.000" />
<path d="M20.000 164.478 L21.304 166.023 L22.607 167.567 L23.911 169.112 L25.214 170.656 L26.518 172.201 L27.821 173.745 L29.125 175.289 L30.428 176.834 L31.732 178.378 L33.035 179.923 L34.339 181.467 L35.642 183.011 L36.946 184.556 L38.249 186.100 L39.553 187.645 L40.856 189.189 L42.160 190.734 L43.463 192.278 L44.767 193.822 L46.070 195.367 L47.374 196.911 L48.677 198.456 L49.981 200.000" />
<path d="M20.000 195.261 L21.333 196.841 L22.667 198.420 L24.000 200.000" />
<path d="M20.000 45.626 L20.612 43.655 L21.225 41.683 L21.837 39.712 L22.450 37.741 L23.062 35.770 L23.675 33.799 L24.287 31.827 L24.899 29.856 L25.512 27.885 L26.124 25.914 L26.737 23.942 L27.349 21.971 L27.962 20.000" />
<path d="M20.000 129.250 L20.595 127.334 L21.191 125.417 L21.786 123.500 L22.382 121.584 L22.977 119.667 L23.573 117.750 L24.168 115.834 L24.764 113.917 L25.359 112.000 L25.955 110.084 L26.550 108.167 L27.146 106.250 L27.741 104.334 L28.337 102.417 L28.932 100.500 L29.528 98.584 L30.123 96.667 L30.719 94.750 L31.314 92.834 L31.910 90.917 L32.505 89.000 L33.101 87.084 L33.696 85.167 L34.291 83.250 L34.887 81.334 L35.482 79.417 L36.078 77.500 L36.673 75.584 L37.269 73.667 L37.864 71.750 L38.460 69.833 L39.055 67.917 L39.651 66.000 L40.246 64.083 L40.842 62.167 L41.437 60.250 L42.033 58.333 L42.628 56.417 L43.224 54.500 L43.819 52.583 L44.415 50.667 L45.010 48.750 L45.606 46.833 L46.201 44.917 L46.797 43.000 L47.392 41.083 L47.987 39.167 L48.583 37.250 L49.178 35.333 L49.774 33.417 L50.369 31.500 L50.965 29.583 L51.560 27.667 L52.156 25.750 L52.751 23.833 L53.347 21.917 L53.942 20.000" />
<path d="M24.000 200.000 L24.595 198.085 L25.190 196.170 L25.785 194.255 L26.380 192.340 L26.975 190.426 L27.570 188.511 L28.164 186.596 L28.759 184.681 L29.354 182.766 L29.949 180.851 L30.544 178.936 L31.139 177.021 L31.734 175.106 L32.329 173.191 L32.924 171.277 L33.519 169.362 L34.114 167.447 L34.709 165.532 L35.304 163.617 L35.899 161.702 L36.493 159.787 L37.088 157.872 L37.683 155.957 L38.278 154.043 L38.873 152.128 L39.468 150.213 L40.063 148.298 L40.658 146.383 L41.253 144.468 L41.848 142.553 L42.443 140.638 L43.038 138.723 L43.633 136.809 L44.227 134.894 L44.822 132.979 L45.417 131.064 L46.012 129.149 L46.607 127.234 L47.202 125.319 L47.797 123.404 L48.392 121.489 L48.987 119.574 L49.582 117.660 L50.177 115.745 L50.772 113.830 L51.367 111.915 L51.962 110.000 L52.556 108.085 L53.151 106.170 L53.746 104.255 L54.341 102.340 L54.936 100.426 L55.531 98.511 L56.126 96.596 L56.721 94.681 L57.316 92.766 L57.911 90.851 L58.506 88.936 L59.101 87.021 L59.696 85.106 L60.290 83.191 L60.885 81.277 L61.480 79.362 L62.075 77.447 L62.670 75.532 L63.265 73.617 L63.860 71.702 L64.455 69.787 L65.050 67.872 L65.645 65.957 L66.240 64.043 L66.835 62.128 L67.430 60.213 L68.025 58.298 L68.619 56.383 L69.214 54.468 L69.809 52.553 L70.404 50.638 L70.999 48.723 L71.594 46.809 L72.189 44.894 L72.784 42.979 L73.379 41.064 L73.974 39.149 L74.569 37.234 L75.164 35.319 L75.759 33.404 L76.353 31.489 L76.948 29.574 L77.543 27.660 L78.138 25.745 L78.733 23.830 L79.328 21.915 L79.923 20.000" />
<path d="M49.981 200.000 L50.576 198.085 L51.171 196.170 L51.766 194.255 L52.360 192.340 L52.955 190.426 L53.550 188.511 L54.145 186.596 L54.740 184.681 L55.335 182.766 L55.930 180.851 L56.525 178.936 L57.120 177.021 L57.715 175.106 L58.310 173.191 L58.905 171.277 L59.500 169.362 L60.095 167.447 L60.689 165.532 L61.284 163.617 L61.879 161.702 L62.474 159.787 L63.069 157.872 L63.664 155.957 L64.259 154.043 L64.854 152.128 L65.449 150.213 L66.044 148.298 L66.639 146.383 L67.234 144.468 L67.829 142.553 L68.423 140.638 L69.018 138.723 L69.613 136.809 L70.208 134.894 L70.803 132.979 L71.398 131.064 L71.993 129.149 L72.588 127.234 L73.183 125.319 L73.778 123.404 L74.373 121.489 L74.968 119.574 L75.563 117.660 L76.158 115.745 L76.752 113.830 L77.347 111.915 L77.942 110.000 L78.537 108.085 L79.132 106.170 L79.727 104.255 L80.322 102.340 L80.917 100.426 L81.512 98.511 L82.107 96.596 L82.702 94.681 L83.297 92.766 L83.892 90.851 L84.486 88.936 L85.081 87.021 L85.676 85.106 L86.271 83.191 L86.866 81.277 L87.461 79.362 L88.056 77.447 L88.651 75.532 L89.246 73.617 L89.841 71.702 L90.436 69.787 L91.031 67.872 L91.626 65.957 L92.221 64.043 L92.815 62.128 L93.410 60.213 L94.005 58.298 L94.600 56.383 L95.195 54.468 L95.790 52.553 L96.385 50.638 L96.980 48.723 L97.575 46.809 L98.170 44.894 L98.765 42.979 L99.360 41.064 L99.955 39.149 L100.549 37.234 L101.144 35.319 L101.739 33.404 L102.334 31.489 L102.929 29.574 L103.524 27.660 L104.119 25.745 L104.714 23.830 L105.309 21.915 L105.904 20.000" />
<path d="M75.962 200.000 L76.556 198.085 L77.151 196.170 L77.746 194.255 L78.341 192.340 L78.936 190.426 L79.531 188.511 L80.126 186.596 L80.721 184.681 L81.316 182.766 L81.911 180.851 L82.506 178.936 L83.101 177.021 L83.696 175.106 L84.290 173.191 L84.885 171.277 L85.480 169.362 L86.075 167.447 L86.670 165.532 L87.265 163.617 L87.860 161.702 L88.455 159.787 L89.050 157.872 L89.645 155.957 L90.240 154.043 L90.835 152.128 L91.430 150.213 L92.025 148.298 L92.619 146.383 L93.214 144.468 L93.809 142.553 L94.404 140.638 L94.999 138.723 L95.594 136.809 L96.189 134.894 L96.784 132.979 L97.379 131.064 L97.974 129.149 L98.569 127.234 L99.164 125.319 L99.759 123.404 L100.353 121.489 L100.948 119.574 L101.543 117.660 L102.138 115.745 L102.733 113.830 L103.328 111.915 L103.923 110.000 L104.518 108.085 L105.113 106.170 L105.708 104.255 L106.303 102.340 L106.898 100.426 L107.493 98.511 L108.088 96.596 L108.682 94.681 L109.277 92.766 L109.872 90.851 L110.467 88.936 L111.062 87.021 L111.657 85.106 L112.252 83.191 L112.847 81.277 L113.442 79.362 L114.037 77.447 L114.632 75.532 L115.227 73.617 L115.822 71.702 L116.416 69.787 L117.011 67.872 L117.606 65.957 L118.201 64.043 L118.796 62.128 L119.391 60.213 L119.986 58.298 L120.581 56.383 L121.176 54.468 L121.771 52.553 L122.366 50.638 L122.961 48.723 L123.556 46.809 L124.151 44.894 L124.745 42.979 L125.340 41.064 L125.935 39.149 L126.530 37.234 L127.125 35.319 L127.720 33.404 L128.315 31.489 L128.910 29.574 L129.505 27.660 L130.100 25.745 L130.695 23.830 L131.290 21.915 L131.885 20.000" />
<path d="M101.942 200.000 L102.537 198.085 L103.132 196.170 L103.727 194.255 L104.322 192.340 L104.917 190.426 L105.512 188.511 L106.107 186.596 L106.702 184.681 L107.297 182.766 L107.892 180.851 L108.486 178.936 L109.081 177.021 L109.676 175.106 L110.271 173.191 L110.866 171.277 L111.461 169.362 L112.056 167.447 L112.651 165.532 L113.246 163.617 L113.841 161.702 L114.436 159.787 L115.031 157.872 L115.626 155.957 L116.221 154.043 L116.815 152.128 L117.410 150.213 L118.005 148.298 L118.600 146.383 L119.195 144.468 L119.790 142.553 L120.385 140.638 L120.980 138.723 L121.575 136.809 L122.170 134.894 L122.765 132.979 L123.360 131.064 L123.955 129.149 L124.549 127.234 L125.144 125.319 L125.739 123.404 L126.334 121.489 L126.929 119.574 L127.524 117.660 L128.119 115.745 L128.714 113.830 L129.309 111.915 L129.904 110.000 L130.499 108.085 L131.094 106.170 L131.689 104.255 L132.284 102.340 L132.878 100.426 L133.473 98.511 L134.068 96.596 L134.663 94.681 L135.258 92.766 L135.853 90.851 L136.448 88.936 L137.043 87.021 L137.638 85.106 L138.233 83.191 L138.828 81.277 L139.423 79.362 L140.018 77.447 L140.612 75.532 L141.207 73.617 L141.802 71.702 L142.397 69.787 L142.992 67.872 L143.587 65.957 L144.182 64.043 L144.777 62.128 L145.372 60.213 L145.967 58.298 L146.562 56.383 L147.157 54.468 L147.752 52.553 L148.347 50.638 L148.941 48.723 L149.536 46.809 L150.131 44.894 L150.726 42.979 L151.321 41.064 L151.916 39.149 L152.511 37.234 L153.106 35.319 L153.701 33.404 L154.296 31.489 L154.891 29.574 L155.486 27.660 L156.081 25.745 L156.675 23.830 L157.270 21.915 L157.865 20.000" />
<path d="M127.923 200.000 L128.518 198.085 L129.113 196.170 L129.708 194.255 L130.303 192.340 L130.898 190.426 L131.493 188.511 L132.088 186.596 L132.682 184.681 L133.277 182.766 L133.872 180.851 L134.467 178.936 L135.062 177.021 L135.657 175.106 L136.252 173.191 L136.847 171.277 L137.442 169.362 L138.037 167.447 L138.632 165.532 L139.227 163.617 L139.822 161.702 L140.416 159.787 L141.011 157.872 L141.606 155.957 L142.201 154.043 L142.796 152.128 L143.391 150.213 L143.986 148.298 L144.581 146.383 L145.176 144.468 L145.771 142.553 L146.366 140.638 L146.961 138.723 L147.556 136.809 L148.151 134.894 L148.745 132.979 L149.340 131.064 L149.935 129.149 L150.530 127.234 L151.125 125.319 L151.720 123.404 L152.315 121.489 L152.910 119.574 L153.505 117.660 L154.100 115.745 L154.695 113.830 L155.290 111.915 L155.885 110.000 L156.479 108.085 L157.074 106.170 L157.669 104.255 L158.264 102.340 L158.859 100.426 L159.454 98.511 L160.049 96.596 L160.644 94.681 L161.239 92.766 L161.834 90.851 L162.429 88.936 L163.024 87.021 L163.619 85.106 L164.214 83.191 L164.808 81.277 L165.403 79.362 L165.998 77.447 L166.593 75.532 L167.188 73.617 L167.783 71.702 L168.378 69.787 L168.973 67.872 L169.568 65.957 L170.163 64.043 L170.758 62.128 L171.353 60.213 L171.948 58.298 L172.543 56.383 L173.137 54.468 L173.732 52.553 L174.327 50.638 L174.922 48.723 L175.517 46.809 L176.112 44.894 L176.707 42.979 L177.302 41.064 L177.897 39.149 L178.492 37.234 L179.087 35.319 L179.682 33.404 L180.277 31.489 L180.871 29.574 L181.466 27.660 L182.061 25.745 L182.656 23.830 L183.251 21.915 L183.846 20.000" />
<path d="M153.904 200.000 L154.499 198.085 L155.094 196.170 L155.689 194.255 L156.284 192.340 L156.878 190.426 L157.473 188.511 L158.068 186.596 L158.663 184.681 L159.258 182.766 L159.853 180.851 L160.448 178.936 L161.043 177.021 L161.638 175.106 L162.233 173.191 L162.828 171.277 L163.423 169.362 L164.018 167.447 L164.612 165.532 L165.207 163.617 L165.802 161.702 L166.397 159.787 L166.992 157.872 L167.587 155.957 L168.182 154.043 L168.777 152.128 L169.372 150.213 L169.967 148.298 L170.562 146.383 L171.157 144.468 L171.752 142.553 L172.347 140.638 L172.941 138.723 L173.536 136.809 L174.131 134.894 L174.726 132.979 L175.321 131.064 L175.916 129.149 L176.511 127.234 L177.106 125.319 L177.701 123.404 L178.296 121.489 L178.891 119.574 L179.486 117.660 L180.081 115.745 L180.675 113.830 L181.270 111.915 L181.865 110.000 L182.460 108.085 L183.055 106.170 L183.650 104.255 L184.245 102.340 L184.840 100.426 L185.435 98.511 L186.030 96.596 L186.625 94.681 L187.220 92.766 L187.815 90.851 L188.410 88.936 L189.004 87.021 L189.599 85.106 L190.194 83.191 L190.789 81.277 L191.384 79.362 L191.979 77.447 L192.574 75.532 L193.169 73.617 L193.764 71.702 L194.359 69.787 L194.954 67.872 L195.549 65.957 L196.144 64.043 L196.738 62.128 L197.333 60.213 L197.928 58.298 L198.523 56.383 L199.118 54.468 L199.713 52.553 L200.308 50.638 L200.903 48.723 L201.498 46.809 L202.093 44.894 L202.688 42.979 L203.283 41.064 L203.878 39.149 L204.473 37.234 L205.067 35.319 L205.662 33.404 L206.257 31.489 L206.852 29.574 L207.447 27.660 L208.042 25.745 L208.637 23.830 L209.232 21.915 L209.827 20.000" />
<path d="M179.885 200.000 L180.479 198.085 L181.074 196.170 L181.669 194.255 L182.264 192.340 L182.859 190.426 L183.454 188.511 L184.049 186.596 L184.644 184.681 L185.239 182.766 L185.834 180.851 L186.429 178.936 L187.024 177.021 L187.619 175.106 L188.214 173.191 L188.808 171.277 L189.403 169.362 L189.998 167.447 L190.593 165.532 L191.188 163.617 L191.783 161.702 L192.378 159.787 L192.973 157.872 L193.568 155.957 L194.163 154.043 L194.758 152.128 L195.353 150.213 L195.948 148.298 L196.543 146.383 L197.137 144.468 L197.732 142.553 L198.327 140.638 L198.922 138.723 L199.517 136.809 L200.112 134.894 L200.707 132.979 L201.302 131.064 L201.897 129.149 L202.492 127.234 L203.087 125.319 L203.682 123.404 L204.277 121.489 L204.871 119.574 L205.466 117.660 L206.061 115.745 L206.656 113.830 L207.251 111.915 L207.846 110.000 L208.441 108.085 L209.036 106.170 L209.631 104.255 L210.226 102.340 L210.821 100.426 L211.416 98.511 L212.011 96.596 L212.606 94.681 L213.200 92.766 L213.795 90.851 L214.390 88.936 L214.985 87.021 L215.580 85.106 L216.175 83.191 L216.770 81.277 L217.365 79.362 L217.960 77.447 L218.555 75.532 L219.150 73.617 L219.745 71.702 L220.340 69.787 L220.934 67.872 L221.529 65.957 L222.124 64.043 L222.719 62.128 L223.314 60.213 L223.909 58.298 L224.504 56.383 L225.099 54.468 L225.694 52.553 L226.289 50.638 L226.884 48.723 L227.479 46.809 L228.074 44.894 L228.669 42.979 L229.263 41.064 L229.858 39.149 L230.453 37.234 L231.048 35.319 L231.643 33.404 L232.238 31.489 L232.833 29.574 L233.428 27.660 L234.023 25.745 L234.618 23.830 L235.213 21.915 L235.808 20.000" />
<path d="M205.865 200.000 L206.460 198.085 L207.055 196.170 L207.650 194.255 L208.245 192.340 L208.840 190.426 L209.435 188.511 L210.030 186.596 L210.625 184.681 L211.220 182.766 L211.815 180.851 L212.410 178.936 L213.004 177.021 L213.599 175.106 L214.194 173.191 L214.789 171.277 L215.384 169.362 L215.979 167.447 L216.574 165.532 L217.169 163.617 L217.764 161.702 L218.359 159.787 L218.954 157.872 L219.549 155.957 L220.144 154.043 L220.738 152.128 L221.333 150.213 L221.928 148.298 L222.523 146.383 L223.118 144.468 L223.713 142.553 L224.308 140.638 L224.903 138.723 L225.498 136.809 L226.093 134.894 L226.688 132.979 L227.283 131.064 L227.878 129.149 L228.473 127.234 L229.067 125.319 L229.662 123.404 L230.257 121.489 L230.852 119.574 L231.447 117.660 L232.042 115.745 L232.637 113.830 L233.232 111.915 L233.827 110.000 L234.422 108.085 L235.017 106.170 L235.612 104.255 L236.207 102.340 L236.801 100.426 L237.396 98.511 L237.991 96.596 L238.586 94.681 L239.181 92.766 L239.776 90.851 L240.371 88.936 L240.966 87.021 L241.561 85.106 L242.156 83.191 L242.751 81.277 L243.346 79.362 L243.941 77.447 L244.536 75.532 L245.130 73.617 L245.725 71.702 L246.320 69.787 L246.915 67.872 L247.510 65.957 L248.105 64.043 L248.700 62.128 L249.295 60.213 L249.890 58.298 L250.485 56.383 L251.080 54.468 L251.675 52.553 L252.270 50.638 L252.864 48.723 L253.459 46.809 L254.054 44.894 L254.649 42.979 L255.244 41.064 L255.839 39.149 L256.434 37.234 L257.029 35.319 L257.624 33.404 L258.219 31.489 L258.814 29.574 L259.409 27.660 L260.004 25.745 L260.599 23.830 L261.193 21.915 L261.788 20.000" />
<path d="M231.846 200.000 L232.441 198.085 L233.036 196.170 L233.631 194.255 L234.226 192.340 L234.821 190.426 L235.416 188.511 L236.011 186.596 L236.606 184.681 L237.200 182.766 L237.795 180.851 L238.390 178.936 L238.985 177.021 L239.580 175.106 L240.175 173.191 L240.770 171.277 L241.365 169.362 L241.960 167.447 L242.555 165.532 L243.150 163.617 L243.745 161.702 L244.340 159.787 L244.934 157.872 L245.529 155.957 L246.124 154.043 L246.719 152.128 L247.314 150.213 L247.909 148.298 L248.504 146.383 L249.099 144.468 L249.694 142.553 L250.289 140.638 L250.884 138.723 L251.479 136.809 L252.074 134.894 L252.669 132.979 L253.263 131.064 L253.858 129.149 L254.453 127.234 L255.048 125.319 L255.643 123.404 L256.238 121.489 L256.833 119.574 L257.428 117.660 L258.023 115.745 L258.618 113.830 L259.213 111.915 L259.808 110.000 L260.403 108.085 L260.997 106.170 L261.592 104.255 L262.187 102.340 L262.782 100.426 L263.377 98.511 L263.972 96.596 L264.567 94.681 L265.162 92.766 L265.757 90.851 L266.352 88.936 L266.947 87.021 L267.542 85.106 L268.137 83.191 L268.732 81.277 L269.326 79.362 L269.921 77.447 L270.516 75.532 L271.111 73.617 L271.706 71.702 L272.301 69.787 L272.896 67.872 L273.491 65.957 L274.086 64.043 L274.681 62.128 L275.276 60.213 L275.871 58.298 L276.466 56.383 L277.060 54.468 L277.655 52.553 L278.250 50.638 L278.845 48.723 L279.440 46.809 L280.035 44.894 L280.630 42.979 L281.225 41.064 L281.820 39.149 L282.415 37.234 L283.010 35.319 L283.605 33.404 L284.200 31.489 L284.795 29.574 L285.389 27.660 L285.984 25.745 L286.579 23.830 L287.174 21.915 L287.769 20.000" />
<path d="M257.827 200.000 L258.421 198.088 L259.015 196.176 L259.609 194.264 L260.203 192.353 L260.797 190.441 L261.391 188.529 L261.985 186.617 L262.579 184.705 L263.173 182.793 L263.767 180.881 L264.361 178.969 L264.955 177.058 L265.549 175.146 L266.143 173.234 L266.737 171.322 L267.331 169.410 L267.925 167.498 L268.519 165.586 L269.113 163.674 L269.707 161.763 L270.301 159.851 L270.895 157.939 L271.489 156.027 L272.083 154.115 L272.677 152.203 L273.271 150.291 L273.865 148.379 L274.459 146.468 L275.053 144.556 L275.646 142.644 L276.240 140.732 L276.834 138.820 L277.428 136.908 L278.022 134.996 L278.616 133.084 L279.210 131.173 L279.804 129.261 L280.398 127.349 L280.992 125.437 L281.586 123.525 L282.180 121.613 L282.774 119.701 L283.368 117.789 L283.962 115.878 L284.556 113.966 L285.150 112.054 L285.744 110.142 L286.338 108.230 L286.932 106.318 L287.526 104.406 L288.120 102.494 L288.714 100.583 L289.308 98.671 L289.902 96.759 L290.496 94.847 L291.090 92.935 L291.684 91.023 L292.278 89.111 L292.872 87.199 L293.466 85.288 L294.060 83.376 L294.654 81.464 L295.248 79.552 L295.842 77.640 L296.436 75.728 L297.030 73.816 L297.624 71.904 L298.218 69.993 L298.812 68.081 L299.406 66.169 L300.000 64.257" />
<path d="M283.808 200.000 L284.407 198.070 L285.007 196.139 L285.607 194.209 L286.206 192.279 L286.806 190.348 L287.406 188.418 L288.006 186.488 L288.605 184.557 L289.205 182.627 L289.805 180.697 L290.405 178.767 L291.004 176.836 L291.604 174.906 L292.204 172.976 L292.803 171.045 L293.403 169.115 L294.003 167.185 L294.603 165.254 L295.202 163.324 L295.802 161.394 L296.402 159.463 L297.001 157.533 L297.601 155.603 L298.201 153.672 L298.801 151.742 L299.400 149.812 L300.000 147.881" />
</svg>
