<svg xmlns="http://www.w3.org/2000/svg" viewBox="0 0 320 220">
<path d="M21.384 193.598 L25.344 193.570 L29.305 193.541 L33.265 193.617 L37.226 193.693 L41.186 193.769 L45.147 193.845 L49.107 193.920 L53.067 193.996 L57.028 194.097 L60.988 194.197 L64.949 194.298 L68.909 194.398 L72.870 194.498 L76.830 194.599 L80.791 194.715 L84.751 194.830 L88.712 194.946 L92.672 195.062 L96.633 195.177 L100.593 195.293 L104.553 195.342 L108.514 195.391 L112.474 195.440 L116.435 195.489 L120.395 195.538 L124.356 195.587 L128.316 195.585 L132.277 195.583 L136.237 195.581 L140.198 195.579 L144.158 195.577 L148.119 195.575 L152.079 195.593 L156.040 195.612 L160.000 195.630 L163.960 195.648 L167.921 195.666 L171.881 195.685 L175.842 195.724 L179.802 195.763 L183.763 195.802 L187.723 195.841 L191.684 195.880 L195.644 195.919 L199.605 195.867 L203.565 195.815 L207.526 195.763 L211.486 195.711 L215.447 195.659 L219.407 195.607 L223.367 195.431 L227.328 195.255 L231.288 195.080 L235.249 194.904 L239.209 194.728 L243.170 194.553 L247.130 194.408 L251.091 194.263 L255.051 194.118 L259.012 193.973 L262.972 193.828 L266.933 193.683 L270.893 193.553 L274.853 193.424 L278.814 193.295 L282.774 193.165 L286.735 193.036 L290.695 192.906 L294.656 192.848 L298.616 192.790" />
<path d="M19.695 182.657 L23.487 182.659 L27.279 182.661 L31.071 182.663 L34.863 182.664 L38.655 182.737 L42.447 182.810 L46.239 182.884 L50.031 182.957 L53.823 183.030 L57.615 183.103 L61.407 183.210 L65.199 183.317 L68.991 183.425 L72.783 183.532 L76.575 183.639 L80.367 183.747 L84.159 183.873 L87.951 184.000 L91.743 184.127 L95.535 184.253 L99.327 184.380 L103.120 184.506 L106.912 184.583 L110.704 184.659 L114.496 184.735 L118.288 184.811 L122.080 184.887 L125.872 184.964 L129.664 184.997 L133.456 185.031 L137.248 185.064 L141.040 185.098 L144.832 185.131 L148.624 185.165 L152.416 185.191 L156.208 185.216 L160.000 185.242 L163.792 185.267 L167.584 185.293 L171.376 185.318 L175.168 185.275 L178.960 185.232 L182.752 185.188 L186.544 185.145 L190.336 185.102 L194.128 185.058 L197.920 184.945 L201.712 184.833 L205.504 184.720 L209.296 184.607 L213.088 184.494 L216.880 184.381 L220.673 184.197 L224.465 184.013 L228.257 183.829 L232.049 183.645 L235.841 183.461 L239.633 183.277 L243.425 183.154 L247.217 183.031 L251.009 182.908 L254.801 182.785 L258.593 182.662 L262.385 182.538 L266.177 182.457 L269.969 182.377 L273.761 182.296 L277.553 182.215 L281.345 182.134 L285.137 182.053 L288.929 182.067 L292.721 182.082 L296.513 182.096 L300.305 182.110" />
<path d="M21.876 172.594 L25.511 172.585 L29.146 172.575 L32.780 172.566 L36.415 172.556 L40.050 172.546 L43.685 172.606 L47.320 172.665 L50.955 172.724 L54.590 172.784 L58.224 172.843 L61.859 172.902 L65.494 173.008 L69.129 173.114 L72.764 173.220 L76.399 173.326 L80.033 173.432 L83.668 173.538 L87.303 173.667 L90.938 173.796 L94.573 173.925 L98.208 174.053 L101.842 174.182 L105.477 174.311 L109.112 174.396 L112.747 174.481 L116.382 174.566 L120.017 174.651 L123.652 174.736 L127.286 174.821 L130.921 174.871 L134.556 174.921 L138.191 174.972 L141.826 175.022 L145.461 175.072 L149.095 175.122 L152.730 175.126 L156.365 175.129 L160.000 175.132 L163.635 175.136 L167.270 175.139 L170.905 175.143 L174.539 175.084 L178.174 175.025 L181.809 174.966 L185.444 174.906 L189.079 174.847 L192.714 174.788 L196.348 174.683 L199.983 174.578 L203.618 174.474 L207.253 174.369 L210.888 174.264 L214.523 174.159 L218.158 174.005 L221.792 173.851 L225.427 173.698 L229.062 173.544 L232.697 173.391 L236.332 173.237 L239.967 173.142 L243.601 173.047 L247.236 172.952 L250.871 172.857 L254.506 172.762 L258.141 172.667 L261.776 172.623 L265.410 172.579 L269.045 172.535 L272.680 172.491 L276.315 172.447 L279.950 172.403 L283.585 172.455 L287.220 172.506 L290.854 172.558 L294.489 172.609 L298.124 172.661" />
<path d="M20.477 163.653 L23.965 163.658 L27.453 163.679 L30.941 163.700 L34.430 163.721 L37.918 163.742 L41.406 163.763 L44.894 163.784 L48.382 163.841 L51.870 163.898 L55.358 163.955 L58.846 164.012 L62.334 164.070 L65.822 164.127 L69.310 164.206 L72.798 164.285 L76.286 164.364 L79.774 164.443 L83.262 164.523 L86.751 164.602 L90.239 164.686 L93.727 164.770 L97.215 164.854 L100.703 164.938 L104.191 165.022 L107.679 165.106 L111.167 165.171 L114.655 165.236 L118.143 165.300 L121.631 165.365 L125.119 165.430 L128.607 165.495 L132.095 165.525 L135.584 165.556 L139.072 165.587 L142.560 165.618 L146.048 165.648 L149.536 165.679 L153.024 165.689 L156.512 165.699 L160.000 165.708 L163.488 165.718 L166.976 165.728 L170.464 165.738 L173.952 165.705 L177.440 165.672 L180.928 165.639 L184.416 165.606 L187.905 165.573 L191.393 165.539 L194.881 165.469 L198.369 165.399 L201.857 165.329 L205.345 165.259 L208.833 165.189 L212.321 165.119 L215.809 165.053 L219.297 164.987 L222.785 164.921 L226.273 164.855 L229.761 164.789 L233.249 164.722 L236.738 164.671 L240.226 164.619 L243.714 164.568 L247.202 164.516 L250.690 164.465 L254.178 164.413 L257.666 164.371 L261.154 164.328 L264.642 164.285 L268.130 164.243 L271.618 164.200 L275.106 164.158 L278.594 164.153 L282.082 164.148 L285.570 164.143 L289.059 164.138 L292.547 164.134 L296.035 164.129 L299.523 164.187" />
<path d="M19.262 155.802 L22.613 155.866 L25.964 155.930 L29.315 155.993 L32.666 156.065 L36.017 156.137 L39.368 156.210 L42.719 156.282 L46.069 156.354 L49.420 156.426 L52.771 156.467 L56.122 156.508 L59.473 156.549 L62.824 156.590 L66.175 156.631 L69.526 156.672 L72.877 156.670 L76.228 156.667 L79.578 156.665 L82.929 156.663 L86.280 156.661 L89.631 156.659 L92.982 156.653 L96.333 156.647 L99.684 156.641 L103.035 156.634 L106.386 156.628 L109.737 156.622 L113.087 156.628 L116.438 156.634 L119.789 156.641 L123.140 156.647 L126.491 156.653 L129.842 156.659 L133.193 156.676 L136.544 156.692 L139.895 156.709 L143.246 156.725 L146.596 156.742 L149.947 156.758 L153.298 156.766 L156.649 156.774 L160.000 156.782 L163.351 156.790 L166.702 156.798 L170.053 156.807 L173.404 156.784 L176.754 156.762 L180.105 156.740 L183.456 156.718 L186.807 156.696 L190.158 156.674 L193.509 156.662 L196.860 156.650 L200.211 156.638 L203.562 156.627 L206.913 156.615 L210.263 156.603 L213.614 156.648 L216.965 156.693 L220.316 156.738 L223.667 156.783 L227.018 156.828 L230.369 156.873 L233.720 156.920 L237.071 156.968 L240.422 157.015 L243.772 157.062 L247.123 157.109 L250.474 157.156 L253.825 157.114 L257.176 157.072 L260.527 157.030 L263.878 156.988 L267.229 156.946 L270.580 156.904 L273.931 156.780 L277.281 156.657 L280.632 156.533 L283.983 156.409 L287.334 156.286 L290.685 156.162 L294.036 156.084 L297.387 156.005 L300.738 155.927" />
<path d="M21.429 148.018 L24.652 148.035 L27.875 148.051 L31.097 148.067 L34.320 148.083 L37.542 148.112 L40.765 148.140 L43.987 148.169 L47.210 148.198 L50.433 148.227 L53.655 148.255 L56.878 148.257 L60.100 148.259 L63.323 148.261 L66.545 148.263 L69.768 148.265 L72.991 148.267 L76.213 148.263 L79.436 148.259 L82.658 148.255 L85.881 148.251 L89.103 148.247 L92.326 148.243 L95.549 148.222 L98.771 148.202 L101.994 148.181 L105.216 148.161 L108.439 148.140 L111.661 148.120 L114.884 148.177 L118.107 148.234 L121.329 148.290 L124.552 148.347 L127.774 148.404 L130.997 148.461 L134.219 148.505 L137.442 148.549 L140.665 148.594 L143.887 148.638 L147.110 148.682 L150.332 148.726 L153.555 148.709 L156.777 148.691 L160.000 148.674 L163.223 148.657 L166.445 148.639 L169.668 148.622 L172.890 148.546 L176.113 148.470 L179.335 148.394 L182.558 148.318 L185.781 148.241 L189.003 148.165 L192.226 148.111 L195.448 148.057 L198.671 148.003 L201.893 147.949 L205.116 147.895 L208.339 147.841 L211.561 147.871 L214.784 147.901 L218.006 147.931 L221.229 147.962 L224.451 147.992 L227.674 148.022 L230.897 148.054 L234.119 148.085 L237.342 148.117 L240.564 148.148 L243.787 148.180 L247.009 148.211 L250.232 148.260 L253.455 148.308 L256.677 148.357 L259.900 148.405 L263.122 148.454 L266.345 148.503 L269.567 148.421 L272.790 148.339 L276.013 148.257 L279.235 148.175 L282.458 148.093 L285.680 148.011 L288.903 147.920 L292.125 147.830 L295.348 147.739 L298.571 147.649" />
<path d="M20.393 139.359 L23.495 139.413 L26.597 139.468 L29.700 139.523 L32.802 139.577 L35.905 139.632 L39.007 139.687 L42.109 139.683 L45.212 139.679 L48.314 139.675 L51.417 139.671 L54.519 139.667 L57.621 139.663 L60.724 139.563 L63.826 139.462 L66.928 139.362 L70.031 139.262 L73.133 139.161 L76.236 139.061 L79.338 139.093 L82.440 139.125 L85.543 139.157 L88.645 139.190 L91.748 139.222 L94.850 139.254 L97.952 139.333 L101.055 139.413 L104.157 139.493 L107.259 139.572 L110.362 139.652 L113.464 139.731 L116.567 139.843 L119.669 139.955 L122.771 140.067 L125.874 140.179 L128.976 140.291 L132.079 140.403 L135.181 140.509 L138.283 140.615 L141.386 140.721 L144.488 140.828 L147.590 140.934 L150.693 141.040 L153.795 141.004 L156.898 140.968 L160.000 140.932 L163.102 140.896 L166.205 140.860 L169.307 140.824 L172.410 140.703 L175.512 140.582 L178.614 140.461 L181.717 140.340 L184.819 140.219 L187.921 140.098 L191.024 140.000 L194.126 139.902 L197.229 139.804 L200.331 139.706 L203.433 139.608 L206.536 139.510 L209.638 139.466 L212.741 139.423 L215.843 139.380 L218.945 139.336 L222.048 139.293 L225.150 139.249 L228.252 139.256 L231.355 139.263 L234.457 139.270 L237.560 139.276 L240.662 139.283 L243.764 139.290 L246.867 139.504 L249.969 139.717 L253.072 139.931 L256.174 140.145 L259.276 140.358 L262.379 140.572 L265.481 140.517 L268.583 140.463 L271.686 140.408 L274.788 140.353 L277.891 140.299 L280.993 140.244 L284.095 140.061 L287.198 139.878 L290.300 139.695 L293.403 139.512 L296.505 139.328 L299.607 139.145" />
<path d="M19.485 131.116 L22.475 131.231 L25.464 131.346 L28.454 131.402 L31.444 131.458 L34.433 131.514 L37.423 131.570 L40.413 131.626 L43.403 131.682 L46.392 131.681 L49.382 131.680 L52.372 131.679 L55.361 131.678 L58.351 131.677 L61.341 131.676 L64.330 131.648 L67.320 131.620 L70.310 131.591 L73.299 131.563 L76.289 131.535 L79.279 131.506 L82.268 131.543 L85.258 131.580 L88.248 131.616 L91.237 131.653 L94.227 131.689 L97.217 131.726 L100.206 131.785 L103.196 131.844 L106.186 131.902 L109.175 131.961 L112.165 132.020 L115.155 132.079 L118.144 132.221 L121.134 132.364 L124.124 132.506 L127.114 132.648 L130.103 132.791 L133.093 132.933 L136.083 133.063 L139.072 133.193 L142.062 133.323 L145.052 133.453 L148.041 133.583 L151.031 133.713 L154.021 133.679 L157.010 133.645 L160.000 133.611 L162.990 133.576 L165.979 133.542 L168.969 133.508 L171.959 133.382 L174.948 133.255 L177.938 133.129 L180.928 133.003 L183.917 132.876 L186.907 132.750 L189.897 132.630 L192.886 132.509 L195.876 132.389 L198.866 132.269 L201.856 132.148 L204.845 132.028 L207.835 131.988 L210.825 131.948 L213.814 131.908 L216.804 131.868 L219.794 131.828 L222.783 131.789 L225.773 131.834 L228.763 131.879 L231.752 131.924 L234.742 131.969 L237.732 132.014 L240.721 132.059 L243.711 132.225 L246.701 132.392 L249.690 132.558 L252.680 132.725 L255.670 132.891 L258.659 133.057 L261.649 132.970 L264.639 132.882 L267.628 132.794 L270.618 132.706 L273.608 132.618 L276.597 132.531 L279.587 132.316 L282.577 132.101 L285.567 131.886 L288.556 131.672 L291.546 131.457 L294.536 131.242 L297.525 131.003 L300.515 130.764" />
<path d="M21.575 123.846 L24.459 123.911 L27.342 123.975 L30.226 124.039 L33.110 124.069 L35.994 124.100 L38.878 124.130 L41.762 124.160 L44.646 124.190 L47.529 124.220 L50.413 124.332 L53.297 124.444 L56.181 124.556 L59.065 124.668 L61.949 124.779 L64.833 124.891 L67.716 124.872 L70.600 124.854 L73.484 124.835 L76.368 124.816 L79.252 124.797 L82.136 124.778 L85.020 124.797 L87.904 124.817 L90.787 124.837 L93.671 124.856 L96.555 124.876 L99.439 124.895 L102.323 124.946 L105.207 124.998 L108.091 125.049 L110.974 125.100 L113.858 125.151 L116.742 125.202 L119.626 125.321 L122.510 125.440 L125.394 125.559 L128.278 125.678 L131.161 125.797 L134.045 125.916 L136.929 126.045 L139.813 126.173 L142.697 126.302 L145.581 126.430 L148.465 126.559 L151.348 126.687 L154.232 126.682 L157.116 126.676 L160.000 126.670 L162.884 126.664 L165.768 126.658 L168.652 126.652 L171.535 126.535 L174.419 126.418 L177.303 126.301 L180.187 126.184 L183.071 126.067 L185.955 125.950 L188.839 125.846 L191.722 125.743 L194.606 125.640 L197.490 125.537 L200.374 125.434 L203.258 125.331 L206.142 125.287 L209.026 125.243 L211.909 125.200 L214.793 125.156 L217.677 125.113 L220.561 125.069 L223.445 125.088 L226.329 125.107 L229.213 125.126 L232.096 125.145 L234.980 125.164 L237.864 125.183 L240.748 125.303 L243.632 125.422 L246.516 125.542 L249.400 125.661 L252.284 125.781 L255.167 125.900 L258.051 125.781 L260.935 125.662 L263.819 125.542 L266.703 125.423 L269.587 125.303 L272.471 125.184 L275.354 125.057 L278.238 124.930 L281.122 124.803 L284.006 124.677 L286.890 124.550 L289.774 124.423 L292.658 124.294 L295.541 124.165" />
<path d="M20.781 117.101 L23.565 117.190 L26.350 117.280 L29.134 117.369 L31.919 117.459 L34.703 117.549 L37.487 117.651 L40.272 117.753 L43.056 117.856 L45.841 117.958 L48.625 118.060 L51.409 118.163 L54.194 118.247 L56.978 118.330 L59.762 118.414 L62.547 118.498 L65.331 118.582 L68.116 118.666 L70.900 118.619 L73.684 118.573 L76.469 118.527 L79.253 118.481 L82.037 118.434 L84.822 118.388 L87.606 118.385 L90.391 118.382 L93.175 118.379 L95.959 118.377 L98.744 118.374 L101.528 118.371 L104.312 118.433 L107.097 118.494 L109.881 118.556 L112.666 118.617 L115.450 118.679 L118.234 118.741 L121.019 118.845 L123.803 118.949 L126.587 119.054 L129.372 119.158 L132.156 119.262 L134.941 119.367 L137.725 119.480 L140.509 119.593 L143.294 119.706 L146.078 119.819 L148.862 119.932 L151.647 120.045 L154.431 120.075 L157.216 120.105 L160.000 120.135 L162.784 120.166 L165.569 120.196 L168.353 120.226 L171.138 120.124 L173.922 120.022 L176.706 119.920 L179.491 119.818 L182.275 119.716 L185.059 119.613 L187.844 119.526 L190.628 119.439 L193.413 119.352 L196.197 119.265 L198.981 119.178 L201.766 119.091 L204.550 119.054 L207.334 119.017 L210.119 118.980 L212.903 118.944 L215.688 118.907 L218.472 118.870 L221.256 118.920 L224.041 118.971" />
<path d="M237.963 119.298 L240.747 119.424 L243.531 119.551 L246.316 119.678 L249.100 119.805 L251.884 119.931 L254.669 119.811 L257.453 119.690 L260.238 119.570 L263.022 119.450 L265.806 119.329 L268.591 119.209 L271.375 119.072 L274.159 118.934 L276.944 118.797 L279.728 118.659 L282.513 118.522 L285.297 118.384 L288.081 118.263 L290.866 118.141 L293.650 118.020 L296.435 117.899 L299.219 117.777" />
<path d="M20.082 110.409 L22.773 110.401 L25.463 110.428 L28.154 110.456 L30.845 110.483 L33.535 110.510 L36.226 110.538 L38.917 110.565 L41.608 110.624 L44.298 110.682 L46.989 110.741 L49.680 110.799 L52.371 110.858 L55.061 110.916 L57.752 111.019 L60.443 111.122 L63.134 111.224 L65.824 111.327 L68.515 111.430 L71.206 111.533 L73.896 111.641 L76.587 111.750 L79.278 111.859 L81.969 111.967 L84.659 112.076 L87.350 112.185 L90.041 112.225 L92.732 112.266 L95.422 112.307 L98.113 112.347 L100.804 112.388 L103.495 112.429 L106.185 112.518 L108.876 112.608 L111.567 112.697 L114.258 112.787 L116.948 112.876 L119.639 112.966 L122.330 113.077 L125.020 113.188 L127.711 113.299 L130.402 113.410 L133.093 113.521 L135.783 113.632 L138.474 113.740 L141.165 113.847 L143.856 113.954 L146.546 114.062 L149.237 114.169 L151.928 114.277 L154.619 114.312 L157.309 114.347 L160.000 114.382 L162.691 114.418 L165.381 114.453 L168.072 114.488 L170.763 114.396 L173.454 114.303 L176.144 114.210 L178.835 114.118 L181.526 114.025 L184.217 113.933 L186.907 113.849 L189.598 113.765 L192.289 113.681 L194.980 113.597 L197.670 113.513 L200.361 113.430 L203.052 113.389 L205.742 113.348 L208.433 113.308 L211.124 113.267 L213.815 113.227 L216.505 113.186 L219.196 113.218 L221.887 113.250 L224.578 113.282 L227.268 113.314 L229.959 113.346 L232.650 113.378 L235.341 113.245 L238.031 113.112 L240.722 112.980 L243.413 112.847 L246.104 112.714 L248.794 112.582 L251.485 112.435 L254.176 112.287 L256.866 112.140 L259.557 111.993 L262.248 111.845 L264.939 111.698 L267.629 111.603 L270.320 111.508 L273.011 111.414 L275.702 111.319 L278.392 111.224 L281.083 111.129 L283.774 111.088 L286.465 111.047 L289.155 111.006 L291.846 110.965 L294.537 110.924 L297.227 110.882 L299.918 110.897" />
<path d="M191.230 107.981 L193.832 107.929 L196.435 107.877 L199.037 107.825 L201.640 107.853 L204.242 107.880 L206.845 107.907 L209.447 107.935 L212.050 107.962 L214.652 107.989 L217.254 107.850 L219.857 107.710 L222.459 107.570 L225.062 107.431 L227.664 107.291 L230.267 107.151 L232.869 106.950 L235.472 106.748 L238.074 106.547 L240.677 106.346 L243.279 106.144 L245.882 105.943 L248.484 105.819 L251.087 105.695 L253.689 105.572 L256.292 105.448 L258.894 105.324 L261.497 105.201 L264.099 105.143 L266.702 105.085 L269.304 105.028 L271.907 104.970 L274.509 104.913 L277.111 104.855 L279.714 104.863 L282.316 104.870 L284.919 104.878 L287.521 104.885 L290.124 104.893 L292.726 104.900" />
<path d="M19.625 114.757 L20.425 113.649 L21.217 112.554 L21.999 111.471 L22.773 110.401 L23.544 109.371 L24.306 108.353 L25.061 107.346 L25.806 106.351 L26.544 105.366 L26.544 104.982" />
<path d="M19.519 140.752 L20.393 139.359 L21.264 137.982 L22.125 136.621 L22.975 135.278 L23.815 133.951 L24.645 132.641 L25.464 131.346 L26.282 130.091 L27.090 128.851 L27.888 127.627 L28.677 126.417 L29.456 125.221 L30.226 124.039 L30.995 122.926 L31.754 121.825 L32.504 120.737 L33.245 119.662 L33.978 118.599 L34.703 117.549 L35.426 116.351 L36.140 115.167 L36.846 113.997 L37.544 112.840 L38.234 111.696 L38.917 110.565 L39.597 109.515 L40.270 108.476 L40.936 107.449 L41.594 106.433 L42.245 105.428 L42.245 104.982" />
<path d="M19.228 171.061 L20.202 169.539 L21.162 168.039 L22.109 166.559 L23.044 165.098 L23.965 163.658 L24.887 162.337 L25.797 161.034 L26.694 159.749 L27.579 158.480 L28.453 157.229 L29.315 155.993 L30.177 154.631 L31.027 153.287 L31.866 151.961 L32.695 150.651 L33.512 149.359 L34.320 148.083 L35.126 146.639 L35.922 145.213 L36.708 143.805 L37.484 142.415 L38.250 141.042 L39.007 139.687 L39.762 138.311 L40.509 136.952 L41.245 135.610 L41.973 134.285 L42.692 132.975 L43.403 131.682 L44.111 130.400 L44.811 129.134 L45.503 127.884 L46.187 126.648 L46.862 125.427 L47.529 124.220 L48.195 123.181 L48.853 122.153 L49.503 121.138 L50.146 120.135 L50.781 119.143 L51.409 118.163 L52.035 116.920 L52.655 115.692 L53.267 114.478 L53.872 113.277 L54.470 112.090 L55.061 110.916 L55.651 109.838 L56.234 108.771 L56.811 107.717 L57.381 106.674 L57.945 105.642 L57.945 104.982" />
<path d="M26.393 199.411 L27.378 197.425 L28.348 195.469 L29.305 193.541 L30.265 191.662 L31.211 189.810 L32.144 187.985 L33.063 186.186 L33.970 184.413 L34.863 182.664 L35.758 180.918 L36.641 179.196 L37.511 177.498 L38.370 175.825 L39.216 174.174 L40.050 172.546 L40.886 171.035 L41.709 169.545 L42.522 168.075 L43.323 166.625 L44.114 165.195 L44.894 163.784 L45.674 162.516 L46.443 161.265 L47.202 160.031 L47.952 158.813 L48.691 157.612 L49.420 156.426 L50.149 155.019 L50.869 153.631 L51.579 152.261 L52.280 150.908 L52.972 149.573 L53.655 148.255 L54.337 146.777 L55.011 145.318 L55.676 143.878 L56.333 142.455 L56.981 141.050 L57.621 139.663 L58.261 138.291 L58.892 136.935 L59.515 135.596 L60.131 134.273 L60.740 132.967 L61.341 131.676 L61.940 130.511 L62.533 129.360 L63.118 128.223 L63.696 127.099 L64.268 125.989 L64.833 124.891 L65.396 123.823 L65.953 122.767 L66.503 121.724 L67.047 120.693 L67.584 119.673 L68.116 118.666 L68.645 117.443 L69.169 116.234 L69.687 115.038 L70.199 113.856 L70.705 112.688 L71.206 111.533 L71.705 110.427 L72.198 109.333 L72.686 108.252 L73.169 107.183 L73.646 106.125 L74.118 105.079 L74.118 104.982" />
<path d="M50.685 199.868 L51.491 197.882 L52.285 195.925 L53.067 193.996 L53.853 192.114 L54.628 190.259 L55.391 188.431 L56.143 186.629 L56.884 184.853 L57.615 183.103 L58.348 181.342 L59.070 179.606 L59.782 177.894 L60.484 176.207 L61.176 174.543 L61.859 172.902 L62.543 171.389 L63.217 169.896 L63.882 168.424 L64.537 166.972 L65.184 165.540 L65.822 164.127 L66.460 162.842 L67.090 161.575 L67.711 160.324 L68.324 159.091 L68.929 157.873 L69.526 156.672 L70.122 155.225 L70.711 153.797 L71.292 152.387 L71.865 150.996 L72.432 149.623 L72.991 148.267 L73.549 146.684 L74.100 145.120 L74.644 143.577 L75.181 142.052 L75.712 140.547 L76.236 139.061 L76.759 137.762 L77.275 136.480 L77.785 135.214 L78.289 133.963 L78.787 132.727 L79.279 131.506 L79.769 130.351 L80.254 129.209 L80.733 128.082 L81.206 126.967 L81.674 125.866 L82.136 124.778 L82.597 123.681 L83.052 122.598 L83.502 121.527 L83.947 120.468 L84.387 119.422 L84.822 118.388 L85.255 117.324 L85.684 116.273 L86.108 115.233 L86.526 114.205 L86.941 113.189 L87.350 112.185 L87.758 111.156 L88.162 110.140 L88.562 109.135 L88.956 108.140 L89.347 107.157 L89.733 106.184 L90.118 105.316 L90.118 104.982" />
<path d="M74.977 200.487 L75.604 198.495 L76.222 196.533 L76.830 194.599 L77.441 192.724 L78.044 190.876 L78.637 189.055 L79.222 187.260 L79.799 185.491 L80.367 183.747 L80.937 181.985 L81.499 180.247 L82.053 178.535 L82.599 176.846 L83.137 175.181 L83.668 173.538 L84.200 171.997 L84.724 170.477 L85.241 168.978 L85.751 167.499 L86.254 166.041 L86.751 164.602 L87.247 163.233 L87.737 161.883 L88.220 160.551 L88.696 159.236 L89.167 157.939 L89.631 156.659 L90.095 155.210 L90.553 153.780 L91.005 152.369 L91.451 150.976 L91.891 149.600 L92.326 148.243 L92.760 146.696 L93.189 145.170 L93.612 143.663 L94.030 142.175 L94.442 140.705 L94.850 139.254 L95.257 137.960 L95.658 136.682 L96.055 135.420 L96.447 134.174 L96.834 132.942 L97.217 131.726 L97.598 130.553 L97.975 129.394 L98.348 128.249 L98.716 127.118 L99.080 126.000 L99.439 124.895 L99.797 123.776 L100.152 122.669 L100.502 121.576 L100.848 120.495 L101.190 119.427 L101.528 118.371 L101.865 117.352 L102.199 116.345 L102.528 115.349 L102.854 114.365 L103.176 113.391 L103.495 112.429 L103.812 111.531 L104.126 110.644 L104.437 109.766 L104.744 108.898 L105.048 108.039 L105.348 107.190 L105.647 106.386" />
<path d="M99.269 200.875 L99.717 198.987 L100.158 197.126 L100.593 195.293 L101.030 193.429 L101.460 191.593 L101.884 189.782 L102.302 187.998 L102.713 186.240 L103.120 184.506 L103.527 182.746 L103.928 181.011 L104.323 179.301 L104.713 177.614 L105.098 175.951 L105.477 174.311 L105.857 172.723 L106.232 171.158 L106.601 169.614 L106.965 168.091 L107.324 166.588 L107.679 165.106 L108.034 163.644 L108.383 162.202 L108.728 160.779 L109.069 159.375 L109.405 157.989 L109.737 156.622 L110.068 155.158 L110.395 153.714 L110.718 152.288 L111.036 150.881 L111.351 149.491 L111.661 148.120 L111.972 146.677 L112.278 145.252 L112.580 143.846 L112.878 142.457 L113.173 141.086 L113.464 139.731 L113.755 138.416 L114.042 137.117 L114.325 135.834 L114.605 134.567 L114.882 133.316 L115.155 132.079 L115.427 130.898 L115.697 129.731 L115.963 128.579 L116.226 127.440 L116.485 126.314 L116.742 125.202 L116.998 124.093 L117.251 122.998 L117.501 121.915 L117.748 120.844 L117.993 119.786 L118.234 118.741 L118.475 117.750 L118.713 116.772 L118.949 115.804 L119.181 114.847 L119.411 113.901 L119.639 112.966 L119.866 112.060 L120.090 111.165 L120.312 110.279 L120.531 109.403 L120.748 108.537 L120.963 107.680 L121.177 106.876 L121.388 106.081 L121.598 105.294 L121.598 104.982" />
<path d="M123.830 199.192 L124.095 197.376 L124.356 195.587 L124.618 193.751 L124.876 191.942 L125.130 190.160 L125.381 188.403 L125.628 186.671 L125.872 184.964 L126.116 183.213 L126.357 181.487 L126.594 179.785 L126.828 178.107 L127.059 176.453 L127.286 174.821 L127.514 173.212 L127.739 171.626 L127.961 170.062 L128.179 168.519 L128.395 166.996 L128.607 165.495 L128.820 163.972 L129.030 162.470 L129.237 160.988 L129.441 159.526 L129.643 158.083 L129.842 156.659 L130.041 155.248 L130.237 153.855 L130.431 152.480 L130.622 151.123 L130.811 149.783 L130.997 148.461 L131.183 147.075 L131.367 145.706 L131.548 144.355 L131.727 143.021 L131.904 141.704 L132.079 140.403 L132.253 139.119 L132.425 137.851 L132.595 136.599 L132.763 135.362 L132.929 134.140 L133.093 132.933 L133.256 131.728 L133.418 130.537 L133.578 129.361 L133.735 128.199 L133.891 127.051 L134.045 125.916 L134.199 124.792 L134.351 123.682 L134.501 122.584 L134.649 121.499 L134.796 120.427 L134.941 119.367 L135.085 118.383 L135.228 117.411 L135.369 116.450 L135.509 115.500 L135.647 114.561 L135.783 113.632 L135.919 112.712 L136.054 111.802 L136.187 110.902 L136.319 110.013 L136.449 109.133 L136.578 108.262 L136.706 107.327 L136.833 106.403 L136.959 105.488 L136.959 104.982" />
<path d="M147.943 199.196 L148.032 197.372 L148.119 195.575 L148.206 193.776 L148.292 192.004 L148.377 190.257 L148.460 188.535 L148.543 186.838 L148.624 185.165 L148.705 183.431 L148.786 181.722 L148.865 180.037 L148.943 178.376 L149.020 176.738 L149.095 175.122 L149.171 173.494 L149.246 171.887 L149.320 170.303 L149.393 168.741 L149.465 167.200 L149.536 165.679 L149.607 164.142 L149.677 162.625 L149.746 161.129 L149.814 159.653 L149.881 158.196 L149.947 156.758 L150.014 155.375 L150.079 154.011 L150.144 152.664 L150.207 151.334 L150.270 150.022 L150.332 148.726 L150.394 147.404 L150.456 146.099 L150.516 144.810 L150.576 143.538 L150.635 142.281 L150.693 141.040 L150.751 139.781 L150.808 138.537 L150.865 137.309 L150.921 136.096 L150.976 134.897 L151.031 133.713 L151.085 132.507 L151.139 131.315 L151.193 130.137 L151.245 128.973 L151.297 127.824 L151.348 126.687 L151.400 125.547 L151.450 124.421 L151.500 123.308 L151.550 122.207 L151.599 121.120 L151.647 120.045 L151.695 119.055 L151.743 118.078 L151.790 117.111 L151.836 116.156 L151.882 115.211 L151.928 114.277 L151.973 113.326 L152.018 112.387 L152.062 111.457 L152.106 110.538 L152.150 109.629 L152.193 108.730 L152.235 107.632 L152.278 106.546 L152.320 105.472 L152.320 104.982" />
<path d="M172.057 199.272 L171.968 197.465 L171.881 195.685 L171.794 193.893 L171.708 192.128 L171.623 190.389 L171.540 188.674 L171.457 186.984 L171.376 185.318 L171.295 183.562 L171.214 181.830 L171.135 180.123 L171.057 178.440 L170.980 176.780 L170.905 175.143 L170.829 173.521 L170.754 171.921 L170.680 170.343 L170.607 168.787 L170.535 167.252 L170.464 165.738 L170.393 164.199 L170.323 162.680 L170.254 161.183 L170.186 159.705 L170.119 158.246 L170.053 156.807 L169.986 155.397 L169.921 154.007 L169.856 152.634 L169.793 151.279 L169.730 149.942 L169.668 148.622 L169.606 147.280 L169.544 145.956 L169.484 144.649 L169.424 143.358 L169.365 142.083 L169.307 140.824 L169.249 139.567 L169.192 138.325 L169.135 137.098 L169.079 135.887 L169.024 134.690 L168.969 133.508 L168.915 132.331 L168.861 131.167 L168.807 130.018 L168.755 128.883 L168.703 127.761 L168.652 126.652 L168.600 125.549 L168.550 124.460 L168.500 123.383 L168.450 122.318 L168.401 121.266 L168.353 120.226 L168.305 119.243 L168.257 118.270 L168.210 117.308 L168.164 116.358 L168.118 115.418 L168.072 114.488 L168.027 113.468 L167.982 112.458 L167.938 111.460 L167.894 110.474 L167.850 109.497 L167.807 108.532 L167.765 107.440 L167.722 106.361 L167.680 105.293 L167.680 104.982" />
<path d="M196.170 199.442 L195.905 197.668 L195.644 195.919 L195.382 194.042 L195.124 192.193 L194.870 190.370 L194.619 188.574 L194.372 186.804 L194.128 185.058 L193.884 183.285 L193.643 181.538 L193.406 179.815 L193.172 178.116 L192.941 176.441 L192.714 174.788 L192.486 173.193 L192.261 171.620 L192.039 170.069 L191.821 168.538 L191.605 167.029 L191.393 165.539 L191.180 164.012 L190.970 162.505 L190.763 161.018 L190.559 159.550 L190.357 158.103 L190.158 156.674 L189.959 155.209 L189.763 153.763 L189.569 152.337 L189.378 150.928 L189.189 149.538 L189.003 148.165 L188.817 146.778 L188.633 145.408 L188.452 144.055 L188.273 142.719 L188.096 141.400 L187.921 140.098 L187.747 138.835 L187.575 137.588 L187.405 136.356 L187.237 135.139 L187.071 133.937 L186.907 132.750 L186.744 131.582 L186.582 130.428 L186.422 129.288 L186.265 128.162 L186.109 127.049 L185.955 125.950 L185.801 124.862 L185.649 123.788 L185.499 122.726 L185.351 121.676 L185.204 120.639 L185.059 119.613 L184.915 118.639 L184.772 117.676 L184.631 116.724 L184.491 115.783 L184.353 114.853 L184.217 113.933 L184.081 112.939 L183.946 111.957 L183.813 110.986 L183.681 110.025 L183.551 109.076 L183.422 108.136 L183.294 107.141 L183.167 106.156 L183.041 105.182 L183.041 104.982" />
<path d="M220.283 199.296 L219.842 197.438 L219.407 195.607 L218.970 193.667 L218.540 191.756 L218.116 189.872 L217.698 188.015 L217.287 186.185 L216.880 184.381 L216.473 182.617 L216.072 180.877 L215.677 179.162 L215.287 177.471 L214.902 175.803 L214.523 174.159 L214.143 172.600 L213.768 171.062 L213.399 169.546 L213.035 168.050 L212.676 166.575 L212.321 165.119 L211.966 163.652 L211.617 162.204 L211.272 160.776 L210.931 159.366 L210.595 157.976 L210.263 156.603 L209.932 155.095 L209.605 153.606 L209.282 152.136 L208.964 150.686 L208.649 149.254 L208.339 147.841 L208.028 146.408 L207.722 144.993 L207.420 143.596 L207.122 142.217 L206.827 140.855 L206.536 139.510 L206.245 138.224 L205.958 136.954 L205.675 135.700 L205.395 134.461 L205.118 133.237 L204.845 132.028 L204.573 130.878 L204.303 129.741 L204.037 128.619 L203.774 127.510 L203.515 126.414 L203.258 125.331 L203.002 124.260 L202.749 123.202 L202.499 122.156 L202.252 121.122 L202.007 120.101 L201.766 119.091 L201.525 118.120 L201.287 117.160 L201.051 116.212 L200.819 115.274 L200.589 114.347 L200.361 113.430 L200.134 112.469 L199.910 111.520 L199.688 110.581 L199.469 109.652 L199.252 108.734 L199.037 107.825 L198.823 106.944 L198.612 106.072 L198.402 105.210 L198.402 104.982" />
<path d="M245.023 200.739 L244.396 198.646 L243.778 196.584 L243.170 194.553 L242.559 192.604 L241.956 190.685 L241.363 188.793 L240.778 186.928 L240.201 185.090 L239.633 183.277 L239.063 181.544 L238.501 179.836 L237.947 178.151 L237.401 176.490 L236.863 174.852 L236.332 173.237 L235.800 171.769 L235.276 170.320 L234.759 168.892 L234.249 167.483 L233.746 166.093 L233.249 164.722 L232.753 163.370 L232.263 162.035 L231.780 160.719 L231.304 159.420 L230.833 158.138 L230.369 156.873 L229.905 155.349 L229.447 153.846 L228.995 152.361 L228.549 150.896 L228.109 149.450 L227.674 148.022 L227.240 146.513 L226.811 145.023 L226.388 143.553 L225.970 142.100 L225.558 140.666 L225.150 139.249 L224.743 137.967 L224.342 136.701 L223.945 135.450 L223.553 134.215 L223.166 132.994 L222.783 131.789 L222.402 130.635 L222.025 129.495 L221.652 128.368 L221.284 127.255 L220.920 126.156 L220.561 125.069 L220.203 124.005 L219.848 122.954 L219.498 121.915 L219.152 120.888 L218.810 119.874 L218.472 118.870 L218.135 117.896 L217.801 116.932 L217.472 115.980 L217.146 115.038 L216.824 114.107 L216.505 113.186 L216.188 112.296 L215.874 111.415 L215.563 110.544 L215.256 109.683 L214.952 108.832 L214.652 107.989 L214.353 107.142 L214.056 106.304 L213.763 105.475 L213.763 104.982" />
<path d="M269.315 199.830 L268.509 197.751 L267.715 195.702 L266.933 193.683 L266.147 191.757 L265.372 189.860 L264.609 187.990 L263.857 186.146 L263.116 184.329 L262.385 182.538 L261.652 180.834 L260.930 179.154 L260.218 177.498 L259.516 175.865 L258.824 174.255 L258.141 172.667 L257.457 171.243 L256.783 169.839 L256.118 168.455 L255.463 167.089 L254.816 165.742 L254.178 164.413 L253.540 163.163 L252.910 161.929 L252.289 160.712 L251.676 159.511 L251.071 158.326 L250.474 157.156 L249.878 155.616 L249.289 154.097 L248.708 152.596 L248.135 151.116 L247.568 149.654 L247.009 148.211 L246.451 146.676 L245.900 145.161 L245.356 143.666 L244.819 142.189 L244.288 140.730 L243.764 139.290 L243.241 138.047 L242.725 136.820 L242.215 135.607 L241.711 134.410 L241.213 133.227 L240.721 132.059 L240.231 130.878 L239.746 129.711 L239.267 128.559 L238.794 127.420 L238.326 126.295 L237.864 125.183" />
<path d="M293.607 198.969 L292.622 196.919 L291.652 194.898 L290.695 192.906 L289.735 191.031 L288.789 189.183 L287.856 187.362 L286.937 185.567 L286.030 183.798 L285.137 182.053 L284.242 180.387 L283.359 178.745 L282.489 177.126 L281.630 175.530 L280.784 173.956 L279.950 172.403 L279.114 170.981 L278.291 169.579 L277.478 168.196 L276.677 166.831 L275.886 165.485 L275.106 164.158 L274.326 162.908 L273.557 161.675 L272.798 160.458 L272.048 159.258 L271.309 158.073 L270.580 156.904 L269.851 155.458 L269.131 154.030 L268.421 152.621 L267.720 151.231 L267.028 149.858 L266.345 148.503 L265.663 147.138 L264.989 145.792 L264.324 144.462 L263.667 143.149 L263.019 141.852 L262.379 140.572 L261.739 139.280 L261.108 138.005 L260.485 136.745 L259.869 135.501 L259.260 134.272 L258.659 133.057 L258.060 131.828 L257.467 130.614 L256.882 129.414 L256.304 128.229 L255.732 127.058 L255.167 125.900 L254.604 124.876 L254.047 123.864 L253.497 122.863 L252.953 121.875 L252.416 120.897 L251.884 119.931 L251.355 118.671 L250.831 117.425 L250.313 116.194 L249.801 114.976 L249.295 113.772 L248.794 112.582 L248.295 111.444 L247.802 110.319 L247.314 109.207 L246.831 108.107 L246.354 107.019 L245.882 105.943 L245.882 104.982" />
<path d="M300.772 171.232 L299.798 169.772 L298.838 168.332 L297.891 166.912 L296.956 165.511 L296.035 164.129 L295.113 162.756 L294.203 161.402 L293.306 160.066 L292.421 158.747 L291.547 157.446 L290.685 156.162 L289.823 154.759 L288.973 153.374 L288.134 152.007 L287.305 150.658 L286.488 149.326 L285.680 148.011 L284.874 146.675 L284.078 145.356 L283.292 144.054 L282.516 142.768 L281.750 141.498 L280.993 140.244 L280.238 138.918 L279.491 137.609 L278.755 136.316 L278.027 135.039 L277.308 133.777 L276.597 132.531 L275.889 131.269 L275.189 130.022 L274.497 128.791 L273.813 127.574 L273.138 126.372 L272.471 125.184 L271.805 124.158 L271.147 123.145 L270.497 122.144 L269.854 121.154 L269.219 120.176 L268.591 119.209 L267.965 117.921 L267.345 116.648 L266.733 115.389 L266.128 114.145 L265.530 112.915 L264.939 111.698 L264.349 110.585 L263.766 109.484 L263.189 108.395 L262.619 107.318 L262.055 106.254 L261.497 105.201 L261.497 104.982" />
<path d="M300.481 140.489 L299.607 139.145 L298.736 137.787 L297.875 136.445 L297.025 135.121 L296.185 133.812 L295.355 132.519 L294.536 131.242 L293.718 130.071 L292.910 128.914 L292.112 127.771 L291.323 126.642 L290.544 125.526 L289.774 124.423 L289.005 123.387 L288.246 122.363 L287.496 121.351 L286.755 120.350 L286.022 119.362 L285.297 118.384 L284.574 117.140 L283.860 115.911 L283.154 114.695 L282.456 113.493 L281.766 112.304 L281.083 111.129 L280.403 110.054 L279.730 108.991 L279.064 107.940 L278.406 106.900 L277.755 105.872 L277.755 104.982" />
</svg>
