<svg xmlns="http://www.w3.org/2000/svg" viewBox="0 0 279 216">
<path d="M 235.172 61.266 C 236.204 62.575 236.939 64.186 238.267 65.193 C 239.595 66.200 241.338 66.490 242.884 67.114 C 244.429 67.737 245.924 68.529 247.541 68.933 C 251.174 69.842 253.828 69.466 257.502 69.312" />
<path d="M 114.190 107.612 C 119.128 107.836 124.395 108.529 128.813 105.645 C 133.298 102.718 134.435 97.583 137.353 93.469 C 138.318 92.109 139.614 91.014 140.632 89.694 C 143.710 85.703 145.889 81.203 148.622 77.010 C 151.361 72.808 155.100 69.376 157.401 64.867 C 159.164 61.413 160.286 53.358 162.887 50.965 C 164.113 49.836 165.835 49.074 167.501 49.038 C 169.167 49.003 170.589 50.311 172.192 50.768 C 173.795 51.225 175.516 51.226 177.091 51.771 C 178.665 52.317 180.172 53.091 181.560 54.013 C 187.387 57.882 186.697 60.796 189.405 66.375 C 190.133 67.874 191.150 69.216 192.076 70.602 C 194.903 74.835 198.109 78.475 201.903 81.871 C 205.137 84.765 206.512 85.219 209.016 88.856 C 209.961 90.229 210.584 91.798 211.368 93.269" />
<path d="M 91.585 110.459 C 90.615 111.814 89.491 113.071 88.675 114.525 C 85.894 119.479 86.409 123.870 80.433 126.489 C 73.167 129.672 62.407 124.640 56.236 130.828 C 52.711 134.362 54.091 135.871 54.088 140.211 C 54.086 143.033 53.820 147.405 52.874 150.111 C 51.155 155.030 50.121 154.147 47.850 158.744 C 47.112 160.239 46.430 161.807 46.170 163.454 C 45.492 167.746 47.357 179.621 51.039 182.401 C 52.568 183.555 58.977 184.501 60.689 184.969 C 64.897 186.120 70.697 189.717 74.837 189.881 C 81.090 190.130 78.493 188.053 84.392 187.090 C 90.063 186.165 93.680 189.607 97.551 193.019" />
<path d="M 146.650 159.097 C 152.138 162.882 149.821 160.563 153.601 166.054 C 152.978 167.600 152.720 169.349 151.732 170.692 C 145.986 178.498 149.575 169.150 144.940 177.914 C 144.161 179.387 143.730 181.022 143.229 182.612 C 142.181 185.937 141.616 188.928 140.880 192.329" />
<path d="M 50.940 63.993 C 59.814 61.983 74.169 59.506 75.257 72.415 C 75.396 74.076 75.335 75.784 74.950 77.406 C 72.884 86.115 62.151 87.505 64.342 98.996 C 65.674 105.984 75.460 115.520 74.920 121.426 C 73.902 132.576 59.626 123.395 54.931 132.709 C 53.203 136.136 54.102 143.533 53.169 147.582 C 51.943 152.902 48.398 156.060 46.884 161.129 C 45.720 165.027 46.129 167.083 46.283 171.061" />
<path d="M 151.945 92.949 C 151.945 92.949 147.058 94.003 147.058 94.003 C 147.058 94.003 143.116 90.927 143.116 90.927 C 143.170 89.262 142.822 87.533 143.280 85.930 C 143.737 84.327 144.912 83.023 145.777 81.598 C 149.977 74.673 156.610 68.247 159.560 60.807 C 161.232 56.592 160.977 49.512 167.193 48.999 C 168.854 48.862 170.324 50.155 171.933 50.591 C 176.196 51.744 177.567 51.136 181.404 53.623 C 188.137 57.987 187.766 64.337 191.684 70.387 C 194.346 74.499 197.866 78.438 201.606 81.581 C 204.331 83.871 206.970 85.210 209.008 88.261 C 212.611 93.655 212.609 101.699 210.659 107.658 C 210.217 109.010 207.103 115.471 206.497 116.749" />
<path d="M 160.096 101.049 C 160.096 101.049 158.296 105.714 158.296 105.714 C 158.296 105.714 153.376 106.608 153.376 106.608 C 152.288 105.346 151.231 104.056 150.110 102.822 C 148.935 101.528 144.287 96.966 143.469 95.355 C 140.648 89.797 143.482 86.094 146.041 81.321 C 146.829 79.852 147.529 78.336 148.371 76.897 C 150.925 72.533 154.171 68.815 156.249 64.161 C 156.929 62.639 157.537 61.081 158.025 59.487 C 159.677 54.101 159.372 49.248 166.766 49.281 C 168.433 49.289 169.996 50.108 171.622 50.473 C 173.248 50.839 174.952 50.911 176.521 51.473 C 177.824 51.940 184.152 55.526 185.081 56.614 C 185.204 56.758 189.212 65.521 189.297 65.682 C 189.511 66.088 194.184 73.878 194.458 74.247 C 197.451 78.283 197.939 77.866 201.666 81.133 C 202.919 82.232 204.078 83.434 205.301 84.566 C 206.524 85.698 208.014 86.585 209.004 87.925 C 211.409 91.180 211.300 93.586 211.883 97.395" />
<path d="M 237.781 191.943 L 242.489 193.628" />
<path d="M 45.855 81.932 C 50.384 82.973 51.314 82.572 54.873 85.847 C 58.495 89.179 60.543 94.256 62.989 98.415 C 65.536 102.745 68.045 107.008 70.713 111.257 C 72.948 114.816 77.281 120.763 73.828 125.118 C 70.055 129.876 60.482 125.040 55.500 131.768 C 52.425 135.919 54.281 141.762 53.535 146.459 C 52.453 153.261 49.507 154.198 47.301 159.947 C 45.489 164.667 46.017 169.914 47.149 174.738 C 47.936 178.091 48.782 181.298 52.194 183.059 C 53.675 183.824 55.512 183.459 57.130 183.855 C 61.925 185.028 66.645 187.180 71.203 189.032" />
<path d="M 159.014 43.732 C 159.014 43.732 159.889 48.655 159.889 48.655 C 166.483 49.047 178.565 50.815 183.708 55.252 C 187.738 58.730 186.201 59.492 188.281 63.990 C 188.981 65.503 190.051 66.816 190.895 68.253 C 192.732 71.382 193.785 73.952 196.303 76.642 C 202.793 83.578 209.900 84.676 211.466 95.547 C 212.151 100.309 211.308 105.824 209.749 110.351 C 209.577 110.853 205.747 118.936 205.648 119.471 C 204.686 124.632 207.742 129.825 212.971 131.050 C 220.066 132.713 220.927 127.521 223.500 122.715 C 225.902 118.232 228.726 114.263 232.095 110.483" />
<path d="M 167.440 57.278 C 170.003 51.124 167.858 53.381 173.874 50.507 C 175.372 51.236 176.860 51.989 178.370 52.694 C 179.880 53.398 181.613 53.719 182.935 54.735 C 186.926 57.799 188.266 63.392 190.445 67.608 C 191.656 69.949 194.269 73.916 196.007 75.905 C 199.837 80.285 207.771 84.882 210.190 89.935 C 210.910 91.438 211.066 93.161 211.282 94.814 C 211.921 99.697 211.524 104.996 209.761 109.611 C 207.983 114.267 204.080 118.236 205.479 123.665 C 206.637 128.156 212.079 132.775 217.018 131.342 C 221.304 130.099 221.288 126.968 222.976 123.700 C 223.741 122.219 224.717 120.857 225.552 119.414 C 226.387 117.972 227.028 116.411 227.986 115.047 C 230.960 110.808 235.141 108.220 239.390 105.460" />
<path d="M 84.516 151.895 C 84.135 153.518 83.608 155.113 83.373 156.763 C 83.118 158.557 83.070 164.954 82.971 166.754 C 82.704 171.595 81.616 176.976 83.962 181.562 C 85.954 185.459 87.899 185.840 91.322 188.136 C 96.084 191.330 94.883 190.521 99.043 194.451" />
<path d="M 86.079 172.253 C 85.306 173.729 84.005 175.034 83.759 176.682 C 83.316 179.652 85.443 183.788 87.447 185.764 C 88.634 186.934 90.292 187.505 91.654 188.466 C 94.724 190.634 96.551 192.346 99.383 194.805" />
<path d="M 236.311 64.138 C 242.989 67.968 238.145 65.674 245.472 67.939 C 247.064 68.432 248.548 69.328 250.196 69.577 C 251.844 69.826 253.528 69.465 255.193 69.410" />
<path d="M 93.979 98.853 C 92.561 99.728 91.341 101.077 89.723 101.477 C 83.277 103.072 76.087 95.319 70.590 96.389 C 68.954 96.707 67.777 98.177 66.370 99.071 C 66.439 100.736 66.122 102.463 66.575 104.066 C 67.049 105.742 70.876 111.183 71.770 112.603 C 73.220 114.907 75.915 118.689 75.552 121.743 C 75.354 123.398 74.549 125.148 73.235 126.174 C 71.922 127.200 70.012 127.037 68.375 127.347 C 63.888 128.197 57.573 128.049 54.712 132.568 C 52.407 136.209 54.214 138.633 54.078 142.414 C 54.018 144.079 53.613 145.720 53.226 147.341 C 52.838 148.961 52.462 150.610 51.755 152.120 C 50.135 155.582 47.802 156.969 46.660 160.714 C 45.444 164.705 46.450 176.882 48.751 180.380 C 51.699 184.861 52.951 183.372 57.494 184.210 C 61.959 185.033 62.789 185.667 66.924 187.452" />
<path d="M 52.204 161.948 C 50.687 162.637 48.807 162.813 47.652 164.015 C 44.663 167.124 45.931 170.073 46.695 173.559 C 47.052 175.187 47.239 176.883 47.907 178.410 C 48.574 179.937 49.289 181.624 50.645 182.593 C 52.045 183.593 58.905 184.210 60.428 184.614 C 65.036 185.834 69.720 189.424 74.542 189.592 C 81.536 189.837 77.473 187.876 84.130 186.914 C 89.712 186.107 93.451 189.638 97.332 192.916" />
<path d="M 165.582 166.170 C 166.982 168.906 169.091 172.203 169.079 175.470 C 169.073 177.137 168.242 178.697 167.824 180.310 C 167.824 180.310 162.925 181.310 162.925 181.310 C 161.372 179.653 157.782 175.520 155.664 174.462 C 154.173 173.718 152.436 173.007 150.798 173.313 C 149.159 173.619 147.789 174.902 146.675 176.142 C 145.562 177.383 145.013 179.036 144.307 180.546 C 142.965 183.415 141.757 186.901 141.095 190.001 C 140.746 191.630 140.604 193.298 140.359 194.946" />
<path d="M 138.295 184.650 C 136.133 190.956 137.028 187.751 135.610 194.265" />
<path d="M 107.582 76.161 C 107.243 74.529 106.971 72.882 106.565 71.265 C 106.160 69.649 105.235 68.135 105.149 66.470 C 105.063 64.806 105.754 63.192 106.064 61.555 C 107.289 55.081 108.990 48.424 109.182 41.821 C 109.395 34.538 107.706 28.336 115.798 24.526 C 117.306 23.816 118.951 23.231 120.617 23.191 C 128.296 23.011 126.555 28.636 131.254 32.462 C 132.546 33.515 134.280 33.864 135.754 34.642 C 137.227 35.420 138.597 36.391 140.092 37.128 C 141.587 37.865 143.234 38.271 144.706 39.053 C 149.082 41.377 152.853 45.006 157.352 47.119 C 163.520 50.017 170.384 49.629 176.747 51.717 C 178.331 52.237 180.010 52.597 181.430 53.470 C 186.043 56.305 187.246 61.326 189.436 65.866 C 190.160 67.368 190.981 68.820 191.754 70.296" />
<path d="M 50.493 57.644 C 57.853 56.135 52.896 56.752 60.388 56.814 C 62.054 56.827 63.727 56.573 65.387 56.722 C 70.705 57.200 75.092 59.624 76.654 65.087 C 77.112 66.689 76.948 68.409 77.006 70.074 C 77.119 73.301 77.293 76.899 75.776 79.922 C 72.273 86.903 64.698 85.630 64.302 95.399 C 64.015 102.501 68.756 107.728 71.974 113.531 C 73.349 116.009 75.829 119.732 74.846 122.930 C 73.391 127.667 70.377 126.839 66.646 127.408 C 64.304 127.765 59.052 128.429 57.007 129.922 C 52.758 133.022 54.130 134.421 54.077 138.892 C 54.056 140.654 53.759 147.128 53.269 148.853 C 52.232 152.503 50.269 154.371 48.426 157.574 C 47.594 159.019 46.921 160.548 46.168 162.036" />
<path d="M 178.106 83.157 C 178.961 81.726 179.629 80.166 180.669 78.864 C 182.012 77.183 186.348 73.359 188.575 72.839 C 190.198 72.460 192.051 72.540 193.558 73.253 C 194.039 73.481 200.069 80.176 200.424 80.522 C 204.090 84.097 208.635 86.265 210.583 91.313 C 212.967 97.491 211.667 104.974 209.297 110.882 C 206.612 117.577 201.614 122.914 209.116 128.749 C 211.602 130.684 215.207 132.553 218.485 130.713 C 219.938 129.897 220.576 128.106 221.448 126.686 C 224.100 122.364 225.713 117.734 228.994 113.756 C 232.071 110.026 232.606 109.992 236.612 107.370 C 238.006 106.457 239.566 105.767 240.821 104.670 C 242.075 103.573 242.926 102.084 244.058 100.860 C 245.190 99.637 246.714 98.744 247.605 97.336 C 248.496 95.927 248.604 94.149 249.271 92.622 C 249.938 91.094 250.820 89.670 251.595 88.194" />
<path d="M 128.383 113.859 C 129.750 112.906 131.288 112.159 132.485 110.999 C 135.930 107.660 138.284 102.420 139.437 97.852 C 140.758 92.611 139.553 93.165 142.009 88.228 C 142.751 86.736 143.902 85.480 144.723 84.029 C 145.544 82.579 146.104 80.990 146.925 79.540 C 147.717 78.143 151.545 72.527 152.447 71.203 C 153.901 69.069 156.765 65.163 157.757 62.740 C 158.578 60.734 159.403 55.052 160.547 53.140 C 161.403 51.710 162.869 50.749 164.030 49.553 C 171.362 50.136 166.709 49.500 173.872 51.133 C 178.215 52.123 179.529 51.681 182.998 54.830 C 188.004 59.375 189.202 66.732 192.736 72.216 C 193.638 73.617 194.794 74.843 195.926 76.067 C 200.333 80.833 207.144 84.038 210.064 90.061 C 211.767 93.573 211.524 96.089 211.727 99.856" />
<path d="M 52.411 79.792 C 58.164 82.682 60.192 83.930 61.882 90.443 C 62.301 92.057 62.348 93.752 62.777 95.363 C 64.036 100.096 66.585 104.745 68.950 109.004 C 70.807 112.349 76.094 118.289 75.120 122.431 C 73.057 131.209 58.513 123.974 54.447 133.820 C 53.645 135.762 54.122 141.821 53.921 143.796 C 53.751 145.454 53.418 147.101 52.946 148.700 C 51.602 153.259 50.846 153.556 48.535 157.637 C 47.713 159.088 46.631 160.443 46.176 162.046 C 45.071 165.942 47.087 178.343 49.879 181.344 C 53.661 185.409 54.444 183.186 59.163 184.171 C 62.620 184.893 65.114 186.854 68.374 188.046 C 69.939 188.619 71.591 188.919 73.199 189.355" />
<path d="M 211.702 140.815 C 206.245 136.984 208.121 139.528 206.076 133.183 C 206.076 133.183 209.536 129.573 209.536 129.573 C 213.139 130.944 215.215 132.742 219.069 130.180 C 222.182 128.110 224.281 120.383 226.450 117.184 C 227.018 116.347 232.340 110.383 233.118 109.734 C 234.397 108.666 235.969 108.001 237.323 107.029 C 238.460 106.213 244.062 101.678 244.963 100.583 C 246.021 99.295 246.647 97.706 247.506 96.278 C 248.365 94.849 249.432 93.533 250.116 92.013 C 251.653 88.597 251.887 85.935 251.880 82.240 C 251.875 79.312 250.836 75.166 252.457 72.332 C 253.284 70.885 254.979 70.153 256.241 69.064" />
<path d="M 191.134 86.050 C 194.194 85.760 198.022 85.166 201.106 85.800 C 203.586 86.309 208.213 88.405 209.771 90.583 C 212.043 93.760 212.093 101.649 211.349 105.305 C 211.017 106.938 210.396 108.508 209.729 110.035 C 208.882 111.977 205.727 116.845 205.335 119.010 C 204.411 124.119 207.612 129.303 212.593 130.823 C 216.794 132.106 218.830 131.177 221.241 127.623 C 222.177 126.243 222.302 124.449 223.063 122.966 C 223.824 121.484 224.906 120.188 225.785 118.772 C 226.663 117.356 227.333 115.804 228.334 114.471 C 230.272 111.887 233.056 109.564 235.691 107.742 C 239.139 105.358 240.933 105.133 243.792 101.928 C 244.598 101.025 248.562 94.529 249.137 93.479 C 251.302 89.522 251.890 88.622 252.068 84.047 C 252.144 82.070 251.212 76.050 251.732 74.058 C 252.153 72.445 253.362 71.150 254.178 69.697" />
<path d="M 119.504 30.740 C 119.504 30.740 122.006 26.411 122.006 26.411 C 122.006 26.411 126.995 26.740 126.995 26.740 C 129.355 30.014 130.186 31.854 133.734 34.029 C 135.155 34.900 136.871 35.183 138.345 35.961 C 139.819 36.740 141.061 37.915 142.542 38.679 C 144.023 39.444 145.711 39.755 147.188 40.526 C 152.222 43.154 154.282 46.083 160.055 48.086 C 169.255 51.279 160.410 47.958 169.843 49.897 C 171.475 50.233 172.990 51.002 174.591 51.462 C 176.193 51.922 177.915 51.999 179.447 52.656 C 185.274 55.155 186.001 58.894 188.460 64.046 C 188.744 64.643 192.962 72.229 193.351 72.768 C 194.173 73.905 199.158 79.120 200.174 80.076 C 203.623 83.322 208.545 86.288 210.495 90.851 C 211.150 92.384 211.185 94.115 211.422 95.764 C 212.838 105.642 208.610 110.764 205.500 119.569" />
<path d="M 117.936 100.441 C 122.297 100.136 123.631 100.457 127.670 98.520 C 131.642 96.616 140.727 89.722 143.369 86.240 C 144.475 84.782 147.328 79.074 148.283 77.531 C 150.932 73.252 154.121 69.455 156.295 64.868 C 157.009 63.362 157.690 61.829 158.167 60.232 C 159.140 56.969 158.670 53.515 161.539 50.940 C 165.492 47.391 166.772 49.545 170.944 50.482 C 177.334 51.916 174.606 50.004 180.353 53.466 C 188.389 58.307 187.014 62.562 191.252 69.641 C 193.837 73.960 197.340 77.597 201.096 80.883 C 201.659 81.375 208.188 86.825 208.642 87.443 C 211.757 91.689 211.611 96.994 211.379 101.911" />
<path d="M 211.046 80.854 C 210.908 82.515 210.646 84.170 210.634 85.837 C 210.586 92.556 212.763 99.009 211.180 105.747 C 209.919 111.120 203.793 119.461 205.613 124.643 C 206.502 127.174 210.457 130.477 213.019 131.084 C 220.059 132.750 220.899 127.117 223.368 122.481 C 223.396 122.429 228.616 114.038 228.654 113.992 C 229.566 112.879 234.953 108.172 236.127 107.354 C 237.495 106.402 239.151 105.893 240.466 104.869 C 243.607 102.421 247.955 96.685 249.637 93.079 C 251.188 89.752 251.684 87.024 251.785 83.376 C 251.866 80.462 250.960 76.298 251.993 73.404 C 252.554 71.834 253.858 70.641 254.790 69.259" />
<path d="M 135.200 119.648 C 135.587 118.026 135.750 116.335 136.359 114.784 C 138.152 110.222 142.703 106.629 143.348 101.571 C 144.125 95.478 141.577 97.699 141.569 91.748 C 141.564 87.407 143.412 86.153 145.430 82.672 C 146.266 81.230 146.874 79.661 147.752 78.244 C 151.248 72.601 156.262 67.862 158.824 61.626 C 159.616 59.697 160.726 53.919 162.018 52.158 C 163.003 50.814 164.631 50.089 165.937 49.054 C 167.525 49.559 169.072 50.219 170.701 50.570 C 172.331 50.922 174.058 50.721 175.667 51.155 C 178.653 51.959 182.077 53.958 184.183 56.236 C 187.685 60.023 188.691 65.131 191.167 69.463 C 191.766 70.512 196.399 76.539 197.212 77.426 C 201.656 82.278 208.307 85.426 210.708 91.931 C 211.285 93.494 211.340 95.204 211.656 96.840" />
<path d="M 190.062 79.047 C 191.711 78.801 193.349 78.147 195.008 78.310 C 199.079 78.709 200.629 80.787 203.592 83.152 C 204.895 84.191 206.398 85.009 207.532 86.230 C 211.980 91.019 212.323 99.141 211.094 105.233 C 210.764 106.866 210.330 108.486 209.749 110.048 C 208.035 114.664 203.956 118.766 205.697 124.113 C 206.647 127.029 209.886 129.968 212.753 130.888 C 214.340 131.397 216.079 131.104 217.742 131.212 C 224.289 123.926 218.297 131.334 223.173 122.950 C 224.011 121.509 225.248 120.327 226.088 118.888 C 226.929 117.449 227.223 115.708 228.194 114.353 C 228.881 113.394 234.670 108.329 235.635 107.680 C 237.018 106.750 238.735 106.363 240.061 105.353 C 241.387 104.344 242.368 102.947 243.483 101.708 C 246.990 97.812 246.783 98.224 249.191 93.559 C 251.401 89.279 251.809 88.956 251.854 84.069 C 251.884 80.870 250.725 77.307 251.735 74.096 C 252.235 72.507 253.471 71.251 254.339 69.828" />
<path d="M 173.291 48.213 C 173.291 48.213 175.626 52.634 175.626 52.634 C 177.292 52.679 179.090 52.118 180.624 52.769 C 182.159 53.419 183.125 54.990 184.197 56.267 C 187.599 60.322 188.407 65.142 191.079 69.533 C 193.496 73.505 197.659 77.569 201.124 80.626 C 202.826 82.128 207.121 85.514 208.492 87.378 C 211.472 91.433 211.823 96.918 211.651 101.779 C 211.592 103.445 211.466 105.132 211.031 106.741 C 208.964 114.402 200.180 122.197 209.454 129.305 C 212.332 131.511 215.454 132.550 218.829 130.366 C 221.557 128.600 222.456 124.345 223.880 121.810 C 224.696 120.357 225.857 119.121 226.720 117.695 C 227.582 116.269 227.978 114.549 229.046 113.269 C 230.114 111.990 231.662 111.202 232.985 110.190 C 236.972 107.141 240.952 104.181 244.790 100.943" />
<path d="M 54.467 115.909 C 55.678 117.055 57.411 117.828 58.099 119.346 C 60.430 124.492 55.186 128.840 54.207 133.465 C 53.862 135.095 54.106 136.797 54.043 138.462 C 53.986 139.965 53.750 146.955 53.382 148.438 C 51.944 154.237 51.298 152.055 48.492 157.080 C 45.471 162.492 45.996 165.836 46.812 171.625 C 47.232 174.603 47.240 178.679 49.372 181.200 C 52.294 184.654 54.672 183.761 58.571 184.444 C 60.213 184.731 61.858 185.056 63.440 185.582 C 66.168 186.488 69.837 188.774 72.718 189.299 C 79.590 190.553 81.525 186.075 87.312 186.786 C 92.275 187.396 96.273 191.878 99.457 195.209" />
<path d="M 185.216 24.515 C 183.613 24.060 182.061 23.347 180.406 23.152 C 178.027 22.871 172.789 23.778 170.425 23.745 C 168.130 23.714 162.752 22.876 160.552 22.229 C 158.953 21.759 157.447 21.015 155.895 20.408" />
<path d="M 46.217 75.140 C 50.016 73.273 51.275 72.279 55.545 71.682 C 61.722 70.818 70.986 72.670 69.954 81.033 C 69.750 82.687 68.643 84.100 67.899 85.591 C 65.244 90.906 62.982 93.438 64.726 99.706 C 66.037 104.418 69.066 108.890 71.489 113.070 C 72.999 115.678 75.482 118.965 74.694 122.365 C 72.933 129.972 62.424 126.343 57.283 129.864 C 51.237 134.005 54.705 142.470 53.052 148.639 C 51.232 155.430 51.424 151.287 48.274 157.349 C 44.295 165.002 46.596 174.052 49.605 181.546" />
<path d="M 112.672 158.876 C 112.672 158.876 110.201 163.223 110.201 163.223 C 108.536 163.297 106.855 163.685 105.206 163.446 C 103.556 163.207 102.071 162.309 100.479 161.815 C 97.409 160.861 93.972 159.669 90.660 160.438 C 84.309 161.912 83.593 166.478 83.126 172.010 C 82.780 176.112 82.484 177.982 84.484 181.757 C 87.000 186.505 87.679 185.369 91.795 188.341 C 93.146 189.316 94.347 190.485 95.626 191.554 C 96.904 192.623 98.186 193.688 99.466 194.755" />
<path d="M 239.250 153.878 C 240.820 153.317 242.341 152.598 243.958 152.194 C 244.050 152.172 253.760 150.764 253.853 150.745 C 255.484 150.406 257.070 149.873 258.679 149.437" />
<path d="M 148.926 177.799 C 147.622 178.837 145.983 179.557 145.014 180.913 C 144.045 182.269 143.891 184.051 143.336 185.623 C 141.151 191.818 141.904 188.791 140.993 195.294" />
<path d="M 157.635 111.113 C 156.756 109.697 156.156 108.063 154.996 106.866 C 153.837 105.669 152.096 105.184 150.835 104.094 C 148.174 101.797 142.814 95.530 142.270 91.973 C 141.599 87.582 143.357 86.212 145.278 82.658 C 146.070 81.192 146.671 79.619 147.555 78.207 C 148.440 76.794 149.577 75.556 150.563 74.213 C 153.499 70.216 156.650 66.184 158.587 61.576 C 160.307 57.488 160.319 50.376 166.020 49.330 C 167.660 49.029 169.259 50.122 170.886 50.483 C 175.605 51.528 181.035 52.354 184.593 56.083 C 187.058 58.666 187.615 61.899 188.976 65.024 C 190.211 67.859 191.994 71.253 193.905 73.705 C 194.751 74.791 199.819 79.989 200.869 80.878 C 204.145 83.651 205.864 83.768 208.466 87.334 C 211.655 91.705 211.844 96.518 211.852 101.663" />
<path d="M 117.462 50.563 C 117.462 50.563 112.670 51.991 112.670 51.991 C 112.670 51.991 109.002 48.593 109.002 48.593 C 109.243 43.891 108.566 32.509 110.698 28.773 C 113.017 24.707 119.376 21.924 123.892 23.920 C 127.689 25.599 127.648 28.863 130.363 31.469 C 131.565 32.624 133.149 33.303 134.597 34.129 C 137.491 35.782 140.433 37.351 143.397 38.875 C 144.880 39.636 146.499 40.131 147.928 40.990 C 149.356 41.848 150.500 43.127 151.922 43.997 C 156.161 46.591 160.893 48.627 165.773 49.503 C 171.894 50.602 179.790 51.035 184.423 55.885 C 187.615 59.227 186.796 60.905 188.703 64.860 C 189.426 66.361 190.532 67.649 191.361 69.095 C 192.189 70.541 192.692 72.180 193.668 73.531 C 196.345 77.235 201.147 80.817 204.687 83.681" />
</svg>
