<svg xmlns="http://www.w3.org/2000/svg" viewBox="0 0 279 216">
<path d="M 235.172 61.266 C 236.204 62.575 236.851 64.315 238.267 65.193 C 245.074 69.413 250.149 69.620 257.502 69.312" />
<path d="M 114.190 107.612 C 117.518 107.578 120.986 108.466 124.174 107.509 C 138.099 103.328 155.750 67.639 157.401 64.867 C 159.952 60.588 160.207 55.165 162.887 50.965 C 165.727 46.514 175.552 51.063 177.091 51.771 C 190.452 57.924 184.630 60.390 194.958 74.688 C 199.796 81.386 205.898 87.075 211.368 93.269" />
<path d="M 91.585 110.459 C 91.068 111.423 86.152 125.341 80.433 126.489 C 79.172 126.742 61.359 125.691 56.236 130.828 C 51.402 135.675 54.118 145.226 52.874 150.111 C 52.053 153.338 48.971 155.609 47.850 158.744 C 46.244 163.237 45.110 179.806 51.039 182.401 C 58.657 185.734 66.590 188.813 74.837 189.881 C 79.717 190.513 84.510 186.693 89.385 187.367 C 92.664 187.820 94.829 191.135 97.551 193.019" />
<path d="M 146.650 159.097 C 148.022 160.044 149.588 160.757 150.766 161.936 C 158.763 169.939 147.345 171.549 144.940 177.914 C 143.176 182.584 142.233 187.524 140.880 192.329" />
<path d="M 50.940 63.993 C 58.681 63.297 81.263 59.984 74.950 77.406 C 72.398 84.449 61.772 89.519 64.342 98.996 C 66.505 106.974 72.416 113.548 74.920 121.426 C 77.808 130.513 57.368 124.006 54.931 132.709 C 53.585 137.516 54.529 142.779 53.169 147.582 C 51.813 152.372 48.285 156.352 46.884 161.129 C 45.951 164.312 46.483 167.750 46.283 171.061" />
<path d="M 151.945 92.949 C 128.549 97.997 156.545 66.652 157.320 65.277 C 157.921 64.212 160.201 48.869 167.193 48.999 C 170.520 49.060 173.789 50.253 176.828 51.607 C 190.849 57.849 181.304 56.798 191.684 70.387 C 210.509 95.034 218.507 84.696 206.497 116.749" />
<path d="M 160.096 101.049 C 159.496 102.604 159.580 104.652 158.296 105.714 C 151.633 111.226 140.429 94.928 142.239 90.508 C 146.010 81.304 152.004 73.157 156.249 64.161 C 157.079 62.403 158.655 52.711 161.900 50.429 C 167.628 46.401 181.394 51.933 185.081 56.614 C 189.200 61.844 190.416 68.957 194.458 74.247 C 212.048 97.270 203.456 69.674 211.883 97.395" />
<path d="M 237.781 191.943 L 242.489 193.628" />
<path d="M 45.855 81.932 C 60.863 85.380 80.768 121.301 73.828 125.118 C 70.270 127.075 56.857 127.503 55.500 131.768 C 53.497 138.056 54.136 144.963 52.331 151.312 C 50.977 156.075 47.176 159.966 46.107 164.802 C 45.128 169.226 47.722 180.402 52.194 183.059 C 57.904 186.452 64.867 187.041 71.203 189.032" />
<path d="M 159.014 43.732 C 161.773 59.266 175.033 45.004 183.708 55.252 C 189.053 61.568 191.345 70.018 196.303 76.642 C 200.256 81.925 207.254 84.815 210.235 90.700 C 217.255 104.563 198.363 119.232 208.563 128.689 C 220.925 140.150 229.240 114.608 232.095 110.483" />
<path d="M 167.440 57.278 C 176.852 34.674 193.597 72.791 196.007 75.905 C 200.078 81.163 207.110 84.041 210.190 89.935 C 217.604 104.117 201.387 116.005 205.479 123.665 C 216.653 144.581 222.540 121.794 227.986 115.047 C 231.105 111.182 235.589 108.655 239.390 105.460" />
<path d="M 84.516 151.895 C 82.696 159.647 79.312 179.011 87.106 185.449 C 89.675 187.572 92.748 189.011 95.409 191.017 C 96.739 192.021 97.832 193.306 99.043 194.451" />
<path d="M 86.079 172.253 C 85.306 173.729 84.005 175.034 83.759 176.682 C 83.316 179.652 85.443 183.788 87.447 185.764 C 88.634 186.934 90.325 187.460 91.654 188.466 C 94.310 190.478 96.807 192.692 99.383 194.805" />
<path d="M 236.311 64.138 C 241.821 67.298 242.488 68.102 250.196 69.577 C 251.833 69.891 253.528 69.465 255.193 69.410" />
<path d="M 93.979 98.853 C 81.217 106.722 70.906 90.397 66.370 99.071 C 63.866 103.860 75.068 120.137 75.552 121.743 C 78.087 130.158 56.875 125.415 54.712 132.568 C 53.279 137.305 54.587 142.582 53.226 147.341 C 51.860 152.115 47.690 155.856 46.660 160.714 C 45.630 165.577 46.707 170.673 47.233 175.617 C 48.293 185.591 59.335 185.454 66.924 187.452" />
<path d="M 52.204 161.948 C 50.687 162.637 48.807 162.813 47.652 164.015 C 43.914 167.903 46.599 174.671 47.907 178.410 C 48.457 179.983 49.152 181.853 50.645 182.593 C 53.629 184.071 57.233 183.678 60.428 184.614 C 65.216 186.016 69.576 189.111 74.542 189.592 C 90.245 191.116 78.305 179.938 97.332 192.916" />
<path d="M 165.582 166.170 C 166.982 168.906 169.091 172.203 169.079 175.470 C 169.069 178.248 167.794 183.652 162.925 181.310 C 158.836 179.344 156.705 172.209 150.798 173.313 C 143.841 174.613 141.154 189.598 140.359 194.946" />
<path d="M 138.295 184.650 C 136.133 190.956 137.028 187.751 135.610 194.265" />
<path d="M 107.582 76.161 C 103.426 59.610 99.649 27.891 120.617 23.191 C 127.351 21.682 127.310 29.638 131.254 32.462 C 139.365 38.272 148.148 43.266 157.352 47.119 C 188.211 60.039 178.752 44.003 191.754 70.296" />
<path d="M 50.493 57.644 C 57.092 57.664 63.943 55.897 70.290 57.703 C 77.820 59.845 79.876 74.514 75.776 79.922 C 75.340 80.497 62.537 89.399 64.302 95.399 C 67.340 105.724 81.231 122.957 71.600 126.732 C 69.344 127.616 55.358 126.858 53.969 133.893 C 48.312 162.544 60.018 136.325 46.168 162.036" />
<path d="M 178.106 83.157 C 180.236 80.491 184.031 73.900 188.575 72.839 C 200.605 70.031 213.612 90.208 211.637 101.213 C 210.466 107.735 207.012 113.663 205.416 120.095 C 205.015 121.713 204.728 123.741 205.713 125.086 C 218.400 142.425 222.045 121.721 228.994 113.756 C 251.425 88.046 240.742 113.061 251.595 88.194" />
<path d="M 128.383 113.859 C 130.746 111.569 133.927 109.895 135.471 106.989 C 149.708 80.212 132.423 80.560 164.030 49.553 C 164.091 49.493 179.989 50.513 182.998 54.830 C 186.797 60.279 188.689 66.949 192.736 72.216 C 213.166 98.810 208.212 79.149 211.727 99.856" />
<path d="M 52.411 79.792 C 55.032 81.765 58.599 82.889 60.272 85.710 C 62.816 89.999 62.575 95.453 64.444 100.076 C 67.540 107.732 72.815 114.502 75.120 122.431 C 77.344 130.079 56.827 124.254 54.447 133.820 C 53.243 138.657 54.348 143.916 52.946 148.700 C 51.544 153.487 47.102 157.144 46.176 162.046 C 41.940 184.490 56.536 184.589 73.199 189.355" />
<path d="M 211.702 140.815 C 209.233 139.082 200.929 131.511 209.536 129.573 C 213.437 128.694 214.917 134.992 219.069 130.180 C 223.397 125.163 225.343 118.375 229.705 113.389 C 234.077 108.391 240.703 105.676 244.963 100.583 C 257.329 85.793 245.482 78.356 256.241 69.064" />
<path d="M 191.134 86.050 C 194.458 85.967 197.875 85.014 201.106 85.800 C 230.861 93.036 190.045 123.940 212.593 130.823 C 222.524 133.855 224.148 119.240 228.334 114.471 C 242.124 98.758 242.382 108.074 249.137 93.479 C 253.505 84.039 249.523 77.996 254.178 69.697" />
<path d="M 119.504 30.740 C 126.030 19.450 127.151 29.526 133.734 34.029 C 140.577 38.709 147.805 42.932 155.429 46.188 C 164.527 50.074 175.557 49.673 183.659 55.351 C 189.099 59.164 189.344 67.468 193.351 72.768 C 212.586 98.212 218.398 87.533 205.500 119.569" />
<path d="M 117.936 100.441 C 140.024 96.083 146.235 84.412 156.295 64.868 C 158.565 60.457 158.916 55.151 161.539 50.940 C 165.067 45.274 181.742 53.053 184.431 56.359 C 188.614 61.503 190.102 68.467 194.175 73.698 C 213.703 98.769 206.296 75.045 211.379 101.911" />
<path d="M 211.046 80.854 C 211.091 89.152 212.345 97.531 211.180 105.747 C 210.024 113.906 200.447 121.419 208.689 128.585 C 209.946 129.679 211.398 130.700 213.019 131.084 C 223.050 133.458 223.399 120.058 228.654 113.992 C 248.050 91.599 233.438 117.883 249.637 93.079 C 252.757 88.301 251.507 76.030 251.993 73.404 C 252.297 71.765 253.858 70.641 254.790 69.259" />
<path d="M 135.200 119.648 C 137.916 113.622 141.877 108.014 143.348 101.571 C 145.466 92.293 138.689 93.889 142.741 86.888 C 146.908 79.686 152.416 73.304 156.454 66.029 C 158.937 61.556 160.792 49.432 165.937 49.054 C 183.760 47.743 185.740 62.598 194.109 73.505 C 211.883 96.667 204.159 76.532 211.656 96.840" />
<path d="M 190.062 79.047 C 205.651 76.722 213.584 90.269 211.094 105.233 C 209.021 117.692 198.067 122.232 212.753 130.888 C 221.606 136.106 227.712 114.912 228.194 114.353 C 235.761 105.586 248.611 102.058 251.335 89.042 C 255.318 70.007 245.308 84.632 254.339 69.828" />
<path d="M 173.291 48.213 C 178.520 58.113 179.118 48.124 184.197 56.267 C 186.833 60.494 188.096 65.543 191.079 69.533 C 197.017 77.475 206.095 83.084 210.781 91.823 C 218.125 105.518 200.714 113.792 206.182 125.524 C 215.328 145.145 226.842 115.768 229.046 113.269 C 233.456 108.271 239.542 105.052 244.790 100.943" />
<path d="M 54.467 115.909 C 63.034 124.015 56.266 123.348 54.207 133.465 C 53.210 138.363 54.680 143.610 53.382 148.438 C 52.093 153.235 47.638 156.853 46.613 161.714 C 46.515 162.179 46.336 179.671 49.372 181.200 C 56.730 184.902 64.569 188.099 72.718 189.299 C 77.602 190.018 82.492 185.721 87.312 186.786 C 92.122 187.849 95.408 192.401 99.457 195.209" />
<path d="M 185.216 24.515 C 176.085 21.928 184.297 23.684 170.425 23.745 C 165.319 23.768 160.567 22.235 155.895 20.408" />
<path d="M 46.217 75.140 C 56.275 72.625 61.041 68.029 69.069 76.112 C 70.243 77.294 70.389 79.424 69.954 81.033 C 68.654 85.842 63.462 89.805 64.030 94.754 C 65.154 104.556 72.332 112.786 74.694 122.365 C 76.662 130.341 56.139 124.526 54.072 133.698 C 52.975 138.567 54.325 143.812 53.052 148.639 C 51.786 153.439 47.110 157.121 46.593 162.058 C 45.908 168.595 48.601 175.050 49.605 181.546" />
<path d="M 112.672 158.876 C 111.848 160.325 111.622 162.353 110.201 163.223 C 104.370 166.791 93.799 155.381 86.191 162.679 C 84.988 163.832 84.136 165.426 83.766 167.051 C 80.103 183.121 87.497 185.682 99.466 194.755" />
<path d="M 239.250 153.878 C 240.820 153.317 242.329 152.544 243.958 152.194 C 247.217 151.495 250.576 151.359 253.853 150.745 C 255.491 150.438 257.070 149.873 258.679 149.437" />
<path d="M 148.926 177.799 C 147.622 178.837 145.847 179.469 145.014 180.913 C 141.923 186.269 141.754 189.865 140.993 195.294" />
<path d="M 157.635 111.113 C 134.605 86.050 139.910 95.966 156.297 66.020 C 159.104 60.890 160.273 49.596 166.020 49.330 C 169.350 49.176 172.650 50.354 175.783 51.493 C 191.376 57.162 181.257 57.149 193.905 73.705 C 209.392 93.979 209.435 80.198 211.852 101.663" />
<path d="M 117.462 50.563 C 115.865 51.039 114.293 52.369 112.670 51.991 C 102.990 49.738 108.337 17.886 123.892 23.920 C 126.982 25.119 127.668 29.540 130.363 31.469 C 137.120 36.309 144.347 40.576 151.922 43.997 C 162.435 48.746 175.006 49.223 184.423 55.885 C 189.844 59.720 189.756 68.165 193.668 73.531 C 196.610 77.566 201.014 80.298 204.687 83.681" />
</svg>
