<svg xmlns="http://www.w3.org/2000/svg" viewBox="0 0 279 216">
<path d="M 157.000 143.000 C 158.545 144.150 168.405 152.057 170.400 150.436 C 172.531 148.705 166.991 134.338 166.239 132.174 C 159.874 113.870 153.764 95.526 148.189 76.964 C 147.319 74.068 142.887 56.394 139.779 55.547 C 136.977 54.784 133.176 69.176 132.616 71.018 C 126.677 90.544 120.577 109.962 113.832 129.228 C 112.955 131.732 105.633 150.041 109.105 150.674 C 112.663 151.324 123.949 141.459 126.665 139.385 C 141.249 128.249 156.018 117.415 171.113 106.979 C 176.089 103.539 181.222 100.220 185.909 96.384 C 186.836 95.625 190.246 93.262 189.412 91.609 C 188.112 89.031 169.768 90.167 167.103 90.236 C 147.668 90.734 128.276 90.664 108.841 90.205 C 106.372 90.147 90.850 89.169 89.531 91.607 C 88.167 94.127 103.251 103.686 105.131 104.975 C 122.058 116.580 138.582 128.642 154.885 141.107 C 156.532 142.366 168.563 152.112 170.533 150.576 C 172.524 149.024 166.838 134.524 166.113 132.496 C 159.186 113.125 152.745 93.657 146.922 73.924 C 146.269 71.714 141.873 54.544 139.190 55.243 C 136.528 55.937 132.835 71.190 132.130 73.633 C 126.704 92.442 120.801 111.053 114.216 129.490 C 113.405 131.760 106.597 149.172 108.435 150.821 C 110.347 152.537 124.269 140.805 126.096 139.370 C 141.550 127.237 157.353 115.652 173.599 104.602 C 176.185 102.844 189.469 95.020 189.924 91.835 C 190.225 89.724 182.435 90.126 181.380 90.142 C 170.787 90.304 160.205 91.014 149.612 91.233 C 133.979 91.557 118.380 91.114 102.757 90.641 C 100.831 90.582 90.101 89.785 88.909 91.616 C 87.895 93.173 94.774 97.571 95.713 98.213 C 104.668 104.326 113.841 110.109 122.747 116.298 C 134.758 124.646 146.366 133.515 157.883 142.528 C 159.206 143.563 163.297 147.185 166.729 149.362 C 168.919 150.751 171.478 148.825 170.813 146.320 C 169.340 140.772 165.581 132.328 164.851 130.426 C 157.731 111.862 151.452 93.046 146.025 73.918 C 145.603 72.430 143.814 65.041 141.948 59.805 C 140.807 56.604 137.085 56.663 136.003 59.914 C 134.131 65.539 132.631 73.672 132.005 76.051 C 127.204 94.309 121.581 112.303 115.075 130.026 C 114.243 132.293 110.991 139.402 109.219 145.011 C 108.086 148.595 111.201 150.780 114.196 148.548 C 119.415 144.657 126.240 138.537 127.562 137.445 C 143.013 124.686 159.130 112.846 175.847 101.801 C 177.178 100.921 182.902 97.568 186.828 94.632 C 189.271 92.806 188.221 89.849 185.163 89.873 C 178.356 89.927 167.517 91.265 165.351 91.410 C 147.453 92.605 129.522 92.864 111.597 92.157 C 107.475 91.995 91.394 90.031 87.864 91.799 C 87.813 91.824 87.753 91.892 87.730 91.947 C 87.711 91.992 87.692 92.036 87.673 92.081 C 87.649 92.136 87.646 92.224 87.669 92.275 C 88.993 95.131 104.108 103.145 106.930 104.878 C 123.280 114.918 139.009 125.896 154.035 137.828 C 156.407 139.712 169.367 151.308 172.184 151.530 C 172.236 151.535 172.309 151.499 172.346 151.456 C 172.376 151.421 172.406 151.387 172.436 151.352 C 172.473 151.309 172.506 151.231 172.509 151.177 C 172.699 146.754 165.273 133.020 163.473 128.733 C 156.448 111.998 150.428 94.865 145.505 77.395 C 145.049 75.777 142.981 66.773 141.068 60.225 C 139.902 56.235 136.677 56.277 135.720 60.320 C 134.134 67.020 132.636 76.290 132.193 78.226 C 128.113 96.026 122.886 113.546 116.503 130.656 C 115.087 134.454 108.042 149.536 108.200 153.147 C 108.202 153.191 108.233 153.251 108.268 153.281 C 108.297 153.306 108.325 153.330 108.353 153.355 C 108.388 153.386 108.451 153.404 108.493 153.393 C 111.680 152.593 123.286 140.314 125.990 137.888 C 139.665 125.622 154.169 114.295 169.427 104.063 C 172.411 102.062 190.148 92.076 191.579 89.445 C 191.598 89.411 191.590 89.354 191.564 89.320 C 191.544 89.292 191.523 89.264 191.502 89.236 C 191.477 89.201 191.424 89.165 191.385 89.157 C 187.074 88.264 168.551 91.871 163.393 92.387 C 146.180 94.109 128.850 94.643 111.565 93.937 C 109.346 93.847 94.468 92.228 88.450 92.322 C 87.087 92.344 86.629 93.648 87.793 94.352 C 89.528 95.401 91.978 96.220 93.089 96.785 C 99.489 100.041 105.832 103.402 112.054 106.992 C 127.124 115.688 141.564 125.487 155.175 136.327 C 159.099 139.453 162.943 142.675 166.733 145.961 C 168.916 147.855 171.288 150.724 173.972 151.944 C 174.001 151.957 174.048 151.956 174.077 151.942 C 174.100 151.931 174.123 151.920 174.146 151.909 C 174.175 151.895 174.196 151.859 174.193 151.828 C 173.858 148.456 169.416 142.295 167.859 139.272 C 163.432 130.671 159.375 121.884 155.711 112.931 C 150.176 99.402 145.496 85.517 141.805 71.372 C 140.828 67.625 138.876 54.686 137.066 51.818 C 137.052 51.796 137.020 51.788 136.995 51.799 C 136.974 51.809 136.954 51.818 136.934 51.827 C 136.908 51.839 136.880 51.870 136.871 51.896 C 135.858 54.804 135.951 58.368 135.570 61.392 C 134.935 66.445 134.186 71.483 133.301 76.499 C 130.691 91.287 127.024 105.893 122.366 120.168 C 119.538 128.832 116.328 137.371 112.698 145.732 C 112.141 147.015 110.453 149.951 109.409 152.380 C 108.720 153.981 109.787 154.672 110.966 153.387 C 112.757 151.433 114.752 148.680 115.687 147.654 C 121.854 140.887 128.363 134.438 135.153 128.298 C 147.250 117.356 160.203 107.319 173.917 98.481 C 179.943 94.598 186.650 91.566 192.532 87.511 C 192.547 87.500 192.563 87.478 192.568 87.460 C 192.572 87.446 192.576 87.432 192.580 87.417 C 192.585 87.400 192.574 87.386 192.556 87.387 C 188.056 87.630 183.207 89.654 178.805 90.570 C 169.156 92.577 159.390 94.010 149.582 94.963 C 133.600 96.517 117.456 96.861 101.436 95.672 C 95.624 95.241 89.847 94.050 84.050 93.676 C 84.039 93.675 84.034 93.683 84.037 93.693 C 84.040 93.701 84.043 93.709 84.046 93.717 C 84.049 93.727 84.060 93.738 84.070 93.743 C 90.679 96.563 97.449 98.878 103.973 101.950 C 129.040 113.755 152.150 129.281 172.306 148.216 C 174.644 150.413 175.084 150.056 173.280 147.402 C 170.745 143.671 168.170 139.974 165.888 136.042 C 155.575 118.271 147.415 99.137 141.499 79.467 C 139.890 74.116 136.421 63.077 135.403 55.280 C 135.035 52.458 135.513 52.430 135.551 55.280 C 135.605 59.310 135.190 63.436 134.890 67.311 C 133.308 87.783 128.941 108.151 122.452 127.617 C 119.548 136.326 115.055 150.588 109.197 157.853 C 109.192 157.860 109.180 157.863 109.172 157.859 C 109.165 157.856 109.158 157.853 109.151 157.850 C 109.143 157.847 109.139 157.837 109.142 157.828 C 112.259 150.434 119.127 143.597 124.368 137.745 C 137.546 123.029 152.588 109.825 168.874 98.646 C 172.845 95.919 185.540 87.218 191.824 85.299 C 192.758 85.014 193.058 85.599 192.196 86.019 C 190.862 86.668 188.969 87.162 188.308 87.409 C 181.827 89.839 175.097 91.630 168.348 93.138 C 146.584 97.998 123.850 99.983 101.585 98.486 C 99.696 98.359 92.653 97.995 87.446 97.108 C 84.172 96.551 84.511 95.054 87.730 95.901 C 94.924 97.794 105.813 102.257 108.335 103.327 C 127.931 111.640 146.653 122.675 163.211 136.070 C 167.681 139.685 177.057 146.539 179.311 152.094 C 179.322 152.121 179.320 152.165 179.307 152.192 C 179.296 152.214 179.285 152.235 179.274 152.257 C 179.261 152.284 179.228 152.298 179.202 152.288 C 175.442 150.928 167.557 138.908 165.429 135.719 C 152.837 116.852 143.123 95.665 136.874 73.867 C 135.649 69.593 130.861 52.828 132.713 48.539 C 132.726 48.509 132.765 48.486 132.800 48.487 C 132.828 48.489 132.856 48.490 132.883 48.491 C 132.918 48.492 132.961 48.516 132.979 48.545 C 135.573 52.627 134.973 66.512 134.829 71.133 C 134.155 92.733 130.029 114.487 123.010 134.916 C 121.814 138.399 114.036 159.385 110.241 160.680 C 110.200 160.694 110.146 160.671 110.121 160.633 C 110.101 160.601 110.081 160.570 110.061 160.539 C 110.036 160.500 110.018 160.432 110.022 160.387 C 110.503 154.256 118.543 144.523 122.067 139.898 C 135.280 122.558 151.497 107.129 169.369 94.657 C 174.153 91.319 187.875 81.693 194.041 81.845 C 194.092 81.846 194.167 81.874 194.208 81.907 C 194.242 81.933 194.275 81.959 194.308 81.985 C 194.349 82.017 194.373 82.083 194.358 82.131 C 193.040 86.353 171.481 92.808 167.802 93.853 C 146.701 99.851 124.285 102.715 102.353 101.727 C 97.624 101.514 83.114 101.216 79.451 97.492 C 79.414 97.455 79.386 97.379 79.388 97.325 C 79.390 97.282 79.392 97.238 79.394 97.195 C 79.396 97.140 79.433 97.073 79.478 97.045 C 83.304 94.687 97.985 99.393 101.764 100.549 C 124.124 107.389 145.669 118.602 164.241 132.791 C 167.643 135.390 182.617 146.803 182.566 151.779 C 182.565 151.839 182.523 151.915 182.473 151.951 C 182.434 151.980 182.394 152.009 182.354 152.038 C 182.305 152.074 182.217 152.098 182.158 152.090 C 176.879 151.369 168.074 139.395 165.168 135.604 C 151.608 117.915 141.075 97.424 134.235 76.226 C 131.914 69.036 129.888 61.581 129.174 54.035 C 129.059 52.823 128.681 50.562 128.973 48.812 C 129.173 47.614 130.897 47.336 131.442 48.407 C 133.716 52.882 134.695 65.381 134.829 67.607 C 136.335 92.505 132.436 118.522 124.029 141.987 C 123.384 143.790 120.012 152.508 116.646 158.330 C 114.598 161.871 111.100 160.099 112.685 156.287 C 115.356 149.866 120.650 141.662 122.025 139.592 C 135.260 119.672 152.783 101.748 172.597 88.329 C 176.453 85.718 189.423 76.772 194.589 78.381 C 194.664 78.405 194.760 78.481 194.803 78.549 C 194.838 78.603 194.873 78.658 194.908 78.712 C 194.951 78.780 194.978 78.898 194.962 78.975 C 193.985 83.820 178.920 90.013 175.118 91.582 C 152.847 100.777 127.970 105.426 103.893 105.232 C 99.411 105.196 79.692 104.865 77.001 100.029 C 76.959 99.954 76.946 99.822 76.967 99.737 C 76.983 99.669 77.000 99.601 77.016 99.533 C 77.037 99.448 77.106 99.333 77.173 99.279 C 81.581 95.724 97.028 99.427 101.760 100.528 C 124.136 105.735 145.917 115.731 164.722 128.891 C 167.178 130.610 177.271 138.028 182.675 144.243 C 185.494 147.485 182.189 151.127 178.760 148.592 C 173.189 144.474 166.628 137.342 165.140 135.651 C 148.977 117.289 136.281 94.780 129.023 71.414 C 128.083 68.386 123.365 51.869 125.596 46.706 C 125.987 45.800 127.632 45.536 128.342 46.235 C 129.336 47.213 129.953 48.765 130.442 49.922 C 132.772 55.419 133.845 61.499 134.626 67.383 C 137.864 91.779 135.321 117.724 128.072 141.205 C 125.828 148.472 123.122 155.950 118.876 162.320 C 117.935 163.731 115.963 166.991 113.870 166.920 C 111.450 166.837 112.746 161.423 112.991 160.328 C 114.629 153.002 118.208 146.028 121.907 139.560 C 134.212 118.042 151.748 98.363 172.096 84.153 C 177.164 80.614 182.600 77.188 188.474 75.149 C 189.973 74.629 193.558 73.243 194.994 74.726 C 196.729 76.517 192.453 80.177 191.452 81.073 C 185.685 86.233 178.534 89.953 171.552 93.159 C 148.893 103.564 122.938 109.434 97.962 108.887 C 91.880 108.754 85.522 108.322 79.699 106.417 C 78.441 106.006 73.423 104.357 74.774 102.061 C 75.962 100.044 79.787 99.750 81.769 99.534 C 88.304 98.820 95.027 99.533 101.485 100.567 C 126.349 104.544 151.235 114.723 171.740 129.341 C 177.657 133.559 183.840 138.362 188.006 144.416 C 188.824 145.605 191.567 149.774 188.915 150.701 C 187.158 151.314 184.846 150.238 183.313 149.520 C 177.739 146.909 172.819 142.777 168.331 138.636 C 149.721 121.461 135.039 98.665 126.271 74.961 C 123.529 67.551 121.054 59.590 120.787 51.629 C 120.730 49.904 120.474 44.374 123.245 44.110 C 125.494 43.895 127.327 47.280 128.189 48.822 C 131.289 54.373 132.960 60.775 134.244 66.953 C 139.436 91.946 138.126 119.306 131.198 143.835 C 129.079 151.338 126.418 159.199 121.879 165.631 C 120.871 167.060 117.760 171.451 115.428 169.760 C 113.481 168.349 113.963 164.490 114.188 162.525 C 114.934 156.010 117.344 149.644 119.976 143.687 C 130.368 120.163 147.497 98.441 167.704 82.570 C 173.751 77.821 180.495 73.043 187.906 70.693 C 189.635 70.144 194.598 68.680 195.291 71.586 C 195.885 74.078 193.224 76.974 191.751 78.595 C 187.207 83.596 181.399 87.495 175.620 90.911 C 153.326 104.090 126.509 111.894 100.633 112.823 C 93.062 113.095 84.827 113.000 77.600 110.414 C 75.853 109.789 72.335 108.453 72.388 106.056 C 72.442 103.659 76.020 102.498 77.792 101.961 C 83.844 100.128 90.509 100.120 96.762 100.431 C 124.089 101.794 152.508 111.606 175.147 126.902 C 181.327 131.078 187.917 135.978 192.036 142.334 C 193.049 143.897 194.918 147.044 193.276 148.839 C 191.581 150.692 187.920 149.509 186.005 148.849 C 179.836 146.723 174.245 142.765 169.181 138.746 C 147.604 121.621 129.983 96.902 120.637 71.006 C 119.476 67.789 112.047 44.043 119.398 43.157 C 126.027 42.358 132.404 62.031 133.643 66.360 C 140.913 91.766 141.069 120.459 134.652 146.055 C 132.701 153.837 130.122 162.119 125.341 168.687 C 124.005 170.522 120.784 174.571 118.030 172.761 C 112.136 168.887 118.398 149.260 120.092 144.511 C 129.030 119.451 145.714 95.784 166.122 78.741 C 172.198 73.668 179.129 68.496 186.817 66.181 C 189.067 65.504 193.906 64.399 194.891 67.628 C 197.068 74.762 180.616 87.008 176.024 90.196 C 154.026 105.465 126.459 115.134 99.738 116.905 C 91.952 117.422 83.326 117.535 75.896 114.756 C 73.598 113.896 69.356 111.808 70.668 108.612 C 73.327 102.135 90.249 101.205 95.818 101.061 C 122.736 100.364 151.101 108.249 174.346 121.683 C 181.688 125.926 189.270 130.986 194.542 137.757 C 196.175 139.854 199.307 144.267 196.998 146.956 C 192.143 152.609 174.369 141.563 170.301 138.805 C 147.852 123.589 129.164 100.503 118.179 75.772 C 114.777 68.113 111.623 59.592 111.493 51.100 C 111.452 48.405 111.711 43.150 115.262 42.552 C 122.915 41.264 130.918 60.573 132.792 65.651 C 142.240 91.265 144.078 121.166 138.370 147.826 C 137.213 153.233 130.849 177.394 122.230 176.055 C 118.568 175.486 117.799 170.073 117.553 167.216 C 116.799 158.463 119.028 149.390 121.668 141.122 C 129.988 115.070 146.261 89.627 167.472 72.203 C 172.702 67.906 178.627 63.648 185.197 61.686 C 187.393 61.031 190.250 60.442 192.400 61.616 C 195.669 63.399 194.183 67.975 192.967 70.538 C 189.425 78.007 182.768 84.094 176.457 89.204 C 154.980 106.590 126.858 118.281 99.358 121.085 C 92.042 121.831 84.285 122.060 77.109 120.171 C 74.275 119.424 70.246 118.091 69.040 115.057 C 67.637 111.527 71.759 108.640 74.336 107.239 C 81.799 103.182 90.938 102.052 99.280 101.563 C 127.013 99.936 156.937 106.787 180.969 120.796 C 187.835 124.799 195.334 129.779 199.651 136.658 C 201.021 138.842 202.543 142.223 200.691 144.605 C 198.739 147.115 194.640 146.919 191.869 146.553 C 184.724 145.607 177.864 142.298 171.680 138.757 C 146.223 124.182 124.079 99.564 112.293 72.700 C 109.147 65.529 106.013 57.104 106.747 49.113 C 107.036 45.964 108.467 41.934 112.335 42.250 C 115.102 42.476 117.593 44.460 119.515 46.289 C 124.875 51.390 128.623 58.217 131.667 64.877 C 143.365 90.476 147.083 121.423 142.288 149.119 C 140.828 157.547 138.580 166.720 133.498 173.782 C 131.630 176.378 128.125 180.095 124.532 178.340 C 121.452 176.835 120.334 172.649 119.774 169.600 C 118.404 162.135 119.337 154.230 120.783 146.854 C 126.228 119.077 141.266 91.504 161.567 71.793 C 167.627 65.910 174.818 59.821 183.044 57.281 C 186.170 56.316 191.065 55.650 192.790 59.309 C 193.925 61.716 193.222 64.701 192.374 67.065 C 189.966 73.777 185.067 79.620 180.175 84.668 C 160.385 105.092 132.121 119.265 104.291 124.497 C 95.309 126.186 85.463 127.255 76.465 125.040 C 73.083 124.207 67.794 122.341 67.463 118.143 C 67.199 114.791 70.335 112.084 72.811 110.409 C 78.877 106.304 86.418 104.350 93.531 103.065 C 123.081 97.730 156.781 103.189 183.286 117.235 C 190.554 121.086 198.536 126.019 203.096 133.103 C 204.666 135.541 206.145 139.075 204.285 141.784 C 202.319 144.647 198.060 144.967 194.940 144.856 C 187.431 144.587 180.002 141.737 173.298 138.549 C 147.298 126.183 124.317 103.788 110.532 78.588 C 106.240 70.742 102.189 61.769 101.818 52.680 C 101.674 49.136 102.215 43.810 106.312 42.579 C 109.750 41.546 113.473 43.879 116.036 45.894 C 122.092 50.653 126.574 57.427 130.254 64.095 C 144.243 89.442 150.016 121.239 146.334 149.916 C 145.209 158.684 143.224 168.300 138.101 175.709 C 136.054 178.671 132.409 182.396 128.407 180.787 C 124.962 179.403 123.298 175.208 122.373 171.932 C 120.232 164.340 120.528 156.057 121.450 148.306 C 124.886 119.409 138.718 89.956 158.677 68.791 C 163.424 63.758 182.072 46.293 190.026 53.781 C 193.326 56.889 191.883 62.584 190.538 66.219 C 187.164 75.338 180.481 83.253 173.690 90.030 C 154.098 109.581 127.426 124.312 100.151 129.449 C 92.430 130.903 84.111 131.753 76.353 130.047 C 73.366 129.391 70.039 128.259 67.983 125.849 C 64.428 121.681 68.111 116.712 71.504 113.914 C 78.600 108.064 88.209 105.232 97.042 103.377 C 125.778 97.340 158.568 100.815 185.153 113.414 C 192.177 116.743 199.366 120.928 204.504 126.888 C 206.766 129.513 209.250 133.266 208.349 136.939 C 207.512 140.356 203.900 141.878 200.772 142.442 C 192.265 143.974 182.978 141.155 175.126 138.131 C 147.538 127.506 122.400 105.854 107.039 80.682 C 102.228 72.797 97.653 63.673 97.018 54.290 C 96.754 50.379 97.325 44.915 101.609 43.288 C 105.213 41.920 109.335 43.889 112.314 45.814 C 119.016 50.143 124.227 56.767 128.549 63.361 C 144.836 88.211 152.812 120.633 150.440 150.207 C 149.710 159.310 148.061 169.352 142.979 177.160 C 140.816 180.483 137.057 184.314 132.663 182.922 C 128.876 181.723 126.671 177.583 125.353 174.148 C 122.429 166.530 122.037 157.950 122.383 149.889 C 123.662 120.068 136.039 88.836 155.447 66.170 C 161.318 59.313 168.528 52.175 177.200 49.025 C 180.979 47.653 186.181 47.031 188.787 50.866 C 191.087 54.251 190.392 59.011 189.397 62.696 C 187.223 70.746 182.462 78.085 177.364 84.574 C 158.847 108.144 130.483 126.523 101.304 133.492 C 94.514 135.114 65.041 139.683 65.983 125.846 C 66.659 115.921 83.334 108.893 91.054 106.230 C 120.935 95.922 157.390 97.283 186.543 109.401 C 193.035 112.099 219.326 125.727 209.838 136.320 C 203.024 143.929 185.301 139.910 177.126 137.460 C 148.117 128.765 120.867 108.124 103.846 83.178 C 99.781 77.221 82.788 46.814 98.691 43.916 C 109.009 42.035 121.125 55.679 126.557 62.733 C 145.116 86.835 155.410 119.636 154.534 149.994 C 154.308 157.820 150.960 187.884 137.262 184.687 C 126.198 182.105 123.898 160.294 123.611 151.553 C 122.610 121.025 133.297 88.151 151.936 63.969 C 157.079 57.295 174.456 38.035 184.642 45.426 C 188.791 48.437 188.641 54.627 187.850 59.104 C 186.056 69.265 180.351 78.713 174.283 86.868 C 156.961 110.148 130.854 129.134 102.931 137.352 C 94.913 139.712 86.152 141.403 77.780 140.191 C 74.381 139.700 70.687 138.643 68.182 136.145 C 63.876 131.851 66.433 125.805 69.771 121.828 C 76.057 114.338 85.677 109.703 94.653 106.357 C 123.474 95.614 158.402 94.931 187.440 105.263 C 195.232 108.036 203.269 111.798 209.198 117.721 C 212.011 120.532 214.850 124.466 214.310 128.690 C 213.664 133.737 208.394 136.256 204.009 137.325 C 194.314 139.688 183.634 137.833 174.190 135.254 C 144.431 127.128 115.431 107.333 97.936 81.800 C 92.861 74.393 87.775 65.348 87.604 56.106 C 87.535 52.370 88.580 48.195 92.072 46.226 C 95.824 44.109 100.590 45.231 104.313 46.778 C 112.117 50.021 118.716 56.064 124.292 62.267 C 145.063 85.373 157.758 118.289 158.546 149.291 C 158.631 152.652 158.552 156.045 158.266 159.396 C 158.135 160.932 157.959 162.464 157.731 163.988 C 157.519 165.409 157.261 166.824 156.950 168.226 C 155.381 175.301 150.090 189.561 140.110 185.455 C 136.739 184.069 134.249 181.016 132.413 177.985 C 127.947 170.611 126.076 161.709 125.154 153.243 C 121.779 122.246 130.558 87.899 148.207 62.217 C 153.641 54.310 160.566 46.040 169.492 41.957 C 173.705 40.030 179.274 39.100 182.821 42.843 C 185.931 46.126 186.249 51.251 185.877 55.501 C 185.111 64.256 181.382 72.714 177.100 80.275 C 161.687 107.495 134.494 130.498 104.996 140.969 C 96.059 144.141 85.638 146.759 76.141 144.686 C 71.573 143.689 66.729 140.993 66.224 135.849 C 65.882 132.360 67.506 128.941 69.448 126.159 C 74.203 119.344 81.604 114.446 88.840 110.628 C 117.991 95.242 156.274 91.768 187.836 101.073 C 196.120 103.515 223.743 114.765 215.418 128.009 C 209.444 137.514 190.804 136.520 181.458 135.217 C 150.215 130.861 119.022 113.024 98.542 89.175 C 92.425 82.051 74.681 57.006 87.374 48.475 C 97.604 41.599 114.960 55.500 121.780 62.016 C 144.667 83.884 159.810 116.641 162.411 148.119 C 163.150 157.058 162.281 191.866 145.093 186.482 C 133.934 182.986 128.869 164.818 127.024 154.904 C 121.212 123.686 127.888 88.068 144.329 60.935 C 149.151 52.976 167.409 28.661 179.128 39.159 C 188.593 47.639 180.865 68.727 176.566 77.858 C 163.005 106.667 136.811 131.921 107.455 144.287 C 98.202 148.185 76.829 154.993 68.924 145.005 C 59.112 132.607 84.243 115.175 92.568 110.553 C 120.472 95.061 156.597 89.647 187.736 96.898 C 197.643 99.205 215.623 105.177 218.427 116.688 C 222.328 132.696 192.869 134.170 183.684 133.596 C 150.125 131.496 114.842 113.931 92.823 88.541 C 86.413 81.149 73.453 62.971 81.242 52.843 C 90.934 40.241 115.725 58.784 123.188 65.614 C 145.674 86.193 161.753 116.313 166.069 146.511 C 167.371 155.624 167.709 165.370 165.076 174.295 C 163.941 178.143 162.132 182.117 159.009 184.770 C 148.780 193.461 138.146 178.484 134.301 170.504 C 133.624 169.099 132.998 167.669 132.419 166.221 C 131.154 163.052 130.095 159.771 129.220 156.475 C 120.559 123.847 125.565 84.457 143.009 55.441 C 147.355 48.211 152.892 40.895 160.280 36.537 C 164.023 34.330 168.793 32.796 173.013 34.623 C 182.290 38.640 181.298 52.813 179.868 60.764 C 179.588 62.324 179.252 63.875 178.866 65.412 C 178.455 67.048 177.992 68.672 177.481 70.279 C 167.193 102.640 140.573 132.289 110.259 147.260 C 107.156 148.793 103.944 150.175 100.679 151.327 C 99.182 151.855 97.668 152.335 96.139 152.760 C 87.992 155.023 71.582 157.376 68.538 146.135 C 65.452 134.742 79.446 122.034 87.343 116.178 C 113.399 96.855 149.588 88.350 181.631 92.023 C 192.794 93.302 219.045 98.938 220.209 113.678 C 221.501 130.038 190.706 131.981 180.395 131.540 C 147.981 130.156 113.686 115.503 90.919 92.259 C 83.628 84.814 71.668 69.879 75.888 58.444 C 81.762 42.527 108.018 56.644 116.150 62.346 C 144.129 81.964 165.400 116.107 170.427 149.933 C 171.710 158.564 172.068 167.990 169.123 176.348 C 167.616 180.624 164.889 185.079 160.364 186.622 C 154.816 188.514 149.207 185.126 145.348 181.386 C 137.498 173.780 133.004 162.866 130.042 152.553 C 121.497 122.802 123.666 88.076 136.394 59.806 C 140.212 51.325 145.240 42.817 152.407 36.722 C 155.527 34.069 159.303 31.726 163.458 31.252 C 177.152 29.690 178.508 48.413 177.583 57.711 C 177.424 59.308 177.206 60.900 176.937 62.482 C 176.350 65.933 175.520 69.371 174.519 72.724 C 164.722 105.544 139.335 137.059 108.559 152.420 C 107.021 153.188 105.460 153.909 103.877 154.579 C 102.388 155.209 100.877 155.790 99.348 156.316 C 91.340 159.069 77.297 162.106 71.577 153.368 C 65.836 144.598 74.139 132.754 79.808 126.374 C 80.890 125.156 82.016 123.977 83.179 122.835 C 84.413 121.623 85.688 120.451 86.996 119.319 C 113.049 96.755 151.951 85.230 186.112 88.864 C 189.587 89.234 193.073 89.796 196.477 90.590 C 198.037 90.953 199.586 91.369 201.116 91.841 C 209.576 94.454 224.434 101.579 220.798 112.997 C 217.075 124.690 198.284 128.380 187.969 129.297 C 155.181 132.208 119.292 120.292 93.766 99.769 C 84.784 92.546 65.618 73.546 72.997 60.227 C 81.188 45.442 108.738 59.864 117.850 66.004 C 145.100 84.366 166.975 115.328 173.871 147.587 C 176.089 157.968 178.089 177.123 168.027 184.474 C 158.275 191.598 146.981 179.859 141.876 172.500 C 140.966 171.189 140.106 169.843 139.293 168.470 C 137.517 165.469 135.939 162.317 134.552 159.119 C 120.784 127.379 120.540 86.504 134.572 54.803 C 135.284 53.195 136.045 51.607 136.855 50.046 C 137.620 48.573 138.432 47.125 139.295 45.707 C 143.886 38.166 152.914 26.621 163.282 29.301 C 167.921 30.501 170.918 34.650 172.566 38.905 C 176.347 48.667 175.146 60.147 172.962 70.116 C 165.553 103.931 142.027 137.474 111.986 154.938 C 109.067 156.635 106.018 158.181 102.899 159.478 C 94.452 162.989 78.091 167.215 72.996 156.144 C 72.247 154.516 71.900 152.748 71.846 150.965 C 71.463 138.360 82.302 126.622 90.979 118.853 C 114.407 97.877 147.540 85.486 178.906 85.051 C 182.636 84.999 186.394 85.140 190.107 85.517 C 191.827 85.691 193.544 85.918 195.249 86.203 C 196.854 86.471 198.451 86.793 200.033 87.174 C 208.929 89.317 224.330 95.623 221.611 107.529 C 220.443 112.644 216.138 116.481 211.861 119.122 C 203.681 124.173 193.830 126.371 184.380 127.371 C 151.417 130.859 114.574 120.644 88.505 100.060 C 85.746 97.882 83.084 95.529 80.620 93.020 C 79.491 91.871 78.401 90.683 77.359 89.455 C 71.425 82.467 63.023 68.426 72.450 60.622 C 83.453 51.515 104.693 60.807 114.990 66.694 C 143.776 83.151 167.922 112.887 176.974 144.907 C 179.434 153.610 180.995 163.231 179.058 172.204 C 178.212 176.120 176.557 180.140 173.434 182.799 C 159.944 194.284 142.695 169.706 137.642 160.082 C 121.420 129.185 118.415 88.010 130.448 55.200 C 133.524 46.813 137.875 38.178 144.703 32.197 C 147.683 29.587 151.382 27.403 155.436 27.203 C 167.740 26.595 171.295 42.773 171.810 52.032 C 171.901 53.659 171.929 55.290 171.903 56.918 C 171.845 60.470 171.534 64.044 171.033 67.558 C 166.102 102.109 144.671 137.478 115.617 157.020 C 114.151 158.006 112.655 158.947 111.130 159.838 C 109.692 160.678 108.225 161.471 106.732 162.208 C 98.678 166.188 84.823 170.954 77.492 162.921 C 69.028 153.646 78.124 138.115 84.034 130.229 C 85.085 128.826 86.184 127.458 87.324 126.126 C 110.113 99.476 147.899 82.508 182.793 81.653 C 186.378 81.565 190.000 81.675 193.569 82.033 C 195.210 82.197 196.845 82.417 198.470 82.697 C 208.383 84.407 226.112 91.073 221.232 104.513 C 219.743 108.615 216.494 111.892 213.045 114.423 C 205.257 120.137 195.543 123.085 186.150 124.783 C 154.950 130.421 119.892 123.555 92.837 107.133 C 89.637 105.192 86.518 103.067 83.567 100.764 C 82.200 99.697 80.866 98.587 79.572 97.432 C 72.282 90.928 60.541 77.554 67.367 67.020 C 73.359 57.774 88.094 59.769 96.990 62.109 C 98.628 62.541 100.253 63.031 101.858 63.573 C 103.558 64.147 105.240 64.776 106.901 65.456 C 139.397 78.743 167.935 108.908 179.701 141.949 C 180.883 145.267 181.887 148.684 182.634 152.128 C 182.975 153.704 183.262 155.294 183.487 156.892 C 184.794 166.194 184.140 182.405 171.818 183.905 C 167.675 184.409 163.521 182.908 159.991 180.863 C 151.954 176.207 145.808 168.506 140.969 160.737 C 123.253 132.292 117.535 94.084 125.038 61.535 C 127.221 52.066 130.685 42.369 136.802 34.681 C 140.045 30.604 144.488 26.671 149.866 25.987 C 162.217 24.414 167.116 40.171 168.353 49.531 C 168.567 51.150 168.719 52.778 168.815 54.408 C 169.023 57.964 168.978 61.561 168.734 65.113 C 166.440 98.563 148.935 133.046 123.732 155.070 C 116.499 161.391 108.079 167.168 98.695 169.698 C 93.727 171.037 87.886 171.512 83.256 168.807 C 72.473 162.507 78.027 146.661 82.558 138.308 C 83.347 136.854 84.192 135.429 85.082 134.035 C 87.021 131.000 89.189 128.081 91.491 125.314 C 113.924 98.348 150.963 79.271 186.178 78.135 C 187.944 78.078 189.713 78.076 191.478 78.133 C 201.523 78.460 219.385 81.157 221.460 93.704 C 223.539 106.285 207.525 114.828 198.108 118.537 C 196.455 119.188 194.779 119.784 193.088 120.328 C 159.530 131.113 118.177 125.787 87.946 107.902 C 84.860 106.076 81.850 104.061 79.018 101.860 C 77.717 100.849 76.451 99.793 75.227 98.692 C 67.582 91.808 56.504 76.741 67.955 67.941 C 79.132 59.352 97.556 64.638 109.162 69.189 C 138.812 80.815 165.236 105.159 179.575 133.560 C 181.261 136.899 182.780 140.353 184.059 143.869 C 184.650 145.497 185.190 147.145 185.671 148.809 C 188.410 158.274 191.084 175.781 179.538 180.955 C 174.837 183.062 169.414 181.811 164.969 179.684 C 156.589 175.673 149.881 168.438 144.490 161.043 C 123.734 132.569 115.135 91.720 122.698 57.300 C 123.453 53.866 124.413 50.442 125.609 47.134 C 126.157 45.621 126.758 44.125 127.418 42.657 C 131.324 33.963 140.587 20.853 151.857 26.284 C 155.688 28.130 158.457 31.671 160.409 35.346 C 164.826 43.661 166.038 53.556 166.076 62.839 C 166.215 96.464 151.032 132.175 127.344 155.929 C 120.505 162.788 112.438 169.167 103.180 172.375 C 98.257 174.082 92.404 174.982 87.519 172.627 C 76.210 167.174 80.435 151.017 84.369 142.275 C 85.047 140.768 85.783 139.285 86.568 137.831 C 88.277 134.665 90.225 131.598 92.320 128.674 C 111.896 101.344 144.979 81.038 178.134 75.658 C 187.577 74.125 197.758 73.687 207.006 76.565 C 211.917 78.093 217.071 80.847 219.482 85.635 C 225.140 96.874 211.907 107.499 203.536 112.285 C 202.084 113.115 200.600 113.892 199.093 114.617 C 195.817 116.192 192.408 117.549 188.963 118.704 C 157.108 129.389 118.371 126.758 88.324 111.678 C 79.882 107.441 71.454 101.881 65.790 94.168 C 62.783 90.072 60.353 84.846 61.349 79.640 C 63.720 67.251 80.927 66.574 90.582 67.632 C 92.264 67.817 93.940 68.063 95.605 68.364 C 99.217 69.017 102.808 69.924 106.311 71.015 C 138.362 80.996 168.407 105.597 183.926 135.441 C 184.774 137.072 185.575 138.729 186.321 140.410 C 187.028 142.001 187.685 143.617 188.285 145.252 C 191.709 154.594 195.622 171.942 184.488 178.078 C 173.155 184.323 159.029 172.545 151.789 164.999 C 150.535 163.693 149.324 162.345 148.155 160.963 C 125.379 134.027 114.028 93.805 119.181 58.928 C 119.697 55.432 120.420 51.933 121.386 48.533 C 121.829 46.976 122.327 45.433 122.884 43.914 C 126.500 34.065 136.449 19.092 148.713 26.823 C 159.347 33.526 162.211 49.358 163.080 60.795 C 165.628 94.336 152.895 131.016 130.924 156.358 C 128.507 159.145 125.919 161.823 123.180 164.296 C 121.915 165.438 120.613 166.539 119.272 167.591 C 111.588 173.621 96.541 182.265 87.812 173.126 C 84.175 169.318 83.419 163.652 83.779 158.619 C 84.457 149.146 88.658 140.030 93.556 132.043 C 111.130 103.386 142.760 80.883 175.438 73.203 C 178.994 72.367 182.626 71.721 186.260 71.330 C 187.935 71.150 189.616 71.026 191.299 70.964 C 201.614 70.585 220.797 73.399 219.330 87.810 C 217.925 101.620 201.089 110.622 189.906 115.282 C 160.486 127.542 124.528 127.926 94.558 117.375 C 83.873 113.613 72.771 108.121 65.284 99.354 C 61.967 95.472 59.130 90.421 59.702 85.128 C 61.054 72.600 78.044 70.629 87.731 70.986 C 89.413 71.048 91.094 71.172 92.768 71.352 C 96.400 71.743 100.030 72.389 103.585 73.225 C 136.235 80.902 167.842 103.384 185.400 132.020 C 190.291 139.997 194.486 149.103 195.161 158.564 C 195.460 162.761 195.002 167.276 192.751 170.936 C 185.174 183.257 167.803 173.870 159.700 167.508 C 158.361 166.458 157.060 165.358 155.797 164.217 C 153.062 161.747 150.477 159.073 148.063 156.288 C 126.130 130.986 113.414 94.365 115.962 60.878 C 116.662 51.678 118.578 41.941 123.590 34.035 C 125.808 30.536 128.836 27.245 132.789 25.728 C 144.476 21.243 152.787 35.077 156.080 44.052 C 156.636 45.569 157.133 47.108 157.574 48.662 C 158.538 52.056 159.259 55.548 159.774 59.037 C 164.911 93.830 153.592 133.957 130.867 160.827 C 124.995 167.771 117.812 174.467 109.198 177.799 C 105.393 179.271 101.061 180.073 97.059 178.891 C 85.050 175.344 86.714 158.998 89.340 149.801 C 89.788 148.230 90.298 146.675 90.861 145.141 C 92.087 141.797 93.565 138.517 95.208 135.358 C 110.681 105.611 140.627 81.085 172.578 71.138 C 181.772 68.276 191.831 66.405 201.458 67.899 C 206.579 68.694 212.134 70.642 215.310 75.004 C 222.684 85.130 211.390 97.439 203.840 103.338 C 202.538 104.355 201.197 105.323 199.826 106.244 C 196.841 108.247 193.692 110.053 190.481 111.664 C 160.552 126.681 121.969 129.305 90.241 118.660 C 81.237 115.639 72.083 111.312 65.306 104.490 C 61.707 100.869 58.477 96.054 58.612 90.734 C 58.930 78.205 75.586 75.022 85.193 74.695 C 86.862 74.639 88.534 74.644 90.202 74.705 C 93.826 74.838 97.466 75.226 101.045 75.807 C 134.040 81.164 166.967 101.370 186.448 128.572 C 191.899 136.185 196.734 144.958 198.125 154.344 C 198.741 158.505 198.640 163.042 196.696 166.871 C 190.182 179.703 172.349 171.696 163.883 165.966 C 162.486 165.020 161.123 164.023 159.795 162.983 C 156.915 160.727 154.172 158.259 151.590 155.670 C 128.037 132.047 112.935 96.535 113.076 63.097 C 113.115 53.870 114.321 44.035 118.713 35.771 C 120.654 32.119 123.408 28.601 127.217 26.768 C 138.422 21.376 147.627 34.414 151.508 43.057 C 152.164 44.517 152.761 46.003 153.305 47.508 C 153.885 49.110 154.407 50.734 154.876 52.372 C 155.890 55.917 156.672 59.553 157.253 63.193 C 162.492 96.058 154.224 133.703 134.542 160.697 C 129.187 168.041 122.524 175.227 114.200 179.208 C 110.530 180.963 106.285 182.109 102.211 181.263 C 90.044 178.736 90.516 162.488 92.469 153.232 C 92.803 151.650 93.199 150.079 93.649 148.526 C 94.630 145.136 95.866 141.792 97.273 138.557 C 111.208 106.519 141.634 78.412 174.911 67.572 C 183.420 64.800 192.921 62.901 201.851 64.623 C 205.780 65.381 209.798 66.988 212.474 70.089 C 220.587 79.491 210.307 92.436 203.277 98.763 C 202.063 99.857 200.805 100.905 199.515 101.907 C 196.704 104.092 193.716 106.091 190.654 107.903 C 161.991 124.857 123.913 130.055 91.695 121.772 C 82.515 119.412 73.101 115.774 65.837 109.508 C 61.991 106.192 58.391 101.670 58.088 96.385 C 57.378 83.995 73.602 79.696 83.022 78.720 C 84.665 78.550 86.314 78.441 87.965 78.388 C 91.553 78.272 95.174 78.407 98.747 78.737 C 131.838 81.794 165.825 99.602 187.083 125.160 C 193.055 132.340 198.497 140.704 200.604 149.926 C 201.536 154.005 201.800 158.516 200.187 162.472 C 194.805 175.675 176.661 169.015 167.950 163.955 C 166.508 163.118 165.096 162.227 163.715 161.292 C 160.720 159.261 157.844 157.010 155.120 154.630 C 130.160 132.814 112.817 98.660 110.549 65.527 C 109.920 56.352 110.397 46.500 114.118 37.949 C 115.757 34.181 118.201 30.471 121.822 28.343 C 132.426 22.109 142.394 34.311 146.791 42.538 C 147.536 43.931 148.225 45.355 148.862 46.800 C 149.542 48.340 150.166 49.906 150.739 51.489 C 151.980 54.918 152.997 58.454 153.815 62.006 C 161.238 94.220 155.583 132.035 138.046 160.185 C 133.259 167.870 127.177 175.488 119.226 180.092 C 115.734 182.114 111.625 183.597 107.527 183.096 C 95.338 181.604 94.697 165.563 95.991 156.361 C 96.213 154.780 96.497 153.207 96.836 151.647 C 97.575 148.240 98.569 144.860 99.738 141.578 C 111.377 108.906 139.594 79.072 171.732 65.934 C 179.978 62.564 189.256 59.978 198.249 60.983 C 202.189 61.423 206.295 62.679 209.193 65.521 C 217.945 74.105 208.677 87.553 202.222 94.210 C 201.099 95.367 199.932 96.482 198.729 97.555 C 196.105 99.895 193.294 102.065 190.398 104.055 C 163.168 122.762 125.869 130.450 93.411 124.581 C 84.133 122.903 74.539 119.991 66.848 114.345 C 62.798 111.372 58.860 107.199 58.127 102.010 C 56.415 89.892 72.132 84.586 81.264 83.012 C 82.869 82.735 84.484 82.519 86.104 82.356 C 89.630 82.004 93.207 81.896 96.748 81.983 C 129.692 82.792 164.465 98.115 187.327 121.842 C 193.768 128.528 199.774 136.407 202.585 145.378 C 203.823 149.331 204.455 153.765 203.190 157.801 C 198.985 171.228 180.668 165.858 171.834 161.491 C 170.361 160.763 168.913 159.980 167.494 159.151 C 164.411 157.350 161.430 155.324 158.590 153.161 C 132.451 133.249 113.042 100.681 108.396 68.109 C 107.106 59.063 106.847 49.280 109.855 40.522 C 111.175 36.680 113.278 32.816 116.669 30.421 C 126.565 23.429 137.167 34.778 141.992 42.516 C 142.815 43.835 143.585 45.188 144.306 46.566 C 145.075 48.036 145.792 49.534 146.459 51.052 C 147.905 54.346 149.140 57.759 150.180 61.202 C 159.656 92.555 156.601 130.254 141.331 159.332 C 137.152 167.290 131.708 175.275 124.208 180.461 C 120.932 182.726 117.007 184.532 112.935 184.377 C 100.859 183.918 99.200 168.172 99.865 159.131 C 99.980 157.565 100.157 156.002 100.388 154.449 C 100.892 151.051 101.648 147.663 102.582 144.359 C 111.928 111.312 137.778 80.015 168.534 64.704 C 176.445 60.765 185.417 57.515 194.387 57.789 C 198.291 57.909 202.438 58.798 205.518 61.351 C 214.796 69.039 206.517 82.865 200.673 89.744 C 199.647 90.953 198.573 92.123 197.462 93.254 C 195.036 95.724 192.414 98.040 189.698 100.184 C 164.039 120.440 127.779 130.497 95.336 127.062 C 86.039 126.077 76.347 123.914 68.302 118.943 C 64.096 116.345 59.862 112.569 58.716 107.536 C 56.049 95.822 71.205 89.621 79.957 87.515 C 81.514 87.141 83.085 86.824 84.664 86.560 C 88.105 85.986 91.612 85.649 95.096 85.504 C 127.664 84.152 162.942 96.940 187.209 118.671 C 194.062 124.808 200.577 132.135 204.066 140.770 C 205.594 144.552 206.586 148.859 205.680 152.926 C 202.675 166.424 184.304 162.267 175.473 158.595 C 173.982 157.975 172.512 157.299 171.067 156.577 C 167.923 155.006 164.865 153.208 161.936 151.268 C 134.853 133.323 113.580 102.542 106.625 70.780 C 104.689 61.942 103.699 52.315 105.966 43.433 C 106.954 39.563 108.694 35.592 111.819 32.962 C 120.913 25.309 132.022 35.814 137.179 43.005 C 138.068 44.245 138.908 45.521 139.701 46.825 C 140.548 48.217 141.346 49.640 142.097 51.086 C 143.728 54.227 145.158 57.500 146.401 60.812 C 157.777 91.119 157.270 128.421 144.357 158.183 C 140.006 168.213 132.561 181.809 120.938 184.719 C 107.595 188.060 103.955 171.125 104.045 161.494 C 104.059 159.954 104.134 158.413 104.262 156.877 C 104.398 155.240 104.592 153.606 104.837 151.981 C 105.368 148.458 106.135 144.947 107.076 141.512 C 115.177 111.936 135.308 83.937 160.737 66.805 C 170.528 60.209 184.327 52.707 196.642 55.542 C 204.467 57.344 207.370 64.360 205.576 71.761 C 203.617 79.846 198.066 86.915 192.346 92.722 C 172.014 113.362 143.205 124.256 115.033 128.356" />
</svg>
