<svg xmlns="http://www.w3.org/2000/svg" viewBox="0 0 279 216">
<path d="M 144.321 108.000 C 143.425 109.269 143.274 109.920 141.697 110.440 C 137.849 111.707 132.874 109.128 134.578 104.553 C 135.867 101.091 140.333 99.999 143.072 102.500 C 144.917 104.185 144.754 105.814 144.321 108.000 Z" />
<path d="M 149.143 108.000 C 147.395 110.597 147.146 111.856 144.006 113.005 C 136.293 115.826 126.531 110.431 129.691 101.384 C 132.120 94.431 141.104 92.262 146.539 97.160 C 150.197 100.457 149.923 103.670 149.143 108.000 Z" />
<path d="M 153.965 108.000 C 150.348 113.814 147.775 116.849 140.298 117.116 C 130.453 117.466 121.364 109.183 124.838 98.838 C 128.291 88.555 141.243 84.879 149.562 91.898 C 155.230 96.680 154.885 101.441 153.965 108.000 Z" />
<path d="M 158.801 108.000 C 154.437 115.707 151.333 120.347 141.557 120.990 C 128.356 121.859 116.003 111.148 120.034 97.210 C 123.970 83.602 141.034 77.974 152.171 86.912 C 159.874 93.094 159.703 99.185 158.801 108.000 Z" />
<path d="M 163.699 108.000 C 160.189 115.158 159.812 118.828 152.428 122.871 C 135.018 132.405 110.448 117.673 115.205 97.183 C 119.177 80.074 139.375 71.786 153.935 81.958 C 164.049 89.025 164.193 96.990 163.699 108.000 Z" />
<path d="M 168.724 108.000 C 165.494 116.192 165.004 121.339 157.436 126.573 C 139.550 138.945 107.013 124.109 110.129 100.130 C 112.767 79.838 135.567 65.607 154.112 76.665 C 167.352 84.560 168.563 94.156 168.724 108.000 Z" />
<path d="M 173.926 108.000 C 170.724 119.121 168.127 130.628 155.586 134.772 C 135.440 141.428 103.975 127.893 105.080 103.774 C 106.164 80.132 132.627 60.394 154.683 72.232 C 170.680 80.819 172.686 91.799 173.926 108.000 Z" />
<path d="M 179.315 108.000 C 176.637 120.704 174.859 134.348 161.186 140.152 C 140.202 149.059 99.383 132.208 99.931 105.926 C 100.452 80.972 130.541 55.131 155.537 68.307 C 173.094 77.563 176.691 90.108 179.315 108.000 Z" />
<path d="M 184.866 108.000 C 182.775 122.164 181.620 138.303 166.824 145.609 C 145.491 156.143 95.612 137.077 94.548 108.000 C 94.378 103.370 96.141 98.701 98.356 94.632 C 109.452 74.255 129.918 50.831 155.491 64.065 C 174.963 74.142 180.729 88.097 184.866 108.000 Z" />
<path d="M 190.528 108.000 C 188.755 123.537 188.103 142.588 171.912 151.012 C 158.365 158.061 144.629 152.758 130.864 148.631 C 111.896 142.943 90.189 131.960 89.003 108.881 C 88.765 104.245 90.627 99.530 92.999 95.540 C 105.747 74.100 127.427 45.008 156.005 60.066 C 176.805 71.026 184.863 86.650 190.528 108.000 Z" />
<path d="M 196.229 108.000 C 194.335 126.274 193.666 146.827 174.951 156.794 C 161.137 164.150 144.732 158.102 131.394 153.971 C 110.100 147.375 85.352 134.741 83.363 108.980 C 82.005 91.390 118.043 50.077 139.500 50.765 C 161.305 51.464 181.472 73.900 191.144 91.220 C 193.994 96.323 194.534 102.407 196.229 108.000 Z" />
<path d="M 201.897 108.000 C 199.795 127.706 198.517 150.690 178.309 161.416 C 148.326 177.331 80.933 145.325 77.703 109.079 C 76.133 91.457 115.897 45.082 138.411 45.605 C 162.266 46.160 184.886 72.513 195.999 90.727 C 199.168 95.920 199.931 102.242 201.897 108.000 Z" />
<path d="M 207.464 108.000 C 204.760 129.659 202.052 154.355 179.989 165.825 C 146.018 183.484 75.843 148.337 72.091 109.177 C 70.237 89.823 113.247 39.467 138.316 40.195 C 164.166 40.945 189.352 72.084 201.596 91.361 C 204.750 96.326 205.508 102.454 207.464 108.000 Z" />
<path d="M 212.872 108.000 C 209.199 132.180 204.306 157.797 179.886 170.189 C 141.115 189.865 71.073 150.504 66.579 108.000 C 64.359 87.001 110.604 33.863 138.221 34.741 C 165.847 35.620 193.491 71.013 206.724 91.239 C 209.982 96.219 210.823 102.413 212.872 108.000 Z" />
<path d="M 213.422 108.000 C 209.570 132.690 204.179 158.959 178.910 171.070 C 140.137 189.653 69.744 150.611 66.016 108.000 C 65.642 103.726 67.587 99.346 69.891 95.726 C 79.576 80.510 89.701 65.421 101.692 51.948 C 144.140 4.255 198.739 68.268 213.422 108.000 Z" />
<path d="M 213.970 108.000 C 209.993 132.832 204.411 159.106 179.102 171.377 C 139.885 190.391 69.323 151.072 65.454 108.000 C 65.067 103.695 67.035 99.281 69.351 95.631 C 79.094 80.273 89.251 65.016 101.343 51.429 C 144.069 3.418 199.147 68.183 213.970 108.000 Z" />
<path d="M 214.515 108.000 C 210.454 132.711 204.701 159.621 179.291 171.678 C 139.320 190.644 68.946 151.957 64.895 108.000 C 62.851 85.831 109.457 31.989 138.192 33.070 C 170.153 34.272 204.516 81.326 214.515 108.000 Z" />
<path d="M 215.058 108.000 C 210.870 132.851 204.919 159.752 179.476 171.974 C 139.050 191.393 68.537 152.436 64.338 108.000 C 62.215 85.536 109.114 31.370 138.182 32.517 C 170.350 33.787 204.929 81.163 215.058 108.000 Z" />
<path d="M 215.599 108.000 C 211.166 133.659 204.774 160.454 178.462 172.844 C 137.897 191.947 68.045 152.032 63.782 108.000 C 61.578 85.232 108.766 30.753 138.173 31.967 C 170.124 33.286 205.934 81.198 215.599 108.000 Z" />
</svg>
