<svg xmlns="http://www.w3.org/2000/svg" viewBox="0 0 279 216">
<path d="M 98.093 139.430 L 98.752 140.285 L 99.386 141.076 L 99.939 141.727 L 100.358 142.174 L 100.599 142.358 L 100.625 142.236 L 100.412 141.780 L 99.947 140.975 L 99.232 139.830 L 98.282 138.367 L 97.125 136.629 L 95.804 134.675 L 94.371 132.576 L 92.890 130.419 L 91.431 128.295 L 90.066 126.303 L 88.873 124.541 L 87.923 123.104 L 87.287 122.080" />
<path d="M 87.023 121.544 L 87.182 121.556 L 87.798 122.158 L 88.892 123.369 L 90.466 125.187 L 92.504 127.585 L 94.972 130.513 L 97.818 133.896 L 100.973 137.638 L 104.354 141.626 L 107.864 145.729 L 111.396 149.807 L 114.840 153.712 L 118.081 157.294 L 121.007 160.409 L 123.512 162.921 L 125.499 164.707" />
<path d="M 126.886 165.666 L 127.607 165.720 L 127.617 164.816 L 126.893 162.934 L 125.437 160.083 L 123.274 156.309 L 120.454 151.685 L 117.054 146.319 L 113.169 140.345 L 108.916 133.922 L 104.428 127.231 L 99.850 120.465 L 95.335 113.827 L 91.039 107.522 L 87.118 101.750 L 83.717 96.701 L 80.972 92.546 L 79.000 89.433 L 77.899 87.480" />
<path d="M 77.741 86.771 L 78.568 87.353 L 80.396 89.234 L 83.207 92.378 L 86.952 96.712 L 91.553 102.120 L 96.901 108.450 L 102.864 115.521 L 109.286 123.119 L 115.995 131.013 L 122.803 138.955 L 129.520 146.694 L 135.953 153.976 L 141.913 160.559 L 147.225 166.218 L 151.729 170.751 L 155.289 173.988 L 157.795 175.797" />
<path d="M 159.169 176.088 L 159.365 174.815 L 158.376 171.980 L 156.227 167.634 L 152.985 161.875 L 148.746 154.846 L 143.642 146.728 L 137.833 137.743 L 131.500 128.138 L 124.845 118.184 L 118.083 108.164 L 111.432 98.369 L 105.110 89.084 L 99.330 80.581 L 94.285 73.112 L 90.153 66.899 L 87.083 62.127 L 85.193 58.940 L 84.566 57.433" />
<path d="M 85.249 57.651 L 87.246 59.587 L 90.525 63.183 L 95.011 68.327 L 100.595 74.860 L 107.133 82.583 L 114.450 91.255 L 122.348 100.607 L 130.610 110.350 L 139.008 120.180 L 147.307 129.788 L 155.276 138.874 L 162.694 147.150 L 169.354 154.354 L 175.074 160.254 L 179.698 164.660 L 183.105 167.424 L 185.209 168.450" />
<path d="M 185.965 167.693 L 185.369 165.162 L 183.455 160.922 L 180.301 155.087 L 176.020 147.821 L 170.759 139.330 L 164.695 129.856 L 158.029 119.673 L 150.979 109.074 L 143.774 98.362 L 136.648 87.845 L 129.830 77.824 L 123.539 68.581 L 117.978 60.375 L 113.327 53.434 L 109.734 47.943 L 107.319 44.044 L 106.163 41.830" />
<path d="M 106.307 41.342 L 107.755 42.569 L 110.469 45.447 L 114.375 49.865 L 119.363 55.663 L 125.290 62.643 L 131.986 70.574 L 139.260 79.195 L 146.906 88.230 L 154.706 97.392 L 162.443 106.394 L 169.903 114.957 L 176.881 122.818 L 183.191 129.739 L 188.671 135.515 L 193.182 139.977 L 196.621 142.998 L 198.915 144.499 L 200.028 144.446" />
<path d="M 199.963 142.854 L 198.754 139.785 L 196.473 135.344 L 193.221 129.677 L 189.129 122.966 L 184.349 115.420 L 179.051 107.270 L 173.421 98.761 L 167.646 90.147 L 161.919 81.677 L 156.422 73.593 L 151.332 66.118 L 146.804 59.454 L 142.976 53.771 L 139.958 49.207 L 137.835 45.863 L 136.660 43.798 L 136.458 43.031" />
<path d="M 137.220 43.541 L 138.908 45.268 L 141.458 48.116 L 144.778 51.955 L 148.756 56.631 L 153.263 61.966 L 158.155 67.769 L 163.282 73.837 L 168.490 79.969 L 173.628 85.966 L 178.551 91.641 L 183.126 96.823 L 187.236 101.363 L 190.782 105.138 L 193.685 108.054 L 195.893 110.048 L 197.374 111.090 L 198.124 111.182 L 198.161 110.356" />
<path d="M 197.525 108.674 L 196.277 106.222 L 194.495 103.111 L 192.271 99.466 L 189.707 95.425 L 186.913 91.134 L 183.998 86.741 L 181.072 82.389 L 178.240 78.213 L 175.596 74.336 L 173.225 70.863 L 171.194 67.880 L 169.556 65.452 L 168.347 63.617 L 167.583 62.394 L 167.264 61.774 L 167.372 61.729" />
<path d="M 167.874 62.211 L 168.723 63.152 L 169.861 64.474 L 171.222 66.086 L 172.734 67.893 L 174.325 69.797 L 175.921 71.704 L 177.456 73.526 L 178.867 75.184 L 180.103 76.613 L 181.122 77.762 L 181.898 78.598 L 182.415 79.106 L 182.672 79.290 L 182.682 79.169 L 182.470 78.781 L 182.072 78.176 L 181.534 77.416 L 180.907 76.570" />
</svg>
