<svg xmlns="http://www.w3.org/2000/svg" viewBox="0 0 279 216">
<path d="M 31.950 83.501 C 33.671 88.388 45.716 132.372 49.158 132.372 C 52.600 132.372 64.645 88.388 66.366 83.501" />
<path d="M 77.035 118.606 C 77.553 118.629 78.860 118.677 80.143 118.749 C 81.427 118.820 83.126 118.952 84.736 119.035 C 86.346 119.119 88.204 119.226 89.805 119.250 C 91.406 119.274 93.086 119.286 94.342 119.178 C 95.598 119.071 96.635 118.913 97.340 118.606 C 98.046 118.298 98.345 117.850 98.574 117.334 C 98.803 116.817 98.793 116.158 98.714 115.505 C 98.635 114.853 98.374 114.108 98.100 113.418 C 97.826 112.729 97.427 111.997 97.071 111.370 C 96.714 110.743 96.366 110.193 95.964 109.657 C 95.562 109.122 95.164 108.656 94.659 108.160 C 94.153 107.663 93.546 107.139 92.930 106.678 C 92.313 106.218 91.626 105.760 90.958 105.395 C 90.291 105.031 89.583 104.700 88.926 104.492 C 88.269 104.285 87.653 104.150 87.016 104.151 C 86.379 104.152 85.762 104.288 85.105 104.498 C 84.448 104.708 83.740 105.044 83.073 105.412 C 82.406 105.779 81.718 106.242 81.102 106.703 C 80.485 107.165 79.878 107.689 79.372 108.182 C 78.867 108.674 78.421 109.157 78.067 109.657 C 77.714 110.158 77.463 110.646 77.252 111.186 C 77.042 111.725 76.910 112.308 76.806 112.893 C 76.703 113.478 76.661 114.093 76.630 114.696 C 76.600 115.299 76.615 115.919 76.625 116.513 C 76.635 117.107 76.666 117.685 76.691 118.261 C 76.716 118.838 76.732 119.400 76.773 119.974 C 76.815 120.548 76.856 121.134 76.939 121.706 C 77.021 122.278 77.118 122.853 77.269 123.407 C 77.420 123.961 77.599 124.510 77.847 125.029 C 78.095 125.548 78.381 126.023 78.756 126.521 C 79.130 127.019 79.585 127.512 80.094 128.016 C 80.602 128.521 81.198 129.064 81.806 129.547 C 82.415 130.030 83.086 130.520 83.745 130.916 C 84.404 131.312 85.100 131.681 85.760 131.923 C 86.420 132.166 87.040 132.357 87.704 132.372 C 88.367 132.387 89.030 132.246 89.741 132.014 C 90.453 131.782 91.237 131.376 91.972 130.982 C 92.706 130.587 93.472 130.080 94.147 129.646 C 94.821 129.213 95.487 128.729 96.019 128.380 C 96.551 128.031 97.120 127.691 97.340 127.554" />
<path d="M 128.225 127.021 C 127.812 127.459 126.661 128.915 125.749 129.645 C 124.837 130.376 123.802 130.984 122.753 131.406 C 121.704 131.827 120.565 132.091 119.456 132.172 C 118.348 132.252 117.189 132.154 116.102 131.888 C 115.016 131.622 113.922 131.168 112.938 130.575 C 111.954 129.981 111.007 129.205 110.197 128.329 C 109.387 127.452 108.656 126.411 108.081 125.316 C 107.505 124.221 107.044 122.991 106.745 121.758 C 106.446 120.525 106.289 119.198 106.289 117.917 C 106.289 116.637 106.446 115.310 106.745 114.076 C 107.044 112.843 107.505 111.614 108.081 110.519 C 108.656 109.423 109.387 108.382 110.197 107.506 C 111.007 106.629 111.954 105.853 112.938 105.260 C 113.922 104.667 115.016 104.213 116.102 103.947 C 117.189 103.681 118.348 103.582 119.456 103.663 C 120.565 103.743 121.704 104.008 122.753 104.429 C 123.802 104.850 124.837 105.458 125.749 106.189 C 126.661 106.920 127.812 108.376 128.225 108.813" />
<path d="M 135.886 106.216 L 151.029 106.216" />
<path d="M 142.770 89.696 C 142.770 93.207 142.081 120.602 142.770 124.801 C 143.458 128.999 148.964 130.995 149.653 131.684" />
<path d="M 162.731 104.151 C 162.731 107.019 162.731 118.491 162.731 121.359 C 162.731 124.227 162.672 120.914 162.731 121.359 C 162.789 121.804 162.852 123.171 163.083 124.031 C 163.313 124.892 163.669 125.750 164.114 126.521 C 164.559 127.293 165.125 128.030 165.755 128.660 C 166.385 129.290 167.122 129.855 167.893 130.300 C 168.665 130.746 169.523 131.101 170.383 131.332 C 171.244 131.562 172.165 131.684 173.056 131.684 C 173.946 131.684 174.867 131.562 175.728 131.332 C 176.588 131.101 177.447 130.746 178.218 130.300 C 178.989 129.855 179.726 129.290 180.356 128.660 C 180.986 128.030 181.552 127.293 181.997 126.521 C 182.443 125.750 182.798 124.892 183.029 124.031 C 183.259 123.171 183.322 121.804 183.380 121.359" />
<path d="M 183.380 104.151 L 183.380 131.684" />
<path d="M 197.147 104.151 L 197.147 131.684" />
<path d="M 197.147 111.722 C 197.301 111.504 197.699 110.948 198.072 110.410 C 198.445 109.873 198.903 109.138 199.384 108.496 C 199.864 107.854 200.409 107.112 200.954 106.560 C 201.499 106.008 202.026 105.513 202.653 105.183 C 203.281 104.854 203.973 104.709 204.718 104.584 C 205.464 104.458 206.353 104.448 207.127 104.431 C 207.902 104.414 208.734 104.471 209.364 104.482 C 209.995 104.492 210.655 104.493 210.913 104.495" />
<path d="M 242.576 113.099 C 242.360 112.949 241.804 112.574 241.279 112.196 C 240.755 111.818 240.092 111.302 239.429 110.830 C 238.765 110.359 238.010 109.810 237.298 109.366 C 236.586 108.921 235.828 108.461 235.159 108.165 C 234.490 107.870 233.867 107.662 233.284 107.593 C 232.700 107.523 232.188 107.615 231.656 107.747 C 231.125 107.879 230.601 108.117 230.095 108.385 C 229.590 108.654 229.096 109.004 228.625 109.360 C 228.154 109.716 227.699 110.128 227.270 110.522 C 226.842 110.916 226.442 111.308 226.056 111.722 C 225.670 112.137 225.306 112.550 224.955 113.011 C 224.604 113.472 224.262 113.976 223.950 114.487 C 223.638 114.997 223.342 115.539 223.083 116.075 C 222.823 116.611 222.587 117.166 222.394 117.703 C 222.202 118.239 222.049 118.761 221.926 119.294 C 221.803 119.827 221.718 120.354 221.656 120.899 C 221.595 121.445 221.556 122.013 221.557 122.568 C 221.558 123.122 221.588 123.687 221.662 124.225 C 221.736 124.763 221.845 125.300 222.003 125.797 C 222.162 126.295 222.353 126.754 222.615 127.210 C 222.876 127.666 223.199 128.099 223.573 128.534 C 223.946 128.969 224.393 129.415 224.856 129.820 C 225.318 130.224 225.835 130.622 226.348 130.960 C 226.861 131.297 227.409 131.611 227.934 131.846 C 228.459 132.082 228.967 132.263 229.498 132.372 C 230.028 132.481 230.555 132.511 231.117 132.499 C 231.678 132.486 232.281 132.410 232.868 132.298 C 233.454 132.186 234.063 132.019 234.635 131.827 C 235.208 131.635 235.784 131.397 236.304 131.144 C 236.824 130.891 237.305 130.643 237.758 130.307 C 238.210 129.971 238.618 129.585 239.019 129.129 C 239.420 128.673 239.807 128.106 240.164 127.570 C 240.521 127.034 240.859 126.435 241.161 125.913 C 241.463 125.391 241.740 124.852 241.976 124.437 C 242.212 124.022 242.476 123.593 242.576 123.424" />
<path d="M 242.576 104.151 C 242.576 106.560 242.129 125.420 242.576 128.242 C 243.023 131.064 246.603 131.959 247.050 132.372" />
</svg>
