<svg xmlns="http://www.w3.org/2000/svg" width="900" height="600" viewBox="0 0 900 600">
  <rect width="100%" height="100%" fill="#0b0b0d" />
  <g stroke="#f5f5f5" stroke-width="0.9" fill="none" stroke-linecap="round">
    <path d="M 450 120 C 520 140, 590 200, 600 260 C 610 330, 560 390, 490 410 C 420 430, 350 400, 320 340 C 290 280, 310 200, 370 160 C 410 130, 440 120, 450 120" />
    <path d="M 470 140 C 540 160, 600 220, 610 280 C 620 350, 570 410, 500 430 C 430 450, 350 420, 320 360 C 290 300, 310 220, 370 180 C 410 150, 450 140, 470 140" />
    <path d="M 430 160 C 500 180, 560 240, 570 300 C 580 370, 530 430, 460 450 C 390 470, 320 440, 290 380 C 260 320, 280 240, 340 200 C 380 170, 410 160, 430 160" />
    <path d="M 450 180 C 520 200, 580 260, 590 320 C 600 390, 550 450, 480 470 C 410 490, 340 460, 310 400 C 280 340, 300 260, 360 220 C 400 190, 430 180, 450 180" />
    <path d="M 470 200 C 540 220, 600 280, 610 340 C 620 410, 570 470, 500 490 C 430 510, 350 480, 320 420 C 290 360, 310 280, 370 240 C 410 210, 450 200, 470 200" />
  </g>
</svg>
