<svg xmlns="http://www.w3.org/2000/svg" width="900" height="600" viewBox="0 0 900 600">
  <rect width="100%" height="100%" fill="#0b0b0d" />
  <g stroke="#f5f5f5" stroke-width="1" fill="none" stroke-linecap="round">
    <path d="M 120 120 L 160 140 L 210 150 L 260 170 L 320 190 L 380 210 L 450 230 L 520 260" />
    <path d="M 140 160 L 190 170 L 240 185 L 300 200 L 360 225 L 430 250 L 500 280 L 580 320" />
    <path d="M 110 200 L 150 210 L 200 230 L 260 250 L 330 280 L 390 300 L 460 330 L 520 360" />
    <path d="M 160 240 L 210 260 L 270 280 L 340 300 L 410 330 L 480 360 L 550 390 L 620 430" />
    <path d="M 200 120 L 250 130 L 310 150 L 370 170 L 440 190 L 510 220 L 580 250 L 650 290" />
    <path d="M 240 160 L 290 175 L 350 195 L 420 220 L 490 250 L 560 280 L 630 310 L 700 350" />
    <path d="M 220 300 L 270 310 L 330 330 L 400 350 L 470 380 L 540 410 L 610 440 L 680 480" />
    <path d="M 180 360 L 230 370 L 290 390 L 360 410 L 430 440 L 500 470 L 570 500 L 640 540" />
    <path d="M 120 320 L 170 330 L 230 350 L 300 370 L 370 400 L 440 430 L 510 460 L 580 500" />
    <path d="M 100 260 L 150 270 L 210 290 L 280 310 L 350 340 L 420 370 L 490 400 L 560 440" />
  </g>
</svg>
