<svg xmlns="http://www.w3.org/2000/svg" width="900" height="600" viewBox="0 0 900 600">
  <rect width="100%" height="100%" fill="#0b0b0d" />
  <g stroke="#f5f5f5" stroke-width="1" fill="none" stroke-linecap="round">
    <path d="M 40 520 C 140 430, 240 520, 340 420 S 540 380, 640 300 S 760 160, 860 120" />
    <path d="M 40 470 C 140 380, 250 460, 350 360 S 540 320, 640 240 S 760 140, 860 80" />
    <path d="M 40 420 C 130 330, 240 400, 340 310 S 540 260, 640 200 S 760 120, 860 60" />
    <path d="M 40 370 C 120 300, 230 350, 330 280 S 520 220, 620 170 S 740 110, 860 40" />
    <path d="M 60 540 C 160 470, 260 520, 360 450 S 540 420, 640 340 S 760 220, 860 180" />
    <path d="M 60 490 C 160 420, 270 470, 370 400 S 550 360, 650 280 S 770 200, 860 140" />
    <path d="M 60 440 C 150 370, 260 410, 360 340 S 550 300, 650 230 S 770 160, 860 100" />
    <path d="M 60 390 C 140 330, 250 360, 350 300 S 540 250, 640 200 S 760 140, 860 80" />
    <path d="M 80 560 C 190 510, 300 550, 410 490 S 590 440, 690 360 S 800 260, 870 230" />
    <path d="M 80 510 C 190 460, 300 500, 410 440 S 590 400, 690 320 S 800 240, 870 200" />
  </g>
</svg>
